<svg id="svg" version="1.1" xmlns="http://www.w3.org/2000/svg" xmlns:xlink="http://www.w3.org/1999/xlink" width="400" height="107.33229329173167" viewBox="0, 0, 400,107.33229329173167"><g id="svgg"><path id="path0" d="M0.833 22.417 L 0.833 43.167 3.736 43.167 C 5.333 43.167,6.758 43.212,6.903 43.268 C 7.307 43.423,7.307 77.744,6.903 77.899 C 6.758 77.954,5.333 78.000,3.735 78.000 L 0.831 78.000 0.874 91.958 L 0.917 105.917 9.625 105.960 L 18.333 106.003 18.333 53.835 L 18.333 1.667 9.583 1.667 L 0.833 1.667 0.833 22.417 M23.226 14.958 C 23.287 22.269,23.404 45.677,23.487 66.977 C 23.573 89.233,23.700 105.766,23.785 105.852 C 24.132 106.198,379.362 105.949,379.565 105.602 C 379.667 105.428,380.012 104.968,380.333 104.578 C 380.654 104.188,381.254 103.440,381.667 102.917 C 382.079 102.393,382.679 101.638,383.000 101.238 C 383.321 100.838,383.883 100.126,384.250 99.657 C 384.617 99.187,385.179 98.482,385.500 98.090 C 385.821 97.698,386.383 96.985,386.750 96.505 C 387.117 96.026,387.604 95.422,387.833 95.164 C 388.850 94.019,389.667 93.012,389.667 92.904 C 389.667 92.840,389.948 92.471,390.292 92.084 C 390.635 91.698,391.254 90.951,391.667 90.426 C 394.270 87.107,394.849 86.379,395.917 85.081 C 396.467 84.413,397.348 83.325,397.875 82.665 L 398.833 81.464 398.833 41.565 L 398.833 1.667 210.974 1.667 L 23.115 1.667 23.226 14.958 M395.125 42.747 L 395.167 79.911 394.637 80.664 C 394.345 81.078,393.876 81.684,393.595 82.010 C 393.313 82.337,392.858 82.898,392.583 83.257 C 392.308 83.616,391.856 84.173,391.578 84.496 C 391.053 85.105,390.340 86.016,389.730 86.858 C 389.535 87.126,389.104 87.639,388.771 87.999 C 388.439 88.358,388.167 88.716,388.167 88.793 C 388.167 88.871,387.904 89.189,387.583 89.500 C 387.262 89.811,387.000 90.148,387.000 90.249 C 387.000 90.350,386.700 90.725,386.333 91.083 C 385.967 91.441,385.667 91.800,385.667 91.881 C 385.667 91.961,385.407 92.339,385.089 92.722 C 382.725 95.567,382.172 96.240,381.583 96.993 C 381.217 97.461,380.654 98.171,380.333 98.571 C 380.012 98.971,379.412 99.726,379.000 100.249 C 378.587 100.772,378.075 101.417,377.860 101.683 L 377.470 102.167 202.505 102.167 L 27.539 102.167 27.438 101.792 C 27.383 101.585,27.338 96.954,27.338 91.500 C 27.338 86.046,27.252 64.582,27.147 43.802 C 27.042 23.023,27.001 5.904,27.056 5.761 C 27.147 5.524,44.373 5.504,211.120 5.542 L 395.083 5.583 395.125 42.747 M63.103 36.758 C 62.903 37.280,62.990 40.756,63.211 41.058 C 63.391 41.304,63.665 41.339,65.086 41.298 L 66.750 41.250 66.750 38.917 L 66.750 36.583 64.978 36.536 C 63.473 36.496,63.191 36.530,63.103 36.758 M119.406 36.717 C 119.360 36.837,119.344 37.905,119.370 39.092 L 119.417 41.250 121.059 41.298 C 122.126 41.329,122.782 41.278,122.934 41.153 C 123.175 40.952,123.284 37.333,123.066 36.764 C 122.930 36.412,119.540 36.369,119.406 36.717 M128.944 36.611 C 128.806 36.750,128.796 64.708,128.934 65.070 C 129.076 65.440,139.420 65.461,140.798 65.095 C 144.575 64.089,145.333 62.358,145.333 54.736 C 145.334 45.978,144.203 44.346,138.123 44.337 C 135.055 44.333,134.408 44.529,133.384 45.779 C 132.527 46.825,132.505 46.717,132.503 41.292 L 132.500 36.500 130.778 36.500 C 129.831 36.500,129.006 36.550,128.944 36.611 M219.111 36.611 C 219.050 36.672,219.000 38.880,219.000 41.518 C 219.000 46.595,218.960 46.833,218.259 45.914 C 216.468 43.565,209.658 43.819,207.687 46.307 C 206.506 47.799,206.346 48.804,206.339 54.800 C 206.331 61.623,206.653 62.906,208.720 64.287 C 211.075 65.861,216.341 65.733,217.956 64.063 C 218.840 63.148,219.000 63.149,219.000 64.070 C 219.000 65.331,219.004 65.333,220.818 65.333 C 221.852 65.333,222.505 65.261,222.633 65.133 C 222.845 64.921,222.942 37.309,222.732 36.764 C 222.627 36.490,219.369 36.353,219.111 36.611 M40.374 52.125 L 40.417 65.250 46.583 65.250 C 54.184 65.250,55.095 65.014,56.461 62.693 C 57.341 61.197,57.328 61.349,57.331 52.046 L 57.333 43.343 56.911 42.388 C 56.335 41.085,55.797 40.424,54.870 39.879 C 53.393 39.010,53.344 39.005,46.624 39.003 L 40.331 39.000 40.374 52.125 M241.417 39.495 C 238.832 40.754,238.250 41.964,238.250 46.083 C 238.250 51.514,239.363 52.618,246.208 53.976 C 248.724 54.476,249.131 54.578,249.790 54.879 C 251.314 55.575,251.835 56.795,251.588 59.093 C 251.338 61.428,250.386 62.000,246.750 62.000 C 242.979 62.000,242.241 61.522,241.924 58.873 L 241.750 57.417 239.958 57.369 L 238.167 57.322 238.167 58.988 C 238.167 63.740,240.308 65.328,246.726 65.331 C 253.475 65.335,255.470 63.731,255.493 58.282 C 255.510 54.081,254.132 52.076,250.500 51.017 C 250.088 50.897,249.578 50.731,249.367 50.649 C 249.157 50.567,248.801 50.500,248.578 50.500 C 248.354 50.500,247.852 50.428,247.461 50.340 C 247.070 50.252,246.300 50.094,245.750 49.989 C 242.471 49.361,241.665 48.443,241.911 45.616 C 242.167 42.675,242.767 42.250,246.663 42.250 C 250.269 42.250,251.082 42.727,251.272 44.955 C 251.431 46.812,251.255 46.667,253.337 46.667 L 255.167 46.667 255.167 45.220 C 255.167 42.050,254.034 40.362,251.117 39.188 C 250.814 39.066,249.209 39.001,246.534 39.004 L 242.417 39.009 241.417 39.495 M91.754 40.036 C 91.705 40.245,91.647 41.279,91.624 42.333 L 91.583 44.250 90.500 44.293 C 88.568 44.369,88.667 44.272,88.667 46.087 L 88.667 47.667 89.967 47.667 C 91.799 47.667,91.667 47.189,91.668 53.825 C 91.668 56.992,91.741 60.023,91.829 60.561 C 92.355 63.772,94.657 65.333,98.866 65.333 C 100.978 65.333,101.000 65.316,101.000 63.667 C 101.000 62.051,100.944 62.000,99.160 62.000 C 97.457 62.000,96.468 61.589,95.919 60.654 C 95.512 59.961,95.294 48.366,95.679 47.902 C 95.829 47.721,96.389 47.667,98.108 47.667 L 100.342 47.667 100.504 47.239 C 100.731 46.642,100.703 45.331,100.451 44.833 C 100.245 44.425,100.192 44.415,97.912 44.333 L 95.583 44.250 95.500 42.000 L 95.417 39.750 93.630 39.703 C 91.888 39.657,91.840 39.665,91.754 40.036 M172.752 40.042 C 172.705 40.248,172.647 41.279,172.624 42.333 L 172.583 44.250 171.333 44.295 C 169.749 44.352,169.500 44.588,169.500 46.029 C 169.500 47.547,169.615 47.667,171.069 47.667 C 172.750 47.667,172.633 47.183,172.701 54.419 C 172.758 60.523,172.774 60.784,173.136 61.691 C 174.142 64.214,176.223 65.327,179.941 65.331 C 182.085 65.334,182.000 65.403,182.000 63.667 C 182.000 61.981,182.018 62.000,180.460 62.000 C 176.731 62.000,176.500 61.510,176.500 53.612 C 176.500 47.000,176.185 47.667,179.312 47.667 L 181.480 47.667 181.594 46.906 C 181.941 44.592,181.685 44.339,178.992 44.336 C 176.369 44.333,176.500 44.466,176.500 41.800 L 176.500 39.667 174.670 39.667 C 172.909 39.667,172.836 39.681,172.752 40.042 M299.416 39.869 C 299.373 39.987,299.318 41.021,299.294 42.167 L 299.250 44.250 297.883 44.333 C 296.164 44.438,296.141 44.463,296.201 46.182 L 296.250 47.583 297.610 47.631 C 299.450 47.697,299.311 47.152,299.367 54.508 C 299.424 61.814,299.464 62.057,300.874 63.484 C 302.205 64.830,303.704 65.318,306.536 65.327 C 308.628 65.334,308.667 65.304,308.667 63.667 C 308.667 62.075,308.585 62.000,306.863 62.000 C 303.341 62.000,303.167 61.618,303.167 53.911 C 303.167 46.997,302.871 47.692,305.844 47.630 L 308.083 47.583 308.131 46.150 C 308.192 44.313,308.252 44.354,305.489 44.297 L 303.250 44.250 303.167 42.000 L 303.083 39.750 301.289 39.703 C 299.945 39.667,299.474 39.709,299.416 39.869 M52.149 42.585 C 53.583 43.425,53.667 43.951,53.667 52.083 C 53.667 62.248,53.869 61.888,48.118 61.968 C 44.761 62.014,44.406 61.992,44.213 61.727 C 43.976 61.404,43.894 42.917,44.128 42.567 C 44.365 42.211,44.783 42.174,48.167 42.214 C 51.232 42.250,51.641 42.288,52.149 42.585 M63.333 44.496 C 63.028 44.690,62.861 64.114,63.159 64.896 C 63.366 65.442,66.530 65.596,66.732 65.070 C 66.940 64.527,66.845 44.745,66.633 44.533 C 66.392 44.292,63.704 44.262,63.333 44.496 M75.612 44.591 C 72.833 45.143,71.750 46.547,71.750 49.595 C 71.750 51.490,72.108 52.486,73.074 53.274 C 73.354 53.503,73.718 53.799,73.882 53.933 C 74.046 54.066,75.659 54.894,77.465 55.773 C 81.542 57.757,82.167 58.311,82.167 59.945 C 82.167 61.823,81.569 62.047,76.250 62.159 L 71.917 62.250 71.917 63.750 L 71.917 65.250 76.417 65.297 C 84.337 65.379,85.917 64.498,85.917 60.000 C 85.917 56.648,85.453 56.097,80.478 53.543 C 75.889 51.187,75.628 50.966,75.641 49.441 C 75.654 47.927,76.412 47.667,80.814 47.667 C 82.735 47.667,84.425 47.621,84.570 47.566 C 84.901 47.438,84.956 44.856,84.633 44.533 C 84.343 44.243,77.129 44.289,75.612 44.591 M105.458 44.513 C 105.087 44.730,104.998 64.765,105.367 65.133 C 105.779 65.545,108.813 65.395,108.910 64.958 C 108.956 64.752,109.013 61.321,109.038 57.333 L 109.083 50.083 109.525 49.332 C 110.255 48.091,111.011 47.774,113.500 47.670 L 115.583 47.583 115.632 46.192 C 115.692 44.466,115.599 44.333,114.321 44.333 C 112.311 44.333,110.765 44.881,109.857 45.915 C 109.211 46.651,109.000 46.555,109.000 45.523 C 109.000 45.089,108.910 44.643,108.800 44.533 C 108.553 44.286,105.876 44.270,105.458 44.513 M119.533 44.533 C 119.321 44.745,119.226 64.527,119.434 65.070 C 119.563 65.404,122.640 65.460,122.967 65.133 C 123.335 64.765,123.246 44.847,122.875 44.565 C 122.494 44.276,119.816 44.251,119.533 44.533 M150.249 44.608 C 149.766 45.091,149.956 60.569,150.461 61.833 C 151.459 64.333,153.324 65.330,157.000 65.329 C 159.808 65.328,161.396 64.714,161.885 63.440 C 162.071 62.953,162.333 63.305,162.339 64.052 C 162.347 65.210,162.545 65.333,164.388 65.333 C 165.812 65.333,166.008 65.297,166.165 65.004 C 166.473 64.428,166.314 44.695,166.000 44.496 C 165.862 44.410,165.098 44.337,164.301 44.336 C 162.169 44.332,162.333 43.662,162.333 52.350 C 162.333 61.943,162.307 62.000,157.957 62.000 C 153.811 62.000,153.833 62.053,153.833 52.221 C 153.833 43.492,154.044 44.333,151.856 44.333 C 150.841 44.333,150.458 44.399,150.249 44.608 M190.377 44.595 C 188.233 45.065,186.797 46.337,186.157 48.333 C 185.808 49.423,185.807 60.240,186.156 61.333 C 187.229 64.696,188.848 65.333,196.308 65.333 C 202.226 65.333,201.833 65.453,201.833 63.654 C 201.833 61.912,202.188 62.022,196.378 61.965 C 190.776 61.911,190.906 61.938,190.036 60.660 C 189.692 60.155,189.660 59.939,189.703 58.426 L 189.750 56.750 195.750 56.667 L 201.750 56.583 201.795 52.751 C 201.841 48.811,201.822 48.653,201.118 47.198 C 199.956 44.796,194.971 43.588,190.377 44.595 M259.347 44.567 C 259.157 44.796,259.215 45.393,259.494 46.083 C 259.568 46.267,259.712 46.717,259.813 47.083 C 259.914 47.450,260.142 48.237,260.318 48.833 C 260.495 49.429,260.768 50.367,260.925 50.917 C 261.082 51.467,261.322 52.254,261.458 52.667 C 261.595 53.079,261.777 53.679,261.863 54.000 C 262.125 54.979,262.273 55.485,263.083 58.167 C 263.513 59.587,263.936 61.012,264.025 61.333 C 264.113 61.654,264.251 62.142,264.331 62.417 C 264.412 62.692,264.531 63.104,264.596 63.333 C 264.801 64.053,264.994 64.167,266.011 64.167 C 267.120 64.167,267.278 64.308,266.999 65.052 C 265.962 67.809,264.772 68.667,261.986 68.667 L 260.699 68.667 260.516 69.192 C 260.286 69.851,260.281 71.006,260.504 71.594 L 260.675 72.042 262.962 71.962 C 267.791 71.792,269.293 70.246,271.185 63.500 C 271.455 62.538,271.740 61.563,271.818 61.333 C 271.897 61.104,272.054 60.579,272.167 60.167 C 272.280 59.754,272.430 59.229,272.500 59.000 C 272.570 58.771,272.712 58.283,272.815 57.917 C 272.917 57.550,273.233 56.425,273.516 55.417 C 273.799 54.408,274.103 53.321,274.191 53.000 C 274.280 52.679,274.423 52.173,274.509 51.875 C 274.596 51.577,274.742 51.071,274.833 50.750 C 274.925 50.429,275.071 49.923,275.157 49.625 C 275.463 48.574,275.650 47.900,276.075 46.333 C 276.605 44.381,276.570 44.333,274.570 44.333 C 272.829 44.333,272.662 44.473,272.169 46.333 C 271.821 47.646,271.650 48.256,271.329 49.333 C 271.261 49.563,271.121 50.050,271.019 50.417 C 270.916 50.783,270.600 51.908,270.317 52.917 C 269.547 55.662,269.490 55.868,269.333 56.500 C 269.254 56.821,269.109 57.365,269.011 57.708 C 268.596 59.168,268.472 59.618,268.317 60.236 C 267.994 61.518,267.545 61.452,267.288 60.083 C 267.236 59.808,267.119 59.321,267.026 59.000 C 266.934 58.679,266.628 57.592,266.346 56.583 C 265.625 54.006,265.246 52.672,264.996 51.833 C 264.672 50.747,263.420 46.132,263.264 45.454 C 263.024 44.406,260.041 43.731,259.347 44.567 M283.417 44.571 C 280.653 45.139,279.337 46.729,279.337 49.500 C 279.337 52.679,280.349 53.607,287.250 56.757 C 289.098 57.600,289.836 58.486,289.831 59.859 C 289.824 61.864,289.314 62.063,283.917 62.167 L 279.583 62.250 279.533 63.413 C 279.506 64.053,279.526 64.747,279.578 64.955 L 279.673 65.333 284.295 65.327 C 291.600 65.318,292.977 64.701,293.675 61.125 C 294.362 57.604,293.287 56.135,288.092 53.495 C 283.800 51.313,283.333 50.930,283.333 49.583 C 283.333 47.904,283.989 47.667,288.628 47.667 C 291.236 47.667,292.323 47.610,292.467 47.467 C 292.828 47.106,292.729 44.712,292.344 44.506 C 291.884 44.259,284.678 44.312,283.417 44.571 M317.061 44.582 C 314.886 45.055,313.391 46.303,312.867 48.083 C 312.128 50.596,312.112 60.168,312.845 61.539 C 312.930 61.699,313.002 61.924,313.004 62.039 C 313.012 62.426,314.158 63.823,314.834 64.270 C 316.247 65.205,317.224 65.333,322.937 65.333 C 328.876 65.333,328.333 65.507,328.333 63.603 C 328.333 61.898,328.668 62.000,323.092 61.997 C 316.585 61.994,316.369 61.880,316.346 58.458 L 316.333 56.667 322.217 56.667 C 326.570 56.667,328.152 56.615,328.300 56.467 C 328.572 56.195,328.578 49.516,328.308 48.678 C 327.535 46.285,326.232 45.088,323.858 44.589 C 322.356 44.272,318.502 44.269,317.061 44.582 M333.533 44.533 C 333.188 44.878,333.250 65.099,333.597 65.232 C 334.302 65.503,336.819 65.339,336.994 65.011 C 337.105 64.803,337.168 62.092,337.171 57.386 C 337.177 48.040,337.243 47.869,340.876 47.696 C 345.067 47.495,345.167 47.722,345.167 57.487 C 345.167 66.093,344.981 65.333,347.083 65.333 C 349.182 65.333,349.000 66.042,349.000 57.874 C 349.000 48.086,349.278 47.457,353.495 47.701 C 356.772 47.890,356.730 47.771,356.833 57.284 C 356.890 62.505,356.975 65.042,357.098 65.165 C 357.211 65.278,357.901 65.328,358.931 65.298 L 360.583 65.250 360.632 57.250 C 360.681 49.124,360.660 48.764,360.051 47.368 C 358.409 43.609,350.621 43.235,348.499 46.814 C 348.363 47.043,348.248 46.976,347.737 46.373 C 345.567 43.811,339.639 43.580,337.867 45.988 C 337.387 46.640,337.167 46.518,337.167 45.599 C 337.167 44.527,336.858 44.333,335.145 44.333 C 334.269 44.333,333.657 44.409,333.533 44.533 M369.065 44.581 C 366.304 45.182,365.165 46.665,365.168 49.655 C 365.171 52.081,366.165 53.490,368.750 54.734 C 369.392 55.043,370.817 55.726,371.917 56.253 C 375.008 57.733,375.500 58.223,375.500 59.817 C 375.500 61.924,375.167 62.060,369.833 62.139 C 364.934 62.211,365.167 62.131,365.167 63.737 C 365.167 65.429,364.873 65.334,370.075 65.327 C 376.555 65.319,377.869 64.909,379.014 62.538 C 379.453 61.630,379.586 58.186,379.198 57.798 C 379.089 57.689,379.000 57.482,379.000 57.338 C 379.000 56.430,377.531 55.355,373.529 53.334 C 369.701 51.400,369.000 50.822,369.000 49.599 C 369.000 47.948,369.771 47.667,374.293 47.667 C 378.540 47.667,378.333 47.752,378.333 46.000 C 378.333 45.237,378.254 44.654,378.133 44.533 C 377.844 44.244,370.435 44.283,369.065 44.581 M140.073 47.971 C 141.268 48.668,141.328 48.988,141.331 54.697 C 141.335 62.083,141.395 62.000,135.986 62.000 C 133.051 62.000,132.834 61.979,132.673 61.678 C 132.391 61.152,132.449 51.124,132.740 50.031 C 133.297 47.936,134.350 47.440,137.906 47.599 C 139.090 47.651,139.708 47.757,140.073 47.971 M196.817 48.083 C 197.924 48.734,198.772 52.820,197.994 53.757 C 197.786 54.008,190.547 54.136,189.930 53.899 C 189.223 53.627,189.668 49.170,190.475 48.439 C 191.417 47.586,195.575 47.353,196.817 48.083 M216.768 47.913 C 217.619 48.165,218.245 48.709,218.675 49.567 C 219.154 50.525,219.018 59.573,218.511 60.459 C 217.258 62.647,211.679 62.686,210.549 60.515 C 210.100 59.653,209.953 51.001,210.364 49.629 C 210.880 47.908,213.966 47.081,216.768 47.913 M322.760 47.853 C 324.210 48.218,324.833 49.571,324.833 52.357 C 324.833 54.092,325.051 54.013,320.417 53.961 L 316.417 53.917 316.370 51.782 C 316.308 48.971,316.704 48.199,318.417 47.786 C 319.081 47.625,322.037 47.671,322.760 47.853 " stroke="none" fill="#f8f8f8" fill-rule="evenodd"></path><path id="path1" d="M0.000 53.583 L 0.000 107.167 200.000 107.167 L 400.000 107.167 400.000 53.583 L 400.000 0.000 200.000 0.000 L 0.000 0.000 0.000 53.583 M18.459 53.792 L 18.417 106.083 9.541 106.126 L 0.665 106.170 0.707 91.960 L 0.750 77.750 3.792 77.705 L 6.833 77.659 6.833 60.496 L 6.833 43.333 3.750 43.333 L 0.667 43.333 0.667 22.417 L 0.667 1.500 9.584 1.500 L 18.501 1.500 18.459 53.792 M399.125 41.414 L 399.167 81.244 398.635 81.997 C 398.342 82.411,397.720 83.200,397.253 83.750 C 396.447 84.698,396.035 85.214,394.947 86.636 C 394.688 86.974,394.257 87.492,393.988 87.787 C 393.720 88.083,393.500 88.374,393.500 88.435 C 393.500 88.496,393.219 88.871,392.875 89.267 C 391.819 90.486,391.261 91.175,391.000 91.583 C 390.739 91.992,390.181 92.681,389.125 93.900 C 388.781 94.296,388.500 94.672,388.500 94.735 C 388.500 94.797,388.331 95.022,388.125 95.235 C 387.919 95.447,387.412 96.049,387.000 96.571 C 386.587 97.094,386.002 97.811,385.700 98.165 C 385.397 98.519,384.985 99.034,384.783 99.310 C 384.582 99.585,384.079 100.235,383.667 100.754 C 382.713 101.952,382.093 102.743,381.228 103.860 C 380.849 104.350,380.242 105.069,379.879 105.458 L 379.218 106.167 201.362 106.167 L 23.506 106.167 23.430 105.792 C 23.389 105.585,23.312 88.954,23.260 68.833 C 23.208 48.712,23.116 25.331,23.056 16.875 L 22.945 1.500 211.014 1.542 L 399.083 1.583 399.125 41.414 M27.243 23.542 C 27.315 33.373,27.422 54.954,27.479 71.500 C 27.536 88.046,27.644 101.677,27.718 101.792 C 27.826 101.958,62.971 102.000,202.527 102.000 L 377.200 102.000 377.725 101.436 C 378.014 101.126,378.550 100.481,378.917 100.004 C 379.283 99.526,379.846 98.815,380.167 98.423 C 380.488 98.031,381.050 97.320,381.417 96.842 C 381.783 96.365,382.284 95.736,382.529 95.445 C 383.631 94.139,384.467 93.118,385.083 92.326 C 385.450 91.855,386.012 91.149,386.333 90.757 C 386.654 90.365,387.217 89.649,387.583 89.167 C 387.950 88.684,388.512 87.970,388.833 87.579 C 389.154 87.188,389.754 86.440,390.167 85.915 C 390.579 85.391,391.123 84.770,391.375 84.537 C 391.627 84.303,391.833 84.046,391.833 83.967 C 391.833 83.853,393.792 81.360,394.164 81.000 C 394.211 80.954,394.419 80.676,394.625 80.382 L 395.000 79.847 395.000 42.757 L 395.000 5.667 211.056 5.667 L 27.112 5.667 27.243 23.542 M66.930 36.574 C 67.254 37.016,67.257 40.784,66.935 41.208 C 66.587 41.667,63.254 41.641,63.006 41.178 C 62.653 40.518,62.790 36.877,63.182 36.484 C 63.676 35.991,66.554 36.059,66.930 36.574 M122.909 36.360 L 123.333 36.554 123.333 38.840 C 123.333 41.649,123.439 41.527,121.059 41.464 L 119.250 41.417 119.204 38.955 C 119.158 36.529,119.163 36.490,119.537 36.340 C 120.087 36.120,122.411 36.133,122.909 36.360 M132.574 36.537 C 132.793 36.850,132.833 37.601,132.833 41.370 C 132.833 43.825,132.876 45.833,132.927 45.833 C 132.979 45.833,133.204 45.617,133.426 45.352 C 134.393 44.203,139.501 43.490,141.183 44.269 C 141.403 44.370,141.865 44.576,142.210 44.725 C 144.920 45.898,145.500 47.666,145.500 54.750 C 145.500 62.523,144.834 64.082,140.988 65.310 C 139.897 65.659,129.005 65.568,128.732 65.208 C 128.552 64.971,128.510 62.274,128.505 50.801 L 128.500 36.686 128.870 36.426 C 129.510 35.978,132.240 36.060,132.574 36.537 M222.600 36.294 C 223.150 36.662,223.167 37.082,223.164 50.864 C 223.161 67.030,223.402 65.398,221.015 65.464 C 218.980 65.521,218.667 65.365,218.667 64.295 L 218.667 63.641 218.214 64.179 C 216.243 66.522,209.123 65.919,207.355 63.259 C 206.223 61.555,206.167 61.153,206.167 54.800 C 206.167 47.887,206.460 46.650,208.406 45.357 C 211.071 43.586,216.330 43.655,218.114 45.484 L 218.667 46.051 218.667 41.442 C 218.667 35.837,218.529 36.165,220.875 36.169 C 221.723 36.171,222.499 36.227,222.600 36.294 M53.671 39.014 C 55.456 39.730,56.785 41.113,57.341 42.833 C 57.697 43.933,57.699 60.220,57.344 61.333 C 56.844 62.900,55.603 64.311,54.167 64.945 C 52.970 65.473,52.353 65.514,46.344 65.466 L 40.271 65.417 40.132 64.881 C 39.869 63.866,40.049 39.259,40.322 38.930 C 40.645 38.541,52.680 38.617,53.671 39.014 M250.477 38.829 C 252.812 39.272,254.265 40.542,255.153 42.918 C 255.256 43.193,255.357 44.117,255.378 44.971 C 255.428 46.994,255.372 47.043,253.119 46.970 C 251.230 46.908,251.173 46.865,251.169 45.494 C 251.162 43.014,250.300 42.471,246.470 42.536 C 242.581 42.602,242.189 42.934,242.175 46.167 C 242.167 48.257,243.016 49.500,244.452 49.500 C 244.603 49.500,244.957 49.573,245.238 49.661 C 245.520 49.750,246.640 49.979,247.727 50.170 C 253.863 51.246,255.665 53.061,255.665 58.167 C 255.665 62.334,254.450 64.258,251.155 65.310 C 249.983 65.684,243.279 65.559,241.945 65.138 C 239.422 64.341,238.107 62.451,237.895 59.315 C 237.748 57.153,237.885 57.000,239.963 57.000 C 241.978 57.000,242.167 57.145,242.167 58.695 C 242.167 61.247,242.923 61.750,246.753 61.750 C 250.282 61.750,250.933 61.434,251.314 59.535 C 252.000 56.124,251.044 55.076,246.500 54.255 C 243.110 53.642,240.808 52.822,239.775 51.859 C 238.263 50.450,237.915 49.336,237.922 45.917 C 237.930 41.663,239.482 39.383,242.750 38.823 C 243.793 38.644,249.525 38.648,250.477 38.829 M95.500 39.667 C 95.798 39.964,95.833 40.222,95.833 42.083 L 95.833 44.167 98.029 44.167 C 100.819 44.167,100.833 44.177,100.833 46.100 C 100.833 47.965,100.781 48.000,97.963 48.000 L 95.833 48.000 95.834 54.042 C 95.835 61.698,95.779 61.568,99.125 61.777 C 100.019 61.833,100.844 61.953,100.958 62.043 C 101.238 62.263,101.245 65.022,100.967 65.300 C 100.705 65.562,96.828 65.570,96.012 65.311 C 93.810 64.610,92.636 63.572,91.848 61.625 C 91.471 60.694,91.333 58.502,91.333 53.426 L 91.333 48.000 90.204 48.000 C 88.512 48.000,88.332 47.818,88.339 46.116 C 88.346 44.277,88.443 44.167,90.060 44.167 L 91.333 44.167 91.333 42.239 C 91.333 39.439,91.412 39.340,93.625 39.336 C 94.947 39.334,95.214 39.381,95.500 39.667 M176.292 39.438 C 176.655 39.536,176.667 39.604,176.667 41.589 C 176.667 44.396,176.444 44.167,179.179 44.167 C 181.900 44.167,181.833 44.119,181.833 46.072 C 181.833 47.937,181.741 48.000,179.008 48.000 L 176.848 48.000 176.743 48.562 C 176.608 49.284,176.758 59.444,176.912 60.016 C 177.224 61.172,178.099 61.651,180.130 61.777 C 182.231 61.908,182.333 61.994,182.333 63.638 C 182.333 65.464,182.283 65.500,179.694 65.500 C 177.115 65.500,175.839 65.129,174.433 63.970 C 172.696 62.538,172.500 61.536,172.500 54.075 L 172.500 48.000 171.287 48.000 C 169.507 48.000,169.333 47.834,169.333 46.129 C 169.333 44.305,169.465 44.167,171.192 44.167 L 172.500 44.167 172.500 41.911 C 172.500 39.728,172.512 39.651,172.875 39.505 C 173.301 39.334,175.725 39.286,176.292 39.438 M303.011 39.506 C 303.305 39.663,303.333 39.874,303.333 41.923 L 303.333 44.167 305.633 44.167 C 308.426 44.167,308.333 44.100,308.333 46.111 C 308.333 48.036,308.387 48.000,305.511 48.000 L 303.333 48.000 303.336 53.708 C 303.339 61.465,303.383 61.567,306.792 61.774 C 307.981 61.847,308.473 61.943,308.625 62.135 C 308.900 62.481,308.907 65.027,308.633 65.300 C 308.370 65.564,304.489 65.570,303.678 65.308 C 301.346 64.553,300.320 63.622,299.390 61.417 C 299.313 61.233,299.212 58.158,299.167 54.583 L 299.083 48.083 297.917 48.039 C 296.069 47.970,296.000 47.899,296.000 46.083 C 296.000 44.267,296.069 44.197,297.917 44.127 L 299.083 44.083 299.128 41.917 C 299.165 40.120,299.221 39.714,299.452 39.542 C 299.795 39.285,302.547 39.258,303.011 39.506 M44.333 52.080 L 44.333 61.660 44.749 61.765 C 44.977 61.822,46.608 61.839,48.374 61.803 C 53.675 61.695,53.333 62.364,53.333 52.083 C 53.333 41.764,53.750 42.500,47.911 42.500 L 44.333 42.500 44.333 52.080 M66.862 44.442 C 67.263 44.806,67.333 64.684,66.935 65.208 C 66.520 65.755,63.209 65.632,62.992 65.063 C 62.695 64.280,62.861 44.523,63.167 44.330 C 63.623 44.042,66.516 44.130,66.862 44.442 M84.931 44.582 C 85.218 45.020,85.227 47.328,84.942 47.614 C 84.868 47.689,83.069 47.788,80.945 47.835 C 76.247 47.939,75.850 48.078,75.839 49.625 C 75.829 50.878,76.396 51.281,82.390 54.282 C 83.200 54.688,84.195 55.327,84.602 55.702 C 85.286 56.332,85.451 56.594,85.977 57.883 C 86.772 59.833,85.873 63.388,84.333 64.380 C 82.718 65.421,82.181 65.500,76.695 65.500 C 71.092 65.500,71.500 65.641,71.500 63.709 C 71.500 61.928,71.252 62.022,76.083 61.966 C 80.892 61.909,81.372 61.797,81.811 60.626 C 82.449 58.921,81.666 58.061,77.739 56.154 C 72.678 53.696,71.985 53.085,71.500 50.647 C 71.015 48.207,72.098 45.699,73.999 44.857 C 75.309 44.277,75.938 44.210,80.288 44.188 L 84.659 44.167 84.931 44.582 M109.074 44.537 C 109.217 44.741,109.333 45.201,109.333 45.560 L 109.333 46.212 109.669 45.784 C 110.480 44.753,112.041 44.172,114.008 44.169 C 115.815 44.166,115.833 44.186,115.833 46.111 C 115.833 48.019,115.859 48.000,113.287 48.000 C 109.320 48.000,109.333 47.967,109.333 57.541 C 109.333 66.252,109.546 65.500,107.080 65.500 C 105.535 65.500,105.326 65.465,105.173 65.178 C 104.857 64.587,104.942 44.748,105.262 44.429 C 105.721 43.970,108.737 44.056,109.074 44.537 M123.042 44.399 C 123.413 44.681,123.502 64.932,123.133 65.300 C 123.004 65.429,122.337 65.500,121.250 65.500 C 120.163 65.500,119.496 65.429,119.367 65.300 C 119.078 65.011,119.078 44.656,119.367 44.367 C 119.652 44.081,122.658 44.107,123.042 44.399 M153.814 44.464 C 153.906 44.636,153.996 47.991,154.028 52.422 C 154.098 62.115,153.943 61.744,157.917 61.746 C 162.224 61.748,162.167 61.877,162.167 52.140 C 162.167 43.388,161.954 44.167,164.350 44.167 C 165.847 44.167,166.002 44.197,166.241 44.537 C 166.558 44.990,166.641 64.593,166.327 65.178 C 166.174 65.465,165.964 65.500,164.388 65.500 C 162.347 65.500,162.184 65.402,162.168 64.167 L 162.158 63.417 161.893 63.843 C 161.134 65.065,159.843 65.494,156.914 65.497 C 153.302 65.501,151.483 64.626,150.514 62.417 C 150.393 62.142,150.209 61.767,150.106 61.583 C 149.842 61.117,149.738 44.990,149.996 44.508 C 150.256 44.022,153.557 43.984,153.814 44.464 M197.397 44.354 C 199.706 44.985,200.952 46.061,201.808 48.167 C 202.102 48.887,202.278 56.101,202.013 56.500 C 201.871 56.712,200.934 56.763,195.881 56.833 L 189.917 56.917 189.868 58.122 C 189.728 61.561,190.237 61.831,196.863 61.832 C 202.305 61.834,202.000 61.728,202.000 63.606 C 202.000 65.669,202.517 65.500,196.202 65.498 C 189.741 65.496,188.799 65.315,187.401 63.806 C 185.785 62.061,185.750 61.868,185.750 54.667 L 185.750 48.583 186.281 47.500 C 187.035 45.962,188.782 44.505,189.881 44.497 C 190.084 44.496,190.362 44.422,190.500 44.333 C 190.850 44.107,196.555 44.124,197.397 44.354 M263.071 44.542 C 263.206 44.748,263.439 45.367,263.589 45.917 C 263.739 46.467,263.926 47.142,264.005 47.417 C 264.084 47.692,264.223 48.179,264.315 48.500 C 264.406 48.821,264.554 49.346,264.642 49.667 C 264.731 49.987,264.970 50.850,265.172 51.583 C 265.375 52.317,265.726 53.592,265.952 54.417 C 266.384 55.996,266.560 56.627,266.833 57.583 C 267.167 58.752,267.355 59.427,267.486 59.931 C 267.680 60.679,267.988 61.192,267.995 60.779 C 268.000 60.497,269.138 56.221,269.667 54.500 C 269.737 54.271,269.889 53.746,270.003 53.333 C 270.118 52.921,270.277 52.358,270.357 52.083 C 270.437 51.808,270.763 50.608,271.082 49.417 C 271.400 48.225,271.727 47.025,271.808 46.750 C 271.889 46.475,272.053 45.913,272.174 45.500 C 272.545 44.226,272.653 44.167,274.589 44.167 C 276.902 44.167,276.934 44.219,276.192 46.833 C 276.101 47.154,275.719 48.504,275.342 49.833 C 274.966 51.163,274.594 52.438,274.515 52.667 C 274.436 52.896,274.280 53.421,274.167 53.833 C 274.054 54.246,273.904 54.771,273.833 55.000 C 273.763 55.229,273.624 55.717,273.524 56.083 C 273.425 56.450,273.152 57.425,272.919 58.250 C 272.686 59.075,272.412 60.050,272.311 60.417 C 272.210 60.783,272.070 61.271,272.000 61.500 C 271.930 61.729,271.780 62.254,271.667 62.667 C 271.554 63.079,271.403 63.604,271.331 63.833 C 271.260 64.063,271.034 64.813,270.829 65.500 C 269.365 70.409,266.948 72.332,262.245 72.333 C 260.320 72.333,260.165 72.192,260.172 70.449 C 260.179 68.625,260.285 68.500,261.826 68.500 C 264.181 68.500,265.435 67.870,266.204 66.298 C 267.002 64.669,266.995 64.500,266.124 64.500 C 264.719 64.500,264.601 64.286,263.142 59.083 C 263.039 58.717,262.825 58.004,262.667 57.500 C 262.508 56.996,262.294 56.283,262.191 55.917 C 262.087 55.550,261.821 54.650,261.598 53.917 C 261.375 53.183,261.029 52.021,260.829 51.333 C 260.629 50.646,260.407 49.896,260.335 49.667 C 260.264 49.438,260.113 48.913,260.000 48.500 C 259.888 48.087,259.737 47.600,259.666 47.417 C 259.048 45.828,258.875 44.692,259.200 44.367 C 259.606 43.961,262.785 44.105,263.071 44.542 M292.571 44.429 C 292.765 44.622,292.833 45.032,292.833 46.000 C 292.833 47.905,292.987 47.833,288.946 47.837 C 284.149 47.843,283.592 48.036,283.629 49.680 C 283.657 50.887,284.083 51.225,288.229 53.320 C 291.813 55.130,292.888 55.904,293.379 57.023 C 294.744 60.135,293.821 63.728,291.388 64.778 C 289.781 65.471,289.509 65.500,284.585 65.500 C 278.883 65.500,279.164 65.590,279.172 63.766 C 279.180 61.914,278.973 62.001,283.435 61.996 C 288.960 61.990,289.500 61.800,289.500 59.862 C 289.500 58.459,289.100 57.908,287.549 57.170 C 281.225 54.161,280.143 53.429,279.509 51.735 C 279.121 50.699,279.038 48.498,279.357 47.716 C 279.882 46.428,280.046 46.164,280.673 45.597 C 282.020 44.380,282.896 44.212,288.030 44.187 C 291.717 44.170,292.346 44.203,292.571 44.429 M324.167 44.385 C 326.454 45.006,327.890 46.395,328.508 48.583 C 328.840 49.759,328.851 56.158,328.521 56.557 C 328.316 56.805,327.688 56.833,322.396 56.833 L 316.500 56.833 316.500 58.339 C 316.500 61.650,316.644 61.726,323.139 61.833 C 329.026 61.930,328.667 61.807,328.667 63.727 C 328.667 65.614,329.049 65.500,322.694 65.500 C 319.095 65.500,317.074 65.436,316.678 65.310 C 314.783 64.705,313.583 63.720,312.850 62.167 L 312.417 61.250 312.417 54.833 C 312.417 47.042,312.620 46.332,315.244 44.967 C 316.719 44.200,322.175 43.844,324.167 44.385 M337.029 44.442 C 337.239 44.633,337.333 44.954,337.333 45.477 L 337.333 46.236 337.903 45.633 C 339.933 43.480,345.257 43.606,347.511 45.860 L 348.293 46.642 349.189 45.774 C 352.403 42.660,359.103 43.944,360.511 47.942 C 360.988 49.297,361.253 64.299,360.814 65.119 C 360.570 65.575,357.220 65.715,356.862 65.284 C 356.741 65.139,356.666 62.556,356.633 57.409 C 356.570 47.743,356.665 48.000,353.168 48.000 C 349.274 48.000,349.167 48.270,349.167 58.028 C 349.167 63.306,349.116 65.151,348.967 65.300 C 348.677 65.590,345.435 65.573,345.192 65.281 C 345.068 65.131,344.995 62.655,344.963 57.489 C 344.903 47.770,345.003 48.036,341.395 48.012 C 339.306 47.998,338.553 48.211,338.047 48.955 C 337.340 49.997,337.333 50.077,337.333 57.725 C 337.333 66.295,337.546 65.500,335.250 65.500 C 334.163 65.500,333.496 65.429,333.367 65.300 C 333.078 65.011,333.078 44.656,333.367 44.367 C 333.694 44.039,336.650 44.100,337.029 44.442 M378.300 44.367 C 378.579 44.646,378.572 47.434,378.292 47.615 C 378.177 47.689,376.358 47.788,374.250 47.833 C 370.031 47.925,369.751 47.992,369.331 49.005 C 368.848 50.173,369.675 51.141,372.304 52.482 C 376.752 54.751,377.400 55.109,378.032 55.650 C 380.224 57.525,380.235 62.237,378.053 64.158 C 376.703 65.347,375.813 65.500,370.237 65.500 C 364.623 65.500,365.000 65.626,365.000 63.750 C 365.000 61.897,364.752 62.000,369.210 62.000 C 374.492 62.000,375.333 61.721,375.333 59.969 C 375.333 58.368,374.829 57.879,371.583 56.338 C 368.458 54.853,367.841 54.526,366.979 53.897 C 366.151 53.293,365.333 52.332,365.333 51.961 C 365.333 51.836,365.246 51.646,365.139 51.539 C 365.016 51.416,364.944 50.713,364.944 49.627 C 364.944 46.659,366.029 45.139,368.661 44.416 C 369.713 44.127,378.018 44.085,378.300 44.367 M135.103 47.875 C 132.941 48.324,132.792 48.906,132.866 56.583 L 132.917 61.750 136.100 61.750 C 141.281 61.750,141.083 62.036,141.083 54.557 L 141.083 49.364 140.571 48.731 C 139.772 47.744,137.471 47.383,135.103 47.875 M190.883 48.385 C 190.044 48.959,189.490 51.775,189.897 53.397 L 190.006 53.833 193.920 53.833 L 197.833 53.833 197.833 51.828 C 197.833 48.320,197.494 47.996,193.833 48.011 C 191.630 48.020,191.370 48.053,190.883 48.385 M211.596 48.310 C 210.510 48.948,210.422 49.402,210.368 54.622 C 210.312 59.977,210.381 60.411,211.415 61.250 L 212.031 61.750 214.324 61.750 C 218.555 61.750,218.667 61.573,218.667 54.841 C 218.667 49.384,218.601 49.066,217.332 48.352 C 216.480 47.874,212.391 47.844,211.596 48.310 M317.609 48.284 C 316.792 48.713,316.508 49.638,316.504 51.878 L 316.500 53.839 320.458 53.795 L 324.417 53.750 324.464 51.870 C 324.520 49.628,324.235 48.725,323.327 48.272 C 322.581 47.900,318.324 47.909,317.609 48.284 " stroke="none" fill="#0c0c0c" fill-rule="evenodd"></path><path id="path2" d="M0.667 22.417 L 0.667 43.333 3.750 43.333 L 6.833 43.333 6.833 60.496 L 6.833 77.659 3.792 77.705 L 0.750 77.750 0.707 91.960 L 0.665 106.170 9.541 106.126 L 18.417 106.083 18.459 53.792 L 18.501 1.500 9.584 1.500 L 0.667 1.500 0.667 22.417 M23.056 16.875 C 23.116 25.331,23.208 48.712,23.260 68.833 C 23.312 88.954,23.389 105.585,23.430 105.792 L 23.506 106.167 201.362 106.167 L 379.218 106.167 379.879 105.458 C 380.242 105.069,380.849 104.350,381.228 103.860 C 382.093 102.743,382.713 101.952,383.667 100.754 C 384.079 100.235,384.582 99.585,384.783 99.310 C 384.985 99.034,385.397 98.519,385.700 98.165 C 386.002 97.811,386.587 97.094,387.000 96.571 C 387.412 96.049,387.919 95.447,388.125 95.235 C 388.331 95.022,388.500 94.797,388.500 94.735 C 388.500 94.672,388.781 94.296,389.125 93.900 C 390.181 92.681,390.739 91.992,391.000 91.583 C 391.261 91.175,391.819 90.486,392.875 89.267 C 393.219 88.871,393.500 88.496,393.500 88.435 C 393.500 88.374,393.720 88.083,393.988 87.787 C 394.257 87.492,394.688 86.974,394.947 86.636 C 396.035 85.214,396.447 84.698,397.253 83.750 C 397.720 83.200,398.342 82.411,398.635 81.997 L 399.167 81.244 399.125 41.414 L 399.083 1.583 211.014 1.542 L 22.945 1.500 23.056 16.875 M18.333 53.835 L 18.333 106.003 9.625 105.960 L 0.917 105.917 0.874 91.958 L 0.831 78.000 3.735 78.000 C 5.333 78.000,6.758 77.954,6.903 77.899 C 7.307 77.744,7.307 43.423,6.903 43.268 C 6.758 43.212,5.333 43.167,3.736 43.167 L 0.833 43.167 0.833 22.417 L 0.833 1.667 9.583 1.667 L 18.333 1.667 18.333 53.835 M398.833 41.565 L 398.833 81.464 397.875 82.665 C 397.348 83.325,396.467 84.413,395.917 85.081 C 394.849 86.379,394.270 87.107,391.667 90.426 C 391.254 90.951,390.635 91.698,390.292 92.084 C 389.948 92.471,389.667 92.840,389.667 92.904 C 389.667 93.012,388.850 94.019,387.833 95.164 C 387.604 95.422,387.117 96.026,386.750 96.505 C 386.383 96.985,385.821 97.698,385.500 98.090 C 385.179 98.482,384.617 99.187,384.250 99.657 C 383.883 100.126,383.321 100.838,383.000 101.238 C 382.679 101.638,382.079 102.393,381.667 102.917 C 381.254 103.440,380.654 104.188,380.333 104.578 C 380.012 104.968,379.667 105.428,379.565 105.602 C 379.362 105.949,24.132 106.198,23.785 105.852 C 23.700 105.766,23.573 89.233,23.487 66.977 C 23.404 45.677,23.287 22.269,23.226 14.958 L 23.115 1.667 210.974 1.667 L 398.833 1.667 398.833 41.565 M27.056 5.761 C 27.001 5.904,27.042 23.023,27.147 43.802 C 27.252 64.582,27.338 86.046,27.338 91.500 C 27.338 96.954,27.383 101.585,27.438 101.792 L 27.539 102.167 202.505 102.167 L 377.470 102.167 377.860 101.683 C 378.075 101.417,378.587 100.772,379.000 100.249 C 379.412 99.726,380.012 98.971,380.333 98.571 C 380.654 98.171,381.217 97.461,381.583 96.993 C 382.172 96.240,382.725 95.567,385.089 92.722 C 385.407 92.339,385.667 91.961,385.667 91.881 C 385.667 91.800,385.967 91.441,386.333 91.083 C 386.700 90.725,387.000 90.350,387.000 90.249 C 387.000 90.148,387.262 89.811,387.583 89.500 C 387.904 89.189,388.167 88.871,388.167 88.793 C 388.167 88.716,388.439 88.358,388.771 87.999 C 389.104 87.639,389.535 87.126,389.730 86.858 C 390.340 86.016,391.053 85.105,391.578 84.496 C 391.856 84.173,392.308 83.616,392.583 83.257 C 392.858 82.898,393.313 82.337,393.595 82.010 C 393.876 81.684,394.345 81.078,394.637 80.664 L 395.167 79.911 395.125 42.747 L 395.083 5.583 211.120 5.542 C 44.373 5.504,27.147 5.524,27.056 5.761 M395.000 42.757 L 395.000 79.847 394.625 80.382 C 394.419 80.676,394.211 80.954,394.164 81.000 C 393.792 81.360,391.833 83.853,391.833 83.967 C 391.833 84.046,391.627 84.303,391.375 84.537 C 391.123 84.770,390.579 85.391,390.167 85.915 C 389.754 86.440,389.154 87.188,388.833 87.579 C 388.512 87.970,387.950 88.684,387.583 89.167 C 387.217 89.649,386.654 90.365,386.333 90.757 C 386.012 91.149,385.450 91.855,385.083 92.326 C 384.467 93.118,383.631 94.139,382.529 95.445 C 382.284 95.736,381.783 96.365,381.417 96.842 C 381.050 97.320,380.488 98.031,380.167 98.423 C 379.846 98.815,379.283 99.526,378.917 100.004 C 378.550 100.481,378.014 101.126,377.725 101.436 L 377.200 102.000 202.527 102.000 C 62.971 102.000,27.826 101.958,27.718 101.792 C 27.644 101.677,27.536 88.046,27.479 71.500 C 27.422 54.954,27.315 33.373,27.243 23.542 L 27.112 5.667 211.056 5.667 L 395.000 5.667 395.000 42.757 M63.182 36.484 C 62.790 36.877,62.653 40.518,63.006 41.178 C 63.254 41.641,66.587 41.667,66.935 41.208 C 67.257 40.784,67.254 37.016,66.930 36.574 C 66.554 36.059,63.676 35.991,63.182 36.484 M119.537 36.340 C 119.163 36.490,119.158 36.529,119.204 38.955 L 119.250 41.417 121.059 41.464 C 123.439 41.527,123.333 41.649,123.333 38.840 L 123.333 36.554 122.909 36.360 C 122.411 36.133,120.087 36.120,119.537 36.340 M128.870 36.426 L 128.500 36.686 128.505 50.801 C 128.510 62.274,128.552 64.971,128.732 65.208 C 129.005 65.568,139.897 65.659,140.988 65.310 C 144.834 64.082,145.500 62.523,145.500 54.750 C 145.500 47.666,144.920 45.898,142.210 44.725 C 141.865 44.576,141.403 44.370,141.183 44.269 C 139.501 43.490,134.393 44.203,133.426 45.352 C 133.204 45.617,132.979 45.833,132.927 45.833 C 132.876 45.833,132.833 43.825,132.833 41.370 C 132.833 35.862,132.954 36.167,130.778 36.167 C 129.656 36.167,129.141 36.237,128.870 36.426 M219.000 36.500 C 218.683 36.817,218.667 37.056,218.667 41.442 L 218.667 46.051 218.114 45.484 C 215.855 43.168,209.067 43.785,207.291 46.468 C 206.252 48.037,206.167 48.672,206.167 54.800 C 206.167 61.153,206.223 61.555,207.355 63.259 C 209.123 65.919,216.243 66.522,218.214 64.179 L 218.667 63.641 218.667 64.295 C 218.667 65.365,218.980 65.521,221.015 65.464 C 223.402 65.398,223.161 67.030,223.164 50.864 C 223.167 37.082,223.150 36.662,222.600 36.294 C 222.151 35.994,219.345 36.155,219.000 36.500 M66.750 38.917 L 66.750 41.250 65.086 41.298 C 62.974 41.359,63.000 41.389,63.000 38.898 C 63.000 36.320,62.866 36.480,64.978 36.536 L 66.750 36.583 66.750 38.917 M123.066 36.764 C 123.284 37.333,123.175 40.952,122.934 41.153 C 122.782 41.278,122.126 41.329,121.059 41.298 L 119.417 41.250 119.370 39.092 C 119.344 37.905,119.360 36.837,119.406 36.717 C 119.540 36.369,122.930 36.412,123.066 36.764 M132.503 41.292 C 132.505 46.717,132.527 46.825,133.384 45.779 C 134.408 44.529,135.055 44.333,138.123 44.337 C 144.203 44.346,145.334 45.978,145.333 54.736 C 145.333 62.358,144.575 64.089,140.798 65.095 C 139.420 65.461,129.076 65.440,128.934 65.070 C 128.796 64.708,128.806 36.750,128.944 36.611 C 129.006 36.550,129.831 36.500,130.778 36.500 L 132.500 36.500 132.503 41.292 M222.732 36.764 C 222.942 37.309,222.845 64.921,222.633 65.133 C 222.505 65.261,221.852 65.333,220.818 65.333 C 219.004 65.333,219.000 65.331,219.000 64.070 C 219.000 63.149,218.840 63.148,217.956 64.063 C 216.341 65.733,211.075 65.861,208.720 64.287 C 206.653 62.906,206.331 61.623,206.339 54.800 C 206.346 48.804,206.506 47.799,207.687 46.307 C 209.658 43.819,216.468 43.565,218.259 45.914 C 218.960 46.833,219.000 46.595,219.000 41.518 C 219.000 38.880,219.050 36.672,219.111 36.611 C 219.369 36.353,222.627 36.490,222.732 36.764 M40.322 38.930 C 40.049 39.259,39.869 63.866,40.132 64.881 L 40.271 65.417 46.344 65.466 C 52.353 65.514,52.970 65.473,54.167 64.945 C 55.603 64.311,56.844 62.900,57.344 61.333 C 57.699 60.220,57.697 43.933,57.341 42.833 C 56.785 41.113,55.456 39.730,53.671 39.014 C 52.680 38.617,40.645 38.541,40.322 38.930 M242.750 38.823 C 239.482 39.383,237.930 41.663,237.922 45.917 C 237.915 49.336,238.263 50.450,239.775 51.859 C 240.808 52.822,243.110 53.642,246.500 54.255 C 251.044 55.076,252.000 56.124,251.314 59.535 C 250.933 61.434,250.282 61.750,246.753 61.750 C 242.923 61.750,242.167 61.247,242.167 58.695 C 242.167 57.145,241.978 57.000,239.963 57.000 C 237.885 57.000,237.748 57.153,237.895 59.315 C 238.107 62.451,239.422 64.341,241.945 65.138 C 243.279 65.559,249.983 65.684,251.155 65.310 C 254.450 64.258,255.665 62.334,255.665 58.167 C 255.665 53.845,254.392 52.027,250.487 50.769 C 249.441 50.432,246.032 49.800,245.693 49.880 C 245.541 49.916,245.717 49.996,246.083 50.058 C 246.450 50.120,247.070 50.245,247.461 50.335 C 247.852 50.426,248.354 50.500,248.578 50.500 C 248.801 50.500,249.157 50.567,249.367 50.649 C 249.578 50.731,250.088 50.897,250.500 51.017 C 254.132 52.076,255.510 54.081,255.493 58.282 C 255.470 63.731,253.475 65.335,246.726 65.331 C 240.308 65.328,238.167 63.740,238.167 58.988 L 238.167 57.322 239.958 57.369 L 241.750 57.417 241.924 58.873 C 242.241 61.522,242.979 62.000,246.750 62.000 C 250.386 62.000,251.338 61.428,251.588 59.093 C 251.835 56.795,251.314 55.575,249.790 54.879 C 249.131 54.578,248.724 54.476,246.208 53.976 C 239.363 52.618,238.250 51.514,238.250 46.083 C 238.250 41.952,238.838 40.738,241.440 39.491 L 242.464 39.000 246.558 39.000 C 249.239 39.000,250.812 39.066,251.117 39.190 C 252.423 39.723,252.773 39.924,253.413 40.514 C 254.609 41.616,255.167 43.114,255.167 45.220 L 255.167 46.667 253.337 46.667 C 251.255 46.667,251.431 46.812,251.272 44.955 C 251.082 42.727,250.269 42.250,246.663 42.250 C 242.767 42.250,242.167 42.675,241.911 45.616 C 241.714 47.879,242.264 48.944,243.943 49.546 C 244.848 49.870,245.596 49.944,245.167 49.667 C 245.029 49.578,244.750 49.504,244.547 49.503 C 242.081 49.486,241.078 44.518,243.220 42.931 C 243.897 42.430,248.918 42.320,249.833 42.786 C 250.628 43.191,251.166 44.281,251.169 45.494 C 251.173 46.865,251.230 46.908,253.119 46.970 C 255.372 47.043,255.428 46.994,255.378 44.971 C 255.357 44.117,255.256 43.193,255.153 42.918 C 254.265 40.542,252.812 39.272,250.477 38.829 C 249.525 38.648,243.793 38.644,242.750 38.823 M53.500 39.211 C 55.210 39.814,56.167 40.704,56.911 42.388 L 57.333 43.343 57.331 52.046 C 57.328 61.349,57.341 61.197,56.461 62.693 C 55.095 65.014,54.184 65.250,46.583 65.250 L 40.417 65.250 40.374 52.125 L 40.331 39.000 46.624 39.003 C 51.185 39.004,53.077 39.062,53.500 39.211 M91.900 39.461 C 91.465 39.751,91.333 40.396,91.333 42.239 L 91.333 44.167 90.060 44.167 C 88.443 44.167,88.346 44.277,88.339 46.116 C 88.332 47.818,88.512 48.000,90.204 48.000 L 91.333 48.000 91.333 53.426 C 91.333 58.502,91.471 60.694,91.848 61.625 C 92.636 63.572,93.810 64.610,96.012 65.311 C 96.828 65.570,100.705 65.562,100.967 65.300 C 101.245 65.022,101.238 62.263,100.958 62.043 C 100.844 61.953,100.019 61.833,99.125 61.777 C 95.779 61.568,95.835 61.698,95.834 54.042 L 95.833 48.000 97.963 48.000 C 100.781 48.000,100.833 47.965,100.833 46.100 C 100.833 44.177,100.819 44.167,98.029 44.167 L 95.833 44.167 95.833 42.083 C 95.833 39.372,95.802 39.332,93.625 39.336 C 92.777 39.337,92.001 39.394,91.900 39.461 M172.875 39.505 C 172.512 39.651,172.500 39.728,172.500 41.911 L 172.500 44.167 171.192 44.167 C 169.465 44.167,169.333 44.305,169.333 46.129 C 169.333 47.834,169.507 48.000,171.287 48.000 L 172.500 48.000 172.500 54.075 C 172.500 61.536,172.696 62.538,174.433 63.970 C 175.839 65.129,177.115 65.500,179.694 65.500 C 182.283 65.500,182.333 65.464,182.333 63.638 C 182.333 61.994,182.231 61.908,180.130 61.777 C 178.099 61.651,177.224 61.172,176.912 60.016 C 176.758 59.444,176.608 49.284,176.743 48.562 L 176.848 48.000 179.008 48.000 C 181.741 48.000,181.833 47.937,181.833 46.072 C 181.833 44.119,181.900 44.167,179.179 44.167 C 176.444 44.167,176.667 44.396,176.667 41.589 C 176.667 39.604,176.655 39.536,176.292 39.438 C 175.725 39.286,173.301 39.334,172.875 39.505 M299.452 39.542 C 299.221 39.714,299.165 40.120,299.128 41.917 L 299.083 44.083 297.917 44.127 C 296.069 44.197,296.000 44.267,296.000 46.083 C 296.000 47.899,296.069 47.970,297.917 48.039 L 299.083 48.083 299.167 54.583 C 299.212 58.158,299.313 61.233,299.390 61.417 C 300.320 63.622,301.346 64.553,303.678 65.308 C 304.489 65.570,308.370 65.564,308.633 65.300 C 308.907 65.027,308.900 62.481,308.625 62.135 C 308.473 61.943,307.981 61.847,306.792 61.774 C 303.383 61.567,303.339 61.465,303.336 53.708 L 303.333 48.000 305.511 48.000 C 308.387 48.000,308.333 48.036,308.333 46.111 C 308.333 44.100,308.426 44.167,305.633 44.167 L 303.333 44.167 303.333 41.923 C 303.333 39.874,303.305 39.663,303.011 39.506 C 302.547 39.258,299.795 39.285,299.452 39.542 M95.500 42.000 L 95.583 44.250 97.912 44.333 C 100.192 44.415,100.245 44.425,100.451 44.833 C 100.703 45.331,100.731 46.642,100.504 47.239 L 100.342 47.667 98.108 47.667 C 96.389 47.667,95.829 47.721,95.679 47.902 C 95.294 48.366,95.512 59.961,95.919 60.654 C 96.468 61.589,97.457 62.000,99.160 62.000 C 100.944 62.000,101.000 62.051,101.000 63.667 C 101.000 65.316,100.978 65.333,98.866 65.333 C 94.657 65.333,92.355 63.772,91.829 60.561 C 91.741 60.023,91.668 56.992,91.668 53.825 C 91.667 47.189,91.799 47.667,89.967 47.667 L 88.667 47.667 88.667 46.087 C 88.667 44.272,88.568 44.369,90.500 44.293 L 91.583 44.250 91.624 42.333 C 91.687 39.424,91.517 39.647,93.630 39.703 L 95.417 39.750 95.500 42.000 M176.500 41.800 C 176.500 44.466,176.369 44.333,178.992 44.336 C 181.685 44.339,181.941 44.592,181.594 46.906 L 181.480 47.667 179.312 47.667 C 176.185 47.667,176.500 47.000,176.500 53.612 C 176.500 61.510,176.731 62.000,180.460 62.000 C 182.018 62.000,182.000 61.981,182.000 63.667 C 182.000 65.403,182.085 65.334,179.941 65.331 C 176.223 65.327,174.142 64.214,173.136 61.691 C 172.774 60.784,172.758 60.523,172.701 54.419 C 172.633 47.183,172.750 47.667,171.069 47.667 C 169.615 47.667,169.500 47.547,169.500 46.029 C 169.500 44.588,169.749 44.352,171.333 44.295 L 172.583 44.250 172.624 42.333 C 172.686 39.437,172.510 39.667,174.670 39.667 L 176.500 39.667 176.500 41.800 M303.167 42.000 L 303.250 44.250 305.489 44.297 C 308.252 44.354,308.192 44.313,308.131 46.150 L 308.083 47.583 305.844 47.630 C 302.871 47.692,303.167 46.997,303.167 53.911 C 303.167 61.618,303.341 62.000,306.863 62.000 C 308.585 62.000,308.667 62.075,308.667 63.667 C 308.667 65.304,308.628 65.334,306.536 65.327 C 303.704 65.318,302.205 64.830,300.874 63.484 C 299.464 62.057,299.424 61.814,299.367 54.508 C 299.311 47.152,299.450 47.697,297.610 47.631 L 296.250 47.583 296.201 46.182 C 296.141 44.463,296.164 44.438,297.883 44.333 L 299.250 44.250 299.294 42.167 C 299.351 39.423,299.170 39.647,301.289 39.703 L 303.083 39.750 303.167 42.000 M44.500 42.279 C 44.362 42.336,44.195 42.466,44.128 42.567 C 43.894 42.917,43.976 61.404,44.213 61.727 C 44.406 61.992,44.761 62.014,48.118 61.968 C 53.869 61.888,53.667 62.248,53.667 52.083 C 53.667 41.981,53.833 42.280,48.167 42.214 C 46.288 42.192,44.637 42.221,44.500 42.279 M52.059 42.772 C 53.342 43.384,53.333 43.323,53.333 52.083 C 53.333 62.364,53.675 61.695,48.374 61.803 C 46.608 61.839,44.977 61.822,44.749 61.765 L 44.333 61.660 44.333 52.080 L 44.333 42.500 47.911 42.500 C 50.877 42.500,51.586 42.547,52.059 42.772 M63.167 44.330 C 62.861 44.523,62.695 64.280,62.992 65.063 C 63.209 65.632,66.520 65.755,66.935 65.208 C 67.333 64.684,67.263 44.806,66.862 44.442 C 66.516 44.130,63.623 44.042,63.167 44.330 M75.250 44.404 C 72.316 45.258,70.898 47.618,71.500 50.647 C 71.985 53.085,72.678 53.696,77.739 56.154 C 81.074 57.773,81.513 58.106,81.836 59.261 C 82.195 60.543,81.749 61.354,80.464 61.755 C 79.853 61.946,79.817 61.979,80.217 61.989 C 82.209 62.036,82.859 59.335,81.222 57.811 C 80.962 57.569,79.272 56.652,77.465 55.773 C 75.659 54.894,74.046 54.066,73.882 53.933 C 73.718 53.799,73.354 53.503,73.074 53.274 C 71.440 51.940,71.193 48.146,72.616 46.212 C 73.691 44.749,75.489 44.333,80.731 44.333 C 85.071 44.333,84.833 44.231,84.833 46.099 C 84.833 47.791,85.152 47.667,80.814 47.667 C 76.412 47.667,75.654 47.927,75.641 49.441 C 75.628 50.966,75.889 51.187,80.478 53.543 C 85.453 56.097,85.917 56.648,85.917 60.000 C 85.917 64.498,84.337 65.379,76.417 65.297 L 71.917 65.250 71.917 63.750 L 71.917 62.250 75.750 62.162 L 79.583 62.074 75.714 62.037 C 71.236 61.994,71.500 61.887,71.500 63.750 C 71.500 65.635,71.100 65.500,76.695 65.500 C 82.181 65.500,82.718 65.421,84.333 64.380 C 85.873 63.388,86.772 59.833,85.977 57.883 C 85.451 56.594,85.286 56.332,84.602 55.702 C 84.195 55.327,83.200 54.688,82.390 54.282 C 76.396 51.281,75.829 50.878,75.839 49.625 C 75.850 48.078,76.247 47.939,80.945 47.835 C 83.069 47.788,84.868 47.689,84.942 47.614 C 85.227 47.328,85.218 45.020,84.931 44.582 L 84.659 44.167 80.288 44.188 C 77.521 44.202,75.672 44.281,75.250 44.404 M105.262 44.429 C 104.942 44.748,104.857 64.587,105.173 65.178 C 105.326 65.465,105.535 65.500,107.080 65.500 C 109.546 65.500,109.333 66.252,109.333 57.541 C 109.333 47.967,109.320 48.000,113.287 48.000 C 115.859 48.000,115.833 48.019,115.833 46.111 C 115.833 44.186,115.815 44.167,114.006 44.167 C 111.996 44.167,109.821 45.063,109.531 46.010 C 109.491 46.142,109.711 46.015,110.020 45.727 C 111.034 44.786,112.430 44.333,114.321 44.333 C 115.599 44.333,115.692 44.466,115.632 46.192 L 115.583 47.583 113.500 47.668 C 111.028 47.768,110.211 48.113,109.498 49.359 L 109.083 50.083 109.038 57.333 C 108.982 66.306,109.206 65.333,107.197 65.333 C 104.945 65.333,105.167 66.485,105.167 54.806 C 105.167 43.090,104.923 44.333,107.219 44.333 C 108.847 44.333,108.956 44.408,109.031 45.575 C 109.060 46.023,109.168 46.419,109.272 46.453 C 109.534 46.539,109.367 45.030,109.061 44.542 C 108.756 44.056,105.725 43.965,105.262 44.429 M119.367 44.367 C 119.078 44.656,119.078 65.011,119.367 65.300 C 119.496 65.429,120.163 65.500,121.250 65.500 C 122.337 65.500,123.004 65.429,123.133 65.300 C 123.502 64.932,123.413 44.681,123.042 44.399 C 122.658 44.107,119.652 44.081,119.367 44.367 M149.996 44.508 C 149.738 44.990,149.842 61.117,150.106 61.583 C 150.209 61.767,150.393 62.142,150.514 62.417 C 151.483 64.626,153.302 65.501,156.914 65.497 C 159.843 65.494,161.134 65.065,161.893 63.843 L 162.158 63.417 162.168 64.167 C 162.184 65.402,162.347 65.500,164.388 65.500 C 165.964 65.500,166.174 65.465,166.327 65.178 C 166.641 64.593,166.558 44.990,166.241 44.537 C 166.002 44.197,165.847 44.167,164.350 44.167 C 161.954 44.167,162.167 43.388,162.167 52.140 C 162.167 61.877,162.224 61.748,157.917 61.746 C 153.943 61.744,154.098 62.115,154.028 52.422 C 153.996 47.991,153.906 44.636,153.814 44.464 C 153.557 43.984,150.256 44.022,149.996 44.508 M190.500 44.333 C 190.362 44.422,190.084 44.496,189.881 44.497 C 188.782 44.505,187.035 45.962,186.281 47.500 L 185.750 48.583 185.750 54.667 C 185.750 61.868,185.785 62.061,187.401 63.806 C 188.799 65.315,189.741 65.496,196.202 65.498 C 202.517 65.500,202.000 65.669,202.000 63.606 C 202.000 61.728,202.305 61.834,196.863 61.832 C 190.237 61.831,189.728 61.561,189.868 58.122 L 189.917 56.917 195.881 56.833 C 200.934 56.763,201.871 56.712,202.013 56.500 C 202.278 56.101,202.102 48.887,201.808 48.167 C 200.952 46.061,199.706 44.985,197.397 44.354 C 196.555 44.124,190.850 44.107,190.500 44.333 M259.200 44.367 C 258.875 44.692,259.048 45.828,259.666 47.417 C 259.737 47.600,259.888 48.087,260.000 48.500 C 260.113 48.913,260.264 49.438,260.335 49.667 C 260.407 49.896,260.629 50.646,260.829 51.333 C 261.029 52.021,261.375 53.183,261.598 53.917 C 261.821 54.650,262.087 55.550,262.191 55.917 C 262.294 56.283,262.508 56.996,262.667 57.500 C 262.825 58.004,263.039 58.717,263.142 59.083 C 264.601 64.286,264.719 64.500,266.124 64.500 C 266.995 64.500,267.002 64.669,266.204 66.298 C 265.435 67.870,264.181 68.500,261.826 68.500 C 260.285 68.500,260.179 68.625,260.172 70.449 C 260.165 72.192,260.320 72.333,262.245 72.333 C 266.948 72.332,269.365 70.409,270.829 65.500 C 271.034 64.813,271.260 64.063,271.331 63.833 C 271.403 63.604,271.554 63.079,271.667 62.667 C 271.780 62.254,271.930 61.729,272.000 61.500 C 272.070 61.271,272.210 60.783,272.311 60.417 C 272.412 60.050,272.686 59.075,272.919 58.250 C 273.152 57.425,273.425 56.450,273.524 56.083 C 273.624 55.717,273.763 55.229,273.833 55.000 C 273.904 54.771,274.054 54.246,274.167 53.833 C 274.280 53.421,274.436 52.896,274.515 52.667 C 274.594 52.438,274.966 51.163,275.342 49.833 C 275.719 48.504,276.101 47.154,276.192 46.833 C 276.934 44.219,276.902 44.167,274.589 44.167 C 272.653 44.167,272.545 44.226,272.174 45.500 C 272.053 45.913,271.889 46.475,271.808 46.750 C 271.727 47.025,271.400 48.225,271.082 49.417 C 270.763 50.608,270.437 51.808,270.357 52.083 C 270.277 52.358,270.118 52.921,270.003 53.333 C 269.889 53.746,269.737 54.271,269.667 54.500 C 269.138 56.221,268.000 60.497,267.995 60.779 C 267.988 61.192,267.680 60.679,267.486 59.931 C 267.355 59.427,267.167 58.752,266.833 57.583 C 266.560 56.627,266.384 55.996,265.952 54.417 C 265.726 53.592,265.375 52.317,265.172 51.583 C 264.970 50.850,264.731 49.987,264.642 49.667 C 264.554 49.346,264.406 48.821,264.315 48.500 C 264.223 48.179,264.084 47.692,264.005 47.417 C 263.926 47.142,263.739 46.467,263.589 45.917 C 263.116 44.182,263.094 44.167,261.113 44.167 C 260.003 44.167,259.330 44.237,259.200 44.367 M283.000 44.420 C 281.747 44.773,281.379 44.960,280.673 45.597 C 280.046 46.164,279.882 46.428,279.357 47.716 C 279.038 48.498,279.121 50.699,279.509 51.735 C 280.143 53.429,281.225 54.161,287.549 57.170 C 290.061 58.365,290.392 61.270,288.078 61.812 C 287.473 61.953,287.459 61.968,287.917 61.983 C 290.899 62.079,290.403 58.196,287.250 56.757 C 280.349 53.607,279.337 52.679,279.337 49.500 C 279.337 45.452,281.299 44.333,288.400 44.333 C 292.827 44.333,292.667 44.272,292.667 45.973 C 292.667 47.756,292.880 47.667,288.628 47.667 C 283.989 47.667,283.333 47.904,283.333 49.583 C 283.333 50.930,283.800 51.313,288.092 53.495 C 293.287 56.135,294.362 57.604,293.675 61.125 C 292.977 64.701,291.600 65.318,284.295 65.327 L 279.673 65.333 279.578 64.955 C 279.526 64.747,279.506 64.053,279.533 63.413 L 279.583 62.250 283.500 62.162 L 287.417 62.074 283.518 62.037 C 278.958 61.994,279.180 61.905,279.172 63.766 C 279.164 65.590,278.883 65.500,284.585 65.500 C 289.509 65.500,289.781 65.471,291.388 64.778 C 293.821 63.728,294.744 60.135,293.379 57.023 C 292.888 55.904,291.813 55.130,288.229 53.320 C 284.083 51.225,283.657 50.887,283.629 49.680 C 283.592 48.036,284.149 47.843,288.946 47.837 C 292.987 47.833,292.833 47.905,292.833 46.000 C 292.833 44.057,293.112 44.163,288.030 44.187 C 285.134 44.201,283.507 44.276,283.000 44.420 M316.661 44.416 C 314.141 45.108,312.547 46.972,312.404 49.398 L 312.344 50.417 312.573 49.333 C 313.019 47.229,313.541 46.336,314.816 45.491 C 316.047 44.676,316.988 44.467,319.842 44.377 C 325.136 44.210,327.203 45.261,328.308 48.678 C 328.578 49.516,328.572 56.195,328.300 56.467 C 328.152 56.615,326.570 56.667,322.217 56.667 L 316.333 56.667 316.346 58.458 C 316.369 61.880,316.585 61.994,323.092 61.997 C 328.668 62.000,328.333 61.898,328.333 63.603 C 328.333 65.507,328.876 65.333,322.937 65.333 C 317.224 65.333,316.247 65.205,314.834 64.270 C 314.115 63.794,313.011 62.416,313.004 61.986 C 313.002 61.841,312.944 61.667,312.875 61.599 C 312.806 61.531,312.660 60.975,312.551 60.363 L 312.351 59.250 312.409 60.282 C 312.514 62.172,313.708 64.000,315.337 64.768 C 316.832 65.473,317.104 65.500,322.694 65.500 C 329.049 65.500,328.667 65.614,328.667 63.727 C 328.667 61.807,329.026 61.930,323.139 61.833 C 316.644 61.726,316.500 61.650,316.500 58.339 L 316.500 56.833 322.396 56.833 C 327.688 56.833,328.316 56.805,328.521 56.557 C 328.851 56.158,328.840 49.759,328.508 48.583 C 327.890 46.395,326.454 45.006,324.167 44.385 C 323.165 44.113,317.681 44.135,316.661 44.416 M333.367 44.367 C 333.078 44.656,333.078 65.011,333.367 65.300 C 333.496 65.429,334.163 65.500,335.250 65.500 C 337.546 65.500,337.333 66.295,337.333 57.725 C 337.333 50.077,337.340 49.997,338.047 48.955 C 338.553 48.211,339.306 47.998,341.395 48.012 C 345.003 48.036,344.903 47.770,344.963 57.489 C 344.995 62.655,345.068 65.131,345.192 65.281 C 345.435 65.573,348.677 65.590,348.967 65.300 C 349.116 65.151,349.167 63.306,349.167 58.028 C 349.167 48.270,349.274 48.000,353.168 48.000 C 356.665 48.000,356.570 47.743,356.633 57.409 C 356.666 62.556,356.741 65.139,356.862 65.284 C 357.220 65.715,360.570 65.575,360.814 65.119 C 361.253 64.299,360.988 49.297,360.511 47.942 C 359.103 43.944,352.403 42.660,349.189 45.774 L 348.293 46.642 347.511 45.860 C 345.257 43.606,339.933 43.480,337.903 45.633 L 337.333 46.236 337.333 45.477 C 337.333 44.331,337.059 44.167,335.145 44.167 C 334.140 44.167,333.494 44.239,333.367 44.367 M368.661 44.416 C 366.029 45.139,364.944 46.659,364.944 49.627 C 364.944 50.713,365.016 51.416,365.139 51.539 C 365.246 51.646,365.333 51.836,365.333 51.961 C 365.333 52.332,366.151 53.293,366.979 53.897 C 367.841 54.526,368.458 54.853,371.583 56.338 C 374.831 57.880,375.333 58.368,375.333 59.974 C 375.333 60.941,374.915 61.462,373.886 61.779 C 373.297 61.960,373.285 61.975,373.724 61.987 C 374.838 62.017,375.500 61.208,375.500 59.817 C 375.500 58.223,375.008 57.733,371.917 56.253 C 370.817 55.726,369.392 55.043,368.750 54.734 C 366.165 53.490,365.171 52.081,365.168 49.655 C 365.163 45.365,366.880 44.342,374.092 44.336 C 378.565 44.333,378.333 44.242,378.333 46.000 C 378.333 47.752,378.540 47.667,374.293 47.667 C 369.771 47.667,369.000 47.948,369.000 49.599 C 369.000 50.822,369.701 51.400,373.529 53.334 C 377.531 55.355,379.000 56.430,379.000 57.338 C 379.000 57.482,379.089 57.689,379.198 57.798 C 379.586 58.186,379.453 61.630,379.014 62.538 C 377.869 64.909,376.555 65.319,370.075 65.327 C 364.873 65.334,365.167 65.429,365.167 63.737 C 365.167 62.112,364.987 62.181,369.346 62.125 L 373.083 62.077 369.242 62.038 C 364.744 61.993,365.000 61.890,365.000 63.750 C 365.000 65.626,364.623 65.500,370.237 65.500 C 375.813 65.500,376.703 65.347,378.053 64.158 C 380.235 62.237,380.224 57.525,378.032 55.650 C 377.400 55.109,376.752 54.751,372.304 52.482 C 369.675 51.141,368.848 50.173,369.331 49.005 C 369.751 47.992,370.031 47.925,374.250 47.833 C 376.358 47.788,378.177 47.689,378.292 47.615 C 378.572 47.434,378.579 44.646,378.300 44.367 C 378.018 44.085,369.713 44.127,368.661 44.416 M66.633 44.533 C 66.845 44.745,66.940 64.527,66.732 65.070 C 66.530 65.596,63.366 65.442,63.159 64.896 C 62.861 64.114,63.028 44.690,63.333 44.496 C 63.704 44.262,66.392 44.292,66.633 44.533 M122.875 44.565 C 123.246 44.847,123.335 64.765,122.967 65.133 C 122.640 65.460,119.563 65.404,119.434 65.070 C 119.226 64.527,119.321 44.745,119.533 44.533 C 119.816 44.251,122.494 44.276,122.875 44.565 M153.511 44.506 C 153.822 44.673,153.833 44.934,153.833 52.221 C 153.833 62.053,153.811 62.000,157.957 62.000 C 162.307 62.000,162.333 61.943,162.333 52.350 C 162.333 43.662,162.169 44.332,164.301 44.336 C 165.098 44.337,165.862 44.410,166.000 44.496 C 166.314 44.695,166.473 64.428,166.165 65.004 C 166.008 65.297,165.812 65.333,164.388 65.333 C 162.545 65.333,162.347 65.210,162.339 64.052 C 162.333 63.305,162.071 62.953,161.885 63.440 C 161.396 64.714,159.808 65.328,157.000 65.329 C 153.324 65.330,151.459 64.333,150.461 61.833 C 149.956 60.569,149.766 45.091,150.249 44.608 C 150.569 44.288,152.964 44.213,153.511 44.506 M197.191 44.574 C 199.126 44.984,200.487 45.893,201.118 47.198 C 201.822 48.653,201.841 48.811,201.795 52.751 L 201.750 56.583 195.750 56.667 L 189.750 56.750 189.703 58.426 C 189.660 59.939,189.692 60.155,190.036 60.660 C 190.906 61.938,190.776 61.911,196.378 61.965 C 202.188 62.022,201.833 61.912,201.833 63.654 C 201.833 65.453,202.226 65.333,196.308 65.333 C 190.045 65.333,188.938 65.119,187.568 63.640 C 185.963 61.906,185.917 61.661,185.917 54.833 C 185.917 47.507,186.243 46.423,188.856 45.072 C 190.212 44.370,194.907 44.090,197.191 44.574 M262.829 44.662 C 263.010 44.843,263.206 45.200,263.264 45.454 C 263.420 46.132,264.672 50.747,264.996 51.833 C 265.246 52.672,265.625 54.006,266.346 56.583 C 266.628 57.592,266.934 58.679,267.026 59.000 C 267.119 59.321,267.236 59.808,267.288 60.083 C 267.545 61.452,267.994 61.518,268.317 60.236 C 268.472 59.618,268.596 59.168,269.011 57.708 C 269.109 57.365,269.254 56.821,269.333 56.500 C 269.490 55.868,269.547 55.662,270.317 52.917 C 270.600 51.908,270.916 50.783,271.019 50.417 C 271.121 50.050,271.261 49.563,271.329 49.333 C 271.650 48.256,271.821 47.646,272.169 46.333 C 272.662 44.473,272.829 44.333,274.570 44.333 C 276.570 44.333,276.605 44.381,276.075 46.333 C 275.650 47.900,275.463 48.574,275.157 49.625 C 275.071 49.923,274.925 50.429,274.833 50.750 C 274.742 51.071,274.596 51.577,274.509 51.875 C 274.423 52.173,274.280 52.679,274.191 53.000 C 274.103 53.321,273.799 54.408,273.516 55.417 C 273.233 56.425,272.917 57.550,272.815 57.917 C 272.712 58.283,272.570 58.771,272.500 59.000 C 272.430 59.229,272.280 59.754,272.167 60.167 C 272.054 60.579,271.897 61.104,271.818 61.333 C 271.740 61.563,271.455 62.538,271.185 63.500 C 269.293 70.246,267.791 71.792,262.962 71.962 L 260.675 72.042 260.504 71.594 C 260.281 71.006,260.286 69.851,260.516 69.192 L 260.699 68.667 261.986 68.667 C 264.772 68.667,265.962 67.809,266.999 65.052 C 267.278 64.308,267.120 64.167,266.011 64.167 C 264.994 64.167,264.801 64.053,264.596 63.333 C 264.531 63.104,264.412 62.692,264.331 62.417 C 264.251 62.142,264.113 61.654,264.025 61.333 C 263.936 61.012,263.513 59.587,263.083 58.167 C 262.273 55.485,262.125 54.979,261.863 54.000 C 261.777 53.679,261.595 53.079,261.458 52.667 C 261.322 52.254,261.082 51.467,260.925 50.917 C 260.768 50.367,260.495 49.429,260.318 48.833 C 260.142 48.237,259.914 47.450,259.813 47.083 C 259.712 46.717,259.568 46.267,259.494 46.083 C 258.892 44.593,259.118 44.333,261.020 44.333 C 262.271 44.333,262.551 44.384,262.829 44.662 M336.862 44.609 C 337.067 44.795,337.167 45.119,337.167 45.599 C 337.167 46.518,337.387 46.640,337.867 45.988 C 339.639 43.580,345.567 43.811,347.737 46.373 C 348.248 46.976,348.363 47.043,348.499 46.814 C 350.621 43.235,358.409 43.609,360.051 47.368 C 360.660 48.764,360.681 49.124,360.632 57.250 L 360.583 65.250 358.931 65.298 C 357.901 65.328,357.211 65.278,357.098 65.165 C 356.975 65.042,356.890 62.505,356.833 57.284 C 356.730 47.771,356.772 47.890,353.495 47.701 C 349.278 47.457,349.000 48.086,349.000 57.874 C 349.000 66.042,349.182 65.333,347.083 65.333 C 344.981 65.333,345.167 66.093,345.167 57.487 C 345.167 47.722,345.067 47.495,340.876 47.696 C 337.243 47.869,337.177 48.040,337.171 57.386 C 337.168 62.092,337.105 64.803,336.994 65.011 C 336.819 65.339,334.302 65.503,333.597 65.232 C 333.250 65.099,333.188 44.878,333.533 44.533 C 333.857 44.209,336.486 44.269,336.862 44.609 M136.621 47.620 C 136.917 47.657,137.442 47.658,137.788 47.622 C 138.134 47.586,137.892 47.555,137.250 47.555 C 136.608 47.554,136.325 47.583,136.621 47.620 M134.127 48.010 C 132.672 48.779,132.504 49.614,132.502 56.136 C 132.501 59.419,132.564 61.475,132.673 61.678 C 132.834 61.979,133.051 62.000,135.986 62.000 C 141.391 62.000,141.333 62.078,141.333 54.733 C 141.333 48.584,141.026 47.622,139.083 47.684 C 138.643 47.698,138.671 47.723,139.318 47.896 C 139.835 48.034,140.207 48.282,140.568 48.728 L 141.083 49.364 141.083 54.557 C 141.083 62.036,141.281 61.750,136.100 61.750 L 132.917 61.750 132.866 56.583 C 132.792 48.906,132.941 48.324,135.103 47.875 C 135.845 47.721,135.865 47.705,135.333 47.694 C 135.012 47.687,134.470 47.829,134.127 48.010 M191.447 47.900 C 189.994 48.437,189.667 49.161,189.667 51.836 C 189.667 54.226,189.215 54.000,193.993 54.000 C 198.557 54.000,198.216 54.195,198.140 51.632 C 198.075 49.463,197.769 48.643,196.817 48.083 C 196.077 47.649,192.462 47.525,191.447 47.900 M212.122 47.888 C 210.339 48.443,210.167 49.074,210.167 55.035 C 210.167 61.664,210.372 62.000,214.419 62.000 C 218.652 62.000,218.917 61.581,218.917 54.900 C 218.917 49.690,218.904 49.605,218.015 48.621 C 217.229 47.752,213.892 47.336,212.122 47.888 M318.417 47.786 C 316.704 48.199,316.308 48.971,316.370 51.782 L 316.417 53.917 320.417 53.961 C 325.051 54.013,324.833 54.092,324.833 52.357 C 324.833 49.571,324.210 48.218,322.760 47.853 C 322.037 47.671,319.081 47.625,318.417 47.786 M196.802 48.338 C 197.636 48.846,197.833 49.515,197.833 51.828 L 197.833 53.833 193.920 53.833 L 190.006 53.833 189.897 53.397 C 189.739 52.767,189.930 49.657,190.157 49.167 C 190.702 47.988,195.290 47.416,196.802 48.338 M217.332 48.352 C 218.601 49.066,218.667 49.384,218.667 54.841 C 218.667 61.573,218.555 61.750,214.324 61.750 L 212.031 61.750 211.415 61.250 C 210.381 60.411,210.312 59.977,210.368 54.622 C 210.436 48.065,210.455 48.033,214.394 48.012 C 216.451 48.001,216.773 48.039,217.332 48.352 M323.327 48.272 C 324.235 48.725,324.520 49.628,324.464 51.870 L 324.417 53.750 320.458 53.795 L 316.500 53.839 316.504 51.878 C 316.508 49.638,316.792 48.713,317.609 48.284 C 318.324 47.909,322.581 47.900,323.327 48.272 " stroke="none" fill="#848484" fill-rule="evenodd"></path></g></svg>