<svg id="svg" version="1.1" xmlns="http://www.w3.org/2000/svg" xmlns:xlink="http://www.w3.org/1999/xlink" width="400" height="107.33229329173167" viewBox="0, 0, 400,107.33229329173167"><g id="svgg"><path id="path0" d="M0.833 22.417 L 0.833 43.167 3.736 43.167 C 5.333 43.167,6.758 43.212,6.903 43.268 C 7.307 43.423,7.307 77.744,6.903 77.899 C 6.758 77.954,5.333 78.000,3.735 78.000 L 0.831 78.000 0.874 91.958 L 0.917 105.917 9.625 105.960 L 18.333 106.003 18.333 53.835 L 18.333 1.667 9.583 1.667 L 0.833 1.667 0.833 22.417 M23.226 14.958 C 23.287 22.269,23.404 45.677,23.487 66.977 C 23.573 89.233,23.700 105.766,23.785 105.852 C 24.132 106.198,379.362 105.949,379.565 105.602 C 379.667 105.428,380.012 104.968,380.333 104.578 C 380.654 104.188,381.254 103.440,381.667 102.917 C 382.079 102.393,382.679 101.638,383.000 101.238 C 383.321 100.838,383.883 100.126,384.250 99.657 C 384.617 99.187,385.179 98.482,385.500 98.090 C 385.821 97.698,386.383 96.985,386.750 96.505 C 387.117 96.026,387.604 95.422,387.833 95.164 C 388.850 94.019,389.667 93.012,389.667 92.904 C 389.667 92.840,389.948 92.471,390.292 92.084 C 390.635 91.698,391.254 90.951,391.667 90.426 C 394.270 87.107,394.849 86.379,395.917 85.081 C 396.467 84.413,397.348 83.325,397.875 82.665 L 398.833 81.464 398.833 41.565 L 398.833 1.667 210.974 1.667 L 23.115 1.667 23.226 14.958 M395.125 42.747 L 395.167 79.911 394.637 80.664 C 394.345 81.078,393.876 81.684,393.595 82.010 C 393.313 82.337,392.858 82.898,392.583 83.257 C 392.308 83.616,391.856 84.173,391.578 84.496 C 391.053 85.105,390.340 86.016,389.730 86.858 C 389.535 87.126,389.104 87.639,388.771 87.999 C 388.439 88.358,388.167 88.716,388.167 88.793 C 388.167 88.871,387.904 89.189,387.583 89.500 C 387.262 89.811,387.000 90.148,387.000 90.249 C 387.000 90.350,386.700 90.725,386.333 91.083 C 385.967 91.441,385.667 91.800,385.667 91.881 C 385.667 91.961,385.407 92.339,385.089 92.722 C 382.725 95.567,382.172 96.240,381.583 96.993 C 381.217 97.461,380.654 98.171,380.333 98.571 C 380.012 98.971,379.412 99.726,379.000 100.249 C 378.587 100.772,378.075 101.417,377.860 101.683 L 377.470 102.167 202.505 102.167 L 27.539 102.167 27.438 101.792 C 27.383 101.585,27.338 96.954,27.338 91.500 C 27.338 86.046,27.252 64.582,27.147 43.802 C 27.042 23.023,27.001 5.904,27.056 5.761 C 27.147 5.524,44.373 5.504,211.120 5.542 L 395.083 5.583 395.125 42.747 M80.603 36.758 C 80.393 37.307,80.487 64.920,80.700 65.133 C 81.112 65.545,84.145 65.395,84.251 64.958 C 84.301 64.752,84.321 58.283,84.296 50.583 L 84.250 36.583 82.478 36.536 C 80.973 36.496,80.691 36.530,80.603 36.758 M90.270 36.758 C 90.059 37.307,90.153 64.920,90.367 65.133 C 90.778 65.545,93.812 65.395,93.918 64.958 C 93.968 64.752,93.988 58.283,93.963 50.583 L 93.917 36.583 92.145 36.536 C 90.640 36.496,90.358 36.530,90.270 36.758 M185.003 50.708 C 185.004 58.523,185.066 65.013,185.141 65.131 C 185.241 65.289,185.720 65.333,186.930 65.298 L 188.583 65.250 188.626 50.875 L 188.669 36.500 186.834 36.500 L 185.000 36.500 185.003 50.708 M314.573 36.717 C 314.527 36.837,314.511 37.905,314.536 39.092 L 314.583 41.250 316.375 41.297 L 318.167 41.345 318.167 38.922 L 318.167 36.500 316.411 36.500 C 315.123 36.500,314.634 36.558,314.573 36.717 M40.434 39.264 C 40.204 39.865,40.334 64.737,40.570 65.048 C 40.765 65.305,41.021 65.339,42.440 65.298 L 44.083 65.250 44.175 59.917 C 44.225 56.983,44.281 54.565,44.300 54.542 C 44.318 54.519,46.278 54.500,48.655 54.500 C 53.733 54.500,53.500 54.580,53.500 52.835 C 53.500 51.015,53.911 51.167,48.994 51.167 C 45.304 51.167,44.653 51.129,44.429 50.905 C 44.125 50.601,44.035 42.966,44.330 42.500 C 44.463 42.289,45.246 42.243,49.369 42.204 C 54.977 42.150,54.667 42.246,54.667 40.565 C 54.667 38.839,55.406 39.000,47.500 39.000 C 41.303 39.000,40.525 39.029,40.434 39.264 M113.097 39.343 C 110.488 40.333,109.499 42.196,109.502 46.109 C 109.506 51.001,110.838 52.511,116.167 53.661 C 116.671 53.770,117.314 53.928,117.595 54.013 C 117.877 54.097,118.267 54.167,118.462 54.167 C 118.657 54.167,119.214 54.272,119.700 54.401 C 122.299 55.089,123.000 55.901,123.000 58.221 C 123.000 61.324,122.158 61.969,118.083 61.984 C 114.154 61.998,113.167 61.175,113.167 57.883 L 113.167 57.322 111.375 57.369 L 109.583 57.417 109.583 59.250 C 109.583 63.804,111.742 65.339,118.133 65.327 C 125.063 65.315,126.760 63.871,126.742 58.000 C 126.728 53.076,124.993 51.359,119.000 50.335 C 113.704 49.430,112.834 48.672,113.311 45.377 C 113.714 42.585,114.199 42.264,118.016 42.256 C 121.767 42.248,122.667 42.828,122.667 45.257 C 122.667 46.697,122.624 46.667,124.667 46.667 C 126.681 46.667,126.667 46.676,126.667 45.416 C 126.667 44.276,126.352 42.942,125.802 41.750 C 125.384 40.845,124.081 39.789,122.808 39.324 C 121.512 38.850,114.357 38.865,113.097 39.343 M219.525 39.292 C 219.441 39.452,219.133 40.408,218.840 41.417 C 218.152 43.782,218.056 44.115,217.833 44.917 C 217.731 45.283,217.584 45.808,217.506 46.083 C 217.427 46.358,217.206 47.146,217.013 47.833 C 216.820 48.521,216.544 49.496,216.400 50.000 C 216.256 50.504,216.065 51.179,215.976 51.500 C 215.887 51.821,215.748 52.308,215.667 52.583 C 215.585 52.858,215.445 53.346,215.354 53.667 C 215.264 53.987,214.841 55.450,214.415 56.917 C 213.989 58.383,213.572 59.827,213.487 60.125 C 213.402 60.423,213.258 60.929,213.167 61.250 C 213.075 61.571,212.921 62.115,212.824 62.458 C 212.727 62.802,212.569 63.346,212.473 63.667 C 212.377 63.987,212.287 64.475,212.274 64.750 L 212.250 65.250 214.011 65.297 C 216.101 65.353,215.890 65.570,216.803 62.417 C 216.989 61.775,217.278 60.800,217.445 60.250 L 217.750 59.250 222.269 59.206 C 227.274 59.157,226.964 59.087,227.323 60.333 C 227.441 60.746,227.597 61.271,227.669 61.500 C 227.740 61.729,227.962 62.479,228.161 63.167 C 228.360 63.854,228.602 64.623,228.698 64.875 L 228.874 65.333 230.673 65.333 C 232.964 65.333,232.906 65.967,231.163 59.917 C 231.084 59.642,230.940 59.135,230.843 58.792 C 230.746 58.448,230.592 57.904,230.500 57.583 C 230.408 57.262,230.265 56.756,230.182 56.458 C 230.099 56.160,229.799 55.092,229.516 54.083 C 229.233 53.075,228.917 51.950,228.815 51.583 C 228.594 50.794,228.445 50.291,228.198 49.500 C 228.016 48.917,226.776 44.602,226.474 43.500 C 226.308 42.891,226.091 42.128,225.824 41.208 C 225.737 40.910,225.600 40.423,225.519 40.125 C 225.192 38.922,225.407 39.000,222.405 39.000 C 219.978 39.000,219.662 39.032,219.525 39.292 M356.269 39.704 C 356.126 40.096,355.816 41.129,355.581 42.000 C 355.347 42.871,355.091 43.771,355.013 44.000 C 354.936 44.229,354.780 44.754,354.667 45.167 C 354.554 45.579,354.404 46.104,354.333 46.333 C 354.263 46.563,354.122 47.050,354.020 47.417 C 353.733 48.445,352.681 52.190,352.521 52.750 C 352.443 53.025,352.285 53.587,352.170 54.000 C 352.056 54.413,351.902 54.900,351.829 55.083 C 351.756 55.267,351.383 56.542,351.002 57.917 C 350.620 59.292,350.239 60.660,350.154 60.958 C 349.804 62.189,349.657 62.698,349.482 63.292 C 349.380 63.635,349.260 64.238,349.214 64.631 L 349.132 65.345 350.910 65.297 C 352.900 65.244,352.909 65.239,353.316 63.750 C 353.975 61.342,354.529 59.583,354.688 59.390 C 354.835 59.213,355.804 59.167,359.326 59.167 L 363.777 59.167 363.953 59.542 C 364.050 59.748,364.221 60.254,364.334 60.667 C 364.446 61.079,364.597 61.604,364.669 61.833 C 364.740 62.063,364.960 62.813,365.157 63.500 C 365.689 65.358,365.536 65.243,367.559 65.297 C 368.909 65.333,369.338 65.293,369.353 65.131 C 369.392 64.691,369.290 64.204,368.803 62.500 C 368.528 61.538,368.230 60.487,368.142 60.167 C 368.053 59.846,367.915 59.358,367.833 59.083 C 367.645 58.447,367.403 57.599,367.167 56.750 C 367.065 56.383,366.917 55.858,366.840 55.583 C 366.762 55.308,366.384 53.958,366.001 52.583 C 365.617 51.208,365.244 49.933,365.171 49.750 C 365.098 49.567,364.944 49.079,364.830 48.667 C 364.715 48.254,364.558 47.692,364.480 47.417 C 364.130 46.181,363.478 43.857,363.311 43.250 C 363.210 42.883,363.070 42.396,363.000 42.167 C 362.930 41.938,362.779 41.412,362.666 41.000 C 362.553 40.587,362.365 39.987,362.249 39.667 L 362.037 39.083 359.284 39.038 L 356.531 38.992 356.269 39.704 M374.103 39.258 C 373.970 39.605,373.972 64.462,374.105 64.958 C 374.228 65.417,377.283 65.545,377.647 65.107 C 377.784 64.942,377.824 61.372,377.793 51.982 L 377.750 39.083 375.978 39.036 C 374.473 38.996,374.191 39.030,374.103 39.258 M133.416 39.869 C 133.373 39.987,133.318 41.021,133.294 42.167 L 133.250 44.250 132.083 44.294 C 130.233 44.364,130.145 44.451,130.202 46.156 L 130.250 47.583 131.575 47.633 C 133.487 47.704,133.333 47.132,133.333 54.170 C 133.333 61.281,133.424 61.883,134.711 63.278 C 136.100 64.786,137.612 65.318,140.536 65.327 C 142.620 65.334,142.668 65.298,142.664 63.719 C 142.660 61.972,142.689 62.000,140.933 62.000 C 137.331 62.000,137.167 61.648,137.167 53.911 C 137.167 46.997,136.871 47.692,139.844 47.630 L 142.083 47.583 142.131 46.150 C 142.192 44.313,142.252 44.354,139.489 44.297 L 137.250 44.250 137.167 42.000 L 137.083 39.750 135.289 39.703 C 133.945 39.667,133.474 39.709,133.416 39.869 M300.833 41.678 C 300.833 44.298,300.813 44.333,299.265 44.333 C 297.704 44.333,297.639 44.411,297.701 46.192 L 297.750 47.583 299.000 47.628 C 300.960 47.699,300.833 47.212,300.833 54.680 C 300.833 60.948,300.836 60.997,301.226 61.879 C 302.308 64.324,304.276 65.333,307.965 65.333 C 310.099 65.333,310.000 65.423,310.000 63.504 C 310.000 61.980,310.023 62.000,308.261 62.000 C 304.756 62.000,304.500 61.431,304.500 53.643 C 304.500 47.003,304.196 47.667,307.233 47.667 C 309.677 47.667,309.667 47.674,309.667 45.940 C 309.667 44.372,309.602 44.333,307.021 44.333 C 304.365 44.333,304.500 44.469,304.500 41.800 L 304.500 39.667 302.667 39.667 L 300.833 39.667 300.833 41.678 M222.833 43.677 C 222.833 43.846,222.901 44.157,222.983 44.367 C 223.146 44.787,223.166 44.855,224.250 48.833 C 225.123 52.037,225.325 52.765,225.500 53.333 C 225.893 54.613,226.020 55.134,226.050 55.583 L 226.083 56.083 222.417 56.083 L 218.750 56.083 218.695 55.693 C 218.664 55.478,218.712 55.103,218.800 54.859 C 218.986 54.348,219.120 53.877,219.918 50.917 C 220.624 48.299,220.832 47.546,221.000 47.000 C 221.070 46.771,221.220 46.246,221.333 45.833 C 221.446 45.421,221.598 44.896,221.670 44.667 C 221.742 44.438,221.896 43.883,222.013 43.434 L 222.224 42.617 222.529 42.994 C 222.696 43.201,222.833 43.508,222.833 43.677 M359.524 43.125 C 359.624 43.377,359.766 43.808,359.838 44.083 C 360.103 45.084,361.360 49.655,361.672 50.750 C 361.750 51.025,361.898 51.550,362.000 51.917 C 362.102 52.283,362.249 52.808,362.328 53.083 C 362.406 53.358,362.618 54.128,362.800 54.793 L 363.129 56.003 362.773 56.090 C 362.577 56.138,360.879 56.156,359.000 56.131 L 355.583 56.083 355.616 55.583 C 355.635 55.308,355.729 54.821,355.825 54.500 C 355.922 54.179,356.264 52.942,356.585 51.750 C 357.291 49.132,357.499 48.379,357.667 47.833 C 357.737 47.604,357.878 47.117,357.979 46.750 C 358.081 46.383,358.362 45.371,358.603 44.500 C 359.183 42.403,359.217 42.353,359.524 43.125 M58.958 44.513 C 58.599 44.723,58.505 59.620,58.854 60.897 C 59.738 64.124,61.554 65.327,65.551 65.331 C 68.210 65.334,69.756 64.830,70.321 63.774 C 70.751 62.970,71.143 63.201,71.200 64.292 L 71.250 65.250 73.000 65.250 L 74.750 65.250 74.793 54.927 C 74.827 46.779,74.792 44.577,74.626 44.472 C 74.286 44.256,71.593 44.307,71.367 44.533 C 71.218 44.682,71.166 46.479,71.164 51.575 C 71.161 58.790,71.070 59.867,70.382 60.812 C 69.153 62.502,64.189 62.501,62.984 60.811 L 62.583 60.250 62.500 52.452 C 62.429 45.764,62.381 44.632,62.167 44.496 C 61.833 44.285,59.327 44.299,58.958 44.513 M151.065 44.581 C 149.095 45.010,147.818 45.984,147.019 47.667 L 146.583 48.583 146.583 54.833 L 146.583 61.083 147.130 62.201 C 148.773 65.559,155.290 66.640,157.880 63.984 C 158.861 62.978,158.833 62.976,158.833 64.050 C 158.833 65.258,158.950 65.333,160.840 65.333 C 162.400 65.333,162.452 65.321,162.640 64.909 C 162.972 64.181,162.910 45.183,162.574 44.704 C 162.255 44.248,153.048 44.150,151.065 44.581 M172.180 44.601 C 169.849 45.111,168.351 46.622,167.854 48.967 C 167.315 51.510,167.687 61.147,168.372 62.374 C 169.695 64.741,171.349 65.329,176.705 65.331 L 180.494 65.333 180.588 64.956 C 180.640 64.749,180.660 64.018,180.633 63.331 L 180.583 62.083 177.000 62.000 C 171.363 61.869,171.500 62.045,171.500 54.929 C 171.500 47.680,171.398 47.812,177.083 47.670 L 180.583 47.583 180.632 46.192 C 180.663 45.310,180.610 44.715,180.487 44.567 C 180.214 44.239,173.714 44.265,172.180 44.601 M196.333 44.548 C 195.922 44.755,191.843 51.258,190.405 53.999 C 190.079 54.620,190.152 54.849,191.207 56.554 C 191.671 57.304,192.367 58.442,192.754 59.083 C 193.390 60.141,195.599 63.718,196.168 64.613 C 196.534 65.190,197.068 65.333,198.846 65.333 C 201.206 65.333,201.228 65.469,198.045 60.540 C 197.379 59.508,196.833 58.589,196.833 58.498 C 196.833 58.408,196.758 58.333,196.667 58.333 C 196.575 58.333,196.500 58.262,196.500 58.174 C 196.500 58.087,196.012 57.264,195.417 56.346 C 194.042 54.228,193.713 55.258,197.817 48.845 C 198.605 47.614,199.280 46.530,199.317 46.436 C 199.354 46.342,199.596 45.931,199.856 45.521 C 200.524 44.467,200.354 44.333,198.355 44.336 C 197.403 44.337,196.581 44.424,196.333 44.548 M240.731 44.581 C 238.773 45.007,237.464 45.991,236.708 47.606 L 236.250 48.583 236.195 53.833 C 236.127 60.418,236.227 61.003,237.706 62.606 C 238.352 63.308,238.682 63.511,240.000 64.019 C 242.150 64.848,246.740 64.123,247.647 62.811 C 248.311 61.851,248.417 62.061,248.417 64.348 C 248.417 68.235,248.175 68.397,242.252 68.471 C 237.252 68.534,237.500 68.450,237.500 70.078 C 237.500 71.968,237.222 71.881,242.949 71.797 C 249.659 71.700,251.021 71.063,252.096 67.520 C 252.414 66.472,252.449 44.849,252.133 44.533 C 251.839 44.239,242.116 44.280,240.731 44.581 M261.988 44.571 C 259.918 45.026,258.528 46.156,257.803 47.975 C 257.438 48.890,257.427 49.086,257.427 54.833 C 257.427 61.562,257.472 61.831,258.859 63.406 C 260.359 65.110,261.340 65.320,267.842 65.327 C 273.693 65.334,273.333 65.438,273.333 63.749 C 273.333 61.893,273.710 62.016,267.887 61.963 C 261.409 61.903,261.250 61.821,261.250 58.530 L 261.250 56.750 267.204 56.706 C 274.379 56.653,273.563 57.210,273.463 52.435 C 273.363 47.688,272.745 46.183,270.452 45.113 C 268.826 44.353,264.301 44.064,261.988 44.571 M278.479 44.609 C 278.215 44.927,278.044 63.381,278.294 64.588 L 278.431 65.250 279.840 65.299 C 280.616 65.326,281.419 65.306,281.625 65.254 L 282.000 65.160 282.003 57.872 C 282.006 47.876,282.178 47.518,286.898 47.693 C 290.606 47.830,290.643 47.930,290.657 57.861 C 290.669 66.165,290.465 65.333,292.484 65.333 C 294.705 65.333,294.500 66.160,294.500 57.194 C 294.500 49.173,294.473 48.803,293.773 47.337 C 292.193 44.027,285.282 43.091,282.856 45.857 C 282.179 46.631,282.000 46.561,282.000 45.523 C 282.000 45.089,281.910 44.643,281.800 44.533 C 281.472 44.206,278.762 44.267,278.479 44.609 M314.700 44.533 C 314.488 44.745,314.393 64.527,314.601 65.070 C 314.684 65.287,315.009 65.333,316.434 65.333 L 318.167 65.333 318.167 54.934 C 318.167 45.606,318.140 44.525,317.903 44.434 C 317.415 44.247,314.909 44.325,314.700 44.533 M328.013 44.601 C 324.353 45.401,323.631 46.903,323.537 53.917 C 323.398 64.224,324.275 65.333,332.558 65.333 C 336.849 65.333,336.667 65.402,336.667 63.789 C 336.667 61.904,336.865 62.000,332.946 62.000 C 327.293 62.000,327.417 62.160,327.417 54.833 C 327.417 47.555,327.242 47.785,332.832 47.696 C 334.881 47.663,336.331 47.571,336.457 47.467 C 336.809 47.174,336.735 44.947,336.362 44.609 C 335.956 44.242,329.685 44.235,328.013 44.601 M158.633 47.867 C 158.918 48.151,158.916 58.936,158.631 59.885 C 158.144 61.512,156.916 62.060,153.952 61.973 C 150.417 61.870,150.333 61.708,150.333 54.996 C 150.333 48.812,150.407 48.517,152.114 47.908 C 152.960 47.607,158.339 47.572,158.633 47.867 M248.300 47.867 C 248.574 48.141,248.583 57.869,248.310 58.683 C 247.721 60.443,246.954 60.833,244.083 60.833 C 240.157 60.833,239.833 60.339,239.833 54.353 C 239.833 48.061,240.137 47.687,245.258 47.674 C 247.255 47.669,248.159 47.726,248.300 47.867 M267.722 47.846 C 269.216 48.261,269.710 49.355,269.634 52.083 L 269.583 53.917 265.604 53.961 C 260.833 54.015,261.166 54.167,261.168 51.938 C 261.169 49.316,261.570 48.394,262.917 47.917 C 263.717 47.634,266.794 47.588,267.722 47.846 " stroke="none" fill="#f8f8f8" fill-rule="evenodd"></path><path id="path1" d="M0.000 53.583 L 0.000 107.167 200.000 107.167 L 400.000 107.167 400.000 53.583 L 400.000 0.000 200.000 0.000 L 0.000 0.000 0.000 53.583 M18.459 53.792 L 18.417 106.083 9.541 106.126 L 0.665 106.170 0.707 91.960 L 0.750 77.750 3.792 77.705 L 6.833 77.659 6.833 60.496 L 6.833 43.333 3.750 43.333 L 0.667 43.333 0.667 22.417 L 0.667 1.500 9.584 1.500 L 18.501 1.500 18.459 53.792 M399.125 41.414 L 399.167 81.244 398.635 81.997 C 398.342 82.411,397.720 83.200,397.253 83.750 C 396.447 84.698,396.035 85.214,394.947 86.636 C 394.688 86.974,394.257 87.492,393.988 87.787 C 393.720 88.083,393.500 88.374,393.500 88.435 C 393.500 88.496,393.219 88.871,392.875 89.267 C 391.819 90.486,391.261 91.175,391.000 91.583 C 390.739 91.992,390.181 92.681,389.125 93.900 C 388.781 94.296,388.500 94.672,388.500 94.735 C 388.500 94.797,388.331 95.022,388.125 95.235 C 387.919 95.447,387.412 96.049,387.000 96.571 C 386.587 97.094,386.002 97.811,385.700 98.165 C 385.397 98.519,384.985 99.034,384.783 99.310 C 384.582 99.585,384.079 100.235,383.667 100.754 C 382.713 101.952,382.093 102.743,381.228 103.860 C 380.849 104.350,380.242 105.069,379.879 105.458 L 379.218 106.167 201.362 106.167 L 23.506 106.167 23.430 105.792 C 23.389 105.585,23.312 88.954,23.260 68.833 C 23.208 48.712,23.116 25.331,23.056 16.875 L 22.945 1.500 211.014 1.542 L 399.083 1.583 399.125 41.414 M27.243 23.542 C 27.315 33.373,27.422 54.954,27.479 71.500 C 27.536 88.046,27.644 101.677,27.718 101.792 C 27.826 101.958,62.971 102.000,202.527 102.000 L 377.200 102.000 377.725 101.436 C 378.014 101.126,378.550 100.481,378.917 100.004 C 379.283 99.526,379.846 98.815,380.167 98.423 C 380.488 98.031,381.050 97.320,381.417 96.842 C 381.783 96.365,382.284 95.736,382.529 95.445 C 383.631 94.139,384.467 93.118,385.083 92.326 C 385.450 91.855,386.012 91.149,386.333 90.757 C 386.654 90.365,387.217 89.649,387.583 89.167 C 387.950 88.684,388.512 87.970,388.833 87.579 C 389.154 87.188,389.754 86.440,390.167 85.915 C 390.579 85.391,391.123 84.770,391.375 84.537 C 391.627 84.303,391.833 84.046,391.833 83.967 C 391.833 83.853,393.792 81.360,394.164 81.000 C 394.211 80.954,394.419 80.676,394.625 80.382 L 395.000 79.847 395.000 42.757 L 395.000 5.667 211.056 5.667 L 27.112 5.667 27.243 23.542 M84.333 36.500 C 84.794 36.961,84.865 64.476,84.407 65.130 C 84.035 65.661,80.786 65.701,80.506 65.178 C 80.188 64.584,80.275 36.749,80.595 36.429 C 81.023 36.001,83.889 36.056,84.333 36.500 M94.000 36.500 C 94.461 36.961,94.532 64.476,94.074 65.130 C 93.702 65.661,90.452 65.701,90.173 65.178 C 89.855 64.584,89.941 36.749,90.262 36.429 C 90.689 36.001,93.556 36.056,94.000 36.500 M188.741 36.537 C 189.015 36.930,189.121 64.028,188.851 65.000 C 188.695 65.562,185.306 65.746,184.903 65.214 C 184.717 64.970,184.676 62.408,184.672 50.801 L 184.667 36.686 185.037 36.426 C 185.676 35.978,188.407 36.060,188.741 36.537 M318.167 36.500 C 318.544 36.878,318.670 40.537,318.327 41.178 C 318.080 41.641,314.747 41.667,314.399 41.208 C 314.097 40.811,314.078 37.009,314.375 36.634 C 314.843 36.044,317.613 35.946,318.167 36.500 M54.571 38.929 C 54.768 39.125,54.833 39.540,54.833 40.586 C 54.833 42.606,55.140 42.500,49.314 42.500 C 45.111 42.500,44.523 42.532,44.434 42.764 C 44.222 43.318,44.323 50.450,44.546 50.635 C 44.678 50.746,46.323 50.831,48.937 50.864 C 53.939 50.927,53.667 50.818,53.667 52.759 C 53.667 54.783,53.955 54.667,48.925 54.667 C 45.611 54.667,44.668 54.714,44.523 54.889 C 44.399 55.039,44.324 56.802,44.294 60.264 L 44.250 65.417 42.439 65.464 C 40.862 65.506,40.599 65.473,40.403 65.214 C 40.025 64.715,40.063 39.391,40.442 38.971 C 40.836 38.536,54.139 38.496,54.571 38.929 M123.340 39.289 C 125.723 40.444,127.067 43.011,126.791 45.884 C 126.691 46.925,126.564 46.994,124.745 46.997 C 122.755 47.001,122.500 46.833,122.500 45.526 C 122.500 43.074,121.647 42.501,117.997 42.500 C 114.070 42.500,113.588 42.891,113.585 46.083 C 113.582 49.042,113.900 49.266,119.417 50.180 C 125.059 51.115,126.996 53.157,126.996 58.167 C 126.996 62.407,125.837 64.244,122.488 65.310 C 121.585 65.598,114.629 65.561,113.647 65.263 C 110.732 64.378,109.167 62.074,109.167 58.668 C 109.167 57.149,109.363 57.000,111.370 57.000 C 113.262 57.000,113.406 57.127,113.557 58.932 C 113.763 61.391,114.350 61.750,118.167 61.750 C 122.042 61.750,122.683 61.287,122.807 58.398 C 122.925 55.667,122.153 55.033,117.750 54.244 C 116.925 54.096,116.063 53.914,115.833 53.840 C 115.604 53.766,115.079 53.613,114.667 53.500 C 110.539 52.370,109.167 50.519,109.167 46.083 C 109.167 42.568,110.268 40.401,112.609 39.315 C 113.829 38.748,114.431 38.688,118.500 38.726 L 122.250 38.761 123.340 39.289 M225.156 38.958 C 225.354 39.119,225.582 39.512,225.662 39.833 C 225.742 40.154,226.156 41.617,226.582 43.083 C 227.008 44.550,227.426 45.994,227.512 46.292 C 227.597 46.590,227.737 47.077,227.824 47.375 C 227.910 47.673,228.060 48.198,228.157 48.542 C 228.254 48.885,228.404 49.410,228.490 49.708 C 228.635 50.213,229.324 52.673,229.691 54.000 C 229.780 54.321,229.923 54.827,230.009 55.125 C 230.096 55.423,230.236 55.910,230.322 56.208 C 230.407 56.506,230.825 57.950,231.251 59.417 C 232.169 62.575,232.264 62.903,232.479 63.667 C 232.570 63.987,232.696 64.419,232.758 64.626 C 232.980 65.356,232.624 65.500,230.591 65.500 C 228.489 65.500,228.594 65.565,228.166 64.000 C 228.054 63.587,227.903 63.063,227.831 62.833 C 227.760 62.604,227.538 61.854,227.339 61.167 C 227.140 60.479,226.947 59.823,226.910 59.708 C 226.859 59.548,225.802 59.500,222.365 59.500 L 217.887 59.500 217.695 60.125 C 217.463 60.879,216.967 62.553,216.570 63.917 C 216.117 65.476,216.077 65.500,213.969 65.500 C 212.415 65.500,212.141 65.459,212.047 65.216 C 211.946 64.952,212.410 63.038,213.333 59.917 C 213.415 59.642,213.565 59.117,213.667 58.750 C 213.769 58.383,213.919 57.858,214.000 57.583 C 214.081 57.308,214.220 56.821,214.309 56.500 C 214.757 54.871,215.526 52.201,215.652 51.833 C 215.730 51.604,215.887 51.079,216.000 50.667 C 216.113 50.254,216.263 49.729,216.333 49.500 C 216.404 49.271,216.543 48.783,216.642 48.417 C 216.833 47.714,217.567 45.098,217.811 44.250 C 217.890 43.975,218.049 43.413,218.163 43.000 C 218.278 42.587,218.430 42.063,218.500 41.833 C 218.570 41.604,218.720 41.079,218.833 40.667 C 219.387 38.645,219.304 38.691,222.440 38.677 C 224.446 38.668,224.850 38.710,225.156 38.958 M361.878 38.819 C 362.308 38.982,362.538 39.596,363.418 42.917 C 363.661 43.833,363.929 44.714,364.013 44.873 C 364.098 45.032,364.167 45.346,364.167 45.571 C 364.167 45.796,364.233 46.021,364.314 46.071 C 364.395 46.122,364.502 46.370,364.550 46.623 C 364.599 46.876,364.714 47.346,364.805 47.667 C 364.895 47.987,365.128 48.813,365.321 49.500 C 365.514 50.188,365.789 51.163,365.934 51.667 C 366.078 52.171,366.264 52.827,366.348 53.125 C 367.036 55.572,367.058 55.650,368.083 59.167 C 369.608 64.396,369.705 64.784,369.577 65.186 C 369.487 65.469,369.293 65.500,367.593 65.500 C 365.501 65.500,365.515 65.507,365.177 64.333 C 365.059 63.921,364.903 63.396,364.831 63.167 C 364.760 62.938,364.539 62.188,364.341 61.500 C 364.143 60.813,363.912 60.081,363.828 59.875 L 363.674 59.500 359.250 59.500 L 354.826 59.500 354.680 59.875 C 354.600 60.081,354.453 60.550,354.352 60.917 C 353.925 62.477,353.465 63.967,353.195 64.667 L 352.906 65.417 350.950 65.464 C 348.441 65.524,348.486 65.658,349.695 61.750 C 349.866 61.200,350.087 60.450,350.188 60.083 C 350.289 59.717,350.430 59.229,350.500 59.000 C 350.570 58.771,350.709 58.283,350.809 57.917 C 351.000 57.214,351.733 54.598,351.978 53.750 C 352.057 53.475,352.214 52.913,352.327 52.500 C 352.440 52.087,352.600 51.620,352.683 51.461 C 352.766 51.301,352.833 51.019,352.833 50.833 C 352.833 50.648,352.903 50.365,352.989 50.206 C 353.075 50.047,353.383 49.017,353.675 47.917 C 353.967 46.817,354.299 45.617,354.412 45.250 C 354.526 44.883,354.713 44.246,354.829 43.833 C 354.944 43.421,355.096 42.896,355.167 42.667 C 355.237 42.438,355.377 41.950,355.479 41.583 C 355.973 39.790,356.238 39.136,356.558 38.911 C 356.962 38.629,361.185 38.555,361.878 38.819 M377.678 38.839 C 378.077 39.053,378.196 64.904,377.800 65.300 C 377.527 65.573,374.307 65.573,374.033 65.300 C 373.664 64.930,373.753 39.063,374.125 38.847 C 374.508 38.624,377.264 38.618,377.678 38.839 M137.011 39.506 C 137.305 39.663,137.333 39.874,137.333 41.923 L 137.333 44.167 139.633 44.167 C 142.426 44.167,142.333 44.100,142.333 46.111 C 142.333 48.036,142.387 48.000,139.511 48.000 L 137.333 48.000 137.333 53.697 C 137.333 61.435,137.390 61.568,140.792 61.774 C 141.981 61.847,142.473 61.943,142.625 62.135 C 142.900 62.481,142.907 65.027,142.633 65.300 C 142.370 65.564,138.489 65.570,137.678 65.308 C 135.264 64.527,134.043 63.364,133.347 61.183 C 133.231 60.818,133.167 58.383,133.167 54.308 L 133.167 48.000 131.875 47.995 C 130.092 47.987,130.000 47.896,130.000 46.132 C 130.000 44.334,130.122 44.202,131.838 44.133 L 133.083 44.083 133.128 41.917 C 133.165 40.120,133.221 39.714,133.452 39.542 C 133.795 39.285,136.547 39.258,137.011 39.506 M304.500 39.667 C 304.798 39.964,304.833 40.222,304.833 42.083 L 304.833 44.167 307.107 44.167 C 309.856 44.167,309.820 44.141,309.828 46.116 C 309.835 47.963,309.779 48.000,306.963 48.000 L 304.833 48.000 304.833 53.911 C 304.833 61.504,304.855 61.558,307.967 61.760 C 310.354 61.915,310.167 61.763,310.167 63.553 C 310.167 65.543,310.219 65.500,307.778 65.500 C 304.171 65.500,302.235 64.511,301.060 62.068 L 300.587 61.083 300.502 54.583 L 300.417 48.083 299.150 48.000 C 297.439 47.887,297.333 47.778,297.333 46.118 C 297.333 44.307,297.467 44.167,299.192 44.167 L 300.500 44.167 300.503 42.042 C 300.506 39.265,300.422 39.367,302.708 39.346 C 303.955 39.335,304.215 39.382,304.500 39.667 M359.016 43.798 C 358.896 44.230,358.660 45.071,358.491 45.667 C 358.323 46.262,358.024 47.350,357.828 48.083 C 357.631 48.817,357.406 49.642,357.328 49.917 C 357.250 50.192,357.102 50.717,357.000 51.083 C 356.898 51.450,356.751 51.975,356.672 52.250 C 356.084 54.319,355.841 55.302,355.837 55.625 L 355.833 56.000 359.333 56.000 L 362.833 56.000 362.833 55.593 C 362.833 55.369,362.767 55.145,362.685 55.095 C 362.604 55.044,362.498 54.759,362.451 54.460 C 362.403 54.161,362.287 53.654,362.192 53.333 C 361.970 52.585,361.790 51.950,361.246 50.000 C 360.620 47.756,360.520 47.402,360.343 46.792 C 360.166 46.182,359.986 45.536,359.591 44.090 C 359.442 43.544,359.301 43.078,359.278 43.055 C 359.254 43.032,359.137 43.367,359.016 43.798 M222.167 43.429 C 222.167 43.676,221.006 48.020,220.500 49.667 C 220.088 51.007,218.833 55.641,218.833 55.821 C 218.833 55.943,219.956 56.000,222.351 56.000 L 225.868 56.000 225.785 55.375 C 225.738 55.031,225.618 54.469,225.517 54.125 C 225.198 53.041,225.033 52.460,224.579 50.833 C 224.007 48.783,223.871 48.299,223.655 47.542 C 223.557 47.198,223.439 46.729,223.393 46.500 C 223.346 46.271,223.245 45.933,223.168 45.750 C 223.090 45.567,222.897 44.910,222.739 44.292 C 222.474 43.259,222.167 42.796,222.167 43.429 M62.469 44.379 C 62.585 44.519,62.664 47.192,62.701 52.254 C 62.774 62.104,62.628 61.755,66.654 61.743 C 70.854 61.731,70.736 62.000,70.797 52.258 C 70.852 43.384,70.642 44.167,72.971 44.167 C 75.413 44.167,75.167 42.974,75.167 54.787 C 75.167 61.409,75.108 64.966,74.994 65.178 C 74.840 65.466,74.630 65.500,73.000 65.500 C 70.948 65.500,70.839 65.435,70.827 64.219 L 70.821 63.583 70.452 64.019 C 69.460 65.190,68.458 65.494,65.581 65.497 C 61.753 65.502,60.016 64.575,58.940 61.953 C 58.526 60.944,58.278 45.226,58.665 44.503 C 58.886 44.091,62.142 43.985,62.469 44.379 M162.741 44.537 C 163.148 45.119,163.132 64.744,162.724 65.195 C 162.491 65.452,162.184 65.500,160.758 65.500 C 158.810 65.500,158.667 65.421,158.667 64.350 L 158.667 63.599 158.042 64.206 C 155.921 66.266,150.190 66.008,147.951 63.752 C 147.586 63.384,147.091 62.671,146.852 62.167 L 146.417 61.250 146.417 54.833 C 146.417 47.540,146.401 47.632,147.865 46.067 C 149.464 44.358,150.166 44.213,156.949 44.187 L 162.481 44.167 162.741 44.537 M180.695 44.442 C 180.941 44.665,181.000 44.971,181.000 46.026 C 181.000 48.046,181.095 48.000,176.908 48.000 C 171.562 48.000,171.665 47.866,171.669 54.845 C 171.672 59.999,171.745 60.434,172.741 61.244 L 173.349 61.737 177.014 61.827 C 181.250 61.931,180.996 61.813,180.992 63.667 C 180.988 65.602,181.235 65.500,176.570 65.500 C 170.483 65.500,168.799 64.685,167.752 61.236 C 167.389 60.040,167.389 49.627,167.752 48.431 C 168.356 46.441,170.304 44.507,171.714 44.497 C 171.917 44.496,172.196 44.422,172.333 44.333 C 172.810 44.025,180.343 44.123,180.695 44.442 M200.300 44.367 C 200.617 44.684,200.551 44.879,199.667 46.234 C 199.208 46.936,198.833 47.543,198.833 47.583 C 198.833 47.623,198.196 48.636,197.417 49.833 C 196.637 51.031,196.000 52.047,196.000 52.091 C 196.000 52.135,195.655 52.690,195.233 53.325 L 194.465 54.479 195.399 55.912 C 195.913 56.700,196.333 57.377,196.333 57.415 C 196.333 57.454,196.905 58.367,197.604 59.443 C 200.218 63.470,201.037 64.903,200.871 65.167 C 200.661 65.502,196.892 65.605,196.480 65.287 C 196.212 65.080,194.333 62.263,194.333 62.069 C 194.333 62.013,194.193 61.769,194.021 61.526 C 192.955 60.018,190.000 54.910,190.000 54.576 C 190.000 54.356,190.983 52.542,192.185 50.546 C 193.387 48.550,194.514 46.668,194.689 46.364 C 195.933 44.202,195.987 44.169,198.258 44.167 C 199.470 44.167,200.168 44.235,200.300 44.367 M252.300 44.367 C 252.651 44.718,252.580 66.775,252.224 67.863 C 251.109 71.274,249.423 72.000,242.622 72.000 C 237.008 72.000,237.333 72.119,237.333 70.067 C 237.333 68.081,237.104 68.169,242.329 68.154 C 248.030 68.138,248.197 68.031,248.307 64.334 L 248.364 62.417 247.735 63.065 C 245.698 65.163,240.072 65.070,237.669 62.899 C 236.118 61.498,235.832 60.163,235.839 54.367 C 235.849 47.104,236.586 45.497,240.417 44.401 C 241.380 44.125,252.028 44.094,252.300 44.367 M269.069 44.406 C 271.463 45.030,272.740 46.246,273.396 48.526 C 273.833 50.047,273.793 56.421,273.344 56.661 C 273.140 56.770,270.914 56.833,267.264 56.833 L 261.506 56.833 261.398 57.264 C 261.256 57.829,261.468 60.128,261.702 60.570 C 262.309 61.716,262.919 61.831,268.363 61.832 C 273.805 61.834,273.500 61.728,273.500 63.606 C 273.500 65.669,274.017 65.500,267.702 65.498 C 260.290 65.496,259.201 65.119,257.713 62.041 L 257.250 61.083 257.250 54.900 C 257.250 50.675,257.309 48.591,257.437 48.317 C 258.211 46.662,258.480 46.233,259.054 45.743 C 259.761 45.138,260.988 44.502,261.457 44.497 C 261.618 44.496,261.862 44.422,262.000 44.333 C 262.407 44.070,268.001 44.128,269.069 44.406 M281.961 44.375 C 282.053 44.490,282.183 44.912,282.249 45.313 L 282.370 46.042 282.727 45.632 C 283.735 44.474,284.935 44.132,287.715 44.212 C 291.860 44.331,293.689 45.511,294.491 48.583 C 294.752 49.583,294.729 65.037,294.467 65.300 C 294.183 65.584,290.935 65.574,290.698 65.288 C 290.582 65.148,290.503 62.496,290.465 57.496 C 290.402 48.990,290.399 48.970,289.042 48.208 C 288.363 47.827,284.496 47.930,283.708 48.350 C 282.388 49.055,282.428 48.799,282.329 57.333 C 282.281 61.504,282.179 65.048,282.103 65.208 C 281.883 65.670,278.422 65.643,278.173 65.178 C 277.904 64.676,277.937 44.930,278.207 44.498 C 278.459 44.094,281.650 43.990,281.961 44.375 M318.327 44.489 C 318.441 44.701,318.500 48.244,318.500 54.833 C 318.500 61.423,318.441 64.966,318.327 65.178 C 318.023 65.746,314.626 65.658,314.360 65.075 C 314.028 64.347,314.090 45.016,314.426 44.537 C 314.798 44.006,318.048 43.966,318.327 44.489 M336.574 44.537 C 336.751 44.790,336.833 45.292,336.833 46.120 C 336.833 48.029,336.896 48.000,332.776 48.000 C 327.399 48.000,327.668 47.634,327.667 54.958 L 327.667 60.333 328.307 60.974 C 329.087 61.754,329.540 61.829,333.500 61.834 C 335.012 61.837,336.361 61.909,336.496 61.994 C 336.806 62.190,336.941 64.377,336.685 65.042 L 336.508 65.500 332.462 65.498 C 326.626 65.496,325.221 64.928,323.857 62.021 L 323.417 61.083 323.417 54.833 L 323.417 48.583 323.962 47.468 C 324.689 45.982,326.477 44.505,327.557 44.497 C 327.755 44.496,328.029 44.422,328.167 44.333 C 328.761 43.949,336.290 44.132,336.574 44.537 M151.537 48.432 C 150.549 49.214,150.500 49.520,150.500 54.859 C 150.500 61.658,150.545 61.738,154.417 61.746 C 158.590 61.754,158.721 61.482,158.634 53.000 L 158.583 48.083 155.333 48.041 L 152.083 48.000 151.537 48.432 M241.410 48.311 C 240.260 49.012,240.250 49.063,240.250 54.333 C 240.250 60.605,240.286 60.667,243.971 60.667 C 248.111 60.667,248.333 60.275,248.333 52.979 L 248.333 48.000 245.125 48.001 C 242.294 48.001,241.857 48.038,241.410 48.311 M262.576 48.311 C 261.618 48.895,261.500 49.262,261.500 51.664 L 261.500 53.839 265.458 53.795 L 269.417 53.750 269.467 52.167 C 269.541 49.819,269.188 48.778,268.134 48.233 C 267.395 47.851,263.234 47.909,262.576 48.311 " stroke="none" fill="#0c0c0c" fill-rule="evenodd"></path><path id="path2" d="M0.667 22.417 L 0.667 43.333 3.750 43.333 L 6.833 43.333 6.833 60.496 L 6.833 77.659 3.792 77.705 L 0.750 77.750 0.707 91.960 L 0.665 106.170 9.541 106.126 L 18.417 106.083 18.459 53.792 L 18.501 1.500 9.584 1.500 L 0.667 1.500 0.667 22.417 M23.056 16.875 C 23.116 25.331,23.208 48.712,23.260 68.833 C 23.312 88.954,23.389 105.585,23.430 105.792 L 23.506 106.167 201.362 106.167 L 379.218 106.167 379.879 105.458 C 380.242 105.069,380.849 104.350,381.228 103.860 C 382.093 102.743,382.713 101.952,383.667 100.754 C 384.079 100.235,384.582 99.585,384.783 99.310 C 384.985 99.034,385.397 98.519,385.700 98.165 C 386.002 97.811,386.587 97.094,387.000 96.571 C 387.412 96.049,387.919 95.447,388.125 95.235 C 388.331 95.022,388.500 94.797,388.500 94.735 C 388.500 94.672,388.781 94.296,389.125 93.900 C 390.181 92.681,390.739 91.992,391.000 91.583 C 391.261 91.175,391.819 90.486,392.875 89.267 C 393.219 88.871,393.500 88.496,393.500 88.435 C 393.500 88.374,393.720 88.083,393.988 87.787 C 394.257 87.492,394.688 86.974,394.947 86.636 C 396.035 85.214,396.447 84.698,397.253 83.750 C 397.720 83.200,398.342 82.411,398.635 81.997 L 399.167 81.244 399.125 41.414 L 399.083 1.583 211.014 1.542 L 22.945 1.500 23.056 16.875 M18.333 53.835 L 18.333 106.003 9.625 105.960 L 0.917 105.917 0.874 91.958 L 0.831 78.000 3.735 78.000 C 5.333 78.000,6.758 77.954,6.903 77.899 C 7.307 77.744,7.307 43.423,6.903 43.268 C 6.758 43.212,5.333 43.167,3.736 43.167 L 0.833 43.167 0.833 22.417 L 0.833 1.667 9.583 1.667 L 18.333 1.667 18.333 53.835 M398.833 41.565 L 398.833 81.464 397.875 82.665 C 397.348 83.325,396.467 84.413,395.917 85.081 C 394.849 86.379,394.270 87.107,391.667 90.426 C 391.254 90.951,390.635 91.698,390.292 92.084 C 389.948 92.471,389.667 92.840,389.667 92.904 C 389.667 93.012,388.850 94.019,387.833 95.164 C 387.604 95.422,387.117 96.026,386.750 96.505 C 386.383 96.985,385.821 97.698,385.500 98.090 C 385.179 98.482,384.617 99.187,384.250 99.657 C 383.883 100.126,383.321 100.838,383.000 101.238 C 382.679 101.638,382.079 102.393,381.667 102.917 C 381.254 103.440,380.654 104.188,380.333 104.578 C 380.012 104.968,379.667 105.428,379.565 105.602 C 379.362 105.949,24.132 106.198,23.785 105.852 C 23.700 105.766,23.573 89.233,23.487 66.977 C 23.404 45.677,23.287 22.269,23.226 14.958 L 23.115 1.667 210.974 1.667 L 398.833 1.667 398.833 41.565 M27.056 5.761 C 27.001 5.904,27.042 23.023,27.147 43.802 C 27.252 64.582,27.338 86.046,27.338 91.500 C 27.338 96.954,27.383 101.585,27.438 101.792 L 27.539 102.167 202.505 102.167 L 377.470 102.167 377.860 101.683 C 378.075 101.417,378.587 100.772,379.000 100.249 C 379.412 99.726,380.012 98.971,380.333 98.571 C 380.654 98.171,381.217 97.461,381.583 96.993 C 382.172 96.240,382.725 95.567,385.089 92.722 C 385.407 92.339,385.667 91.961,385.667 91.881 C 385.667 91.800,385.967 91.441,386.333 91.083 C 386.700 90.725,387.000 90.350,387.000 90.249 C 387.000 90.148,387.262 89.811,387.583 89.500 C 387.904 89.189,388.167 88.871,388.167 88.793 C 388.167 88.716,388.439 88.358,388.771 87.999 C 389.104 87.639,389.535 87.126,389.730 86.858 C 390.340 86.016,391.053 85.105,391.578 84.496 C 391.856 84.173,392.308 83.616,392.583 83.257 C 392.858 82.898,393.313 82.337,393.595 82.010 C 393.876 81.684,394.345 81.078,394.637 80.664 L 395.167 79.911 395.125 42.747 L 395.083 5.583 211.120 5.542 C 44.373 5.504,27.147 5.524,27.056 5.761 M395.000 42.757 L 395.000 79.847 394.625 80.382 C 394.419 80.676,394.211 80.954,394.164 81.000 C 393.792 81.360,391.833 83.853,391.833 83.967 C 391.833 84.046,391.627 84.303,391.375 84.537 C 391.123 84.770,390.579 85.391,390.167 85.915 C 389.754 86.440,389.154 87.188,388.833 87.579 C 388.512 87.970,387.950 88.684,387.583 89.167 C 387.217 89.649,386.654 90.365,386.333 90.757 C 386.012 91.149,385.450 91.855,385.083 92.326 C 384.467 93.118,383.631 94.139,382.529 95.445 C 382.284 95.736,381.783 96.365,381.417 96.842 C 381.050 97.320,380.488 98.031,380.167 98.423 C 379.846 98.815,379.283 99.526,378.917 100.004 C 378.550 100.481,378.014 101.126,377.725 101.436 L 377.200 102.000 202.527 102.000 C 62.971 102.000,27.826 101.958,27.718 101.792 C 27.644 101.677,27.536 88.046,27.479 71.500 C 27.422 54.954,27.315 33.373,27.243 23.542 L 27.112 5.667 211.056 5.667 L 395.000 5.667 395.000 42.757 M80.595 36.429 C 80.275 36.749,80.188 64.584,80.506 65.178 C 80.786 65.701,84.035 65.661,84.407 65.130 C 84.865 64.476,84.794 36.961,84.333 36.500 C 83.889 36.056,81.023 36.001,80.595 36.429 M90.262 36.429 C 89.941 36.749,89.855 64.584,90.173 65.178 C 90.452 65.701,93.702 65.661,94.074 65.130 C 94.532 64.476,94.461 36.961,94.000 36.500 C 93.556 36.056,90.689 36.001,90.262 36.429 M185.037 36.426 L 184.667 36.686 184.672 50.801 C 184.676 62.408,184.717 64.970,184.903 65.214 C 185.306 65.746,188.695 65.562,188.851 65.000 C 189.121 64.028,189.015 36.930,188.741 36.537 C 188.407 36.060,185.676 35.978,185.037 36.426 M314.833 36.282 C 314.266 36.485,314.167 36.878,314.172 38.907 C 314.179 41.557,314.130 41.500,316.388 41.500 C 318.559 41.500,318.500 41.575,318.500 38.844 C 318.500 36.246,318.435 36.161,316.458 36.180 C 315.702 36.187,314.971 36.233,314.833 36.282 M84.296 50.583 C 84.321 58.283,84.301 64.752,84.251 64.958 C 84.145 65.395,81.112 65.545,80.700 65.133 C 80.487 64.920,80.393 37.307,80.603 36.758 C 80.691 36.530,80.973 36.496,82.478 36.536 L 84.250 36.583 84.296 50.583 M93.963 50.583 C 93.988 58.283,93.968 64.752,93.918 64.958 C 93.812 65.395,90.778 65.545,90.367 65.133 C 90.153 64.920,90.059 37.307,90.270 36.758 C 90.358 36.530,90.640 36.496,92.145 36.536 L 93.917 36.583 93.963 50.583 M188.626 50.875 L 188.583 65.250 186.930 65.298 C 185.720 65.333,185.241 65.289,185.141 65.131 C 185.066 65.013,185.004 58.523,185.003 50.708 L 185.000 36.500 186.834 36.500 L 188.669 36.500 188.626 50.875 M318.167 38.922 L 318.167 41.345 316.375 41.297 L 314.583 41.250 314.536 39.092 C 314.476 36.288,314.322 36.500,316.411 36.500 L 318.167 36.500 318.167 38.922 M40.442 38.971 C 40.063 39.391,40.025 64.715,40.403 65.214 C 40.599 65.473,40.862 65.506,42.439 65.464 L 44.250 65.417 44.294 60.264 C 44.324 56.802,44.399 55.039,44.523 54.889 C 44.668 54.714,45.611 54.667,48.925 54.667 C 53.955 54.667,53.667 54.783,53.667 52.759 C 53.667 50.818,53.939 50.927,48.937 50.864 C 46.323 50.831,44.678 50.746,44.546 50.635 C 44.323 50.450,44.222 43.318,44.434 42.764 C 44.523 42.532,45.111 42.500,49.314 42.500 C 55.140 42.500,54.833 42.606,54.833 40.586 C 54.833 38.497,55.482 38.667,47.514 38.667 C 41.142 38.667,40.701 38.686,40.442 38.971 M114.083 38.815 C 110.887 39.412,109.167 41.955,109.167 46.083 C 109.167 50.519,110.539 52.370,114.667 53.500 C 115.079 53.613,115.604 53.766,115.833 53.840 C 116.063 53.914,116.925 54.096,117.750 54.244 C 122.153 55.033,122.925 55.667,122.807 58.398 C 122.683 61.287,122.042 61.750,118.167 61.750 C 114.350 61.750,113.763 61.391,113.557 58.932 C 113.406 57.127,113.262 57.000,111.370 57.000 C 109.363 57.000,109.167 57.149,109.167 58.668 C 109.167 62.074,110.732 64.378,113.647 65.263 C 114.629 65.561,121.585 65.598,122.488 65.310 C 125.837 64.244,126.996 62.407,126.996 58.167 C 126.996 53.157,125.059 51.115,119.417 50.180 C 113.900 49.266,113.582 49.042,113.585 46.083 C 113.588 42.891,114.070 42.500,117.997 42.500 C 121.647 42.501,122.500 43.074,122.500 45.526 C 122.500 46.833,122.755 47.001,124.745 46.997 C 126.564 46.994,126.691 46.925,126.791 45.884 C 127.067 43.011,125.723 40.444,123.340 39.289 L 122.250 38.761 118.500 38.726 C 116.438 38.707,114.450 38.747,114.083 38.815 M219.735 38.829 C 219.378 38.973,219.194 39.348,218.833 40.667 C 218.720 41.079,218.570 41.604,218.500 41.833 C 218.430 42.063,218.278 42.587,218.163 43.000 C 218.049 43.413,217.890 43.975,217.811 44.250 C 217.567 45.098,216.833 47.714,216.642 48.417 C 216.543 48.783,216.404 49.271,216.333 49.500 C 216.263 49.729,216.113 50.254,216.000 50.667 C 215.887 51.079,215.730 51.604,215.652 51.833 C 215.526 52.201,214.757 54.871,214.309 56.500 C 214.220 56.821,214.081 57.308,214.000 57.583 C 213.919 57.858,213.769 58.383,213.667 58.750 C 213.565 59.117,213.415 59.642,213.333 59.917 C 212.410 63.038,211.946 64.952,212.047 65.216 C 212.141 65.459,212.415 65.500,213.969 65.500 C 216.077 65.500,216.117 65.476,216.570 63.917 C 216.967 62.553,217.463 60.879,217.695 60.125 L 217.887 59.500 222.365 59.500 C 225.802 59.500,226.859 59.548,226.910 59.708 C 226.947 59.823,227.140 60.479,227.339 61.167 C 227.538 61.854,227.760 62.604,227.831 62.833 C 227.903 63.063,228.054 63.587,228.166 64.000 C 228.594 65.565,228.489 65.500,230.591 65.500 C 232.624 65.500,232.980 65.356,232.758 64.626 C 232.696 64.419,232.570 63.987,232.479 63.667 C 232.264 62.903,232.169 62.575,231.251 59.417 C 230.825 57.950,230.407 56.506,230.322 56.208 C 230.236 55.910,230.096 55.423,230.009 55.125 C 229.923 54.827,229.780 54.321,229.691 54.000 C 229.324 52.673,228.635 50.213,228.490 49.708 C 228.404 49.410,228.254 48.885,228.157 48.542 C 228.060 48.198,227.910 47.673,227.824 47.375 C 227.737 47.077,227.597 46.590,227.512 46.292 C 227.426 45.994,227.008 44.550,226.582 43.083 C 226.156 41.617,225.742 40.154,225.662 39.833 C 225.398 38.773,225.097 38.665,222.440 38.677 C 221.144 38.683,219.927 38.751,219.735 38.829 M356.558 38.911 C 356.238 39.136,355.973 39.790,355.479 41.583 C 355.377 41.950,355.237 42.438,355.167 42.667 C 355.096 42.896,354.944 43.421,354.829 43.833 C 354.713 44.246,354.526 44.883,354.412 45.250 C 354.299 45.617,353.967 46.817,353.675 47.917 C 353.383 49.017,353.075 50.047,352.989 50.206 C 352.903 50.365,352.833 50.648,352.833 50.833 C 352.833 51.019,352.766 51.301,352.683 51.461 C 352.600 51.620,352.440 52.087,352.327 52.500 C 352.214 52.913,352.057 53.475,351.978 53.750 C 351.733 54.598,351.000 57.214,350.809 57.917 C 350.709 58.283,350.570 58.771,350.500 59.000 C 350.430 59.229,350.289 59.717,350.188 60.083 C 350.087 60.450,349.866 61.200,349.695 61.750 C 348.486 65.658,348.441 65.524,350.950 65.464 L 352.906 65.417 353.195 64.667 C 353.465 63.967,353.925 62.477,354.352 60.917 C 354.453 60.550,354.600 60.081,354.680 59.875 L 354.826 59.500 359.250 59.500 L 363.674 59.500 363.828 59.875 C 363.912 60.081,364.143 60.813,364.341 61.500 C 364.539 62.188,364.760 62.938,364.831 63.167 C 364.903 63.396,365.059 63.921,365.177 64.333 C 365.515 65.507,365.501 65.500,367.593 65.500 C 369.293 65.500,369.487 65.469,369.577 65.186 C 369.705 64.784,369.608 64.396,368.083 59.167 C 367.058 55.650,367.036 55.572,366.348 53.125 C 366.264 52.827,366.078 52.171,365.934 51.667 C 365.789 51.163,365.514 50.188,365.321 49.500 C 365.128 48.813,364.895 47.987,364.805 47.667 C 364.714 47.346,364.599 46.876,364.550 46.623 C 364.502 46.370,364.395 46.122,364.314 46.071 C 364.233 46.021,364.167 45.796,364.167 45.571 C 364.167 45.346,364.098 45.032,364.013 44.873 C 363.929 44.714,363.661 43.833,363.418 42.917 C 362.538 39.596,362.308 38.982,361.878 38.819 C 361.185 38.555,356.962 38.629,356.558 38.911 M374.125 38.847 C 373.753 39.063,373.664 64.930,374.033 65.300 C 374.307 65.573,377.527 65.573,377.800 65.300 C 378.196 64.904,378.077 39.053,377.678 38.839 C 377.264 38.618,374.508 38.624,374.125 38.847 M54.566 39.264 C 54.748 39.738,54.672 41.596,54.458 41.880 C 54.274 42.126,53.691 42.163,49.369 42.204 C 45.246 42.243,44.463 42.289,44.330 42.500 C 44.035 42.966,44.125 50.601,44.429 50.905 C 44.653 51.129,45.304 51.167,48.994 51.167 C 53.911 51.167,53.500 51.015,53.500 52.835 C 53.500 54.580,53.733 54.500,48.655 54.500 C 46.278 54.500,44.318 54.519,44.300 54.542 C 44.281 54.565,44.225 56.983,44.175 59.917 L 44.083 65.250 42.440 65.298 C 41.021 65.339,40.765 65.305,40.570 65.048 C 40.334 64.737,40.204 39.865,40.434 39.264 C 40.589 38.862,54.411 38.862,54.566 39.264 M122.808 39.324 C 124.081 39.789,125.384 40.845,125.802 41.750 C 126.352 42.942,126.667 44.276,126.667 45.416 C 126.667 46.676,126.681 46.667,124.667 46.667 C 122.624 46.667,122.667 46.697,122.667 45.257 C 122.667 42.828,121.767 42.248,118.016 42.256 C 114.199 42.264,113.714 42.585,113.311 45.377 C 112.834 48.672,113.704 49.430,119.000 50.335 C 124.993 51.359,126.728 53.076,126.742 58.000 C 126.760 63.871,125.063 65.315,118.133 65.327 C 111.742 65.339,109.583 63.804,109.583 59.250 L 109.583 57.417 111.375 57.369 L 113.167 57.322 113.167 57.883 C 113.167 61.175,114.154 61.998,118.083 61.984 C 122.158 61.969,123.000 61.324,123.000 58.221 C 123.000 55.901,122.299 55.089,119.700 54.401 C 119.214 54.272,118.657 54.167,118.462 54.167 C 118.267 54.167,117.877 54.097,117.595 54.013 C 117.314 53.928,116.671 53.770,116.167 53.661 C 110.838 52.511,109.506 51.001,109.502 46.109 C 109.499 42.196,110.488 40.333,113.097 39.343 C 114.357 38.865,121.512 38.850,122.808 39.324 M225.251 39.292 C 225.318 39.452,225.438 39.827,225.519 40.125 C 225.600 40.423,225.737 40.910,225.824 41.208 C 226.091 42.128,226.308 42.891,226.474 43.500 C 226.776 44.602,228.016 48.917,228.198 49.500 C 228.445 50.291,228.594 50.794,228.815 51.583 C 228.917 51.950,229.233 53.075,229.516 54.083 C 229.799 55.092,230.099 56.160,230.182 56.458 C 230.265 56.756,230.408 57.262,230.500 57.583 C 230.592 57.904,230.746 58.448,230.843 58.792 C 230.940 59.135,231.084 59.642,231.163 59.917 C 232.906 65.967,232.964 65.333,230.673 65.333 L 228.874 65.333 228.698 64.875 C 228.602 64.623,228.360 63.854,228.161 63.167 C 227.962 62.479,227.740 61.729,227.669 61.500 C 227.597 61.271,227.441 60.746,227.323 60.333 C 226.964 59.087,227.274 59.157,222.269 59.206 L 217.750 59.250 217.445 60.250 C 217.278 60.800,216.989 61.775,216.803 62.417 C 215.890 65.570,216.101 65.353,214.011 65.297 L 212.250 65.250 212.274 64.750 C 212.287 64.475,212.377 63.987,212.473 63.667 C 212.569 63.346,212.727 62.802,212.824 62.458 C 212.921 62.115,213.075 61.571,213.167 61.250 C 213.258 60.929,213.402 60.423,213.487 60.125 C 213.572 59.827,213.989 58.383,214.415 56.917 C 214.841 55.450,215.264 53.987,215.354 53.667 C 215.445 53.346,215.585 52.858,215.667 52.583 C 215.748 52.308,215.887 51.821,215.976 51.500 C 216.065 51.179,216.256 50.504,216.400 50.000 C 216.544 49.496,216.820 48.521,217.013 47.833 C 217.206 47.146,217.427 46.358,217.506 46.083 C 217.584 45.808,217.731 45.283,217.833 44.917 C 218.056 44.115,218.152 43.782,218.840 41.417 C 219.618 38.739,219.233 39.000,222.405 39.000 C 224.844 39.000,225.144 39.031,225.251 39.292 M362.249 39.667 C 362.365 39.987,362.553 40.587,362.666 41.000 C 362.779 41.412,362.930 41.938,363.000 42.167 C 363.070 42.396,363.210 42.883,363.311 43.250 C 363.478 43.857,364.130 46.181,364.480 47.417 C 364.558 47.692,364.715 48.254,364.830 48.667 C 364.944 49.079,365.098 49.567,365.171 49.750 C 365.244 49.933,365.617 51.208,366.001 52.583 C 366.384 53.958,366.762 55.308,366.840 55.583 C 366.917 55.858,367.065 56.383,367.167 56.750 C 367.403 57.599,367.645 58.447,367.833 59.083 C 367.915 59.358,368.053 59.846,368.142 60.167 C 368.230 60.487,368.528 61.538,368.803 62.500 C 369.290 64.204,369.392 64.691,369.353 65.131 C 369.338 65.293,368.909 65.333,367.559 65.297 C 365.536 65.243,365.689 65.358,365.157 63.500 C 364.960 62.813,364.740 62.063,364.669 61.833 C 364.597 61.604,364.446 61.079,364.334 60.667 C 364.221 60.254,364.050 59.748,363.953 59.542 L 363.777 59.167 359.326 59.167 C 355.804 59.167,354.835 59.213,354.688 59.390 C 354.529 59.583,353.975 61.342,353.316 63.750 C 352.909 65.239,352.900 65.244,350.910 65.297 L 349.132 65.345 349.214 64.631 C 349.260 64.238,349.380 63.635,349.482 63.292 C 349.657 62.698,349.804 62.189,350.154 60.958 C 350.239 60.660,350.620 59.292,351.002 57.917 C 351.383 56.542,351.756 55.267,351.829 55.083 C 351.902 54.900,352.056 54.413,352.170 54.000 C 352.285 53.587,352.443 53.025,352.521 52.750 C 352.681 52.190,353.733 48.445,354.020 47.417 C 354.122 47.050,354.263 46.563,354.333 46.333 C 354.404 46.104,354.554 45.579,354.667 45.167 C 354.780 44.754,354.936 44.229,355.013 44.000 C 355.091 43.771,355.347 42.871,355.581 42.000 C 355.816 41.129,356.126 40.096,356.269 39.704 L 356.531 38.992 359.284 39.038 L 362.037 39.083 362.249 39.667 M377.793 51.982 C 377.824 61.372,377.784 64.942,377.647 65.107 C 377.283 65.545,374.228 65.417,374.105 64.958 C 373.972 64.462,373.970 39.605,374.103 39.258 C 374.191 39.030,374.473 38.996,375.978 39.036 L 377.750 39.083 377.793 51.982 M133.452 39.542 C 133.221 39.714,133.165 40.120,133.128 41.917 L 133.083 44.083 131.838 44.133 C 130.122 44.202,130.000 44.334,130.000 46.132 C 130.000 47.896,130.092 47.987,131.875 47.995 L 133.167 48.000 133.167 54.308 C 133.167 58.383,133.231 60.818,133.347 61.183 C 134.043 63.364,135.264 64.527,137.678 65.308 C 138.489 65.570,142.370 65.564,142.633 65.300 C 142.907 65.027,142.900 62.481,142.625 62.135 C 142.473 61.943,141.981 61.847,140.792 61.774 C 137.390 61.568,137.333 61.435,137.333 53.697 L 137.333 48.000 139.511 48.000 C 142.387 48.000,142.333 48.036,142.333 46.111 C 142.333 44.100,142.426 44.167,139.633 44.167 L 137.333 44.167 137.333 41.923 C 137.333 39.874,137.305 39.663,137.011 39.506 C 136.547 39.258,133.795 39.285,133.452 39.542 M301.000 39.455 C 300.555 39.624,300.505 39.884,300.503 42.042 L 300.500 44.167 299.192 44.167 C 297.467 44.167,297.333 44.307,297.333 46.118 C 297.333 47.778,297.439 47.887,299.150 48.000 L 300.417 48.083 300.502 54.583 L 300.587 61.083 301.060 62.068 C 302.235 64.511,304.171 65.500,307.778 65.500 C 310.219 65.500,310.167 65.543,310.167 63.553 C 310.167 61.763,310.354 61.915,307.967 61.760 C 304.855 61.558,304.833 61.504,304.833 53.911 L 304.833 48.000 306.963 48.000 C 309.779 48.000,309.835 47.963,309.828 46.116 C 309.820 44.141,309.856 44.167,307.107 44.167 L 304.833 44.167 304.833 42.083 C 304.833 39.385,304.789 39.328,302.708 39.346 C 301.906 39.354,301.137 39.402,301.000 39.455 M137.167 42.000 L 137.250 44.250 139.489 44.297 C 142.252 44.354,142.192 44.313,142.131 46.150 L 142.083 47.583 139.844 47.630 C 136.871 47.692,137.167 46.997,137.167 53.911 C 137.167 61.648,137.331 62.000,140.933 62.000 C 142.689 62.000,142.660 61.972,142.664 63.719 C 142.668 65.298,142.620 65.334,140.536 65.327 C 137.612 65.318,136.100 64.786,134.711 63.278 C 133.424 61.883,133.333 61.281,133.333 54.170 C 133.333 47.132,133.487 47.704,131.575 47.633 L 130.250 47.583 130.202 46.156 C 130.145 44.451,130.233 44.364,132.083 44.294 L 133.250 44.250 133.294 42.167 C 133.351 39.423,133.170 39.647,135.289 39.703 L 137.083 39.750 137.167 42.000 M304.500 41.800 C 304.500 44.469,304.365 44.333,307.021 44.333 C 309.602 44.333,309.667 44.372,309.667 45.940 C 309.667 47.674,309.677 47.667,307.233 47.667 C 304.196 47.667,304.500 47.003,304.500 53.643 C 304.500 61.431,304.756 62.000,308.261 62.000 C 310.023 62.000,310.000 61.980,310.000 63.504 C 310.000 65.423,310.099 65.333,307.965 65.333 C 304.276 65.333,302.308 64.324,301.226 61.879 C 300.836 60.997,300.833 60.948,300.833 54.680 C 300.833 47.212,300.960 47.699,299.000 47.628 L 297.750 47.583 297.701 46.192 C 297.639 44.411,297.704 44.333,299.265 44.333 C 300.813 44.333,300.833 44.298,300.833 41.678 L 300.833 39.667 302.667 39.667 L 304.500 39.667 304.500 41.800 M222.013 43.434 C 221.896 43.883,221.742 44.438,221.670 44.667 C 221.598 44.896,221.446 45.421,221.333 45.833 C 221.220 46.246,221.070 46.771,221.000 47.000 C 220.832 47.546,220.624 48.299,219.918 50.917 C 219.120 53.877,218.986 54.348,218.800 54.859 C 218.712 55.103,218.664 55.478,218.695 55.693 L 218.750 56.083 222.417 56.083 L 226.083 56.083 226.050 55.583 C 226.020 55.134,225.893 54.613,225.500 53.333 C 225.325 52.765,225.123 52.037,224.250 48.833 C 223.166 44.855,223.146 44.787,222.983 44.367 C 222.901 44.157,222.833 43.846,222.833 43.677 C 222.833 43.508,222.696 43.201,222.529 42.994 L 222.224 42.617 222.013 43.434 M359.114 42.792 C 359.074 42.860,358.844 43.629,358.603 44.500 C 358.362 45.371,358.081 46.383,357.979 46.750 C 357.878 47.117,357.737 47.604,357.667 47.833 C 357.499 48.379,357.291 49.132,356.585 51.750 C 356.264 52.942,355.922 54.179,355.825 54.500 C 355.729 54.821,355.635 55.308,355.616 55.583 L 355.583 56.083 359.000 56.131 C 360.879 56.156,362.577 56.138,362.773 56.090 L 363.129 56.003 362.800 54.793 C 362.618 54.128,362.406 53.358,362.328 53.083 C 362.249 52.808,362.102 52.283,362.000 51.917 C 361.898 51.550,361.750 51.025,361.672 50.750 C 361.360 49.655,360.103 45.084,359.838 44.083 C 359.541 42.961,359.283 42.501,359.114 42.792 M359.591 44.090 C 359.986 45.536,360.166 46.182,360.343 46.792 C 360.520 47.402,360.620 47.756,361.246 50.000 C 361.790 51.950,361.970 52.585,362.192 53.333 C 362.287 53.654,362.403 54.161,362.451 54.460 C 362.498 54.759,362.604 55.044,362.685 55.095 C 362.767 55.145,362.833 55.369,362.833 55.593 L 362.833 56.000 359.333 56.000 L 355.833 56.000 355.837 55.625 C 355.841 55.302,356.084 54.319,356.672 52.250 C 356.751 51.975,356.898 51.450,357.000 51.083 C 357.102 50.717,357.250 50.192,357.328 49.917 C 357.406 49.642,357.631 48.817,357.828 48.083 C 358.024 47.350,358.323 46.262,358.491 45.667 C 358.660 45.071,358.896 44.230,359.016 43.798 C 359.137 43.367,359.254 43.032,359.278 43.055 C 359.301 43.078,359.442 43.544,359.591 44.090 M222.739 44.292 C 222.897 44.910,223.090 45.567,223.168 45.750 C 223.245 45.933,223.346 46.271,223.393 46.500 C 223.439 46.729,223.557 47.198,223.655 47.542 C 223.871 48.299,224.007 48.783,224.579 50.833 C 225.033 52.460,225.198 53.041,225.517 54.125 C 225.618 54.469,225.738 55.031,225.785 55.375 L 225.868 56.000 222.351 56.000 C 219.956 56.000,218.833 55.943,218.833 55.821 C 218.833 55.641,220.088 51.007,220.500 49.667 C 221.006 48.020,222.167 43.676,222.167 43.429 C 222.167 42.796,222.474 43.259,222.739 44.292 M58.665 44.503 C 58.278 45.226,58.526 60.944,58.940 61.953 C 60.016 64.575,61.753 65.502,65.581 65.497 C 68.458 65.494,69.460 65.190,70.452 64.019 L 70.821 63.583 70.827 64.219 C 70.839 65.435,70.948 65.500,73.000 65.500 C 74.630 65.500,74.840 65.466,74.994 65.178 C 75.108 64.966,75.167 61.409,75.167 54.787 C 75.167 42.974,75.413 44.167,72.971 44.167 C 70.642 44.167,70.852 43.384,70.797 52.258 C 70.736 62.000,70.854 61.731,66.654 61.743 C 62.628 61.755,62.774 62.104,62.701 52.254 C 62.664 47.192,62.585 44.519,62.469 44.379 C 62.142 43.985,58.886 44.091,58.665 44.503 M150.661 44.416 C 148.923 44.893,147.500 46.070,146.782 47.625 C 146.426 48.396,146.417 48.580,146.417 54.833 L 146.417 61.250 146.852 62.167 C 147.379 63.278,148.359 64.299,149.349 64.770 C 152.083 66.072,156.410 65.791,158.042 64.206 L 158.667 63.599 158.667 64.350 C 158.667 65.421,158.810 65.500,160.758 65.500 C 162.184 65.500,162.491 65.452,162.724 65.195 C 163.132 64.744,163.148 45.119,162.741 44.537 L 162.481 44.167 156.949 44.187 C 153.109 44.202,151.185 44.272,150.661 44.416 M172.333 44.333 C 172.196 44.422,171.917 44.496,171.714 44.497 C 170.304 44.507,168.356 46.441,167.752 48.431 C 167.389 49.627,167.389 60.040,167.752 61.236 C 168.799 64.685,170.483 65.500,176.570 65.500 C 181.235 65.500,180.988 65.602,180.992 63.667 C 180.996 61.813,181.250 61.931,177.014 61.827 L 173.349 61.737 172.741 61.244 C 171.745 60.434,171.672 59.999,171.669 54.845 C 171.665 47.866,171.562 48.000,176.908 48.000 C 181.095 48.000,181.000 48.046,181.000 46.026 C 181.000 44.085,181.198 44.166,176.487 44.169 C 174.255 44.171,172.476 44.241,172.333 44.333 M195.985 44.542 C 195.567 44.904,195.364 45.190,194.689 46.364 C 194.514 46.668,193.387 48.550,192.185 50.546 C 190.983 52.542,190.000 54.356,190.000 54.576 C 190.000 54.910,192.955 60.018,194.021 61.526 C 194.193 61.769,194.333 62.013,194.333 62.069 C 194.333 62.263,196.212 65.080,196.480 65.287 C 196.892 65.605,200.661 65.502,200.871 65.167 C 201.037 64.903,200.218 63.470,197.604 59.443 C 196.905 58.367,196.333 57.454,196.333 57.415 C 196.333 57.377,195.913 56.700,195.399 55.912 L 194.465 54.479 195.233 53.325 C 195.655 52.690,196.000 52.135,196.000 52.091 C 196.000 52.047,196.637 51.031,197.417 49.833 C 198.196 48.636,198.833 47.623,198.833 47.583 C 198.833 47.543,199.208 46.936,199.667 46.234 C 200.936 44.290,200.851 44.166,198.258 44.167 C 196.590 44.168,196.376 44.203,195.985 44.542 M240.417 44.401 C 236.586 45.497,235.849 47.104,235.839 54.367 C 235.832 60.163,236.118 61.498,237.669 62.899 C 240.072 65.070,245.698 65.163,247.735 63.065 L 248.364 62.417 248.307 64.334 C 248.197 68.031,248.030 68.138,242.329 68.154 C 237.104 68.169,237.333 68.081,237.333 70.067 C 237.333 72.119,237.008 72.000,242.622 72.000 C 249.423 72.000,251.109 71.274,252.224 67.863 C 252.580 66.775,252.651 44.718,252.300 44.367 C 252.028 44.094,241.380 44.125,240.417 44.401 M262.000 44.333 C 261.862 44.422,261.618 44.496,261.457 44.497 C 260.988 44.502,259.761 45.138,259.054 45.743 C 258.480 46.233,258.211 46.662,257.437 48.317 C 257.309 48.591,257.250 50.675,257.250 54.900 L 257.250 61.083 257.713 62.041 C 259.201 65.119,260.290 65.496,267.702 65.498 C 274.017 65.500,273.500 65.669,273.500 63.606 C 273.500 61.728,273.805 61.834,268.363 61.832 C 262.919 61.831,262.309 61.716,261.702 60.570 C 261.468 60.128,261.256 57.829,261.398 57.264 L 261.506 56.833 267.264 56.833 C 270.914 56.833,273.140 56.770,273.344 56.661 C 273.793 56.421,273.833 50.047,273.396 48.526 C 272.740 46.246,271.463 45.030,269.069 44.406 C 268.001 44.128,262.407 44.070,262.000 44.333 M278.207 44.498 C 277.937 44.930,277.904 64.676,278.173 65.178 C 278.422 65.643,281.883 65.670,282.103 65.208 C 282.179 65.048,282.281 61.504,282.329 57.333 C 282.428 48.799,282.388 49.055,283.708 48.350 C 284.496 47.930,288.363 47.827,289.042 48.208 C 290.399 48.970,290.402 48.990,290.465 57.496 C 290.503 62.496,290.582 65.148,290.698 65.288 C 290.935 65.574,294.183 65.584,294.467 65.300 C 294.729 65.037,294.752 49.583,294.491 48.583 C 293.689 45.511,291.860 44.331,287.715 44.212 C 284.935 44.132,283.735 44.474,282.727 45.632 L 282.370 46.042 282.249 45.313 C 282.066 44.202,281.999 44.167,280.103 44.167 C 278.598 44.167,278.391 44.203,278.207 44.498 M314.426 44.537 C 314.090 45.016,314.028 64.347,314.360 65.075 C 314.626 65.658,318.023 65.746,318.327 65.178 C 318.441 64.966,318.500 61.423,318.500 54.833 C 318.500 48.244,318.441 44.701,318.327 44.489 C 318.048 43.966,314.798 44.006,314.426 44.537 M328.167 44.333 C 328.029 44.422,327.755 44.496,327.557 44.497 C 326.477 44.505,324.689 45.982,323.962 47.468 L 323.417 48.583 323.417 54.833 L 323.417 61.083 323.857 62.021 C 324.673 63.760,325.941 64.810,327.833 65.313 C 329.010 65.626,336.530 65.501,336.632 65.167 C 336.694 64.965,336.666 64.957,336.488 65.125 C 336.158 65.436,329.161 65.415,327.948 65.098 C 324.069 64.088,323.422 62.449,323.537 53.917 C 323.652 45.363,324.640 44.333,332.735 44.333 C 336.771 44.333,336.667 44.286,336.667 46.118 C 336.667 47.689,336.803 47.632,332.832 47.696 C 327.242 47.785,327.417 47.555,327.417 54.833 C 327.417 62.159,327.294 62.000,332.942 62.000 C 336.806 62.000,336.537 61.880,336.690 63.667 L 336.798 64.917 336.772 63.535 C 336.740 61.778,336.857 61.839,333.500 61.834 C 329.540 61.829,329.087 61.754,328.307 60.974 L 327.667 60.333 327.667 54.958 C 327.668 47.634,327.399 48.000,332.776 48.000 C 336.896 48.000,336.833 48.029,336.833 46.120 C 336.833 44.079,337.033 44.166,332.366 44.169 C 330.104 44.171,328.310 44.241,328.167 44.333 M62.167 44.496 C 62.381 44.632,62.429 45.764,62.500 52.452 L 62.583 60.250 62.984 60.811 C 64.189 62.501,69.153 62.502,70.382 60.812 C 71.070 59.867,71.161 58.790,71.164 51.575 C 71.166 46.479,71.218 44.682,71.367 44.533 C 71.593 44.307,74.286 44.256,74.626 44.472 C 74.792 44.577,74.827 46.779,74.793 54.927 L 74.750 65.250 73.000 65.250 L 71.250 65.250 71.200 64.292 C 71.143 63.201,70.751 62.970,70.321 63.774 C 69.756 64.830,68.210 65.334,65.551 65.331 C 61.554 65.327,59.738 64.124,58.854 60.897 C 58.505 59.620,58.599 44.723,58.958 44.513 C 59.327 44.299,61.833 44.285,62.167 44.496 M162.574 44.704 C 162.910 45.183,162.972 64.181,162.640 64.909 C 162.452 65.321,162.400 65.333,160.840 65.333 C 158.950 65.333,158.833 65.258,158.833 64.050 C 158.833 62.976,158.861 62.978,157.880 63.984 C 155.290 66.640,148.773 65.559,147.130 62.201 L 146.583 61.083 146.583 54.833 L 146.583 48.583 147.019 47.667 C 148.372 44.816,149.752 44.366,157.199 44.347 C 162.303 44.333,162.315 44.334,162.574 44.704 M180.487 44.567 C 180.610 44.715,180.663 45.310,180.632 46.192 L 180.583 47.583 177.083 47.670 C 171.398 47.812,171.500 47.680,171.500 54.929 C 171.500 62.045,171.363 61.869,177.000 62.000 L 180.583 62.083 180.633 63.331 C 180.660 64.018,180.640 64.749,180.588 64.956 L 180.494 65.333 176.705 65.331 C 171.349 65.329,169.695 64.741,168.372 62.374 C 167.687 61.147,167.315 51.510,167.854 48.967 C 168.351 46.622,169.849 45.111,172.180 44.601 C 173.714 44.265,180.214 44.239,180.487 44.567 M200.143 44.555 C 200.283 44.723,200.213 44.958,199.856 45.521 C 199.596 45.931,199.354 46.342,199.317 46.436 C 199.280 46.530,198.605 47.614,197.817 48.845 C 193.713 55.258,194.042 54.228,195.417 56.346 C 196.012 57.264,196.500 58.087,196.500 58.174 C 196.500 58.262,196.575 58.333,196.667 58.333 C 196.758 58.333,196.833 58.408,196.833 58.498 C 196.833 58.589,197.379 59.508,198.045 60.540 C 201.228 65.469,201.206 65.333,198.846 65.333 C 197.068 65.333,196.534 65.190,196.168 64.613 C 195.599 63.718,193.390 60.141,192.754 59.083 C 192.367 58.442,191.671 57.304,191.207 56.554 C 190.152 54.849,190.079 54.620,190.405 53.999 C 191.843 51.258,195.922 44.755,196.333 44.548 C 196.918 44.254,199.898 44.260,200.143 44.555 M252.133 44.533 C 252.449 44.849,252.414 66.472,252.096 67.520 C 251.021 71.063,249.659 71.700,242.949 71.797 C 237.222 71.881,237.500 71.968,237.500 70.078 C 237.500 68.450,237.252 68.534,242.252 68.471 C 248.175 68.397,248.417 68.235,248.417 64.348 C 248.417 62.061,248.311 61.851,247.647 62.811 C 246.740 64.123,242.150 64.848,240.000 64.019 C 238.682 63.511,238.352 63.308,237.706 62.606 C 236.227 61.003,236.127 60.418,236.195 53.833 L 236.250 48.583 236.708 47.606 C 237.464 45.991,238.773 45.007,240.731 44.581 C 242.116 44.280,251.839 44.239,252.133 44.533 M268.486 44.520 C 272.272 45.164,273.346 46.873,273.463 52.435 C 273.563 57.210,274.379 56.653,267.204 56.706 L 261.250 56.750 261.250 58.530 C 261.250 61.821,261.409 61.903,267.887 61.963 C 273.710 62.016,273.333 61.893,273.333 63.749 C 273.333 65.438,273.693 65.334,267.842 65.327 C 261.340 65.320,260.359 65.110,258.859 63.406 C 257.472 61.831,257.427 61.562,257.427 54.833 C 257.427 48.117,257.474 47.834,258.841 46.281 C 260.333 44.585,264.452 43.833,268.486 44.520 M281.800 44.533 C 281.910 44.643,282.000 45.089,282.000 45.523 C 282.000 46.561,282.179 46.631,282.856 45.857 C 285.282 43.091,292.193 44.027,293.773 47.337 C 294.473 48.803,294.500 49.173,294.500 57.194 C 294.500 66.160,294.705 65.333,292.484 65.333 C 290.465 65.333,290.669 66.165,290.657 57.861 C 290.643 47.930,290.606 47.830,286.898 47.693 C 282.178 47.518,282.006 47.876,282.003 57.872 L 282.000 65.160 281.625 65.254 C 281.419 65.306,280.616 65.326,279.840 65.299 L 278.431 65.250 278.294 64.588 C 278.044 63.381,278.215 44.927,278.479 44.609 C 278.762 44.267,281.472 44.206,281.800 44.533 M317.903 44.434 C 318.140 44.525,318.167 45.606,318.167 54.934 L 318.167 65.333 316.434 65.333 C 315.009 65.333,314.684 65.287,314.601 65.070 C 314.393 64.527,314.488 44.745,314.700 44.533 C 314.909 44.325,317.415 44.247,317.903 44.434 M152.114 47.908 C 150.407 48.517,150.333 48.812,150.333 54.996 C 150.333 61.708,150.417 61.870,153.952 61.973 C 156.916 62.060,158.144 61.512,158.631 59.885 C 158.916 58.936,158.918 48.151,158.633 47.867 C 158.339 47.572,152.960 47.607,152.114 47.908 M241.750 47.916 C 240.160 48.476,239.833 49.572,239.833 54.353 C 239.833 60.339,240.157 60.833,244.083 60.833 C 246.954 60.833,247.721 60.443,248.310 58.683 C 248.583 57.869,248.574 48.141,248.300 47.867 C 248.000 47.567,242.627 47.607,241.750 47.916 M262.917 47.917 C 261.570 48.394,261.169 49.316,261.168 51.938 C 261.166 54.167,260.833 54.015,265.604 53.961 L 269.583 53.917 269.634 52.083 C 269.710 49.355,269.216 48.261,267.722 47.846 C 266.794 47.588,263.717 47.634,262.917 47.917 M158.634 53.000 C 158.721 61.482,158.590 61.754,154.417 61.746 C 150.545 61.738,150.500 61.658,150.500 54.859 C 150.500 49.520,150.549 49.214,151.537 48.432 L 152.083 48.000 155.333 48.041 L 158.583 48.083 158.634 53.000 M248.333 52.979 C 248.333 60.275,248.111 60.667,243.971 60.667 C 240.286 60.667,240.250 60.605,240.250 54.333 C 240.250 47.803,240.097 48.002,245.125 48.001 L 248.333 48.000 248.333 52.979 M268.134 48.233 C 269.188 48.778,269.541 49.819,269.467 52.167 L 269.417 53.750 265.458 53.795 L 261.500 53.839 261.500 51.664 C 261.500 49.262,261.618 48.895,262.576 48.311 C 263.234 47.909,267.395 47.851,268.134 48.233 " stroke="none" fill="#848484" fill-rule="evenodd"></path></g></svg>