<svg id="svg" version="1.1" xmlns="http://www.w3.org/2000/svg" xmlns:xlink="http://www.w3.org/1999/xlink" width="400" height="107.33229329173167" viewBox="0, 0, 400,107.33229329173167"><g id="svgg"><path id="path0" d="M0.833 22.417 L 0.833 43.167 3.736 43.167 C 5.333 43.167,6.758 43.212,6.903 43.268 C 7.307 43.423,7.307 77.744,6.903 77.899 C 6.758 77.954,5.333 78.000,3.735 78.000 L 0.831 78.000 0.874 91.958 L 0.917 105.917 9.625 105.960 L 18.333 106.003 18.333 53.835 L 18.333 1.667 9.583 1.667 L 0.833 1.667 0.833 22.417 M23.226 14.958 C 23.287 22.269,23.404 45.677,23.487 66.977 C 23.573 89.233,23.700 105.766,23.785 105.852 C 24.132 106.198,379.362 105.949,379.565 105.602 C 379.667 105.428,380.012 104.968,380.333 104.578 C 380.654 104.188,381.254 103.440,381.667 102.917 C 382.079 102.393,382.679 101.638,383.000 101.238 C 383.321 100.838,383.883 100.126,384.250 99.657 C 384.617 99.187,385.179 98.482,385.500 98.090 C 385.821 97.698,386.383 96.985,386.750 96.505 C 387.117 96.026,387.604 95.422,387.833 95.164 C 388.850 94.019,389.667 93.012,389.667 92.904 C 389.667 92.840,389.948 92.471,390.292 92.084 C 390.635 91.698,391.254 90.951,391.667 90.426 C 394.270 87.107,394.849 86.379,395.917 85.081 C 396.467 84.413,397.348 83.325,397.875 82.665 L 398.833 81.464 398.833 41.565 L 398.833 1.667 210.974 1.667 L 23.115 1.667 23.226 14.958 M395.125 42.790 L 395.167 79.996 394.597 80.744 C 393.908 81.646,393.219 82.503,391.999 83.976 C 391.022 85.155,390.305 86.065,389.730 86.858 C 389.535 87.126,389.104 87.639,388.771 87.999 C 388.439 88.358,388.167 88.716,388.167 88.793 C 388.167 88.871,387.904 89.189,387.583 89.500 C 387.262 89.811,387.000 90.148,387.000 90.249 C 387.000 90.350,386.700 90.725,386.333 91.083 C 385.967 91.441,385.667 91.804,385.667 91.889 C 385.667 91.973,385.423 92.321,385.125 92.662 C 384.827 93.002,384.283 93.675,383.917 94.158 C 383.550 94.641,383.025 95.282,382.750 95.583 C 382.475 95.884,381.950 96.516,381.583 96.988 C 381.217 97.459,380.654 98.171,380.333 98.571 C 380.012 98.971,379.412 99.726,379.000 100.249 C 378.587 100.772,378.075 101.417,377.860 101.683 L 377.470 102.167 202.503 102.167 C 43.109 102.167,27.527 102.143,27.434 101.903 C 27.379 101.758,27.334 97.127,27.336 91.611 C 27.337 86.096,27.252 64.582,27.147 43.802 C 27.042 23.023,27.001 5.904,27.056 5.761 C 27.147 5.524,44.373 5.504,211.120 5.542 L 395.083 5.583 395.125 42.790 M233.708 30.944 C 233.410 31.064,233.402 68.835,233.700 69.133 C 234.059 69.492,238.052 69.403,238.391 69.029 C 238.724 68.660,238.825 31.774,238.494 31.156 C 238.326 30.841,234.393 30.667,233.708 30.944 M319.006 31.156 C 318.896 31.362,318.833 33.768,318.833 37.822 C 318.833 44.683,318.804 44.884,317.998 43.580 C 316.968 41.914,315.679 41.500,311.522 41.500 C 305.520 41.500,303.043 43.131,302.245 47.607 C 301.965 49.180,301.908 60.885,302.172 62.750 C 302.840 67.474,305.475 69.330,311.519 69.332 C 315.574 69.334,316.694 68.957,318.070 67.125 C 318.722 66.258,318.833 66.332,318.833 67.635 C 318.833 69.351,318.836 69.352,321.497 69.297 C 323.702 69.251,323.744 69.243,323.951 68.833 C 324.244 68.253,324.266 31.900,323.973 31.258 L 323.780 30.833 321.479 30.833 C 319.375 30.833,319.164 30.861,319.006 31.156 M84.068 34.295 C 83.637 34.651,83.512 34.980,82.658 38.000 C 82.281 39.329,81.909 40.642,81.830 40.917 C 81.750 41.192,81.602 41.717,81.500 42.083 C 81.398 42.450,81.248 42.975,81.167 43.250 C 80.971 43.912,80.701 44.873,80.522 45.542 C 80.443 45.840,80.142 46.908,79.853 47.917 C 79.565 48.925,79.246 50.050,79.145 50.417 C 79.045 50.783,78.904 51.233,78.833 51.417 C 78.763 51.600,78.621 52.050,78.518 52.417 C 78.416 52.783,78.100 53.908,77.817 54.917 C 77.534 55.925,77.234 56.994,77.151 57.292 C 76.974 57.928,76.729 58.784,76.509 59.542 C 76.423 59.840,76.269 60.383,76.167 60.750 C 76.065 61.117,75.917 61.642,75.839 61.917 C 75.669 62.514,74.549 66.339,74.302 67.167 C 74.206 67.487,74.092 68.106,74.048 68.542 L 73.968 69.333 76.380 69.333 C 79.142 69.333,78.944 69.439,79.489 67.667 C 79.701 66.979,79.932 66.229,80.003 66.000 C 80.074 65.771,80.249 65.171,80.391 64.667 C 80.533 64.162,80.807 63.206,80.998 62.542 L 81.347 61.333 87.497 61.333 C 91.850 61.333,93.681 61.388,93.762 61.520 C 93.825 61.622,93.935 61.941,94.005 62.228 C 94.076 62.515,94.366 63.538,94.651 64.500 C 94.935 65.462,95.251 66.550,95.353 66.917 C 96.079 69.528,95.831 69.349,98.655 69.296 L 101.083 69.250 101.050 68.658 C 101.032 68.333,100.782 67.245,100.493 66.242 C 99.956 64.370,99.815 63.878,99.509 62.792 C 99.413 62.448,99.263 61.923,99.176 61.625 C 99.090 61.327,98.935 60.783,98.833 60.417 C 98.497 59.207,98.373 58.775,97.587 56.083 C 96.553 52.539,96.543 52.506,96.358 51.833 C 96.106 50.921,95.521 48.842,95.233 47.833 C 95.089 47.329,94.903 46.673,94.819 46.375 C 94.735 46.077,94.592 45.571,94.500 45.250 C 94.408 44.929,94.258 44.404,94.167 44.083 C 93.975 43.412,93.929 43.251,93.009 40.000 C 92.633 38.671,92.261 37.396,92.182 37.167 C 92.103 36.938,91.946 36.412,91.833 36.000 C 91.276 33.963,91.354 33.999,87.450 34.004 C 84.825 34.007,84.370 34.046,84.068 34.295 M104.200 34.200 C 103.918 34.482,103.952 35.169,104.345 37.083 C 104.533 38.000,104.765 39.162,104.859 39.667 C 104.954 40.171,105.099 40.921,105.182 41.333 C 105.265 41.746,105.411 42.496,105.507 43.000 C 105.602 43.504,105.749 44.254,105.835 44.667 C 105.920 45.079,106.057 45.792,106.141 46.250 C 106.224 46.708,106.445 47.833,106.632 48.750 C 106.819 49.667,107.131 51.279,107.327 52.333 C 107.523 53.387,107.748 54.550,107.828 54.917 C 107.908 55.283,108.060 56.033,108.167 56.583 C 108.273 57.133,108.423 57.883,108.500 58.250 C 108.685 59.133,108.913 60.298,109.415 62.917 C 109.818 65.022,110.051 66.222,110.254 67.250 C 110.309 67.525,110.396 67.975,110.447 68.250 C 110.647 69.318,110.703 69.333,114.431 69.333 C 118.056 69.333,118.235 69.293,118.406 68.447 C 118.447 68.247,118.525 67.858,118.581 67.583 C 118.636 67.308,118.746 66.821,118.824 66.500 C 118.902 66.179,119.048 65.542,119.147 65.083 C 119.246 64.625,119.444 63.725,119.587 63.083 C 119.730 62.442,120.004 61.204,120.195 60.333 C 120.385 59.462,120.611 58.450,120.697 58.083 C 120.782 57.717,120.922 57.098,121.009 56.708 C 121.096 56.319,121.238 55.681,121.324 55.292 C 121.411 54.902,121.553 54.283,121.641 53.917 C 121.728 53.550,121.880 52.875,121.977 52.417 C 122.075 51.958,122.271 51.058,122.414 50.417 C 122.556 49.775,122.754 48.875,122.853 48.417 C 122.952 47.958,123.105 47.283,123.193 46.917 C 123.280 46.550,123.422 45.931,123.509 45.542 C 123.596 45.152,123.738 44.515,123.824 44.125 C 123.911 43.735,124.062 43.079,124.161 42.667 C 124.260 42.254,124.386 41.635,124.442 41.292 C 124.498 40.948,124.609 40.667,124.689 40.667 C 124.768 40.667,124.890 40.656,124.958 40.642 C 125.027 40.629,125.135 40.873,125.199 41.184 C 125.263 41.495,125.386 42.050,125.474 42.417 C 125.561 42.783,125.714 43.458,125.813 43.917 C 126.010 44.825,126.285 46.056,126.837 48.500 C 127.034 49.371,127.263 50.402,127.347 50.792 C 127.590 51.919,127.803 52.865,127.974 53.583 C 128.062 53.950,128.214 54.625,128.313 55.083 C 128.412 55.542,128.610 56.442,128.753 57.083 C 128.896 57.725,129.092 58.625,129.190 59.083 C 129.287 59.542,129.438 60.217,129.526 60.583 C 129.613 60.950,129.756 61.569,129.842 61.958 C 129.929 62.348,130.071 62.985,130.158 63.375 C 130.244 63.765,130.387 64.383,130.474 64.750 C 130.663 65.541,130.974 66.961,131.183 67.987 C 131.460 69.342,131.434 69.333,135.250 69.333 C 139.305 69.333,138.958 69.568,139.568 66.417 C 139.817 65.133,140.085 63.783,140.163 63.417 C 140.242 63.050,140.393 62.300,140.500 61.750 C 140.607 61.200,140.757 60.450,140.833 60.083 C 141.098 58.820,141.339 57.577,141.757 55.333 C 141.987 54.096,142.242 52.783,142.324 52.417 C 142.406 52.050,142.551 51.337,142.648 50.833 C 142.744 50.329,142.867 49.692,142.921 49.417 C 142.976 49.142,143.057 48.692,143.101 48.417 C 143.146 48.142,143.248 47.617,143.328 47.250 C 143.516 46.388,143.740 45.254,144.252 42.583 C 144.480 41.392,144.749 40.004,144.849 39.500 C 144.950 38.996,145.106 38.208,145.197 37.750 C 145.288 37.292,145.431 36.645,145.514 36.314 C 146.054 34.179,145.837 34.000,142.721 34.000 C 139.750 34.000,139.750 34.000,139.490 35.869 C 139.204 37.920,138.573 42.072,137.977 45.833 C 137.761 47.190,137.560 48.529,137.426 49.500 C 137.368 49.913,137.253 50.625,137.170 51.083 C 137.087 51.542,136.939 52.442,136.843 53.083 C 136.374 56.198,136.149 57.668,136.004 58.583 C 135.916 59.133,135.763 60.146,135.663 60.833 C 135.129 64.511,134.827 64.815,134.258 62.250 C 134.095 61.517,133.903 60.654,133.831 60.333 C 133.759 60.012,133.610 59.337,133.500 58.833 C 133.390 58.329,133.228 57.617,133.141 57.250 C 133.053 56.883,132.917 56.283,132.838 55.917 C 132.759 55.550,132.580 54.762,132.441 54.167 C 132.135 52.857,131.526 50.168,131.329 49.250 C 131.250 48.883,131.113 48.283,131.026 47.917 C 130.938 47.550,130.777 46.837,130.667 46.333 C 130.266 44.497,130.202 44.211,129.684 41.917 C 128.965 38.737,128.836 38.176,128.664 37.500 C 128.583 37.179,128.471 36.692,128.417 36.417 C 127.921 33.902,128.066 34.000,124.839 34.000 C 121.498 34.000,121.748 33.776,121.006 37.417 C 120.893 37.967,120.734 38.589,120.651 38.800 C 120.568 39.010,120.500 39.363,120.500 39.583 C 120.500 39.804,120.433 40.157,120.352 40.367 C 120.271 40.578,120.117 41.162,120.011 41.667 C 119.904 42.171,119.748 42.883,119.664 43.250 C 119.354 44.595,118.452 48.605,118.295 49.333 C 118.207 49.746,118.074 50.346,118.000 50.667 C 117.927 50.987,117.777 51.663,117.667 52.167 C 117.439 53.209,117.376 53.489,116.748 56.250 C 116.239 58.490,116.121 59.017,115.833 60.333 C 115.723 60.837,115.561 61.550,115.474 61.917 C 115.386 62.283,115.262 62.845,115.197 63.165 C 114.877 64.736,114.494 63.938,113.998 60.667 C 113.698 58.689,113.487 57.323,113.327 56.333 C 113.114 55.006,112.880 53.492,112.583 51.500 C 112.335 49.838,112.205 48.990,111.812 46.500 C 111.454 44.227,111.349 43.545,111.167 42.333 C 111.064 41.646,110.910 40.671,110.826 40.167 C 110.741 39.662,110.563 38.537,110.430 37.667 C 110.297 36.796,110.138 35.757,110.076 35.357 C 109.880 34.078,109.695 34.000,106.867 34.000 C 105.170 34.000,104.338 34.062,104.200 34.200 M157.500 34.162 C 157.271 34.238,156.872 34.308,156.614 34.317 C 154.966 34.375,152.247 36.450,151.404 38.293 C 150.112 41.118,150.183 46.826,151.542 49.384 C 152.689 51.542,154.440 52.565,158.917 53.693 C 160.624 54.123,160.716 54.142,163.959 54.744 C 167.569 55.413,168.588 56.555,168.575 59.917 C 168.559 64.225,167.654 64.886,161.887 64.801 C 156.647 64.724,155.953 64.206,155.679 60.167 L 155.583 58.750 153.273 58.704 C 150.426 58.646,150.499 58.600,150.503 60.479 C 150.512 64.771,152.254 67.596,155.667 68.852 C 157.343 69.468,166.987 69.469,168.667 68.852 C 172.385 67.488,173.753 65.033,173.741 59.750 C 173.730 55.243,172.951 53.312,170.500 51.716 C 168.551 50.447,166.994 49.974,161.833 49.081 C 156.942 48.235,155.660 47.183,155.673 44.028 C 155.692 39.372,156.912 38.392,162.500 38.541 C 166.969 38.661,168.153 39.458,168.163 42.350 C 168.165 42.955,168.249 43.686,168.350 43.975 L 168.533 44.500 170.915 44.500 C 173.665 44.500,173.500 44.612,173.500 42.747 C 173.500 38.300,171.148 35.067,167.341 34.280 C 166.368 34.079,158.050 33.979,157.500 34.162 M192.811 34.375 C 192.588 34.581,192.232 35.200,192.020 35.750 C 191.808 36.300,191.574 36.900,191.500 37.083 C 191.426 37.267,191.215 37.829,191.030 38.333 C 189.734 41.866,189.455 42.621,189.335 42.917 C 189.261 43.100,189.110 43.512,189.000 43.833 C 188.890 44.154,188.736 44.567,188.659 44.750 C 188.582 44.933,188.248 45.833,187.918 46.750 C 187.274 48.538,186.716 50.045,186.501 50.583 C 186.427 50.767,186.277 51.179,186.167 51.500 C 186.056 51.821,185.902 52.233,185.824 52.417 C 185.746 52.600,185.461 53.387,185.192 54.167 C 184.723 55.520,184.292 56.696,184.001 57.417 C 183.927 57.600,183.716 58.163,183.532 58.667 C 182.654 61.077,181.962 62.948,181.838 63.250 C 181.762 63.433,181.610 63.846,181.500 64.167 C 181.390 64.487,181.238 64.900,181.162 65.083 C 179.420 69.315,179.405 69.238,181.962 69.297 C 184.745 69.361,184.414 69.672,185.914 65.583 C 186.250 64.667,186.587 63.767,186.663 63.583 C 186.739 63.400,186.952 62.837,187.137 62.333 C 188.436 58.790,188.712 58.046,188.832 57.750 C 188.906 57.567,189.132 56.967,189.333 56.417 C 189.535 55.867,189.761 55.267,189.838 55.083 C 189.914 54.900,190.398 53.587,190.914 52.167 C 191.430 50.746,191.918 49.433,192.000 49.250 C 192.081 49.067,192.419 48.167,192.749 47.250 C 193.401 45.441,193.955 43.944,194.167 43.417 C 194.240 43.233,194.451 42.671,194.635 42.167 C 195.524 39.728,196.205 37.885,196.330 37.583 C 197.769 34.102,197.734 34.000,195.087 34.000 C 193.377 34.000,193.180 34.032,192.811 34.375 M210.167 34.167 C 209.938 34.240,209.539 34.308,209.281 34.317 C 207.143 34.392,204.417 36.883,203.699 39.417 C 202.951 42.060,202.920 62.115,203.662 63.917 C 203.738 64.100,203.895 64.512,204.013 64.833 C 204.623 66.505,206.247 68.049,208.214 68.826 C 209.465 69.320,219.713 69.482,221.083 69.030 C 222.090 68.697,223.201 68.129,223.665 67.709 C 223.893 67.502,224.133 67.333,224.198 67.333 C 225.629 67.333,227.493 59.369,226.438 57.760 C 226.163 57.339,226.131 57.333,224.017 57.333 C 221.414 57.333,221.572 57.175,221.447 59.921 C 221.246 64.322,220.559 64.833,214.845 64.833 C 208.183 64.833,208.348 65.165,208.339 51.717 C 208.331 38.329,208.246 38.500,214.851 38.500 C 220.304 38.500,221.227 39.172,221.426 43.288 C 221.572 46.311,221.277 46.000,224.007 46.000 L 226.342 46.000 226.522 45.542 C 226.748 44.969,226.592 40.557,226.314 39.690 C 225.282 36.459,223.511 34.908,220.083 34.231 C 218.797 33.977,210.919 33.926,210.167 34.167 M87.820 39.542 C 87.900 39.748,88.056 40.254,88.167 40.667 C 88.277 41.079,88.435 41.589,88.517 41.800 C 88.599 42.010,88.667 42.362,88.667 42.581 C 88.667 42.801,88.733 43.022,88.815 43.072 C 88.896 43.122,89.000 43.408,89.046 43.707 C 89.091 44.006,89.436 45.337,89.813 46.667 C 90.190 47.996,90.582 49.383,90.685 49.750 C 90.788 50.117,90.930 50.604,91.000 50.833 C 91.297 51.801,92.667 56.789,92.667 56.904 C 92.667 57.027,82.753 57.031,82.631 56.908 C 82.580 56.858,82.596 56.577,82.665 56.283 C 82.853 55.491,83.859 51.790,84.192 50.667 C 84.287 50.346,84.403 49.839,84.451 49.540 C 84.498 49.241,84.604 48.956,84.685 48.905 C 84.767 48.855,84.833 48.634,84.833 48.415 C 84.833 48.195,84.901 47.843,84.983 47.633 C 85.143 47.221,85.193 47.045,86.082 43.750 C 87.398 38.868,87.480 38.669,87.820 39.542 M251.417 41.656 C 251.233 41.730,250.783 41.886,250.417 42.002 C 250.050 42.119,249.375 42.462,248.917 42.765 C 245.849 44.793,245.582 45.821,245.587 55.583 L 245.591 62.917 246.053 64.235 C 246.936 66.753,248.373 68.121,251.083 69.027 C 252.215 69.405,261.001 69.341,262.083 68.946 C 264.644 68.012,266.336 66.281,267.058 63.854 C 267.320 62.973,267.406 48.319,267.155 47.333 C 266.447 44.551,264.854 42.815,262.183 41.911 C 260.925 41.486,252.348 41.283,251.417 41.656 M273.867 41.700 C 273.597 41.969,273.578 62.042,273.847 63.064 C 274.414 65.229,274.646 65.752,275.537 66.879 C 277.001 68.730,278.618 69.250,282.917 69.250 C 287.134 69.250,288.256 68.891,289.388 67.180 C 290.017 66.230,290.167 66.321,290.167 67.655 C 290.167 69.329,290.206 69.353,292.887 69.296 C 295.032 69.251,295.078 69.242,295.285 68.833 C 295.549 68.310,295.600 42.617,295.337 41.928 L 295.175 41.500 292.871 41.500 C 291.301 41.500,290.503 41.564,290.367 41.700 C 290.216 41.851,290.167 44.277,290.167 51.598 C 290.167 62.552,290.171 62.511,288.957 63.689 C 287.196 65.398,281.129 65.355,279.747 63.623 C 278.832 62.476,278.839 62.559,278.836 51.825 C 278.834 44.331,278.784 41.851,278.633 41.700 C 278.498 41.565,277.726 41.500,276.250 41.500 C 274.774 41.500,274.002 41.565,273.867 41.700 M260.256 46.294 C 262.144 47.258,262.167 47.363,262.167 55.340 C 262.167 64.870,262.188 64.836,256.350 64.831 C 252.744 64.827,251.935 64.554,251.179 63.083 L 250.750 62.250 250.750 55.333 C 250.750 47.464,250.743 47.506,252.196 46.544 C 253.399 45.748,258.854 45.579,260.256 46.294 M316.374 46.241 C 317.179 46.580,318.059 47.439,318.445 48.265 C 318.972 49.391,318.906 61.474,318.366 62.512 C 317.335 64.496,316.529 64.827,312.729 64.831 C 307.327 64.836,307.250 64.707,307.250 55.667 C 307.250 47.741,307.396 47.018,309.149 46.294 C 310.396 45.779,315.193 45.744,316.374 46.241 " stroke="none" fill="#f9f9f9" fill-rule="evenodd"></path><path id="path1" d="M0.000 53.583 L 0.000 107.167 200.000 107.167 L 400.000 107.167 400.000 53.583 L 400.000 0.000 200.000 0.000 L 0.000 0.000 0.000 53.583 M18.459 53.792 L 18.417 106.083 9.541 106.126 L 0.665 106.170 0.707 91.960 L 0.750 77.750 3.792 77.705 L 6.833 77.659 6.833 60.496 L 6.833 43.333 3.750 43.333 L 0.667 43.333 0.667 22.417 L 0.667 1.500 9.584 1.500 L 18.501 1.500 18.459 53.792 M399.125 41.414 L 399.167 81.244 398.635 81.997 C 398.342 82.411,397.720 83.200,397.253 83.750 C 396.447 84.698,396.035 85.214,394.947 86.636 C 394.688 86.974,394.257 87.492,393.988 87.787 C 393.720 88.083,393.500 88.374,393.500 88.435 C 393.500 88.496,393.219 88.871,392.875 89.267 C 391.819 90.486,391.261 91.175,391.000 91.583 C 390.739 91.992,390.181 92.681,389.125 93.900 C 388.781 94.296,388.500 94.672,388.500 94.735 C 388.500 94.797,388.331 95.022,388.125 95.235 C 387.919 95.447,387.412 96.049,387.000 96.571 C 386.587 97.094,386.002 97.811,385.700 98.165 C 385.397 98.519,384.985 99.034,384.783 99.310 C 384.582 99.585,384.079 100.235,383.667 100.754 C 382.713 101.952,382.093 102.743,381.228 103.860 C 380.849 104.350,380.242 105.069,379.879 105.458 L 379.218 106.167 201.362 106.167 L 23.506 106.167 23.430 105.792 C 23.389 105.585,23.312 88.954,23.260 68.833 C 23.208 48.712,23.116 25.331,23.056 16.875 L 22.945 1.500 211.014 1.542 L 399.083 1.583 399.125 41.414 M27.243 23.542 C 27.315 33.373,27.422 54.954,27.479 71.500 C 27.536 88.046,27.644 101.677,27.718 101.792 C 27.826 101.958,62.971 102.000,202.527 102.000 L 377.200 102.000 377.725 101.436 C 378.014 101.126,378.550 100.481,378.917 100.004 C 379.283 99.526,379.846 98.815,380.167 98.423 C 380.488 98.031,381.050 97.320,381.417 96.842 C 381.783 96.365,382.284 95.736,382.529 95.445 C 383.631 94.139,384.467 93.118,385.083 92.326 C 385.450 91.855,386.012 91.149,386.333 90.757 C 386.654 90.365,387.217 89.649,387.583 89.167 C 387.950 88.684,388.512 87.970,388.833 87.579 C 389.154 87.188,389.754 86.440,390.167 85.915 C 390.579 85.391,391.123 84.770,391.375 84.537 C 391.627 84.303,391.833 84.046,391.833 83.967 C 391.833 83.853,393.792 81.360,394.164 81.000 C 394.211 80.954,394.419 80.676,394.625 80.382 L 395.000 79.847 395.000 42.757 L 395.000 5.667 211.056 5.667 L 27.112 5.667 27.243 23.542 M238.417 30.762 C 238.876 31.109,239.036 68.415,238.582 69.109 C 238.284 69.564,233.960 69.727,233.533 69.300 C 233.163 68.929,233.253 31.015,233.625 30.732 C 234.065 30.398,237.967 30.423,238.417 30.762 M323.917 30.762 C 324.351 31.091,324.453 68.704,324.021 69.224 C 323.828 69.457,323.422 69.500,321.402 69.500 C 318.667 69.500,318.667 69.500,318.667 68.039 C 318.667 66.937,318.587 66.913,317.789 67.779 C 316.423 69.260,315.570 69.495,311.526 69.498 C 305.716 69.502,303.324 68.078,302.152 63.917 C 301.701 62.318,301.817 47.700,302.291 46.348 C 303.185 43.802,304.528 42.514,307.333 41.514 C 308.150 41.223,312.978 41.082,314.417 41.308 C 315.928 41.544,317.256 42.228,317.936 43.120 C 318.675 44.089,318.667 44.159,318.667 37.236 C 318.667 29.825,318.388 30.498,321.458 30.505 C 323.090 30.509,323.661 30.569,323.917 30.762 M91.064 34.022 C 91.602 34.266,91.645 34.384,93.015 39.292 C 93.099 39.590,93.242 40.096,93.333 40.417 C 93.425 40.737,93.575 41.262,93.667 41.583 C 93.758 41.904,93.902 42.410,93.987 42.708 C 94.072 43.006,94.489 44.450,94.915 45.917 C 95.341 47.383,95.760 48.827,95.845 49.125 C 96.233 50.481,96.343 50.869,96.485 51.375 C 96.980 53.143,97.370 54.529,97.600 55.333 C 97.744 55.837,97.931 56.494,98.014 56.792 C 98.157 57.300,98.279 57.727,98.655 59.042 C 98.740 59.340,99.159 60.783,99.585 62.250 C 100.011 63.717,100.433 65.179,100.522 65.500 C 100.612 65.821,100.756 66.327,100.843 66.625 C 100.929 66.923,101.066 67.410,101.147 67.708 C 101.229 68.006,101.347 68.375,101.410 68.529 C 101.833 69.549,96.378 70.135,95.866 69.125 C 95.706 68.809,95.017 66.614,94.493 64.750 C 94.415 64.475,94.277 63.987,94.185 63.667 C 94.094 63.346,93.949 62.811,93.865 62.478 C 93.780 62.145,93.659 61.789,93.595 61.686 C 93.514 61.555,91.732 61.500,87.517 61.500 L 81.553 61.500 81.341 62.208 C 81.224 62.598,81.064 63.104,80.985 63.333 C 80.846 63.739,79.935 66.915,79.670 67.917 C 79.251 69.506,79.262 69.500,76.356 69.500 C 73.283 69.500,73.402 69.638,74.157 66.958 C 74.254 66.615,74.413 66.052,74.509 65.708 C 74.606 65.365,74.752 64.858,74.833 64.583 C 74.915 64.308,75.055 63.821,75.144 63.500 C 75.276 63.028,76.126 60.092,77.002 57.083 C 77.172 56.501,77.364 55.808,77.744 54.417 C 77.893 53.867,78.202 52.779,78.430 52.000 C 78.657 51.221,78.925 50.283,79.024 49.917 C 79.124 49.550,79.263 49.063,79.333 48.833 C 79.404 48.604,79.554 48.079,79.667 47.667 C 79.780 47.254,79.936 46.729,80.015 46.500 C 80.094 46.271,80.466 44.996,80.842 43.667 C 81.219 42.337,81.595 41.006,81.680 40.708 C 81.764 40.410,81.913 39.885,82.009 39.542 C 82.285 38.564,82.659 37.256,83.139 35.595 C 83.646 33.835,83.632 33.841,87.450 33.837 C 89.482 33.835,90.802 33.902,91.064 34.022 M109.796 34.093 C 110.000 34.235,110.167 34.497,110.167 34.674 C 110.167 34.851,110.239 35.315,110.327 35.706 C 110.416 36.097,110.570 36.979,110.671 37.667 C 110.870 39.027,111.045 40.155,111.317 41.833 C 111.413 42.429,111.610 43.704,111.753 44.667 C 112.107 47.036,112.318 48.407,112.496 49.500 C 112.578 50.004,112.730 50.979,112.833 51.667 C 112.936 52.354,113.086 53.329,113.167 53.833 C 113.247 54.337,113.399 55.313,113.505 56.000 C 113.611 56.688,113.761 57.625,113.838 58.083 C 113.915 58.542,114.101 59.779,114.252 60.833 C 114.671 63.772,114.809 64.105,115.060 62.796 C 115.163 62.257,115.284 61.710,115.660 60.083 C 115.766 59.625,115.923 58.931,116.010 58.542 C 116.096 58.152,116.237 57.515,116.324 57.125 C 116.410 56.735,116.558 56.079,116.654 55.667 C 116.749 55.254,116.936 54.429,117.069 53.833 C 117.203 53.237,117.473 52.038,117.670 51.167 C 118.065 49.420,118.264 48.506,118.416 47.750 C 118.471 47.475,118.583 46.987,118.664 46.667 C 118.801 46.129,118.944 45.509,119.340 43.750 C 119.422 43.383,119.727 42.033,120.017 40.750 C 120.307 39.467,120.602 38.154,120.672 37.833 C 120.743 37.512,120.884 36.875,120.985 36.417 C 121.087 35.958,121.216 35.344,121.272 35.051 C 121.491 33.907,121.700 33.833,124.738 33.833 C 128.344 33.833,128.036 33.538,129.004 37.917 C 129.207 38.833,129.432 39.846,129.503 40.167 C 129.575 40.487,129.723 41.162,129.833 41.667 C 129.943 42.171,130.105 42.883,130.193 43.250 C 130.280 43.617,130.418 44.217,130.499 44.583 C 130.581 44.950,130.725 45.587,130.820 46.000 C 130.915 46.413,131.102 47.237,131.236 47.833 C 131.370 48.429,131.640 49.629,131.837 50.500 C 132.034 51.371,132.259 52.383,132.338 52.750 C 132.416 53.117,132.567 53.792,132.673 54.250 C 132.779 54.708,132.924 55.346,132.994 55.667 C 133.147 56.358,134.103 60.594,134.349 61.667 C 134.444 62.079,134.608 62.712,134.714 63.073 L 134.907 63.729 135.036 63.156 C 135.106 62.841,135.242 62.058,135.338 61.417 C 135.433 60.775,135.590 59.762,135.686 59.167 C 135.783 58.571,135.924 57.671,136.000 57.167 C 136.076 56.663,136.213 55.762,136.306 55.167 C 136.398 54.571,136.552 53.558,136.649 52.917 C 136.746 52.275,136.943 51.000,137.089 50.083 C 137.234 49.167,137.423 47.948,137.510 47.375 C 137.596 46.802,137.748 45.827,137.847 45.208 C 137.946 44.590,138.060 43.821,138.101 43.500 C 138.141 43.179,138.243 42.542,138.328 42.083 C 138.412 41.625,138.561 40.725,138.657 40.083 C 139.114 37.050,139.345 35.538,139.428 35.032 C 139.611 33.919,139.853 33.833,142.808 33.833 C 146.404 33.833,146.275 33.661,145.501 37.417 C 145.426 37.783,145.275 38.533,145.167 39.083 C 145.058 39.633,144.908 40.383,144.833 40.750 C 144.581 41.978,144.364 43.076,144.191 44.000 C 144.005 44.993,143.248 48.902,142.981 50.250 C 142.745 51.444,142.511 52.636,142.345 53.500 C 142.212 54.191,142.008 55.219,141.669 56.917 C 141.596 57.283,141.406 58.258,141.248 59.083 C 140.840 61.201,140.415 63.367,140.167 64.583 C 139.900 65.890,139.634 67.260,139.513 67.944 C 139.446 68.326,139.263 68.832,139.108 69.069 L 138.826 69.500 135.258 69.500 L 131.689 69.500 131.369 69.042 C 131.193 68.790,131.001 68.321,130.942 68.000 C 130.884 67.679,130.768 67.117,130.684 66.750 C 130.601 66.383,130.459 65.746,130.368 65.333 C 130.277 64.921,129.923 63.346,129.582 61.833 C 129.240 60.321,128.894 58.765,128.813 58.375 C 128.627 57.477,128.396 56.437,128.193 55.583 C 128.105 55.217,127.943 54.504,127.833 54.000 C 127.723 53.496,127.573 52.821,127.500 52.500 C 127.246 51.382,126.472 47.911,126.320 47.208 C 126.070 46.053,125.862 45.126,125.693 44.417 C 125.605 44.050,125.451 43.375,125.350 42.917 C 124.918 40.954,124.905 40.916,124.768 41.138 C 124.693 41.259,124.445 42.233,124.216 43.304 C 123.986 44.374,123.739 45.512,123.666 45.833 C 123.593 46.154,123.443 46.829,123.333 47.333 C 123.129 48.271,123.012 48.785,122.673 50.250 C 122.567 50.708,122.419 51.383,122.343 51.750 C 122.268 52.117,122.001 53.317,121.750 54.417 C 121.247 56.619,121.129 57.145,120.833 58.500 C 120.723 59.004,120.573 59.679,120.500 60.000 C 120.427 60.321,120.277 60.996,120.167 61.500 C 119.879 62.817,119.761 63.344,119.252 65.583 C 119.002 66.683,118.740 67.867,118.670 68.213 C 118.412 69.494,118.391 69.500,114.417 69.500 C 110.154 69.500,110.517 69.736,109.923 66.583 C 109.682 65.300,109.419 63.950,109.339 63.583 C 109.259 63.217,109.107 62.467,109.000 61.917 C 108.893 61.367,108.743 60.617,108.667 60.250 C 108.590 59.883,108.446 59.171,108.348 58.667 C 108.249 58.163,108.022 57.038,107.844 56.167 C 107.665 55.296,107.433 54.096,107.328 53.500 C 107.222 52.904,107.068 52.079,106.985 51.667 C 106.902 51.254,106.755 50.504,106.660 50.000 C 106.455 48.913,106.228 47.775,106.080 47.083 C 105.906 46.275,105.383 43.586,104.928 41.167 C 104.341 38.046,104.167 37.175,103.991 36.489 C 103.704 35.372,103.747 34.309,104.087 34.060 C 104.563 33.712,109.292 33.739,109.796 34.093 M167.280 34.066 C 171.226 34.913,173.382 37.624,173.614 42.033 C 173.763 44.864,173.791 44.833,170.985 44.833 C 168.405 44.833,168.167 44.746,168.167 43.799 C 168.167 39.755,166.887 38.686,162.032 38.673 C 158.173 38.662,156.855 39.229,156.200 41.178 C 155.945 41.938,155.935 45.729,156.187 46.219 C 156.722 47.261,157.773 47.928,159.509 48.328 C 160.008 48.443,160.589 48.604,160.800 48.685 C 161.010 48.767,161.403 48.833,161.672 48.833 C 161.941 48.833,162.482 48.904,162.873 48.991 C 163.264 49.077,163.996 49.230,164.500 49.331 C 169.984 50.426,172.316 52.034,173.625 55.620 C 174.048 56.782,174.045 62.869,173.620 64.050 C 172.645 66.756,170.842 68.461,168.141 69.231 C 166.831 69.605,157.725 69.622,156.341 69.254 C 152.393 68.203,150.333 65.264,150.333 60.679 C 150.333 58.432,150.317 58.449,152.517 58.361 C 155.775 58.230,155.841 58.274,155.996 60.667 C 156.221 64.151,157.225 64.745,162.717 64.641 C 166.905 64.561,167.798 64.091,168.311 61.697 C 168.803 59.404,168.414 57.380,167.298 56.426 C 166.140 55.434,165.587 55.246,161.583 54.481 C 159.593 54.100,158.918 53.951,157.958 53.678 C 157.615 53.580,157.090 53.434,156.792 53.353 C 153.335 52.416,151.397 50.573,150.585 47.450 C 150.302 46.363,150.226 41.234,150.481 40.400 C 150.562 40.134,150.726 39.579,150.846 39.167 C 151.562 36.706,153.868 34.683,156.653 34.072 C 157.987 33.779,165.922 33.775,167.280 34.066 M197.300 34.033 C 197.673 34.406,197.449 35.449,196.503 37.750 C 196.428 37.933,196.215 38.496,196.030 39.000 C 194.730 42.543,194.455 43.288,194.335 43.583 C 194.260 43.767,194.035 44.367,193.833 44.917 C 193.632 45.467,193.405 46.067,193.329 46.250 C 193.253 46.433,192.769 47.746,192.253 49.167 C 191.737 50.587,191.252 51.900,191.174 52.083 C 191.096 52.267,190.882 52.829,190.698 53.333 C 189.810 55.772,189.128 57.615,189.004 57.917 C 188.928 58.100,188.716 58.663,188.532 59.167 C 187.654 61.577,186.962 63.448,186.838 63.750 C 186.762 63.933,186.610 64.346,186.500 64.667 C 186.390 64.987,186.238 65.400,186.162 65.583 C 186.087 65.767,185.753 66.637,185.421 67.518 C 184.661 69.534,184.678 69.524,181.917 69.464 L 179.750 69.417 179.696 68.942 C 179.666 68.681,179.791 68.081,179.974 67.609 C 180.157 67.136,180.582 66.000,180.918 65.083 C 181.575 63.294,181.694 62.978,181.961 62.333 C 182.056 62.104,182.223 61.654,182.333 61.333 C 182.444 61.012,182.595 60.600,182.670 60.417 C 182.745 60.233,183.006 59.521,183.250 58.833 C 183.494 58.146,183.755 57.433,183.830 57.250 C 183.905 57.067,184.056 56.654,184.167 56.333 C 184.277 56.012,184.427 55.600,184.501 55.417 C 184.677 54.975,185.201 53.544,185.749 52.000 C 185.994 51.313,186.272 50.563,186.369 50.333 C 186.732 49.473,186.823 49.231,187.059 48.500 C 187.193 48.087,187.418 47.450,187.559 47.083 C 187.701 46.717,188.087 45.667,188.417 44.750 C 188.748 43.833,189.082 42.933,189.160 42.750 C 189.237 42.567,189.451 42.004,189.635 41.500 C 190.538 39.021,191.207 37.214,191.346 36.875 C 191.607 36.239,191.791 35.772,192.002 35.213 C 192.460 33.992,192.814 33.833,195.073 33.833 C 196.427 33.833,197.166 33.900,197.300 34.033 M220.500 34.071 C 225.005 35.182,226.832 37.858,226.826 43.333 C 226.822 46.322,226.972 46.167,224.078 46.167 C 221.056 46.167,221.167 46.265,221.167 43.571 C 221.167 39.441,220.196 38.681,214.917 38.681 C 211.903 38.681,210.755 38.880,209.918 39.548 C 208.703 40.517,208.750 40.030,208.750 51.750 L 208.750 62.250 209.125 62.951 C 209.884 64.372,210.534 64.574,214.545 64.640 C 220.383 64.735,221.167 64.162,221.167 59.804 C 221.167 57.155,221.155 57.167,223.969 57.167 C 227.028 57.167,226.883 56.998,226.799 60.479 C 226.674 65.636,224.937 68.209,220.867 69.270 C 219.498 69.627,210.140 69.597,208.859 69.231 C 205.634 68.312,203.742 66.121,203.178 62.653 C 202.894 60.905,202.939 42.061,203.231 40.583 C 203.964 36.870,205.824 34.888,209.333 34.079 C 210.662 33.772,219.265 33.767,220.500 34.071 M87.184 40.667 C 86.987 41.354,86.744 42.217,86.644 42.583 C 86.544 42.950,86.404 43.438,86.333 43.667 C 86.150 44.263,85.912 45.122,85.248 47.583 C 84.360 50.879,84.310 51.055,84.149 51.466 C 84.067 51.677,84.000 52.029,84.000 52.248 C 84.000 52.467,83.925 52.693,83.833 52.750 C 83.742 52.807,83.667 53.033,83.667 53.252 C 83.667 53.471,83.601 53.823,83.521 54.034 C 83.265 54.710,83.023 55.566,82.908 56.208 L 82.796 56.833 87.584 56.833 L 92.371 56.833 92.283 56.375 C 92.234 56.123,92.117 55.654,92.023 55.333 C 91.652 54.067,91.479 53.452,90.785 50.917 C 90.560 50.092,90.209 48.817,90.006 48.083 C 89.652 46.805,89.557 46.466,89.185 45.167 C 88.920 44.239,88.725 43.527,88.265 41.807 C 87.567 39.200,87.595 39.230,87.184 40.667 M261.833 41.506 C 264.884 42.616,266.477 44.248,267.357 47.167 C 267.808 48.661,267.674 62.645,267.196 64.074 C 265.763 68.351,263.480 69.500,256.411 69.500 C 249.307 69.500,247.031 68.267,245.643 63.667 C 245.186 62.153,245.326 47.833,245.810 46.500 C 246.891 43.523,248.921 41.849,252.083 41.326 C 253.389 41.111,261.140 41.253,261.833 41.506 M278.630 41.426 L 279.000 41.686 279.003 51.551 C 279.005 61.846,279.021 62.096,279.735 63.276 C 280.352 64.295,281.136 64.566,283.678 64.638 C 287.237 64.740,288.576 64.283,289.499 62.652 L 289.916 61.917 289.999 51.800 C 290.066 43.809,290.129 41.637,290.300 41.466 C 290.607 41.159,295.059 41.159,295.367 41.467 C 295.683 41.783,295.767 68.385,295.453 69.000 C 295.244 69.411,295.207 69.417,292.912 69.464 C 290.147 69.521,290.000 69.442,290.000 67.898 C 290.000 66.888,289.867 66.783,289.459 67.473 C 288.579 68.964,286.877 69.500,283.028 69.500 C 277.485 69.500,275.331 68.263,273.884 64.250 C 273.608 63.485,273.579 62.529,273.535 52.583 L 273.487 41.750 273.845 41.458 C 274.343 41.053,278.061 41.028,278.630 41.426 M252.750 46.490 C 251.055 47.251,251.016 47.452,251.008 55.333 C 250.999 64.778,250.884 64.583,256.500 64.583 C 260.413 64.583,261.157 64.270,261.808 62.350 C 262.135 61.385,262.071 49.048,261.735 48.229 C 261.413 47.446,260.543 46.500,260.144 46.500 C 259.984 46.500,259.807 46.425,259.750 46.333 C 259.551 46.011,253.515 46.146,252.750 46.490 M309.223 46.520 C 307.520 47.346,307.333 48.224,307.333 55.417 C 307.333 64.393,307.448 64.583,312.833 64.583 C 316.365 64.583,318.167 63.867,318.167 62.461 C 318.167 62.336,318.260 62.140,318.375 62.025 C 318.534 61.866,318.583 60.322,318.583 55.450 L 318.583 49.083 318.184 48.280 C 317.317 46.531,316.369 46.170,312.667 46.177 C 310.255 46.183,309.831 46.225,309.223 46.520 " stroke="none" fill="#0c0c0c" fill-rule="evenodd"></path><path id="path2" d="M0.667 22.417 L 0.667 43.333 3.750 43.333 L 6.833 43.333 6.833 60.496 L 6.833 77.659 3.792 77.705 L 0.750 77.750 0.707 91.960 L 0.665 106.170 9.541 106.126 L 18.417 106.083 18.459 53.792 L 18.501 1.500 9.584 1.500 L 0.667 1.500 0.667 22.417 M23.056 16.875 C 23.116 25.331,23.208 48.712,23.260 68.833 C 23.312 88.954,23.389 105.585,23.430 105.792 L 23.506 106.167 201.362 106.167 L 379.218 106.167 379.879 105.458 C 380.242 105.069,380.849 104.350,381.228 103.860 C 382.093 102.743,382.713 101.952,383.667 100.754 C 384.079 100.235,384.582 99.585,384.783 99.310 C 384.985 99.034,385.397 98.519,385.700 98.165 C 386.002 97.811,386.587 97.094,387.000 96.571 C 387.412 96.049,387.919 95.447,388.125 95.235 C 388.331 95.022,388.500 94.797,388.500 94.735 C 388.500 94.672,388.781 94.296,389.125 93.900 C 390.181 92.681,390.739 91.992,391.000 91.583 C 391.261 91.175,391.819 90.486,392.875 89.267 C 393.219 88.871,393.500 88.496,393.500 88.435 C 393.500 88.374,393.720 88.083,393.988 87.787 C 394.257 87.492,394.688 86.974,394.947 86.636 C 396.035 85.214,396.447 84.698,397.253 83.750 C 397.720 83.200,398.342 82.411,398.635 81.997 L 399.167 81.244 399.125 41.414 L 399.083 1.583 211.014 1.542 L 22.945 1.500 23.056 16.875 M18.333 53.835 L 18.333 106.003 9.625 105.960 L 0.917 105.917 0.874 91.958 L 0.831 78.000 3.735 78.000 C 5.333 78.000,6.758 77.954,6.903 77.899 C 7.307 77.744,7.307 43.423,6.903 43.268 C 6.758 43.212,5.333 43.167,3.736 43.167 L 0.833 43.167 0.833 22.417 L 0.833 1.667 9.583 1.667 L 18.333 1.667 18.333 53.835 M398.833 41.565 L 398.833 81.464 397.875 82.665 C 397.348 83.325,396.467 84.413,395.917 85.081 C 394.849 86.379,394.270 87.107,391.667 90.426 C 391.254 90.951,390.635 91.698,390.292 92.084 C 389.948 92.471,389.667 92.840,389.667 92.904 C 389.667 93.012,388.850 94.019,387.833 95.164 C 387.604 95.422,387.117 96.026,386.750 96.505 C 386.383 96.985,385.821 97.698,385.500 98.090 C 385.179 98.482,384.617 99.187,384.250 99.657 C 383.883 100.126,383.321 100.838,383.000 101.238 C 382.679 101.638,382.079 102.393,381.667 102.917 C 381.254 103.440,380.654 104.188,380.333 104.578 C 380.012 104.968,379.667 105.428,379.565 105.602 C 379.362 105.949,24.132 106.198,23.785 105.852 C 23.700 105.766,23.573 89.233,23.487 66.977 C 23.404 45.677,23.287 22.269,23.226 14.958 L 23.115 1.667 210.974 1.667 L 398.833 1.667 398.833 41.565 M27.056 5.761 C 27.001 5.904,27.042 23.023,27.147 43.802 C 27.252 64.582,27.337 86.096,27.336 91.611 C 27.334 97.127,27.379 101.758,27.434 101.903 C 27.527 102.143,43.109 102.167,202.503 102.167 L 377.470 102.167 377.860 101.683 C 378.075 101.417,378.587 100.772,379.000 100.249 C 379.412 99.726,380.012 98.971,380.333 98.571 C 380.654 98.171,381.217 97.459,381.583 96.988 C 381.950 96.516,382.475 95.884,382.750 95.583 C 383.025 95.282,383.550 94.641,383.917 94.158 C 384.283 93.675,384.827 93.002,385.125 92.662 C 385.423 92.321,385.667 91.973,385.667 91.889 C 385.667 91.804,385.967 91.441,386.333 91.083 C 386.700 90.725,387.000 90.350,387.000 90.249 C 387.000 90.148,387.262 89.811,387.583 89.500 C 387.904 89.189,388.167 88.871,388.167 88.793 C 388.167 88.716,388.439 88.358,388.771 87.999 C 389.104 87.639,389.535 87.126,389.730 86.858 C 390.305 86.065,391.022 85.155,391.999 83.976 C 393.219 82.503,393.908 81.646,394.597 80.744 L 395.167 79.996 395.125 42.790 L 395.083 5.583 211.120 5.542 C 44.373 5.504,27.147 5.524,27.056 5.761 M395.000 42.757 L 395.000 79.847 394.625 80.382 C 394.419 80.676,394.211 80.954,394.164 81.000 C 393.792 81.360,391.833 83.853,391.833 83.967 C 391.833 84.046,391.627 84.303,391.375 84.537 C 391.123 84.770,390.579 85.391,390.167 85.915 C 389.754 86.440,389.154 87.188,388.833 87.579 C 388.512 87.970,387.950 88.684,387.583 89.167 C 387.217 89.649,386.654 90.365,386.333 90.757 C 386.012 91.149,385.450 91.855,385.083 92.326 C 384.467 93.118,383.631 94.139,382.529 95.445 C 382.284 95.736,381.783 96.365,381.417 96.842 C 381.050 97.320,380.488 98.031,380.167 98.423 C 379.846 98.815,379.283 99.526,378.917 100.004 C 378.550 100.481,378.014 101.126,377.725 101.436 L 377.200 102.000 202.527 102.000 C 62.971 102.000,27.826 101.958,27.718 101.792 C 27.644 101.677,27.536 88.046,27.479 71.500 C 27.422 54.954,27.315 33.373,27.243 23.542 L 27.112 5.667 211.056 5.667 L 395.000 5.667 395.000 42.757 M233.625 30.732 C 233.253 31.015,233.163 68.929,233.533 69.300 C 233.960 69.727,238.284 69.564,238.582 69.109 C 239.036 68.415,238.876 31.109,238.417 30.762 C 237.967 30.423,234.065 30.398,233.625 30.732 M319.000 30.833 C 318.679 31.154,318.667 31.389,318.667 37.236 C 318.667 44.159,318.675 44.089,317.936 43.120 C 317.256 42.228,315.928 41.544,314.417 41.308 C 312.978 41.082,308.150 41.223,307.333 41.514 C 304.528 42.514,303.185 43.802,302.291 46.348 C 301.817 47.700,301.701 62.318,302.152 63.917 C 303.324 68.078,305.716 69.502,311.526 69.498 C 315.570 69.495,316.423 69.260,317.789 67.779 C 318.587 66.913,318.667 66.937,318.667 68.039 C 318.667 69.500,318.667 69.500,321.402 69.500 C 323.422 69.500,323.828 69.457,324.021 69.224 C 324.453 68.704,324.351 31.091,323.917 30.762 C 323.353 30.337,319.440 30.393,319.000 30.833 M238.494 31.156 C 238.825 31.774,238.724 68.660,238.391 69.029 C 238.052 69.403,234.059 69.492,233.700 69.133 C 233.402 68.835,233.410 31.064,233.708 30.944 C 234.393 30.667,238.326 30.841,238.494 31.156 M323.973 31.258 C 324.266 31.900,324.244 68.253,323.951 68.833 C 323.744 69.243,323.702 69.251,321.497 69.297 C 318.836 69.352,318.833 69.351,318.833 67.635 C 318.833 66.332,318.722 66.258,318.070 67.125 C 316.694 68.957,315.574 69.334,311.519 69.332 C 305.475 69.330,302.840 67.474,302.172 62.750 C 301.908 60.885,301.965 49.180,302.245 47.607 C 303.043 43.131,305.520 41.500,311.522 41.500 C 315.679 41.500,316.968 41.914,317.998 43.580 C 318.804 44.884,318.833 44.683,318.833 37.822 C 318.833 30.086,318.550 30.833,321.479 30.833 L 323.780 30.833 323.973 31.258 M83.861 34.140 C 83.612 34.332,83.353 34.853,83.139 35.595 C 82.659 37.256,82.285 38.564,82.009 39.542 C 81.913 39.885,81.764 40.410,81.680 40.708 C 81.595 41.006,81.219 42.337,80.842 43.667 C 80.466 44.996,80.094 46.271,80.015 46.500 C 79.936 46.729,79.780 47.254,79.667 47.667 C 79.554 48.079,79.404 48.604,79.333 48.833 C 79.263 49.063,79.124 49.550,79.024 49.917 C 78.925 50.283,78.657 51.221,78.430 52.000 C 78.202 52.779,77.893 53.867,77.744 54.417 C 77.364 55.808,77.172 56.501,77.002 57.083 C 76.126 60.092,75.276 63.028,75.144 63.500 C 75.055 63.821,74.915 64.308,74.833 64.583 C 74.752 64.858,74.606 65.365,74.509 65.708 C 74.413 66.052,74.254 66.615,74.157 66.958 C 73.402 69.638,73.283 69.500,76.356 69.500 C 79.262 69.500,79.251 69.506,79.670 67.917 C 79.935 66.915,80.846 63.739,80.985 63.333 C 81.064 63.104,81.224 62.598,81.341 62.208 L 81.553 61.500 87.517 61.500 C 91.732 61.500,93.514 61.555,93.595 61.686 C 93.659 61.789,93.780 62.145,93.865 62.478 C 93.949 62.811,94.094 63.346,94.185 63.667 C 94.277 63.987,94.415 64.475,94.493 64.750 C 95.017 66.614,95.706 68.809,95.866 69.125 C 96.378 70.135,101.833 69.549,101.410 68.529 C 101.347 68.375,101.229 68.006,101.147 67.708 C 101.066 67.410,100.929 66.923,100.843 66.625 C 100.756 66.327,100.612 65.821,100.522 65.500 C 100.433 65.179,100.011 63.717,99.585 62.250 C 99.159 60.783,98.740 59.340,98.655 59.042 C 98.279 57.727,98.157 57.300,98.014 56.792 C 97.931 56.494,97.744 55.837,97.600 55.333 C 97.370 54.529,96.980 53.143,96.485 51.375 C 96.343 50.869,96.233 50.481,95.845 49.125 C 95.760 48.827,95.341 47.383,94.915 45.917 C 94.489 44.450,94.072 43.006,93.987 42.708 C 93.902 42.410,93.758 41.904,93.667 41.583 C 93.575 41.262,93.425 40.737,93.333 40.417 C 93.242 40.096,93.099 39.590,93.015 39.292 C 91.645 34.384,91.602 34.266,91.064 34.022 C 90.314 33.680,84.332 33.778,83.861 34.140 M104.087 34.060 C 103.747 34.309,103.704 35.372,103.991 36.489 C 104.167 37.175,104.341 38.046,104.928 41.167 C 105.383 43.586,105.906 46.275,106.080 47.083 C 106.228 47.775,106.455 48.913,106.660 50.000 C 106.755 50.504,106.902 51.254,106.985 51.667 C 107.068 52.079,107.222 52.904,107.328 53.500 C 107.433 54.096,107.665 55.296,107.844 56.167 C 108.022 57.038,108.249 58.163,108.348 58.667 C 108.446 59.171,108.590 59.883,108.667 60.250 C 108.743 60.617,108.893 61.367,109.000 61.917 C 109.107 62.467,109.259 63.217,109.339 63.583 C 109.419 63.950,109.682 65.300,109.923 66.583 C 110.517 69.736,110.154 69.500,114.417 69.500 C 118.391 69.500,118.412 69.494,118.670 68.213 C 118.740 67.867,119.002 66.683,119.252 65.583 C 119.761 63.344,119.879 62.817,120.167 61.500 C 120.277 60.996,120.427 60.321,120.500 60.000 C 120.573 59.679,120.723 59.004,120.833 58.500 C 121.129 57.145,121.247 56.619,121.750 54.417 C 122.001 53.317,122.268 52.117,122.344 51.750 C 122.420 51.383,122.553 50.783,122.641 50.417 C 122.728 50.050,122.890 49.337,123.000 48.833 C 123.110 48.329,123.260 47.654,123.333 47.333 C 123.407 47.012,123.548 46.375,123.647 45.917 C 123.747 45.458,123.980 44.412,124.164 43.592 C 124.349 42.771,124.500 41.990,124.500 41.856 C 124.500 41.411,124.336 41.765,124.157 42.597 C 123.989 43.378,123.864 43.948,123.509 45.542 C 123.422 45.931,123.280 46.550,123.193 46.917 C 123.105 47.283,122.952 47.958,122.853 48.417 C 122.754 48.875,122.556 49.775,122.414 50.417 C 122.271 51.058,122.075 51.958,121.977 52.417 C 121.880 52.875,121.728 53.550,121.641 53.917 C 121.553 54.283,121.411 54.902,121.324 55.292 C 121.238 55.681,121.096 56.319,121.009 56.708 C 120.922 57.098,120.782 57.717,120.697 58.083 C 120.611 58.450,120.385 59.462,120.195 60.333 C 120.004 61.204,119.730 62.442,119.587 63.083 C 119.444 63.725,119.246 64.625,119.147 65.083 C 119.048 65.542,118.902 66.179,118.824 66.500 C 118.746 66.821,118.636 67.308,118.581 67.583 C 118.206 69.439,118.458 69.333,114.431 69.333 C 110.703 69.333,110.647 69.318,110.447 68.250 C 110.396 67.975,110.309 67.525,110.254 67.250 C 110.051 66.222,109.818 65.022,109.415 62.917 C 108.913 60.298,108.685 59.133,108.500 58.250 C 108.423 57.883,108.273 57.133,108.167 56.583 C 108.060 56.033,107.908 55.283,107.828 54.917 C 107.748 54.550,107.523 53.387,107.327 52.333 C 107.131 51.279,106.819 49.667,106.632 48.750 C 106.445 47.833,106.224 46.708,106.141 46.250 C 106.057 45.792,105.920 45.079,105.835 44.667 C 105.749 44.254,105.602 43.504,105.507 43.000 C 105.411 42.496,105.265 41.746,105.182 41.333 C 105.099 40.921,104.954 40.171,104.859 39.667 C 104.765 39.162,104.533 38.000,104.345 37.083 C 103.698 33.929,103.640 34.000,106.867 34.000 C 109.695 34.000,109.880 34.078,110.076 35.357 C 110.138 35.757,110.297 36.796,110.430 37.667 C 110.563 38.537,110.741 39.662,110.826 40.167 C 110.910 40.671,111.064 41.646,111.167 42.333 C 111.349 43.545,111.454 44.227,111.812 46.500 C 112.205 48.990,112.335 49.838,112.583 51.500 C 112.899 53.618,113.130 55.110,113.329 56.333 C 113.412 56.837,113.564 57.813,113.669 58.500 C 114.442 63.598,114.498 63.858,114.814 63.797 C 114.965 63.768,115.129 63.497,115.197 63.165 C 115.262 62.845,115.386 62.283,115.474 61.917 C 115.561 61.550,115.723 60.837,115.833 60.333 C 116.121 59.017,116.239 58.490,116.748 56.250 C 117.376 53.489,117.439 53.209,117.667 52.167 C 117.777 51.663,117.927 50.987,118.000 50.667 C 118.074 50.346,118.207 49.746,118.295 49.333 C 118.452 48.605,119.354 44.595,119.664 43.250 C 119.748 42.883,119.904 42.171,120.011 41.667 C 120.117 41.162,120.271 40.578,120.352 40.367 C 120.433 40.157,120.500 39.804,120.500 39.583 C 120.500 39.363,120.568 39.010,120.651 38.800 C 120.734 38.589,120.893 37.967,121.006 37.417 C 121.748 33.776,121.498 34.000,124.839 34.000 C 128.066 34.000,127.921 33.902,128.417 36.417 C 128.471 36.692,128.583 37.179,128.664 37.500 C 128.836 38.176,128.965 38.737,129.684 41.917 C 130.202 44.211,130.266 44.497,130.667 46.333 C 130.777 46.837,130.938 47.550,131.026 47.917 C 131.113 48.283,131.250 48.883,131.329 49.250 C 131.526 50.168,132.135 52.857,132.441 54.167 C 132.580 54.762,132.759 55.550,132.838 55.917 C 132.917 56.283,133.053 56.883,133.141 57.250 C 133.228 57.617,133.390 58.329,133.500 58.833 C 133.610 59.337,133.759 60.012,133.831 60.333 C 133.903 60.654,134.095 61.517,134.258 62.250 C 134.823 64.797,135.129 64.505,135.652 60.917 C 135.745 60.275,135.938 59.000,136.080 58.083 C 136.601 54.710,136.663 54.308,136.839 53.124 C 136.938 52.460,137.087 51.542,137.170 51.083 C 137.253 50.625,137.368 49.913,137.426 49.500 C 137.560 48.529,137.761 47.190,137.977 45.833 C 138.573 42.071,139.220 37.818,139.485 35.911 C 139.751 33.995,139.742 34.000,142.721 34.000 C 145.837 34.000,146.059 34.184,145.512 36.314 C 145.427 36.645,145.269 37.367,145.162 37.917 C 145.055 38.467,144.899 39.254,144.815 39.667 C 144.731 40.079,144.477 41.392,144.250 42.583 C 143.753 45.189,143.521 46.362,143.328 47.250 C 143.248 47.617,143.139 48.179,143.086 48.500 C 142.954 49.296,142.811 50.034,141.922 54.500 C 141.390 57.177,141.248 58.120,141.399 57.981 C 141.460 57.925,141.590 57.437,141.687 56.898 C 141.785 56.358,141.932 55.579,142.015 55.167 C 142.099 54.754,142.245 54.004,142.340 53.500 C 142.435 52.996,142.581 52.246,142.665 51.833 C 143.020 50.077,143.870 45.713,144.191 44.000 C 144.364 43.076,144.581 41.978,144.833 40.750 C 144.908 40.383,145.058 39.633,145.167 39.083 C 145.275 38.533,145.426 37.783,145.501 37.417 C 146.275 33.661,146.404 33.833,142.808 33.833 C 139.853 33.833,139.611 33.919,139.428 35.032 C 139.345 35.538,139.114 37.050,138.657 40.083 C 138.561 40.725,138.412 41.625,138.328 42.083 C 138.243 42.542,138.141 43.179,138.101 43.500 C 138.060 43.821,137.946 44.590,137.847 45.208 C 137.748 45.827,137.596 46.802,137.510 47.375 C 137.423 47.948,137.234 49.167,137.089 50.083 C 136.943 51.000,136.746 52.275,136.649 52.917 C 136.552 53.558,136.398 54.571,136.306 55.167 C 136.213 55.762,136.076 56.663,136.000 57.167 C 135.924 57.671,135.783 58.571,135.686 59.167 C 135.590 59.762,135.433 60.775,135.338 61.417 C 135.242 62.058,135.106 62.841,135.036 63.156 L 134.907 63.729 134.714 63.073 C 134.608 62.712,134.444 62.079,134.349 61.667 C 134.103 60.594,133.147 56.358,132.994 55.667 C 132.924 55.346,132.779 54.708,132.673 54.250 C 132.567 53.792,132.416 53.117,132.338 52.750 C 132.259 52.383,132.034 51.371,131.837 50.500 C 131.640 49.629,131.370 48.429,131.236 47.833 C 131.102 47.237,130.915 46.413,130.820 46.000 C 130.725 45.587,130.581 44.950,130.499 44.583 C 130.418 44.217,130.280 43.617,130.193 43.250 C 130.105 42.883,129.943 42.171,129.833 41.667 C 129.723 41.162,129.575 40.487,129.503 40.167 C 129.432 39.846,129.207 38.833,129.004 37.917 C 128.036 33.538,128.344 33.833,124.738 33.833 C 121.700 33.833,121.491 33.907,121.272 35.051 C 121.216 35.344,121.087 35.958,120.985 36.417 C 120.884 36.875,120.743 37.512,120.672 37.833 C 120.602 38.154,120.307 39.467,120.017 40.750 C 119.727 42.033,119.422 43.383,119.340 43.750 C 118.944 45.509,118.801 46.129,118.664 46.667 C 118.583 46.987,118.471 47.475,118.416 47.750 C 118.264 48.506,118.065 49.420,117.670 51.167 C 117.473 52.038,117.203 53.237,117.069 53.833 C 116.936 54.429,116.749 55.254,116.654 55.667 C 116.558 56.079,116.410 56.735,116.324 57.125 C 116.237 57.515,116.096 58.152,116.010 58.542 C 115.923 58.931,115.766 59.625,115.660 60.083 C 115.284 61.710,115.163 62.257,115.060 62.796 C 114.809 64.105,114.671 63.772,114.252 60.833 C 114.101 59.779,113.915 58.542,113.838 58.083 C 113.761 57.625,113.611 56.688,113.505 56.000 C 113.399 55.313,113.247 54.337,113.167 53.833 C 113.086 53.329,112.936 52.354,112.833 51.667 C 112.730 50.979,112.578 50.004,112.496 49.500 C 112.318 48.407,112.107 47.036,111.753 44.667 C 111.610 43.704,111.413 42.429,111.317 41.833 C 111.045 40.155,110.870 39.027,110.671 37.667 C 110.570 36.979,110.416 36.097,110.327 35.706 C 110.239 35.315,110.167 34.851,110.167 34.674 C 110.167 33.864,105.060 33.349,104.087 34.060 M156.653 34.072 C 153.868 34.683,151.562 36.706,150.846 39.167 C 150.726 39.579,150.562 40.134,150.481 40.400 C 150.226 41.234,150.302 46.363,150.585 47.450 C 151.397 50.573,153.335 52.416,156.792 53.353 C 157.090 53.434,157.615 53.580,157.958 53.678 C 158.918 53.951,159.593 54.100,161.583 54.481 C 165.587 55.246,166.140 55.434,167.298 56.426 C 168.414 57.380,168.803 59.404,168.311 61.697 C 167.798 64.091,166.905 64.561,162.717 64.641 C 157.225 64.745,156.221 64.151,155.996 60.667 C 155.841 58.274,155.775 58.230,152.517 58.361 C 150.317 58.449,150.333 58.432,150.333 60.679 C 150.333 65.264,152.393 68.203,156.341 69.254 C 157.725 69.622,166.831 69.605,168.141 69.231 C 170.842 68.461,172.645 66.756,173.620 64.050 C 174.045 62.869,174.048 56.782,173.625 55.620 C 172.316 52.034,169.984 50.426,164.500 49.331 C 163.996 49.230,163.264 49.077,162.873 48.991 C 162.482 48.904,161.941 48.833,161.672 48.833 C 161.403 48.833,161.010 48.767,160.800 48.685 C 160.589 48.604,160.008 48.443,159.509 48.328 C 157.773 47.928,156.722 47.261,156.187 46.219 C 156.080 46.012,155.993 44.936,155.983 43.719 C 155.965 41.292,155.710 41.483,155.683 43.945 C 155.648 47.185,156.895 48.227,161.833 49.081 C 166.994 49.974,168.551 50.447,170.500 51.716 C 172.951 53.312,173.730 55.243,173.741 59.750 C 173.753 65.033,172.385 67.488,168.667 68.852 C 166.987 69.469,157.343 69.468,155.667 68.852 C 152.254 67.596,150.512 64.771,150.503 60.479 C 150.499 58.600,150.426 58.646,153.273 58.704 L 155.583 58.750 155.679 60.167 C 155.953 64.206,156.647 64.724,161.887 64.801 C 167.654 64.886,168.559 64.225,168.575 59.917 C 168.588 56.555,167.569 55.413,163.959 54.744 C 161.283 54.247,160.743 54.140,160.083 53.974 C 159.717 53.881,159.154 53.743,158.833 53.665 C 152.331 52.100,150.500 49.926,150.500 43.772 C 150.500 38.962,151.801 36.328,154.868 34.931 C 156.561 34.159,157.180 34.086,162.000 34.086 C 166.817 34.086,167.440 34.160,169.125 34.928 C 171.945 36.213,173.500 38.992,173.500 42.747 C 173.500 44.612,173.666 44.500,170.913 44.500 L 168.528 44.500 168.360 44.042 L 168.193 43.583 168.180 44.036 C 168.160 44.715,168.576 44.833,170.985 44.833 C 173.791 44.833,173.763 44.864,173.614 42.033 C 173.382 37.624,171.226 34.913,167.280 34.066 C 165.922 33.775,157.987 33.779,156.653 34.072 M192.625 34.254 C 192.393 34.486,192.113 34.917,192.002 35.213 C 191.791 35.772,191.607 36.239,191.346 36.875 C 191.207 37.214,190.538 39.021,189.635 41.500 C 189.451 42.004,189.237 42.567,189.160 42.750 C 189.082 42.933,188.748 43.833,188.417 44.750 C 188.087 45.667,187.701 46.717,187.559 47.083 C 187.418 47.450,187.193 48.087,187.059 48.500 C 186.823 49.231,186.732 49.473,186.369 50.333 C 186.272 50.563,185.994 51.313,185.749 52.000 C 185.201 53.544,184.677 54.975,184.501 55.417 C 184.427 55.600,184.277 56.012,184.167 56.333 C 184.056 56.654,183.905 57.067,183.830 57.250 C 183.755 57.433,183.494 58.146,183.250 58.833 C 183.006 59.521,182.745 60.233,182.670 60.417 C 182.595 60.600,182.444 61.012,182.333 61.333 C 182.223 61.654,182.056 62.104,181.961 62.333 C 181.694 62.978,181.575 63.294,180.918 65.083 C 180.582 66.000,180.157 67.136,179.974 67.609 C 179.791 68.081,179.666 68.681,179.696 68.942 L 179.750 69.417 181.917 69.464 C 184.678 69.524,184.661 69.534,185.421 67.518 C 185.753 66.637,186.087 65.767,186.162 65.583 C 186.238 65.400,186.390 64.987,186.500 64.667 C 186.610 64.346,186.762 63.933,186.838 63.750 C 186.962 63.448,187.654 61.577,188.532 59.167 C 188.716 58.663,188.928 58.100,189.004 57.917 C 189.128 57.615,189.810 55.772,190.698 53.333 C 190.882 52.829,191.096 52.267,191.174 52.083 C 191.252 51.900,191.737 50.587,192.253 49.167 C 192.769 47.746,193.253 46.433,193.329 46.250 C 193.405 46.067,193.632 45.467,193.833 44.917 C 194.035 44.367,194.260 43.767,194.335 43.583 C 194.455 43.288,194.730 42.543,196.030 39.000 C 196.215 38.496,196.428 37.933,196.503 37.750 C 198.035 34.023,197.966 33.833,195.073 33.833 C 193.127 33.833,193.029 33.850,192.625 34.254 M209.333 34.079 C 205.824 34.888,203.964 36.870,203.231 40.583 C 202.939 42.061,202.894 60.905,203.178 62.653 C 203.742 66.121,205.634 68.312,208.859 69.231 C 210.140 69.597,219.498 69.627,220.867 69.270 C 224.937 68.209,226.674 65.636,226.799 60.479 C 226.883 56.998,227.028 57.167,223.969 57.167 C 221.155 57.167,221.167 57.155,221.167 59.804 C 221.167 64.162,220.383 64.735,214.545 64.640 C 210.534 64.574,209.884 64.372,209.125 62.951 L 208.750 62.250 208.750 51.750 C 208.750 38.090,208.471 38.681,214.917 38.681 C 220.196 38.681,221.167 39.441,221.167 43.571 C 221.167 46.265,221.056 46.167,224.078 46.167 C 226.972 46.167,226.822 46.322,226.826 43.333 C 226.832 37.858,225.005 35.182,220.500 34.071 C 219.265 33.767,210.662 33.772,209.333 34.079 M90.898 34.188 C 91.319 34.380,91.470 34.673,91.833 36.000 C 91.946 36.412,92.103 36.938,92.182 37.167 C 92.261 37.396,92.633 38.671,93.009 40.000 C 93.929 43.251,93.975 43.412,94.167 44.083 C 94.258 44.404,94.408 44.929,94.500 45.250 C 94.592 45.571,94.735 46.077,94.819 46.375 C 94.903 46.673,95.089 47.329,95.233 47.833 C 95.521 48.842,96.106 50.921,96.358 51.833 C 96.543 52.506,96.553 52.539,97.587 56.083 C 98.373 58.775,98.497 59.207,98.833 60.417 C 98.935 60.783,99.090 61.327,99.176 61.625 C 99.263 61.923,99.413 62.448,99.509 62.792 C 99.815 63.878,99.956 64.370,100.493 66.242 C 100.782 67.245,101.032 68.333,101.050 68.658 L 101.083 69.250 98.655 69.296 C 95.831 69.349,96.079 69.528,95.353 66.917 C 95.251 66.550,94.935 65.462,94.651 64.500 C 94.366 63.538,94.076 62.515,94.005 62.228 C 93.935 61.941,93.825 61.622,93.762 61.520 C 93.681 61.388,91.850 61.333,87.497 61.333 L 81.347 61.333 80.998 62.542 C 80.807 63.206,80.533 64.162,80.391 64.667 C 80.249 65.171,80.074 65.771,80.003 66.000 C 79.932 66.229,79.701 66.979,79.489 67.667 C 78.944 69.439,79.142 69.333,76.380 69.333 L 73.968 69.333 74.048 68.542 C 74.092 68.106,74.206 67.487,74.302 67.167 C 74.549 66.339,75.669 62.514,75.839 61.917 C 75.917 61.642,76.065 61.117,76.167 60.750 C 76.269 60.383,76.423 59.840,76.509 59.542 C 76.729 58.784,76.974 57.928,77.151 57.292 C 77.234 56.994,77.534 55.925,77.817 54.917 C 78.100 53.908,78.416 52.783,78.518 52.417 C 78.621 52.050,78.763 51.600,78.833 51.417 C 78.904 51.233,79.045 50.783,79.145 50.417 C 79.246 50.050,79.565 48.925,79.853 47.917 C 80.142 46.908,80.443 45.840,80.522 45.542 C 80.701 44.873,80.971 43.912,81.167 43.250 C 81.248 42.975,81.398 42.450,81.500 42.083 C 81.602 41.717,81.750 41.192,81.830 40.917 C 81.909 40.642,82.281 39.329,82.658 38.000 C 83.880 33.683,83.489 34.009,87.450 34.004 C 89.358 34.001,90.638 34.070,90.898 34.188 M197.165 34.248 C 197.430 34.568,197.206 35.464,196.330 37.583 C 196.205 37.885,195.524 39.728,194.635 42.167 C 194.451 42.671,194.240 43.233,194.167 43.417 C 193.955 43.944,193.401 45.441,192.749 47.250 C 192.419 48.167,192.081 49.067,192.000 49.250 C 191.918 49.433,191.430 50.746,190.914 52.167 C 190.398 53.587,189.914 54.900,189.838 55.083 C 189.761 55.267,189.535 55.867,189.333 56.417 C 189.132 56.967,188.906 57.567,188.832 57.750 C 188.712 58.046,188.436 58.790,187.137 62.333 C 186.952 62.837,186.739 63.400,186.663 63.583 C 186.587 63.767,186.250 64.667,185.914 65.583 C 184.414 69.672,184.745 69.361,181.962 69.297 C 179.405 69.238,179.420 69.315,181.162 65.083 C 181.238 64.900,181.390 64.487,181.500 64.167 C 181.610 63.846,181.762 63.433,181.838 63.250 C 181.962 62.948,182.654 61.077,183.532 58.667 C 183.716 58.163,183.927 57.600,184.001 57.417 C 184.292 56.696,184.723 55.520,185.192 54.167 C 185.461 53.387,185.746 52.600,185.824 52.417 C 185.902 52.233,186.056 51.821,186.167 51.500 C 186.277 51.179,186.427 50.767,186.501 50.583 C 186.716 50.045,187.274 48.538,187.918 46.750 C 188.248 45.833,188.582 44.933,188.659 44.750 C 188.736 44.567,188.890 44.154,189.000 43.833 C 189.110 43.512,189.261 43.100,189.335 42.917 C 189.455 42.621,189.734 41.866,191.030 38.333 C 191.215 37.829,191.426 37.267,191.500 37.083 C 191.574 36.900,191.808 36.300,192.020 35.750 C 192.646 34.129,192.871 34.000,195.087 34.000 C 196.541 34.000,197.005 34.055,197.165 34.248 M220.083 34.231 C 222.180 34.645,223.418 35.275,224.560 36.510 C 225.524 37.551,225.778 38.013,226.314 39.690 C 226.592 40.557,226.748 44.969,226.522 45.542 L 226.342 46.000 224.007 46.000 C 221.277 46.000,221.572 46.311,221.426 43.288 C 221.227 39.172,220.304 38.500,214.851 38.500 C 208.246 38.500,208.331 38.329,208.339 51.717 C 208.348 65.165,208.183 64.833,214.845 64.833 C 220.559 64.833,221.246 64.322,221.447 59.921 C 221.572 57.175,221.414 57.333,224.017 57.333 C 226.837 57.333,226.758 57.232,226.615 60.635 C 226.494 63.551,226.168 64.733,225.058 66.292 C 224.650 66.865,224.263 67.333,224.198 67.333 C 224.133 67.333,223.893 67.502,223.665 67.709 C 223.201 68.129,222.090 68.697,221.083 69.030 C 219.713 69.482,209.465 69.320,208.214 68.826 C 206.247 68.049,204.623 66.505,204.013 64.833 C 203.895 64.512,203.738 64.100,203.662 63.917 C 202.920 62.115,202.951 42.060,203.699 39.417 C 204.417 36.883,207.143 34.392,209.281 34.317 C 209.539 34.308,209.938 34.240,210.167 34.167 C 210.919 33.926,218.797 33.977,220.083 34.231 M158.667 38.681 C 157.097 39.122,155.829 40.391,156.047 41.304 C 156.091 41.491,156.157 41.417,156.245 41.083 C 156.716 39.298,158.243 38.662,162.032 38.673 C 166.259 38.684,167.450 39.305,167.935 41.750 L 168.134 42.750 168.147 42.000 C 168.171 40.572,167.228 39.251,165.870 38.812 C 165.089 38.560,159.462 38.457,158.667 38.681 M87.223 39.708 C 86.988 40.425,86.781 41.157,86.082 43.750 C 85.193 47.045,85.143 47.221,84.983 47.633 C 84.901 47.843,84.833 48.195,84.833 48.415 C 84.833 48.634,84.767 48.855,84.685 48.905 C 84.604 48.956,84.498 49.241,84.451 49.540 C 84.403 49.839,84.287 50.346,84.192 50.667 C 83.859 51.790,82.853 55.491,82.665 56.283 C 82.596 56.577,82.580 56.858,82.631 56.908 C 82.753 57.031,92.667 57.027,92.667 56.904 C 92.667 56.789,91.297 51.801,91.000 50.833 C 90.930 50.604,90.788 50.117,90.685 49.750 C 90.582 49.383,90.190 47.996,89.813 46.667 C 89.436 45.337,89.091 44.006,89.046 43.707 C 89.000 43.408,88.896 43.122,88.815 43.072 C 88.733 43.022,88.667 42.801,88.667 42.581 C 88.667 42.362,88.599 42.010,88.517 41.800 C 88.435 41.589,88.277 41.079,88.167 40.667 C 87.725 39.022,87.517 38.811,87.223 39.708 M88.265 41.807 C 88.725 43.527,88.920 44.239,89.185 45.167 C 89.557 46.466,89.652 46.805,90.006 48.083 C 90.209 48.817,90.560 50.092,90.785 50.917 C 91.479 53.452,91.652 54.067,92.023 55.333 C 92.117 55.654,92.234 56.123,92.283 56.375 L 92.371 56.833 87.584 56.833 L 82.796 56.833 82.908 56.208 C 83.023 55.566,83.265 54.710,83.521 54.034 C 83.601 53.823,83.667 53.471,83.667 53.252 C 83.667 53.033,83.742 52.807,83.833 52.750 C 83.925 52.693,84.000 52.467,84.000 52.248 C 84.000 52.029,84.067 51.677,84.149 51.466 C 84.310 51.055,84.360 50.879,85.248 47.583 C 85.912 45.122,86.150 44.263,86.333 43.667 C 86.404 43.438,86.544 42.950,86.644 42.583 C 87.642 38.940,87.514 39.002,88.265 41.807 M124.708 40.620 C 124.594 40.661,124.502 40.894,124.505 41.139 C 124.510 41.558,124.521 41.564,124.705 41.250 C 124.919 40.884,124.879 40.779,125.350 42.917 C 125.451 43.375,125.605 44.050,125.693 44.417 C 125.862 45.126,126.070 46.053,126.320 47.208 C 126.472 47.911,127.246 51.382,127.500 52.500 C 127.573 52.821,127.723 53.496,127.833 54.000 C 127.943 54.504,128.105 55.217,128.193 55.583 C 128.396 56.437,128.627 57.477,128.813 58.375 C 128.894 58.765,129.240 60.321,129.582 61.833 C 129.924 63.346,130.263 64.846,130.336 65.167 C 130.682 66.701,130.846 67.465,130.943 68.000 C 131.001 68.321,131.193 68.790,131.369 69.042 L 131.689 69.500 135.264 69.500 L 138.838 69.500 139.168 68.958 C 139.350 68.660,139.499 68.238,139.499 68.019 C 139.500 67.801,139.570 67.351,139.655 67.019 C 139.740 66.688,139.896 65.967,140.002 65.417 C 140.107 64.867,140.257 64.117,140.333 63.750 C 140.410 63.383,140.553 62.671,140.650 62.167 C 140.747 61.663,140.941 60.710,141.080 60.050 C 141.355 58.750,141.415 57.660,141.162 58.583 C 141.087 58.858,140.938 59.533,140.832 60.083 C 140.726 60.633,140.578 61.383,140.503 61.750 C 140.117 63.629,139.989 64.268,139.571 66.417 C 138.957 69.568,139.305 69.333,135.250 69.333 C 131.383 69.333,131.466 69.364,131.152 67.822 C 130.936 66.766,130.699 65.687,130.475 64.750 C 130.387 64.383,130.244 63.765,130.158 63.375 C 130.071 62.985,129.929 62.348,129.842 61.958 C 129.756 61.569,129.613 60.950,129.526 60.583 C 129.438 60.217,129.287 59.542,129.190 59.083 C 129.092 58.625,128.896 57.725,128.753 57.083 C 128.610 56.442,128.412 55.542,128.313 55.083 C 128.214 54.625,128.062 53.950,127.974 53.583 C 127.803 52.865,127.590 51.919,127.347 50.792 C 127.263 50.402,127.034 49.371,126.837 48.500 C 126.285 46.056,126.010 44.825,125.813 43.917 C 125.714 43.458,125.560 42.783,125.471 42.417 C 125.382 42.050,125.269 41.506,125.220 41.207 C 125.122 40.615,125.026 40.506,124.708 40.620 M252.083 41.326 C 248.921 41.849,246.891 43.523,245.810 46.500 C 245.326 47.833,245.186 62.153,245.643 63.667 C 246.539 66.637,248.424 68.521,251.232 69.252 C 252.230 69.512,260.592 69.605,261.202 69.363 C 261.359 69.301,259.297 69.250,256.619 69.250 C 252.999 69.250,251.579 69.193,251.083 69.027 C 248.373 68.122,246.938 66.755,246.052 64.235 L 245.588 62.917 245.596 55.417 C 245.607 46.251,245.873 45.019,248.227 43.224 C 250.186 41.731,250.766 41.610,256.229 41.545 C 263.626 41.457,265.976 42.702,267.155 47.333 C 267.406 48.319,267.320 62.973,267.058 63.854 C 266.333 66.290,264.785 67.858,262.000 68.977 C 261.645 69.119,261.633 69.146,261.917 69.155 C 263.648 69.213,266.343 66.619,267.196 64.074 C 267.674 62.645,267.808 48.661,267.357 47.167 C 266.477 44.248,264.884 42.616,261.833 41.506 C 261.140 41.253,253.389 41.111,252.083 41.326 M273.845 41.458 L 273.487 41.750 273.535 52.583 C 273.579 62.529,273.608 63.485,273.884 64.250 C 275.331 68.263,277.485 69.500,283.028 69.500 C 286.877 69.500,288.579 68.964,289.459 67.473 C 289.867 66.783,290.000 66.888,290.000 67.898 C 290.000 69.442,290.147 69.521,292.912 69.464 C 295.207 69.417,295.244 69.411,295.453 69.000 C 295.767 68.386,295.683 41.784,295.367 41.467 C 294.836 40.934,290.167 41.140,290.167 41.696 C 290.167 41.855,290.211 41.856,290.367 41.700 C 290.503 41.564,291.301 41.500,292.871 41.500 L 295.175 41.500 295.337 41.928 C 295.600 42.617,295.549 68.310,295.285 68.833 C 295.078 69.242,295.032 69.251,292.887 69.296 C 290.206 69.353,290.167 69.329,290.167 67.655 C 290.167 66.321,290.017 66.230,289.388 67.180 C 288.256 68.891,287.134 69.250,282.917 69.250 C 278.618 69.250,277.001 68.730,275.537 66.879 C 274.646 65.752,274.414 65.229,273.847 63.064 C 273.578 62.042,273.597 41.969,273.867 41.700 C 274.002 41.565,274.774 41.500,276.250 41.500 C 277.726 41.500,278.498 41.565,278.633 41.700 C 278.784 41.851,278.834 44.331,278.836 51.825 C 278.839 62.559,278.832 62.476,279.747 63.623 C 281.129 65.355,287.196 65.398,288.957 63.689 C 290.177 62.505,290.171 62.561,290.130 51.606 L 290.094 41.917 290.005 51.917 L 289.917 61.917 289.500 62.652 C 288.081 65.156,281.141 65.600,279.735 63.276 C 279.021 62.096,279.005 61.846,279.003 51.551 L 279.000 41.686 278.630 41.426 C 278.061 41.028,274.343 41.053,273.845 41.458 M253.735 45.973 C 252.639 46.121,251.610 46.807,251.128 47.709 C 250.752 48.412,250.750 48.462,250.750 55.333 L 250.750 62.250 251.179 63.083 C 251.935 64.554,252.744 64.827,256.350 64.831 C 262.188 64.836,262.167 64.870,262.167 55.340 C 262.167 47.915,262.183 48.057,261.191 46.941 C 260.376 46.022,256.797 45.558,253.735 45.973 M310.333 45.984 C 308.571 46.291,307.298 47.564,307.350 48.969 C 307.363 49.344,307.397 49.307,307.558 48.745 C 308.177 46.579,309.003 46.166,312.707 46.169 C 316.367 46.173,317.321 46.540,318.184 48.280 L 318.583 49.083 318.583 55.450 C 318.583 60.322,318.534 61.866,318.375 62.025 C 318.260 62.140,318.167 62.336,318.167 62.461 C 318.167 64.902,309.485 65.620,308.080 63.295 C 307.898 62.995,307.664 62.450,307.558 62.083 C 307.389 61.498,307.364 61.473,307.350 61.882 C 307.278 63.922,308.942 64.834,312.729 64.831 C 316.529 64.827,317.335 64.496,318.366 62.512 C 318.906 61.474,318.972 49.391,318.445 48.265 C 318.059 47.439,317.179 46.580,316.374 46.241 C 315.660 45.940,311.583 45.767,310.333 45.984 M259.750 46.333 C 259.807 46.425,259.984 46.500,260.144 46.500 C 260.543 46.500,261.413 47.446,261.735 48.229 C 262.071 49.048,262.135 61.385,261.808 62.350 C 261.157 64.270,260.413 64.583,256.500 64.583 C 250.884 64.583,250.999 64.778,251.008 55.333 C 251.016 47.452,251.055 47.251,252.750 46.490 C 253.515 46.146,259.551 46.011,259.750 46.333 M307.242 55.417 C 307.242 58.717,307.264 60.090,307.291 58.469 C 307.319 56.848,307.319 54.148,307.291 52.469 C 307.264 50.790,307.242 52.117,307.242 55.417 " stroke="none" fill="#848484" fill-rule="evenodd"></path></g></svg>