<svg version="1.1" id="Layer_1" xmlns="http://www.w3.org/2000/svg" xmlns:xlink="http://www.w3.org/1999/xlink" x="0px" y="0px"
	 width="100%" viewBox="0 0 268 78" enable-background="new 0 0 268 78" xml:space="preserve">
<path fill="#151515" opacity="1.000000" stroke="none" 
	d="
M1.000000,78.000000 
	C1.000000,52.366009 1.000000,26.732019 1.000000,1.000000 
	C89.687538,1.000000 178.375107,1.000000 267.491577,1.467204 
	C267.844421,26.671665 267.768341,51.408920 267.457520,76.191208 
	C267.104889,76.338287 266.987000,76.440346 266.869110,76.542404 
	C267.097382,76.749496 267.325653,76.956581 267.488129,77.427666 
	C267.286469,77.811867 267.150604,77.932060 266.548706,77.990654 
	C209.504196,77.919357 152.925781,77.896530 96.347366,77.905113 
	C64.564911,77.909943 32.782455,77.966667 1.000000,78.000000 
M20.842266,5.273126 
	C20.127523,5.538430 19.412779,5.803735 18.091816,5.548892 
	C14.560394,5.334591 11.028972,5.120290 7.037581,4.878077 
	C7.037581,13.421028 7.027037,21.178574 7.057198,28.935963 
	C7.059664,29.570337 7.234250,30.706310 7.506217,30.763334 
	C13.148473,31.946354 11.237388,36.587841 10.785552,39.496468 
	C10.023801,44.400131 14.567140,50.800919 7.257855,54.128452 
	C7.082359,54.208344 7.060781,54.747135 7.060061,55.072094 
	C7.048428,60.315861 7.051839,65.559662 7.051839,71.706406 
	C11.485444,71.020386 15.111008,70.459396 19.432100,69.958694 
	C20.127802,70.015427 20.823502,70.072159 21.698210,69.899399 
	C21.698210,69.899399 21.953842,70.038544 22.097166,70.824547 
	C23.224796,71.002403 24.352375,71.335564 25.480066,71.335938 
	C98.743126,71.360603 172.006195,71.364502 245.269226,71.309456 
	C246.591751,71.308464 247.913712,70.574150 249.631882,69.898796 
	C249.886551,69.664589 250.014496,69.374496 250.642334,68.774422 
	C252.845657,66.067207 254.814743,63.117310 257.308197,60.710701 
	C260.883209,57.260189 261.532867,53.239216 261.442474,48.518215 
	C261.200409,35.870461 261.369843,23.215000 261.349396,10.562644 
	C261.346558,8.806043 261.194214,7.049682 261.092377,4.898029 
	C259.116211,4.898029 257.645966,4.898026 256.175690,4.898030 
	C180.094879,4.898276 104.014061,4.897059 27.933249,4.910839 
	C26.612801,4.911078 25.292385,5.092104 23.391949,5.030843 
	C22.795336,5.090774 22.198725,5.150705 20.842266,5.273126 
z"/>
<path fill="#D3D3D3" opacity="1.000000" stroke="none" 
	d="
M1.000000,78.500000 
	C32.782455,77.966667 64.564911,77.909943 96.347366,77.905113 
	C152.925781,77.896530 209.504196,77.919357 266.544128,78.227570 
	C267.005646,78.526093 267.000000,79.000000 267.000000,79.000000 
	C178.333328,79.000000 89.666664,79.000000 1.000000,78.500000 
z"/>
<path fill="#D6D6D6" opacity="1.000000" stroke="none" 
	d="
M267.500000,79.000000 
	C267.000000,79.000000 267.005646,78.526093 267.010193,78.289169 
	C267.150604,77.932060 267.286469,77.811867 267.605713,77.184563 
	C267.756805,76.500366 267.724518,76.323273 267.692230,76.146179 
	C267.768341,51.408920 267.844421,26.671665 267.960266,1.467206 
	C268.333344,1.333338 268.957916,1.666150 268.958496,2.000079 
	C269.003845,27.333326 269.003845,52.666676 268.958496,77.999924 
	C268.957916,78.333847 268.333344,78.666664 267.500000,79.000000 
z"/>
<path fill="#F4F4F4" opacity="1.000000" stroke="none" 
	d="
M18.736572,69.898407 
	C15.111008,70.459396 11.485444,71.020386 7.051839,71.706406 
	C7.051839,65.559662 7.048428,60.315861 7.060061,55.072094 
	C7.060781,54.747135 7.082359,54.208344 7.257855,54.128452 
	C14.567140,50.800919 10.023801,44.400131 10.785552,39.496468 
	C11.237388,36.587841 13.148473,31.946354 7.506217,30.763334 
	C7.234250,30.706310 7.059664,29.570337 7.057198,28.935963 
	C7.027037,21.178574 7.037581,13.421028 7.037581,4.878077 
	C11.028972,5.120290 14.560394,5.334591 18.274263,6.217378 
	C18.542585,21.075937 18.628460,35.266010 18.759937,49.464851 
	C18.805540,49.473618 18.886690,49.607792 18.575600,50.038239 
	C18.471922,51.109886 18.679333,51.751091 18.637699,52.546299 
	C18.551252,53.002125 18.713856,53.303951 18.577366,53.801315 
	C18.337206,54.449986 18.396135,54.903122 18.446507,55.673653 
	C18.555313,57.018742 18.672682,58.046429 18.630125,59.502064 
	C18.558990,63.252808 18.647781,66.575607 18.736572,69.898407 
z"/>
<path fill="#D9D9D9" opacity="1.000000" stroke="none" 
	d="
M23.971954,5.188771 
	C25.292385,5.092104 26.612801,4.911078 27.933249,4.910839 
	C104.014061,4.897059 180.094879,4.898276 256.175690,4.898030 
	C257.645966,4.898026 259.116211,4.898029 261.092377,4.898029 
	C261.194214,7.049682 261.346558,8.806043 261.349396,10.562644 
	C261.369843,23.215000 261.200409,35.870461 261.442474,48.518215 
	C261.532867,53.239216 260.883209,57.260189 257.308197,60.710701 
	C254.814743,63.117310 252.845657,66.067207 250.132141,68.647171 
	C249.275787,68.268036 248.929642,68.016159 248.667999,67.426163 
	C251.770386,63.354626 254.788254,59.621201 258.032776,55.893730 
	C258.323975,55.560932 258.388489,55.222183 258.530762,54.428444 
	C258.608521,38.699085 258.608521,23.424719 258.608521,7.583575 
	C256.251221,7.583575 254.296066,7.583574 252.340927,7.583576 
	C178.726425,7.583645 105.111923,7.585260 31.497427,7.575531 
	C29.504189,7.575267 27.510969,7.452490 25.151310,7.249309 
	C24.526093,7.078455 24.267302,7.045136 24.008511,6.707788 
	C23.996326,5.998761 23.984140,5.593766 23.971954,5.188771 
z"/>
<path fill="#F4F4F4" opacity="1.000000" stroke="none" 
	d="
M248.583496,67.764282 
	C248.929642,68.016159 249.275787,68.268036 249.818832,68.774216 
	C250.014496,69.374496 249.886551,69.664589 248.949905,70.041489 
	C173.993149,70.196159 99.718384,70.208969 25.443607,70.212540 
	C24.280354,70.212601 23.117098,70.099068 21.953842,70.038544 
	C21.953842,70.038544 21.698210,69.899399 21.714230,69.656769 
	C21.779543,68.920059 21.828836,68.425980 22.212101,67.895699 
	C23.209057,67.940964 23.872040,68.022438 25.029781,68.202271 
	C98.406799,68.315834 171.289062,68.334435 244.171326,68.321899 
	C245.642075,68.321648 247.112778,67.958252 248.583496,67.764282 
z"/>
<path fill="#B2B2B2" opacity="1.000000" stroke="none" 
	d="
M22.025505,70.431549 
	C23.117098,70.099068 24.280354,70.212601 25.443607,70.212540 
	C99.718384,70.208969 173.993149,70.196159 248.751938,70.183090 
	C247.913712,70.574150 246.591751,71.308464 245.269226,71.309456 
	C172.006195,71.364502 98.743126,71.360603 25.480066,71.335938 
	C24.352375,71.335564 23.224796,71.002403 22.025505,70.431549 
z"/>
<path fill="#F4F4F4" opacity="1.000000" stroke="none" 
	d="
M23.681952,5.109807 
	C23.984140,5.593766 23.996326,5.998761 23.840900,6.884879 
	C23.745909,7.907251 23.818529,8.448500 23.927433,9.457790 
	C23.944317,20.618155 23.924921,31.310478 23.687504,42.249535 
	C22.866531,43.932579 22.263578,45.368889 21.578339,46.357231 
	C21.531406,32.343052 21.566759,18.776844 21.602112,5.210636 
	C22.198725,5.150705 22.795336,5.090774 23.681952,5.109807 
z"/>
<path fill="#1E1E1E" opacity="1.000000" stroke="none" 
	d="
M21.222189,5.241881 
	C21.566759,18.776844 21.531406,32.343052 21.382793,46.913338 
	C20.417803,48.430302 19.566071,48.943192 18.714336,49.456081 
	C18.628460,35.266010 18.542585,21.075937 18.577374,6.477452 
	C19.412779,5.803735 20.127523,5.538430 21.222189,5.241881 
z"/>
<path fill="#1E1E1E" opacity="1.000000" stroke="none" 
	d="
M21.878130,67.931908 
	C21.828836,68.425980 21.779543,68.920059 21.624725,69.771515 
	C20.823502,70.072159 20.127802,70.015427 19.084335,69.928551 
	C18.647781,66.575607 18.558990,63.252808 19.201702,59.380470 
	C20.305471,58.716099 20.677736,58.601257 21.222431,58.811371 
	C21.555948,62.068188 21.717039,65.000046 21.878130,67.931908 
z"/>
<path fill="#060606" opacity="1.000000" stroke="none" 
	d="
M267.457520,76.191208 
	C267.724518,76.323273 267.756805,76.500366 267.671509,76.920563 
	C267.325653,76.956581 267.097382,76.749496 266.869110,76.542404 
	C266.987000,76.440346 267.104889,76.338287 267.457520,76.191208 
z"/>
<path fill="#B2B2B2" opacity="1.000000" stroke="none" 
	d="
M22.212101,67.895699 
	C21.717039,65.000046 21.555948,62.068188 21.299294,58.050468 
	C20.505905,55.773705 19.808081,54.582798 19.090481,53.423763 
	C19.070704,53.455631 18.876457,53.605774 18.876457,53.605774 
	C18.713856,53.303951 18.551252,53.002125 19.168388,52.527756 
	C19.594315,51.439400 19.240501,50.523598 18.886690,49.607792 
	C18.886690,49.607792 18.805540,49.473618 18.759937,49.464851 
	C19.566071,48.943192 20.417803,48.430302 21.465080,47.361305 
	C22.263578,45.368889 22.866531,43.932579 23.880188,42.609398 
	C24.372269,51.182987 24.453646,59.643452 24.535023,68.103912 
	C23.872040,68.022438 23.209057,67.940964 22.212101,67.895699 
z"/>
<path fill="#151515" opacity="1.000000" stroke="none" 
	d="
M19.110256,53.391895 
	C19.808081,54.582798 20.505905,55.773705 21.126865,57.725510 
	C20.677736,58.601257 20.305471,58.716099 19.361628,58.952530 
	C18.672682,58.046429 18.555313,57.018742 18.744932,55.227432 
	C19.071365,54.106510 19.090811,53.749203 19.110256,53.391895 
z"/>
<path fill="#7F7F7F" opacity="1.000000" stroke="none" 
	d="
M19.090481,53.423763 
	C19.090811,53.749203 19.071365,54.106510 18.753494,54.910034 
	C18.396135,54.903122 18.337206,54.449986 18.577366,53.801315 
	C18.876457,53.605774 19.070704,53.455631 19.090481,53.423763 
z"/>
<path fill="#7F7F7F" opacity="1.000000" stroke="none" 
	d="
M18.575600,50.038239 
	C19.240501,50.523598 19.594315,51.439400 19.417435,52.373749 
	C18.679333,51.751091 18.471922,51.109886 18.575600,50.038239 
z"/>
<path fill="#0F0F0F" opacity="1.000000" stroke="none" 
	d="
M25.029781,68.202278 
	C24.453646,59.643452 24.372269,51.182987 24.098209,42.362663 
	C23.924921,31.310478 23.944317,20.618155 24.124737,9.248560 
	C24.696421,8.176474 25.107080,7.781658 25.517740,7.386844 
	C27.510969,7.452490 29.504189,7.575267 31.497427,7.575531 
	C105.111923,7.585260 178.726425,7.583645 252.340927,7.583576 
	C254.296066,7.583574 256.251221,7.583575 258.608521,7.583575 
	C258.608521,23.424719 258.608521,38.699085 258.322723,54.512299 
	C257.813904,55.289719 257.736969,55.568592 257.806122,55.887772 
	C254.788254,59.621201 251.770386,63.354626 248.667999,67.426163 
	C247.112778,67.958252 245.642075,68.321648 244.171326,68.321899 
	C171.289062,68.334435 98.406799,68.315834 25.029781,68.202278 
M67.189781,33.204453 
	C66.350708,31.829374 65.511635,30.454298 64.468964,28.745565 
	C62.707870,31.601965 61.809425,33.059193 60.910984,34.516422 
	C62.226589,37.035202 62.534454,39.630314 62.736080,42.233654 
	C63.082535,46.706997 64.915321,47.797287 68.884789,45.822548 
	C64.324348,42.775444 63.860561,37.835781 68.858879,35.332676 
	C69.699341,36.786827 70.969025,38.155125 71.281036,39.714981 
	C71.765640,42.137638 71.598297,44.690697 71.707321,47.188480 
	C76.502220,43.652393 70.569473,36.575912 77.945450,34.252586 
	C74.602318,33.994984 71.259178,33.737377 67.189781,33.204453 
M230.876312,35.899857 
	C234.767441,35.144348 234.155487,37.890827 234.318115,40.193726 
	C234.483643,42.537663 234.882874,44.865093 235.179749,47.199753 
	C235.801590,47.095291 236.423431,46.990829 237.045273,46.886368 
	C237.045273,44.084831 237.103073,41.281834 237.032562,38.482071 
	C236.907486,33.514767 234.997498,32.370266 229.097839,34.373165 
	C225.745071,34.373165 222.392319,34.373165 219.281555,34.373165 
	C219.281555,38.804710 219.281555,42.871639 219.281555,46.938568 
	C219.865936,47.035007 220.450302,47.131443 221.034683,47.227879 
	C221.480438,43.603020 221.926193,39.978161 222.379959,36.288101 
	C225.507782,35.438442 227.190445,36.082790 226.945068,39.716095 
	C226.780853,42.147739 227.072617,44.610172 227.160339,47.058830 
	C227.649124,47.015274 228.137924,46.971722 228.626709,46.928165 
	C229.075867,43.240002 229.525009,39.551842 230.876312,35.899857 
M97.902534,43.933537 
	C98.548576,43.844116 99.664024,43.501816 99.772003,43.702259 
	C102.480354,48.729740 107.012993,46.466133 111.457115,46.914841 
	C111.457115,43.018356 111.457115,39.452915 111.457115,35.700069 
	C116.201866,36.105381 114.919876,39.335838 115.075768,41.672543 
	C115.400864,46.545300 117.033089,47.718426 121.361542,46.019501 
	C116.685036,42.322437 116.568977,37.507812 121.091354,34.465900 
	C119.517975,32.978436 117.958633,31.504253 116.383881,30.015497 
	C114.995277,31.737791 113.656425,33.398369 112.340675,35.030293 
	C111.192169,34.290340 110.273247,33.698303 108.510193,32.562412 
	C108.510193,36.125443 108.794022,38.782391 108.386444,41.328674 
	C108.192406,42.540974 106.682312,43.542618 105.768372,44.639683 
	C104.915932,43.491043 103.508270,42.423389 103.326454,41.176926 
	C102.945839,38.567627 103.211067,35.864124 103.211067,33.427216 
	C100.470886,34.200996 98.708549,34.698650 96.664482,34.441238 
	C94.399704,33.894444 92.134926,33.347649 89.760590,32.774406 
	C89.258812,28.447874 89.258812,28.447874 86.281067,28.642565 
	C86.281067,34.721054 86.281067,40.792130 86.281067,47.631592 
	C90.021706,45.602882 94.698608,49.652138 97.902534,43.933537 
M212.905212,44.714458 
	C211.317337,44.292454 209.729462,43.870445 208.141586,43.448437 
	C208.229843,42.868851 208.318115,42.289261 208.406372,41.709671 
	C210.937439,41.517429 213.468506,41.325188 217.446365,41.023060 
	C215.955124,38.053867 215.347992,34.751122 213.529861,33.824539 
	C211.775436,32.930408 206.918915,34.020775 206.658279,35.054520 
	C205.821594,38.372936 205.378983,42.715611 206.950211,45.391235 
	C207.998581,47.176472 212.737076,46.794724 215.824112,47.382778 
	C215.940186,46.787498 216.056274,46.192219 216.172348,45.596939 
	C215.393570,45.303867 214.614792,45.010792 212.905212,44.714458 
M136.011276,38.775684 
	C136.011642,46.570251 136.403793,46.837074 147.306549,46.588390 
	C147.306549,40.375038 147.306549,34.184864 147.306549,27.994690 
	C146.797638,27.936745 146.288727,27.878799 145.779816,27.820854 
	C145.429337,29.723637 145.078842,31.626419 144.701675,33.674141 
	C140.527802,32.423454 137.312485,33.288849 136.011276,38.775684 
M162.763443,36.923843 
	C162.039093,35.617348 161.314758,34.310848 160.590408,33.004345 
	C163.144562,33.301640 165.698715,33.598930 168.675919,33.945465 
	C169.136230,31.827490 167.953323,30.001987 164.936478,29.832411 
	C162.105667,29.673290 158.562988,28.712242 157.666626,32.982994 
	C157.075912,35.797359 157.484665,38.364044 160.921066,39.203312 
	C162.049759,39.478970 163.395340,39.465714 164.247360,40.107857 
	C165.113342,40.760532 165.825653,42.026440 165.928329,43.089199 
	C165.971863,43.539906 164.065659,44.797623 163.433197,44.577065 
	C161.652527,43.956093 160.072998,42.758324 158.414169,41.787945 
	C158.024948,41.998611 157.635727,42.209274 157.246506,42.419937 
	C158.188568,43.868164 158.803772,45.904110 160.138443,46.646397 
	C163.239426,48.371033 168.038803,46.866772 168.725708,44.222515 
	C169.849442,39.896641 167.824081,37.585281 162.763443,36.923843 
M34.442196,29.738773 
	C32.888649,29.829636 31.335104,29.920498 29.822578,30.008961 
	C29.822578,35.950989 29.822578,41.347214 29.822578,46.716175 
	C40.452618,47.707420 40.939922,47.284004 40.919155,37.315331 
	C40.917778,36.654797 40.882393,35.992073 40.923088,35.334091 
	C41.168930,31.359190 39.369461,29.441542 34.442196,29.738773 
M125.344589,46.210140 
	C128.189163,46.496380 131.033737,46.782619 133.878296,47.068859 
	C133.922424,46.616917 133.966537,46.164974 134.010651,45.713036 
	C131.263748,45.045189 128.516830,44.377342 125.769920,43.709496 
	C125.853127,43.162762 125.936340,42.616024 126.019547,42.069290 
	C128.629959,41.552998 131.240372,41.036705 133.925705,40.505596 
	C133.956650,39.821995 133.946976,39.170795 134.021637,38.529415 
	C134.428009,35.038078 133.080566,33.207367 129.373825,33.172462 
	C125.768234,33.138515 123.530060,34.394360 123.819939,38.341579 
	C123.998512,40.773026 124.398705,43.188194 125.344589,46.210140 
M181.632263,37.470249 
	C181.814377,36.063911 181.996490,34.657570 182.178619,33.251232 
	C181.642960,33.132427 181.107300,33.013626 180.571655,32.894821 
	C179.393982,36.084106 178.216324,39.273388 176.941315,42.726284 
	C175.471283,39.116978 174.207962,36.015202 172.944641,32.913422 
	C172.345596,33.188545 171.746567,33.463669 171.147522,33.738789 
	C172.594910,38.363621 174.042297,42.988453 175.579254,47.899445 
	C174.570572,48.490845 173.201843,49.293350 171.223846,50.453075 
	C175.397339,52.183945 177.481949,50.779114 178.559860,47.751354 
	C179.673538,44.623089 180.439865,41.371170 181.632263,37.470249 
M189.194168,41.442825 
	C191.362320,42.917995 191.761185,44.157658 188.659470,44.711449 
	C187.196259,44.972698 185.690247,44.994133 184.203613,45.124233 
	C184.202530,45.655590 184.201462,46.186951 184.200378,46.718307 
	C185.669785,46.839664 187.262161,47.374222 188.578873,46.982426 
	C190.406738,46.438534 192.027740,45.199387 193.737320,44.257885 
	C192.644363,42.613979 191.701797,40.837357 190.407669,39.371002 
	C189.484421,38.324863 188.088776,37.695633 186.233917,36.419346 
	C189.329758,35.766979 191.224701,35.367668 193.119659,34.968357 
	C189.868958,33.011860 186.390854,31.753386 184.528732,35.459606 
	C182.862717,38.775486 186.109711,39.929905 189.194168,41.442825 
M239.665207,45.009602 
	C239.681946,45.639019 239.625153,46.802879 239.726578,46.816837 
	C241.027100,46.995770 242.440521,47.331467 243.646744,46.992310 
	C245.521484,46.465202 247.259125,45.450600 249.054886,44.642639 
	C247.984177,42.856792 247.073288,40.943050 245.784149,39.331989 
	C244.982269,38.329872 243.607880,37.785877 241.535660,36.395771 
	C244.745834,35.783619 246.659500,35.418701 248.573151,35.053787 
	C245.167923,32.451355 240.886963,32.256229 239.547989,35.418697 
	C237.418701,40.447659 243.806091,40.374081 247.062912,43.851654 
	C244.312256,44.322998 242.429718,44.645588 239.665207,45.009602 
M53.714600,33.189617 
	C52.438122,34.221230 50.235653,35.167835 50.131081,36.307022 
	C50.013382,37.589203 51.628796,39.199680 52.783379,40.380898 
	C53.892563,41.515663 55.376591,42.284027 57.723934,43.937580 
	C54.123104,44.595135 51.973370,44.987705 49.823635,45.380276 
	C49.874870,45.832684 49.926105,46.285088 49.977345,46.737495 
	C51.337502,46.847145 52.812653,47.340988 54.030861,46.976372 
	C55.856926,46.429821 57.502609,45.280590 59.225002,44.387669 
	C58.207424,42.721687 57.360622,40.911327 56.115047,39.438110 
	C55.214306,38.372746 53.784046,37.755085 51.812340,36.405533 
	C54.948380,35.736435 56.819107,35.337299 58.689838,34.938168 
	C58.660877,34.479195 58.631920,34.020222 58.602962,33.561249 
	C57.240784,33.434517 55.878601,33.307781 53.714600,33.189617 
M200.687134,44.255791 
	C199.651077,40.563423 198.568893,36.860397 200.906342,35.625065 
	C200.127625,34.211239 199.062485,32.277401 197.852371,30.080336 
	C197.093643,31.681808 195.650772,33.395035 195.607742,35.142727 
	C195.548981,37.529888 196.768295,39.917984 197.057922,42.351131 
	C197.539444,46.396389 199.492645,47.715855 204.316650,46.332699 
	C202.760178,45.547165 202.011566,45.169353 200.687134,44.255791 
M82.939148,46.132980 
	C82.939148,41.860622 82.939148,37.588264 82.939148,32.828659 
	C81.576851,33.392761 80.305672,33.658928 80.296783,33.962082 
	C80.175644,38.096371 80.197273,42.236828 80.333382,46.370838 
	C80.340218,46.578495 81.710312,46.741268 82.939148,46.132980 
M44.169128,37.772980 
	C44.768620,40.847019 42.841099,44.532032 46.320541,47.896976 
	C46.320541,42.277142 46.320541,37.692459 46.320541,33.107773 
	C45.818619,33.077393 45.316696,33.047012 44.814770,33.016632 
	C44.599453,34.302471 44.384132,35.588314 44.169128,37.772980 
z"/>
<path fill="#B2B2B2" opacity="1.000000" stroke="none" 
	d="
M25.151310,7.249308 
	C25.107080,7.781658 24.696421,8.176474 24.088455,8.780519 
	C23.818529,8.448500 23.745909,7.907251 23.840897,7.188910 
	C24.267302,7.045136 24.526093,7.078455 25.151310,7.249308 
z"/>
<path fill="#B2B2B2" opacity="1.000000" stroke="none" 
	d="
M258.032776,55.893726 
	C257.736969,55.568592 257.813904,55.289719 258.244965,54.967293 
	C258.388489,55.222183 258.323975,55.560932 258.032776,55.893726 
z"/>
<path fill="#D9D9D9" opacity="1.000000" stroke="none" 
	d="
M96.946213,35.196304 
	C98.708549,34.698650 100.470886,34.200996 103.211067,33.427216 
	C103.211067,35.864124 102.945839,38.567627 103.326454,41.176926 
	C103.508270,42.423389 104.915932,43.491043 105.768372,44.639687 
	C106.682312,43.542618 108.192406,42.540974 108.386444,41.328674 
	C108.794022,38.782391 108.510193,36.125443 108.510193,32.562412 
	C110.273247,33.698303 111.192169,34.290340 112.340675,35.030293 
	C113.656425,33.398369 114.995277,31.737791 116.383881,30.015497 
	C117.958633,31.504253 119.517975,32.978436 121.091354,34.465900 
	C116.568977,37.507812 116.685036,42.322437 121.361542,46.019501 
	C117.033089,47.718426 115.400864,46.545300 115.075768,41.672543 
	C114.919876,39.335838 116.201866,36.105381 111.457115,35.700069 
	C111.457115,39.452915 111.457115,43.018356 111.457115,46.914841 
	C107.012993,46.466133 102.480354,48.729740 99.772003,43.702259 
	C99.664024,43.501816 98.548576,43.844116 97.476776,43.681946 
	C97.016083,40.685673 96.981148,37.940990 96.946213,35.196304 
z"/>
<path fill="#E0E0E0" opacity="1.000000" stroke="none" 
	d="
M213.370605,44.716087 
	C214.614792,45.010792 215.393570,45.303867 216.172348,45.596939 
	C216.056274,46.192219 215.940186,46.787498 215.824112,47.382778 
	C212.737076,46.794724 207.998581,47.176472 206.950211,45.391235 
	C205.378983,42.715611 205.821594,38.372936 206.658279,35.054520 
	C206.918915,34.020775 211.775436,32.930408 213.529861,33.824539 
	C215.347992,34.751122 215.955124,38.053867 217.446365,41.023060 
	C213.468506,41.325188 210.937439,41.517429 208.406372,41.709671 
	C208.318115,42.289261 208.229843,42.868851 208.141586,43.448437 
	C209.729462,43.870445 211.317337,44.292454 213.370605,44.716087 
z"/>
<path fill="#DBDBDB" opacity="1.000000" stroke="none" 
	d="
M136.012756,38.360329 
	C137.312485,33.288849 140.527802,32.423454 144.701675,33.674141 
	C145.078842,31.626419 145.429337,29.723637 145.779816,27.820854 
	C146.288727,27.878799 146.797638,27.936745 147.306549,27.994690 
	C147.306549,34.184864 147.306549,40.375038 147.306549,46.588390 
	C136.403793,46.837074 136.011642,46.570251 136.012756,38.360329 
M144.743378,43.724106 
	C144.844330,41.748531 145.490540,39.560051 144.834549,37.880039 
	C144.461960,36.925842 141.957687,36.804005 140.413406,36.307320 
	C140.252487,38.570766 139.802948,40.876743 140.125977,43.068882 
	C140.210678,43.643841 142.691498,43.865730 144.743378,43.724106 
z"/>
<path fill="#E7E7E7" opacity="1.000000" stroke="none" 
	d="
M163.151215,36.976170 
	C167.824081,37.585281 169.849442,39.896641 168.725708,44.222515 
	C168.038803,46.866772 163.239426,48.371033 160.138443,46.646397 
	C158.803772,45.904110 158.188568,43.868164 157.246506,42.419937 
	C157.635727,42.209274 158.024948,41.998611 158.414169,41.787945 
	C160.072998,42.758324 161.652527,43.956093 163.433197,44.577065 
	C164.065659,44.797623 165.971863,43.539906 165.928329,43.089199 
	C165.825653,42.026440 165.113342,40.760532 164.247360,40.107857 
	C163.395340,39.465714 162.049759,39.478970 160.921066,39.203312 
	C157.484665,38.364044 157.075912,35.797359 157.666626,32.982994 
	C158.562988,28.712242 162.105667,29.673290 164.936478,29.832411 
	C167.953323,30.001987 169.136230,31.827490 168.675919,33.945465 
	C165.698715,33.598930 163.144562,33.301640 160.590408,33.004349 
	C161.314758,34.310848 162.039093,35.617348 163.151215,36.976170 
z"/>
<path fill="#ECECEC" opacity="1.000000" stroke="none" 
	d="
M34.891632,29.739077 
	C39.369461,29.441542 41.168930,31.359190 40.923088,35.334091 
	C40.882393,35.992073 40.917778,36.654797 40.919155,37.315331 
	C40.939922,47.284004 40.452618,47.707420 29.822578,46.716175 
	C29.822578,41.347214 29.822578,35.950989 29.822578,30.008961 
	C31.335104,29.920498 32.888649,29.829636 34.891632,29.739077 
M32.158875,38.459469 
	C32.158875,40.407230 32.158875,42.354988 32.158875,45.363026 
	C34.564522,44.558571 37.574715,44.199898 37.697800,43.398041 
	C38.216331,40.020069 38.155212,36.464321 37.609646,33.086105 
	C37.499413,32.403522 34.362789,32.209690 32.158707,31.679144 
	C32.158707,34.268650 32.158707,35.906868 32.158875,38.459469 
z"/>
<path fill="#E4E4E4" opacity="1.000000" stroke="none" 
	d="
M96.805344,34.818771 
	C96.981148,37.940990 97.016083,40.685673 97.112053,43.893810 
	C94.698608,49.652138 90.021706,45.602882 86.281067,47.631592 
	C86.281067,40.792130 86.281067,34.721054 86.281067,28.642565 
	C89.258812,28.447874 89.258812,28.447874 89.760590,32.774406 
	C92.134926,33.347649 94.399704,33.894444 96.805344,34.818771 
M94.976860,38.814552 
	C95.223434,36.176735 93.020355,34.360401 91.662659,35.793400 
	C89.839905,37.717255 89.597061,41.137993 88.622070,44.078712 
	C94.250618,45.670406 95.423706,43.551800 94.976860,38.814552 
z"/>
<path fill="#E8E8E8" opacity="1.000000" stroke="none" 
	d="
M125.021996,45.910408 
	C124.398705,43.188194 123.998512,40.773026 123.819939,38.341579 
	C123.530060,34.394360 125.768234,33.138515 129.373825,33.172462 
	C133.080566,33.207367 134.428009,35.038078 134.021637,38.529415 
	C133.946976,39.170795 133.956650,39.821995 133.925705,40.505596 
	C131.240372,41.036705 128.629959,41.552998 126.019547,42.069290 
	C125.936340,42.616024 125.853127,43.162762 125.769920,43.709496 
	C128.516830,44.377342 131.263748,45.045189 134.010651,45.713036 
	C133.966537,46.164974 133.922424,46.616917 133.878296,47.068859 
	C131.033737,46.782619 128.189163,46.496380 125.021996,45.910408 
z"/>
<path fill="#E0E0E0" opacity="1.000000" stroke="none" 
	d="
M181.495209,37.821800 
	C180.439865,41.371170 179.673538,44.623089 178.559860,47.751354 
	C177.481949,50.779114 175.397339,52.183945 171.223846,50.453075 
	C173.201843,49.293350 174.570572,48.490845 175.579254,47.899445 
	C174.042297,42.988453 172.594910,38.363621 171.147522,33.738789 
	C171.746567,33.463669 172.345596,33.188545 172.944641,32.913422 
	C174.207962,36.015202 175.471283,39.116978 176.941315,42.726284 
	C178.216324,39.273388 179.393982,36.084106 180.571655,32.894821 
	C181.107300,33.013626 181.642960,33.132427 182.178619,33.251232 
	C181.996490,34.657570 181.814377,36.063911 181.495209,37.821800 
z"/>
<path fill="#D9D9D9" opacity="1.000000" stroke="none" 
	d="
M188.841721,41.274803 
	C186.109711,39.929905 182.862717,38.775486 184.528732,35.459606 
	C186.390854,31.753386 189.868958,33.011860 193.119659,34.968357 
	C191.224701,35.367668 189.329758,35.766979 186.233917,36.419346 
	C188.088776,37.695633 189.484421,38.324863 190.407669,39.371002 
	C191.701797,40.837357 192.644363,42.613979 193.737305,44.257889 
	C192.027740,45.199387 190.406738,46.438534 188.578873,46.982426 
	C187.262161,47.374222 185.669785,46.839664 184.200378,46.718307 
	C184.201462,46.186951 184.202530,45.655590 184.203613,45.124233 
	C185.690247,44.994133 187.196259,44.972698 188.659470,44.711449 
	C191.761185,44.157658 191.362320,42.917995 188.841721,41.274803 
z"/>
<path fill="#E0E0E0" opacity="1.000000" stroke="none" 
	d="
M240.106201,44.988888 
	C242.429718,44.645588 244.312256,44.322998 247.062912,43.851654 
	C243.806091,40.374081 237.418701,40.447659 239.547989,35.418697 
	C240.886963,32.256229 245.167923,32.451355 248.573151,35.053787 
	C246.659500,35.418701 244.745834,35.783619 241.535660,36.395771 
	C243.607880,37.785877 244.982269,38.329872 245.784149,39.331989 
	C247.073288,40.943050 247.984177,42.856792 249.054886,44.642639 
	C247.259125,45.450600 245.521484,46.465202 243.646744,46.992310 
	C242.440521,47.331467 241.027100,46.995770 239.726578,46.816837 
	C239.625153,46.802879 239.681946,45.639019 240.106201,44.988888 
z"/>
<path fill="#E0E0E0" opacity="1.000000" stroke="none" 
	d="
M54.115509,33.185333 
	C55.878601,33.307781 57.240784,33.434517 58.602962,33.561249 
	C58.631920,34.020222 58.660877,34.479195 58.689838,34.938168 
	C56.819107,35.337299 54.948380,35.736435 51.812340,36.405533 
	C53.784046,37.755085 55.214306,38.372746 56.115047,39.438110 
	C57.360622,40.911327 58.207424,42.721687 59.225002,44.387669 
	C57.502609,45.280590 55.856926,46.429821 54.030861,46.976372 
	C52.812653,47.340988 51.337502,46.847145 49.977345,46.737495 
	C49.926105,46.285088 49.874870,45.832684 49.823635,45.380276 
	C51.973370,44.987705 54.123104,44.595135 57.723934,43.937580 
	C55.376591,42.284027 53.892563,41.515663 52.783379,40.380898 
	C51.628796,39.199680 50.013382,37.589203 50.131081,36.307022 
	C50.235653,35.167835 52.438122,34.221230 54.115509,33.185333 
z"/>
<path fill="#F4F4F4" opacity="1.000000" stroke="none" 
	d="
M229.974167,35.863678 
	C229.525009,39.551842 229.075867,43.240002 228.626709,46.928165 
	C228.137924,46.971722 227.649124,47.015274 227.160339,47.058830 
	C227.072617,44.610172 226.780853,42.147739 226.945068,39.716095 
	C227.190445,36.082790 225.507782,35.438442 222.379959,36.288101 
	C221.926193,39.978161 221.480438,43.603020 221.034683,47.227879 
	C220.450302,47.131443 219.865936,47.035007 219.281555,46.938568 
	C219.281555,42.871639 219.281555,38.804710 219.281555,34.373165 
	C222.392319,34.373165 225.745071,34.373165 229.518982,34.562092 
	C229.951477,35.121906 229.962814,35.492790 229.974167,35.863678 
z"/>
<path fill="#E7E7E7" opacity="1.000000" stroke="none" 
	d="
M67.896957,35.301422 
	C63.860561,37.835781 64.324348,42.775444 68.884789,45.822548 
	C64.915321,47.797287 63.082535,46.706997 62.736080,42.233654 
	C62.534454,39.630314 62.226589,37.035202 60.910984,34.516422 
	C61.809425,33.059193 62.707870,31.601965 64.468964,28.745565 
	C65.511635,30.454298 66.350708,31.829374 67.521339,33.568855 
	C67.867584,34.389317 67.882271,34.845367 67.896957,35.301422 
z"/>
<path fill="#D9D9D9" opacity="1.000000" stroke="none" 
	d="
M200.975052,44.523666 
	C202.011566,45.169353 202.760178,45.547165 204.316650,46.332699 
	C199.492645,47.715855 197.539444,46.396389 197.057922,42.351131 
	C196.768295,39.917984 195.548981,37.529888 195.607742,35.142727 
	C195.650772,33.395035 197.093643,31.681808 197.852371,30.080336 
	C199.062485,32.277401 200.127625,34.211239 200.906342,35.625065 
	C198.568893,36.860397 199.651077,40.563423 200.975052,44.523666 
z"/>
<path fill="#C7C7C7" opacity="1.000000" stroke="none" 
	d="
M68.377914,35.317047 
	C67.882271,34.845367 67.867584,34.389317 67.884476,33.706516 
	C71.259178,33.737377 74.602318,33.994984 77.945450,34.252586 
	C70.569473,36.575912 76.502220,43.652393 71.707321,47.188480 
	C71.598297,44.690697 71.765640,42.137638 71.281036,39.714981 
	C70.969025,38.155125 69.699341,36.786827 68.377914,35.317047 
z"/>
<path fill="#D3D3D3" opacity="1.000000" stroke="none" 
	d="
M230.425232,35.881767 
	C229.962814,35.492790 229.951477,35.121906 229.984467,34.476173 
	C234.997498,32.370266 236.907486,33.514767 237.032562,38.482071 
	C237.103073,41.281834 237.045273,44.084831 237.045273,46.886368 
	C236.423431,46.990829 235.801590,47.095291 235.179749,47.199753 
	C234.882874,44.865093 234.483643,42.537663 234.318115,40.193726 
	C234.155487,37.890827 234.767441,35.144348 230.425232,35.881767 
z"/>
<path fill="#F9F9F9" opacity="1.000000" stroke="none" 
	d="
M82.692398,46.528961 
	C81.710312,46.741268 80.340218,46.578495 80.333382,46.370838 
	C80.197273,42.236828 80.175644,38.096371 80.296783,33.962082 
	C80.305672,33.658928 81.576851,33.392761 82.939148,32.828659 
	C82.939148,37.588264 82.939148,41.860622 82.692398,46.528961 
z"/>
<path fill="#D6D6D6" opacity="1.000000" stroke="none" 
	d="
M44.168972,37.323566 
	C44.384132,35.588314 44.599453,34.302471 44.814770,33.016632 
	C45.316696,33.047012 45.818619,33.077393 46.320541,33.107773 
	C46.320541,37.692459 46.320541,42.277142 46.320541,47.896976 
	C42.841099,44.532032 44.768620,40.847019 44.168972,37.323566 
z"/>
<path fill="#0F0F0F" opacity="1.000000" stroke="none" 
	d="
M144.407654,43.986938 
	C142.691498,43.865730 140.210678,43.643841 140.125977,43.068882 
	C139.802948,40.876743 140.252487,38.570766 140.413406,36.307320 
	C141.957687,36.804005 144.461960,36.925842 144.834549,37.880039 
	C145.490540,39.560051 144.844330,41.748531 144.407654,43.986938 
z"/>
<path fill="#191919" opacity="1.000000" stroke="none" 
	d="
M32.158791,38.002274 
	C32.158707,35.906868 32.158707,34.268650 32.158707,31.679144 
	C34.362789,32.209690 37.499413,32.403522 37.609646,33.086105 
	C38.155212,36.464321 38.216331,40.020069 37.697800,43.398041 
	C37.574715,44.199898 34.564522,44.558571 32.158875,45.363026 
	C32.158875,42.354988 32.158875,40.407230 32.158791,38.002274 
z"/>
<path fill="#1E1E1E" opacity="1.000000" stroke="none" 
	d="
M94.977203,39.230396 
	C95.423706,43.551800 94.250618,45.670406 88.622070,44.078712 
	C89.597061,41.137993 89.839905,37.717255 91.662659,35.793400 
	C93.020355,34.360401 95.223434,36.176735 94.977203,39.230396 
z"/>
</svg>