<svg id="svg" version="1.1" xmlns="http://www.w3.org/2000/svg" xmlns:xlink="http://www.w3.org/1999/xlink" width="400" height="107.33229329173167" viewBox="0, 0, 400,107.33229329173167"><g id="svgg"><path id="path0" d="M0.833 22.417 L 0.833 43.167 3.736 43.167 C 5.333 43.167,6.758 43.212,6.903 43.268 C 7.307 43.423,7.307 77.744,6.903 77.899 C 6.758 77.954,5.333 78.000,3.735 78.000 L 0.831 78.000 0.874 91.958 L 0.917 105.917 9.625 105.960 L 18.333 106.003 18.333 53.835 L 18.333 1.667 9.583 1.667 L 0.833 1.667 0.833 22.417 M23.226 14.958 C 23.287 22.269,23.404 45.677,23.487 66.977 C 23.573 89.233,23.700 105.766,23.785 105.852 C 24.132 106.198,379.362 105.949,379.565 105.602 C 379.667 105.428,380.012 104.968,380.333 104.578 C 380.654 104.188,381.254 103.440,381.667 102.917 C 382.079 102.393,382.679 101.638,383.000 101.238 C 383.321 100.838,383.883 100.126,384.250 99.657 C 384.617 99.187,385.179 98.482,385.500 98.090 C 385.821 97.698,386.383 96.985,386.750 96.505 C 387.117 96.026,387.604 95.422,387.833 95.164 C 388.850 94.019,389.667 93.012,389.667 92.904 C 389.667 92.840,389.948 92.471,390.292 92.084 C 390.635 91.698,391.254 90.951,391.667 90.426 C 394.270 87.107,394.849 86.379,395.917 85.081 C 396.467 84.413,397.348 83.325,397.875 82.665 L 398.833 81.464 398.833 41.565 L 398.833 1.667 210.974 1.667 L 23.115 1.667 23.226 14.958 M395.125 42.747 L 395.167 79.911 394.637 80.664 C 394.345 81.078,393.876 81.684,393.595 82.010 C 393.313 82.337,392.858 82.898,392.583 83.257 C 392.308 83.616,391.856 84.173,391.578 84.496 C 391.053 85.105,390.340 86.016,389.730 86.858 C 389.535 87.126,389.104 87.639,388.771 87.999 C 388.439 88.358,388.167 88.716,388.167 88.793 C 388.167 88.871,387.904 89.189,387.583 89.500 C 387.262 89.811,387.000 90.148,387.000 90.249 C 387.000 90.350,386.700 90.725,386.333 91.083 C 385.967 91.441,385.667 91.800,385.667 91.881 C 385.667 91.961,385.407 92.339,385.089 92.722 C 382.725 95.567,382.172 96.240,381.583 96.993 C 381.217 97.461,380.654 98.171,380.333 98.571 C 380.012 98.971,379.412 99.726,379.000 100.249 C 378.587 100.772,378.075 101.417,377.860 101.683 L 377.470 102.167 202.505 102.167 L 27.539 102.167 27.438 101.792 C 27.383 101.585,27.338 96.954,27.338 91.500 C 27.338 86.046,27.252 64.582,27.147 43.802 C 27.042 23.023,27.001 5.904,27.056 5.761 C 27.147 5.524,44.373 5.504,211.120 5.542 L 395.083 5.583 395.125 42.747 M224.663 31.261 C 224.483 31.732,224.439 35.985,224.604 36.813 L 224.708 37.333 227.086 37.333 C 229.933 37.333,229.667 37.675,229.667 34.020 C 229.667 30.596,229.862 30.833,227.046 30.833 L 224.825 30.833 224.663 31.261 M98.141 34.404 C 97.889 34.656,97.620 35.266,97.425 36.029 C 97.253 36.701,96.974 37.700,96.804 38.250 C 96.634 38.800,96.413 39.550,96.312 39.917 C 96.211 40.283,96.070 40.771,96.000 41.000 C 95.930 41.229,95.778 41.754,95.663 42.167 C 95.549 42.579,95.390 43.142,95.311 43.417 C 95.125 44.061,94.377 46.721,94.139 47.583 C 93.785 48.865,93.619 49.419,93.492 49.750 C 93.421 49.933,93.049 51.208,92.666 52.583 C 91.964 55.102,91.824 55.600,91.519 56.667 C 91.427 56.987,91.273 57.531,91.176 57.875 C 91.079 58.219,90.929 58.744,90.843 59.042 C 90.756 59.340,90.613 59.846,90.525 60.167 C 90.437 60.487,90.015 61.950,89.587 63.417 C 88.050 68.686,88.002 68.884,88.201 69.124 C 88.448 69.422,92.888 69.419,93.135 69.121 C 93.311 68.910,93.592 68.105,93.995 66.667 C 94.111 66.254,94.264 65.729,94.335 65.500 C 94.466 65.080,94.973 63.353,95.349 62.042 L 95.553 61.333 101.740 61.333 L 107.927 61.333 108.145 62.125 C 108.264 62.560,108.428 63.104,108.507 63.333 C 108.587 63.563,109.001 64.950,109.428 66.417 C 110.353 69.596,110.046 69.343,112.917 69.292 C 115.708 69.242,115.593 69.397,114.829 66.733 C 114.246 64.700,114.079 64.114,113.824 63.208 C 113.727 62.865,113.577 62.340,113.491 62.042 C 113.404 61.744,113.265 61.256,113.181 60.958 C 113.097 60.660,112.911 60.004,112.767 59.500 C 112.537 58.695,112.147 57.310,111.652 55.542 C 111.568 55.244,111.425 54.737,111.333 54.417 C 111.242 54.096,111.097 53.590,111.012 53.292 C 110.927 52.994,110.582 51.813,110.247 50.667 C 109.911 49.521,109.568 48.340,109.485 48.042 C 109.303 47.393,109.057 46.531,108.843 45.792 C 108.681 45.235,108.448 44.412,108.182 43.458 C 108.099 43.160,107.718 41.792,107.334 40.417 C 106.951 39.042,106.575 37.767,106.499 37.583 C 106.423 37.400,106.314 37.063,106.256 36.833 C 105.506 33.853,105.755 34.008,101.731 34.004 C 98.580 34.000,98.541 34.004,98.141 34.404 M280.917 34.199 C 280.402 34.491,280.320 34.693,279.478 37.750 C 279.377 38.117,279.237 38.604,279.167 38.833 C 279.096 39.063,278.946 39.587,278.833 40.000 C 278.720 40.412,278.564 40.938,278.485 41.167 C 278.366 41.511,277.511 44.491,276.811 47.000 C 276.721 47.321,276.577 47.827,276.491 48.125 C 276.404 48.423,276.263 48.910,276.176 49.208 C 276.090 49.506,275.946 50.012,275.857 50.333 C 275.768 50.654,275.578 51.329,275.434 51.833 C 275.204 52.638,274.813 54.023,274.318 55.792 C 274.047 56.761,273.869 57.376,273.079 60.083 C 272.652 61.550,272.229 63.012,272.141 63.333 C 272.053 63.654,271.915 64.142,271.833 64.417 C 270.890 67.606,270.612 68.784,270.730 69.091 C 270.805 69.287,271.267 69.333,273.158 69.333 C 276.024 69.333,275.714 69.678,277.015 65.042 C 277.354 63.832,277.527 63.222,277.688 62.667 C 277.781 62.346,277.898 61.915,277.948 61.708 L 278.039 61.333 284.250 61.333 L 290.461 61.333 290.575 61.708 C 290.638 61.915,290.763 62.346,290.854 62.667 C 290.945 62.987,291.094 63.512,291.185 63.833 C 291.277 64.154,291.415 64.642,291.493 64.917 C 292.827 69.661,292.541 69.333,295.359 69.333 C 298.191 69.333,298.147 69.392,297.355 66.667 C 297.262 66.346,297.106 65.802,297.009 65.458 C 296.913 65.115,296.758 64.571,296.667 64.250 C 296.475 63.579,296.429 63.417,295.509 60.167 C 295.133 58.837,294.761 57.563,294.682 57.333 C 294.603 57.104,294.446 56.579,294.333 56.167 C 294.220 55.754,294.070 55.229,294.000 55.000 C 293.930 54.771,293.788 54.283,293.686 53.917 C 293.400 52.888,292.348 49.144,292.188 48.583 C 292.109 48.308,291.951 47.746,291.837 47.333 C 291.722 46.921,291.564 46.396,291.485 46.167 C 291.358 45.796,290.224 41.854,289.808 40.333 C 289.641 39.725,289.424 38.961,289.157 38.042 C 289.071 37.744,288.932 37.256,288.849 36.958 C 287.979 33.845,288.228 34.007,284.333 34.009 C 282.344 34.010,281.132 34.077,280.917 34.199 M304.145 34.276 C 303.785 34.709,303.806 68.942,304.167 69.170 C 304.695 69.504,308.636 69.369,308.827 69.011 C 309.146 68.416,309.059 34.583,308.738 34.262 C 308.344 33.868,304.474 33.879,304.145 34.276 M206.417 35.208 C 206.377 35.323,206.323 36.679,206.297 38.222 C 206.240 41.640,206.339 41.500,203.963 41.500 C 202.010 41.500,202.083 41.415,202.083 43.667 C 202.083 45.922,202.005 45.833,203.995 45.833 C 206.572 45.833,206.333 44.925,206.335 54.708 C 206.337 63.514,206.357 63.754,207.211 65.417 C 207.989 66.929,209.426 68.143,211.250 68.825 C 212.288 69.214,217.212 69.525,218.238 69.268 L 218.667 69.160 218.667 67.197 C 218.667 64.746,218.750 64.833,216.404 64.833 C 211.606 64.833,211.500 64.600,211.500 54.075 C 211.500 44.735,211.036 45.833,214.983 45.833 C 218.349 45.833,218.167 45.961,218.167 43.608 C 218.167 41.312,218.447 41.501,215.024 41.495 C 211.204 41.488,211.501 41.756,211.495 38.315 C 211.491 36.308,211.431 35.506,211.268 35.292 C 210.986 34.920,206.544 34.844,206.417 35.208 M102.172 40.042 C 102.273 40.431,102.503 41.275,102.682 41.917 C 102.860 42.558,103.090 43.383,103.193 43.750 C 103.418 44.559,103.670 45.439,103.837 46.000 C 103.906 46.229,104.054 46.754,104.168 47.167 C 104.281 47.579,104.468 48.254,104.583 48.667 C 104.698 49.079,104.885 49.754,104.999 50.167 C 105.112 50.579,105.263 51.104,105.333 51.333 C 105.404 51.563,105.539 52.050,105.634 52.417 C 105.988 53.789,106.173 54.447,106.511 55.537 C 106.703 56.153,106.811 56.734,106.753 56.828 C 106.634 57.021,96.667 57.079,96.667 56.887 C 96.667 56.825,96.743 56.543,96.836 56.262 C 96.929 55.980,97.268 54.775,97.588 53.583 C 98.273 51.030,98.493 50.231,98.667 49.667 C 98.737 49.438,98.872 48.950,98.967 48.583 C 99.201 47.677,99.515 46.521,99.690 45.917 C 99.770 45.642,100.098 44.442,100.418 43.250 C 100.919 41.382,101.086 40.773,101.431 39.542 C 101.564 39.069,101.994 39.360,102.172 40.042 M285.020 41.167 C 285.603 43.300,285.833 44.122,286.000 44.667 C 286.175 45.235,286.377 45.963,287.250 49.167 C 288.123 52.370,288.325 53.099,288.500 53.667 C 288.570 53.896,288.720 54.421,288.831 54.833 C 288.943 55.246,289.102 55.756,289.184 55.966 C 289.608 57.053,289.856 57.000,284.361 57.000 C 278.703 57.000,279.144 57.094,279.456 55.956 C 279.828 54.598,279.943 54.180,280.339 52.750 C 280.542 52.017,280.893 50.742,281.119 49.917 C 281.690 47.831,281.830 47.324,281.998 46.750 C 282.078 46.475,282.293 45.688,282.475 45.000 C 283.138 42.497,283.526 41.065,283.775 40.199 C 284.161 38.855,284.451 39.080,285.020 41.167 M125.636 41.755 C 123.136 42.439,121.174 44.350,120.443 46.813 C 120.170 47.730,120.090 60.996,120.350 62.167 C 120.957 64.899,122.534 66.640,125.287 67.616 C 126.606 68.084,132.261 68.026,133.512 67.532 C 134.446 67.163,136.000 65.823,136.000 65.386 C 136.000 65.265,136.156 65.167,136.348 65.167 C 136.868 65.167,136.774 70.168,136.231 71.333 C 135.288 73.360,134.751 73.500,127.923 73.500 C 121.485 73.500,122.000 73.300,122.000 75.801 C 122.000 78.230,121.398 78.050,129.204 77.959 C 133.877 77.904,135.739 77.826,136.167 77.667 C 136.487 77.548,136.900 77.396,137.083 77.331 C 138.919 76.673,140.505 75.032,141.350 72.917 L 141.750 71.917 141.798 56.942 C 141.835 45.744,141.798 41.908,141.653 41.734 C 141.383 41.408,126.832 41.428,125.636 41.755 M153.471 41.905 C 150.909 42.793,149.312 44.536,148.648 47.167 C 148.309 48.511,148.313 62.383,148.653 63.583 C 149.460 66.433,150.861 67.903,153.833 69.020 C 154.746 69.363,169.199 69.446,169.478 69.110 C 169.614 68.946,169.663 68.289,169.631 67.064 C 169.567 64.645,170.198 64.840,162.417 64.831 C 155.077 64.823,155.055 64.819,154.083 63.251 C 153.592 62.458,153.583 62.405,153.583 60.180 L 153.583 57.917 161.528 57.833 C 165.897 57.788,169.506 57.712,169.547 57.667 C 170.273 56.854,170.139 48.833,169.358 46.361 C 168.691 44.253,166.962 42.641,164.514 41.847 C 162.826 41.299,155.102 41.340,153.471 41.905 M176.253 42.375 C 176.010 44.416,176.236 69.004,176.500 69.170 C 176.896 69.421,180.923 69.377,181.137 69.120 C 181.256 68.976,181.331 65.679,181.367 58.995 C 181.427 47.961,181.390 48.316,182.603 47.103 C 184.404 45.302,190.527 45.414,191.946 47.274 C 192.764 48.347,192.821 49.129,192.827 59.425 C 192.832 66.592,192.883 68.983,193.033 69.133 C 193.365 69.465,197.404 69.405,197.746 69.063 C 198.141 68.668,198.043 48.220,197.640 46.917 C 196.782 44.142,195.492 42.749,193.001 41.906 C 191.642 41.446,185.869 41.291,184.883 41.687 C 183.356 42.301,182.826 42.670,182.229 43.530 C 181.567 44.486,181.333 44.373,181.333 43.097 C 181.333 41.410,181.479 41.500,178.744 41.500 L 176.357 41.500 176.253 42.375 M224.586 42.208 C 224.342 43.911,224.573 69.005,224.833 69.170 C 225.296 69.462,229.449 69.374,229.566 69.070 C 229.698 68.725,229.698 42.108,229.566 41.764 C 229.480 41.540,229.100 41.500,227.076 41.500 L 224.687 41.500 224.586 42.208 M242.500 41.667 C 242.362 41.756,242.114 41.829,241.948 41.831 C 239.804 41.849,237.197 44.990,236.678 48.180 C 236.446 49.608,236.441 61.349,236.672 62.533 C 237.357 66.048,238.863 67.881,242.000 69.017 C 242.829 69.317,253.413 69.446,253.758 69.160 C 254.172 68.817,254.102 65.233,253.678 65.006 C 253.479 64.900,251.684 64.833,249.000 64.833 C 241.572 64.833,241.588 64.855,241.693 54.384 C 241.779 45.840,241.751 45.870,249.611 45.846 C 251.735 45.839,253.591 45.788,253.736 45.732 C 254.008 45.628,254.140 42.393,253.899 41.764 C 253.780 41.453,242.972 41.361,242.500 41.667 M136.296 46.093 L 136.667 46.352 136.667 52.751 C 136.667 62.853,136.383 63.363,130.739 63.399 C 125.547 63.433,125.332 63.085,125.336 54.655 C 125.340 45.847,125.289 45.908,132.588 45.857 C 135.366 45.837,135.988 45.877,136.296 46.093 M162.875 46.331 C 164.276 46.990,164.817 48.484,164.827 51.719 C 164.836 54.418,165.414 54.167,159.194 54.167 C 155.299 54.167,153.847 54.114,153.700 53.967 C 153.310 53.577,153.446 49.074,153.880 48.007 C 154.346 46.861,155.287 46.145,156.551 45.974 C 158.395 45.725,162.022 45.930,162.875 46.331 " stroke="none" fill="#f8f8f8" fill-rule="evenodd"></path><path id="path1" d="M0.000 53.583 L 0.000 107.167 200.000 107.167 L 400.000 107.167 400.000 53.583 L 400.000 0.000 200.000 0.000 L 0.000 0.000 0.000 53.583 M18.459 53.792 L 18.417 106.083 9.541 106.126 L 0.665 106.170 0.707 91.960 L 0.750 77.750 3.792 77.705 L 6.833 77.659 6.833 60.496 L 6.833 43.333 3.750 43.333 L 0.667 43.333 0.667 22.417 L 0.667 1.500 9.584 1.500 L 18.501 1.500 18.459 53.792 M399.125 41.414 L 399.167 81.244 398.635 81.997 C 398.342 82.411,397.720 83.200,397.253 83.750 C 396.447 84.698,396.035 85.214,394.947 86.636 C 394.688 86.974,394.257 87.492,393.988 87.787 C 393.720 88.083,393.500 88.374,393.500 88.435 C 393.500 88.496,393.219 88.871,392.875 89.267 C 391.819 90.486,391.261 91.175,391.000 91.583 C 390.739 91.992,390.181 92.681,389.125 93.900 C 388.781 94.296,388.500 94.672,388.500 94.735 C 388.500 94.797,388.331 95.022,388.125 95.235 C 387.919 95.447,387.412 96.049,387.000 96.571 C 386.587 97.094,386.002 97.811,385.700 98.165 C 385.397 98.519,384.985 99.034,384.783 99.310 C 384.582 99.585,384.079 100.235,383.667 100.754 C 382.713 101.952,382.093 102.743,381.228 103.860 C 380.849 104.350,380.242 105.069,379.879 105.458 L 379.218 106.167 201.362 106.167 L 23.506 106.167 23.430 105.792 C 23.389 105.585,23.312 88.954,23.260 68.833 C 23.208 48.712,23.116 25.331,23.056 16.875 L 22.945 1.500 211.014 1.542 L 399.083 1.583 399.125 41.414 M27.243 23.542 C 27.315 33.373,27.422 54.954,27.479 71.500 C 27.536 88.046,27.644 101.677,27.718 101.792 C 27.826 101.958,62.971 102.000,202.527 102.000 L 377.200 102.000 377.725 101.436 C 378.014 101.126,378.550 100.481,378.917 100.004 C 379.283 99.526,379.846 98.815,380.167 98.423 C 380.488 98.031,381.050 97.320,381.417 96.842 C 381.783 96.365,382.284 95.736,382.529 95.445 C 383.631 94.139,384.467 93.118,385.083 92.326 C 385.450 91.855,386.012 91.149,386.333 90.757 C 386.654 90.365,387.217 89.649,387.583 89.167 C 387.950 88.684,388.512 87.970,388.833 87.579 C 389.154 87.188,389.754 86.440,390.167 85.915 C 390.579 85.391,391.123 84.770,391.375 84.537 C 391.627 84.303,391.833 84.046,391.833 83.967 C 391.833 83.853,393.792 81.360,394.164 81.000 C 394.211 80.954,394.419 80.676,394.625 80.382 L 395.000 79.847 395.000 42.757 L 395.000 5.667 211.056 5.667 L 27.112 5.667 27.243 23.542 M229.591 30.909 C 230.309 31.627,230.180 37.041,229.433 37.539 C 228.968 37.850,225.012 37.679,224.667 37.333 C 224.321 36.988,224.142 31.540,224.461 31.069 C 224.957 30.336,228.895 30.214,229.591 30.909 M105.432 34.129 C 105.781 34.418,105.972 34.844,106.309 36.083 C 106.408 36.450,106.671 37.387,106.893 38.167 C 107.114 38.946,107.346 39.771,107.409 40.000 C 107.471 40.229,107.592 40.660,107.678 40.958 C 107.763 41.256,107.908 41.762,108.000 42.083 C 108.092 42.404,108.242 42.929,108.333 43.250 C 108.425 43.571,108.570 44.077,108.655 44.375 C 108.740 44.673,109.083 45.854,109.417 47.000 C 109.751 48.146,110.098 49.346,110.188 49.667 C 110.278 49.987,110.427 50.512,110.519 50.833 C 110.610 51.154,110.760 51.679,110.852 52.000 C 110.944 52.321,111.083 52.808,111.162 53.083 C 111.240 53.358,111.422 53.996,111.566 54.500 C 111.796 55.305,112.187 56.690,112.682 58.458 C 112.838 59.016,113.079 59.873,113.327 60.750 C 113.404 61.025,113.775 62.300,114.150 63.583 C 114.525 64.867,114.916 66.217,115.018 66.583 C 115.121 66.950,115.277 67.447,115.364 67.687 C 115.451 67.927,115.499 68.415,115.470 68.770 L 115.417 69.417 112.805 69.462 L 110.194 69.508 109.847 68.581 C 109.656 68.071,109.500 67.569,109.500 67.464 C 109.500 67.280,109.250 66.431,108.996 65.750 C 108.927 65.567,108.779 65.079,108.666 64.667 C 108.554 64.254,108.402 63.729,108.329 63.500 C 108.255 63.271,108.098 62.727,107.978 62.292 L 107.761 61.500 101.717 61.500 L 95.673 61.500 95.573 61.958 C 95.518 62.210,95.408 62.604,95.329 62.833 C 95.250 63.063,95.023 63.850,94.824 64.583 C 94.626 65.317,94.370 66.217,94.256 66.583 C 94.142 66.950,93.947 67.587,93.824 68.000 C 93.363 69.547,93.464 69.500,90.584 69.500 C 87.333 69.500,87.505 69.918,88.838 65.250 C 88.917 64.975,89.065 64.450,89.167 64.083 C 89.269 63.717,89.418 63.192,89.498 62.917 C 90.374 59.908,91.224 56.972,91.356 56.500 C 91.445 56.179,91.590 55.673,91.676 55.375 C 91.763 55.077,91.913 54.552,92.009 54.208 C 92.106 53.865,92.251 53.358,92.331 53.083 C 92.412 52.808,92.529 52.396,92.591 52.167 C 92.688 51.811,93.114 50.297,93.647 48.417 C 93.725 48.142,93.882 47.579,93.996 47.167 C 94.111 46.754,94.263 46.267,94.333 46.083 C 94.404 45.900,94.546 45.450,94.648 45.083 C 94.751 44.717,95.066 43.592,95.349 42.583 C 95.633 41.575,95.936 40.487,96.025 40.167 C 96.220 39.456,96.469 38.586,96.667 37.917 C 96.857 37.272,97.150 36.220,97.317 35.579 C 97.757 33.887,97.868 33.844,101.750 33.842 C 104.664 33.841,105.127 33.877,105.432 34.129 M287.932 34.129 C 288.287 34.422,288.468 34.832,288.833 36.167 C 288.946 36.579,289.103 37.104,289.182 37.333 C 289.261 37.563,289.633 38.837,290.009 40.167 C 290.929 43.417,290.975 43.579,291.167 44.250 C 291.258 44.571,291.408 45.096,291.500 45.417 C 291.592 45.737,291.735 46.244,291.818 46.542 C 292.753 49.890,293.015 50.823,293.141 51.250 C 293.222 51.525,293.382 52.087,293.497 52.500 C 293.611 52.913,293.770 53.438,293.848 53.667 C 293.969 54.017,294.995 57.582,295.516 59.458 C 295.757 60.325,296.007 61.208,296.176 61.792 C 296.263 62.090,296.402 62.577,296.487 62.875 C 296.571 63.173,296.939 64.467,297.305 65.750 C 297.941 67.981,298.060 68.558,298.018 69.208 C 298.002 69.473,297.759 69.500,295.426 69.500 C 292.661 69.500,292.333 69.390,292.333 68.461 C 292.333 68.296,292.266 68.032,292.183 67.873 C 292.100 67.714,291.941 67.246,291.830 66.833 C 291.719 66.421,291.570 65.896,291.498 65.667 C 291.367 65.247,290.862 63.523,290.483 62.206 L 290.279 61.496 284.265 61.540 L 278.250 61.583 278.028 62.333 C 277.296 64.803,277.146 65.314,276.980 65.917 C 276.878 66.283,276.736 66.733,276.664 66.917 C 276.592 67.100,276.408 67.677,276.254 68.198 C 275.863 69.529,275.895 69.516,273.061 69.463 L 270.583 69.417 270.533 68.895 C 270.490 68.462,271.289 65.215,271.819 63.667 C 271.897 63.438,272.054 62.913,272.167 62.500 C 272.280 62.087,272.430 61.563,272.500 61.333 C 272.570 61.104,272.710 60.617,272.811 60.250 C 272.978 59.643,273.630 57.319,273.980 56.083 C 274.058 55.808,274.215 55.246,274.330 54.833 C 274.444 54.421,274.599 53.933,274.673 53.750 C 274.747 53.567,274.845 53.229,274.890 53.000 C 274.935 52.771,275.322 51.383,275.749 49.917 C 276.176 48.450,276.599 46.987,276.689 46.667 C 276.779 46.346,276.919 45.858,277.000 45.583 C 277.203 44.897,277.450 44.029,277.641 43.333 C 277.729 43.012,278.152 41.550,278.579 40.083 C 279.646 36.428,279.628 36.489,279.804 35.833 C 280.340 33.834,280.344 33.833,284.329 33.837 C 287.163 33.840,287.628 33.878,287.932 34.129 M308.988 34.272 C 309.417 34.818,309.542 68.162,309.118 69.000 C 308.890 69.450,304.614 69.734,304.000 69.339 C 303.546 69.048,303.543 34.623,303.998 34.169 C 304.582 33.585,308.511 33.666,308.988 34.272 M211.435 35.125 C 211.598 35.340,211.657 36.148,211.661 38.191 C 211.668 41.489,211.324 41.167,214.833 41.167 C 218.411 41.167,218.500 41.228,218.500 43.669 C 218.500 46.083,218.388 46.155,214.619 46.161 L 211.655 46.167 211.702 54.208 L 211.750 62.250 212.192 63.002 C 212.926 64.250,213.651 64.543,216.277 64.656 C 218.994 64.772,218.901 64.693,218.974 66.930 C 219.060 69.579,219.158 69.500,215.760 69.500 C 210.209 69.500,208.299 68.371,206.317 63.917 C 206.144 63.530,206.074 61.476,206.005 54.833 L 205.917 46.250 204.150 46.167 C 201.796 46.056,201.832 46.093,201.839 43.771 C 201.846 41.264,201.837 41.274,204.132 41.167 L 205.917 41.083 206.000 38.167 C 206.046 36.563,206.144 35.156,206.218 35.042 C 206.453 34.678,211.153 34.753,211.435 35.125 M101.597 39.864 C 101.560 39.985,101.480 40.271,101.420 40.500 C 101.360 40.729,101.241 41.160,101.155 41.458 C 101.070 41.756,100.921 42.281,100.824 42.625 C 100.727 42.969,100.584 43.475,100.506 43.750 C 100.427 44.025,100.210 44.813,100.024 45.500 C 99.480 47.503,99.149 48.711,98.986 49.292 C 98.614 50.613,98.470 51.121,98.313 51.667 C 98.220 51.987,98.082 52.512,98.005 52.833 C 97.929 53.154,97.675 54.124,97.442 54.989 C 97.209 55.854,97.056 56.623,97.102 56.698 C 97.198 56.852,106.391 56.887,106.544 56.733 C 106.599 56.678,106.582 56.472,106.506 56.275 C 106.430 56.078,106.275 55.579,106.161 55.167 C 106.048 54.754,105.889 54.192,105.808 53.917 C 105.727 53.642,105.399 52.442,105.079 51.250 C 104.434 48.846,104.188 47.953,104.004 47.333 C 103.804 46.663,103.482 45.536,102.646 42.583 C 102.361 41.575,102.090 40.543,102.044 40.290 C 101.951 39.772,101.699 39.532,101.597 39.864 M284.102 39.875 C 284.072 39.990,283.972 40.346,283.879 40.667 C 283.500 41.986,283.315 42.660,282.917 44.167 C 282.441 45.966,282.185 46.898,282.000 47.500 C 281.930 47.729,281.794 48.217,281.700 48.583 C 281.384 49.807,281.129 50.746,281.000 51.167 C 280.583 52.524,279.698 55.881,279.638 56.333 L 279.583 56.750 284.394 56.794 C 288.934 56.836,289.198 56.822,289.087 56.544 C 289.023 56.382,288.817 55.688,288.631 55.000 C 288.112 53.087,287.487 50.806,287.328 50.250 C 287.250 49.975,287.102 49.450,287.000 49.083 C 286.898 48.717,286.750 48.192,286.672 47.917 C 286.485 47.259,285.894 45.122,285.381 43.250 C 285.155 42.425,284.896 41.487,284.805 41.167 C 284.714 40.846,284.599 40.377,284.551 40.125 C 284.459 39.652,284.198 39.507,284.102 39.875 M141.630 41.426 L 142.000 41.686 142.000 56.413 C 142.000 69.428,141.969 71.262,141.731 72.195 C 141.011 75.015,139.381 76.724,136.333 77.854 C 135.902 78.014,134.014 78.086,129.085 78.129 L 122.420 78.188 122.127 77.825 C 121.794 77.414,121.695 74.403,121.996 73.840 C 122.317 73.242,123.052 73.167,128.603 73.167 C 136.172 73.167,136.333 73.060,136.333 68.067 L 136.333 65.464 135.599 66.281 C 135.188 66.737,134.436 67.314,133.891 67.590 L 132.917 68.083 129.417 68.083 C 125.311 68.083,124.413 67.869,122.618 66.458 C 120.218 64.571,119.917 63.265,119.917 54.750 C 119.917 46.421,119.989 46.033,121.992 43.613 C 122.361 43.167,124.102 42.000,124.398 42.000 C 124.535 42.000,124.688 41.934,124.738 41.853 C 124.832 41.700,125.323 41.577,126.750 41.347 C 128.469 41.071,141.219 41.139,141.630 41.426 M164.333 41.506 C 167.786 42.758,169.290 44.519,169.995 48.133 C 170.347 49.940,170.216 57.059,169.821 57.561 L 169.476 58.000 161.658 58.000 L 153.840 58.000 153.730 58.436 C 153.507 59.324,153.773 62.228,154.143 62.954 C 154.975 64.584,155.386 64.666,162.733 64.669 C 170.387 64.672,169.735 64.451,169.797 67.064 C 169.828 68.375,169.780 69.114,169.652 69.268 C 169.356 69.624,155.427 69.607,154.050 69.249 C 151.007 68.457,149.289 66.667,148.404 63.367 C 148.069 62.118,148.070 48.706,148.405 47.304 C 149.195 43.997,151.520 41.863,154.917 41.326 C 156.241 41.116,163.650 41.258,164.333 41.506 M181.258 41.576 C 181.602 41.920,181.669 42.151,181.678 43.034 C 181.685 43.611,181.741 43.966,181.803 43.822 C 182.618 41.944,184.499 41.249,188.750 41.254 C 194.393 41.261,196.902 42.902,197.909 47.241 C 198.265 48.779,198.289 68.742,197.935 69.208 C 197.555 69.708,193.117 69.641,192.759 69.130 C 192.532 68.804,192.500 67.546,192.500 58.817 C 192.500 48.171,192.514 48.365,191.657 47.275 C 190.953 46.381,190.104 46.166,187.278 46.169 C 183.824 46.173,182.898 46.543,182.093 48.244 L 181.667 49.146 181.667 58.953 C 181.667 67.559,181.635 68.805,181.407 69.130 C 181.049 69.641,176.611 69.708,176.232 69.208 C 175.808 68.650,175.906 41.927,176.333 41.500 C 176.891 40.943,180.683 41.001,181.258 41.576 M229.591 41.576 L 230.000 41.985 230.000 55.318 C 230.000 65.081,229.948 68.765,229.807 69.075 L 229.613 69.500 227.200 69.500 C 225.097 69.500,224.758 69.462,224.565 69.208 C 224.142 68.650,224.239 41.927,224.667 41.500 C 225.224 40.943,229.016 41.001,229.591 41.576 M254.071 41.583 C 254.258 41.831,254.324 42.374,254.328 43.696 C 254.336 46.306,254.642 46.167,248.904 46.167 C 246.050 46.167,244.315 46.229,244.250 46.333 C 244.193 46.425,244.010 46.500,243.843 46.500 C 243.508 46.500,242.421 47.615,242.276 48.107 C 241.940 49.250,241.833 50.985,241.833 55.290 C 241.833 64.645,241.849 64.664,249.369 64.666 C 254.646 64.667,254.333 64.511,254.333 67.143 C 254.333 69.708,254.849 69.500,248.482 69.500 C 240.366 69.500,238.072 68.421,236.734 63.973 C 236.285 62.479,236.246 48.275,236.687 46.917 C 237.472 44.503,239.615 42.000,240.898 42.000 C 241.035 42.000,241.185 41.938,241.232 41.862 C 241.319 41.722,242.664 41.384,243.583 41.271 C 245.619 41.021,253.831 41.265,254.071 41.583 M127.395 46.496 C 125.661 47.268,125.500 47.964,125.500 54.667 C 125.500 62.866,125.686 63.167,130.759 63.167 C 133.716 63.167,134.759 62.870,135.527 61.811 C 136.309 60.731,136.333 60.473,136.333 53.113 L 136.333 46.167 132.208 46.178 C 128.583 46.189,128.000 46.227,127.395 46.496 M155.917 46.333 C 155.860 46.425,155.683 46.500,155.523 46.500 C 155.156 46.500,154.282 47.424,154.022 48.087 C 153.891 48.420,153.840 49.492,153.871 51.254 L 153.917 53.917 159.167 53.917 L 164.417 53.917 164.414 51.167 C 164.410 46.593,163.965 46.179,159.052 46.171 C 157.205 46.169,155.979 46.232,155.917 46.333 " stroke="none" fill="#0c0c0c" fill-rule="evenodd"></path><path id="path2" d="M0.667 22.417 L 0.667 43.333 3.750 43.333 L 6.833 43.333 6.833 60.496 L 6.833 77.659 3.792 77.705 L 0.750 77.750 0.707 91.960 L 0.665 106.170 9.541 106.126 L 18.417 106.083 18.459 53.792 L 18.501 1.500 9.584 1.500 L 0.667 1.500 0.667 22.417 M23.056 16.875 C 23.116 25.331,23.208 48.712,23.260 68.833 C 23.312 88.954,23.389 105.585,23.430 105.792 L 23.506 106.167 201.362 106.167 L 379.218 106.167 379.879 105.458 C 380.242 105.069,380.849 104.350,381.228 103.860 C 382.093 102.743,382.713 101.952,383.667 100.754 C 384.079 100.235,384.582 99.585,384.783 99.310 C 384.985 99.034,385.397 98.519,385.700 98.165 C 386.002 97.811,386.587 97.094,387.000 96.571 C 387.412 96.049,387.919 95.447,388.125 95.235 C 388.331 95.022,388.500 94.797,388.500 94.735 C 388.500 94.672,388.781 94.296,389.125 93.900 C 390.181 92.681,390.739 91.992,391.000 91.583 C 391.261 91.175,391.819 90.486,392.875 89.267 C 393.219 88.871,393.500 88.496,393.500 88.435 C 393.500 88.374,393.720 88.083,393.988 87.787 C 394.257 87.492,394.688 86.974,394.947 86.636 C 396.035 85.214,396.447 84.698,397.253 83.750 C 397.720 83.200,398.342 82.411,398.635 81.997 L 399.167 81.244 399.125 41.414 L 399.083 1.583 211.014 1.542 L 22.945 1.500 23.056 16.875 M18.333 53.835 L 18.333 106.003 9.625 105.960 L 0.917 105.917 0.874 91.958 L 0.831 78.000 3.735 78.000 C 5.333 78.000,6.758 77.954,6.903 77.899 C 7.307 77.744,7.307 43.423,6.903 43.268 C 6.758 43.212,5.333 43.167,3.736 43.167 L 0.833 43.167 0.833 22.417 L 0.833 1.667 9.583 1.667 L 18.333 1.667 18.333 53.835 M398.833 41.565 L 398.833 81.464 397.875 82.665 C 397.348 83.325,396.467 84.413,395.917 85.081 C 394.849 86.379,394.270 87.107,391.667 90.426 C 391.254 90.951,390.635 91.698,390.292 92.084 C 389.948 92.471,389.667 92.840,389.667 92.904 C 389.667 93.012,388.850 94.019,387.833 95.164 C 387.604 95.422,387.117 96.026,386.750 96.505 C 386.383 96.985,385.821 97.698,385.500 98.090 C 385.179 98.482,384.617 99.187,384.250 99.657 C 383.883 100.126,383.321 100.838,383.000 101.238 C 382.679 101.638,382.079 102.393,381.667 102.917 C 381.254 103.440,380.654 104.188,380.333 104.578 C 380.012 104.968,379.667 105.428,379.565 105.602 C 379.362 105.949,24.132 106.198,23.785 105.852 C 23.700 105.766,23.573 89.233,23.487 66.977 C 23.404 45.677,23.287 22.269,23.226 14.958 L 23.115 1.667 210.974 1.667 L 398.833 1.667 398.833 41.565 M27.056 5.761 C 27.001 5.904,27.042 23.023,27.147 43.802 C 27.252 64.582,27.338 86.046,27.338 91.500 C 27.338 96.954,27.383 101.585,27.438 101.792 L 27.539 102.167 202.505 102.167 L 377.470 102.167 377.860 101.683 C 378.075 101.417,378.587 100.772,379.000 100.249 C 379.412 99.726,380.012 98.971,380.333 98.571 C 380.654 98.171,381.217 97.461,381.583 96.993 C 382.172 96.240,382.725 95.567,385.089 92.722 C 385.407 92.339,385.667 91.961,385.667 91.881 C 385.667 91.800,385.967 91.441,386.333 91.083 C 386.700 90.725,387.000 90.350,387.000 90.249 C 387.000 90.148,387.262 89.811,387.583 89.500 C 387.904 89.189,388.167 88.871,388.167 88.793 C 388.167 88.716,388.439 88.358,388.771 87.999 C 389.104 87.639,389.535 87.126,389.730 86.858 C 390.340 86.016,391.053 85.105,391.578 84.496 C 391.856 84.173,392.308 83.616,392.583 83.257 C 392.858 82.898,393.313 82.337,393.595 82.010 C 393.876 81.684,394.345 81.078,394.637 80.664 L 395.167 79.911 395.125 42.747 L 395.083 5.583 211.120 5.542 C 44.373 5.504,27.147 5.524,27.056 5.761 M395.000 42.757 L 395.000 79.847 394.625 80.382 C 394.419 80.676,394.211 80.954,394.164 81.000 C 393.792 81.360,391.833 83.853,391.833 83.967 C 391.833 84.046,391.627 84.303,391.375 84.537 C 391.123 84.770,390.579 85.391,390.167 85.915 C 389.754 86.440,389.154 87.188,388.833 87.579 C 388.512 87.970,387.950 88.684,387.583 89.167 C 387.217 89.649,386.654 90.365,386.333 90.757 C 386.012 91.149,385.450 91.855,385.083 92.326 C 384.467 93.118,383.631 94.139,382.529 95.445 C 382.284 95.736,381.783 96.365,381.417 96.842 C 381.050 97.320,380.488 98.031,380.167 98.423 C 379.846 98.815,379.283 99.526,378.917 100.004 C 378.550 100.481,378.014 101.126,377.725 101.436 L 377.200 102.000 202.527 102.000 C 62.971 102.000,27.826 101.958,27.718 101.792 C 27.644 101.677,27.536 88.046,27.479 71.500 C 27.422 54.954,27.315 33.373,27.243 23.542 L 27.112 5.667 211.056 5.667 L 395.000 5.667 395.000 42.757 M224.917 30.699 C 224.361 31.014,224.339 31.149,224.336 34.125 C 224.333 37.842,224.195 37.668,227.125 37.664 C 230.083 37.661,230.000 37.766,230.000 34.003 C 230.000 30.452,230.036 30.498,227.216 30.505 C 226.067 30.508,225.111 30.589,224.917 30.699 M229.467 31.033 C 229.678 31.244,229.765 36.551,229.566 37.070 C 229.480 37.293,229.101 37.333,227.086 37.333 L 224.708 37.333 224.604 36.813 C 224.439 35.985,224.483 31.732,224.663 31.261 L 224.825 30.833 227.046 30.833 C 228.551 30.833,229.331 30.898,229.467 31.033 M98.152 34.047 C 97.826 34.298,97.490 34.913,97.317 35.579 C 97.150 36.220,96.857 37.272,96.667 37.917 C 96.469 38.586,96.220 39.456,96.025 40.167 C 95.936 40.487,95.633 41.575,95.349 42.583 C 95.066 43.592,94.751 44.717,94.648 45.083 C 94.546 45.450,94.404 45.900,94.333 46.083 C 94.263 46.267,94.111 46.754,93.996 47.167 C 93.882 47.579,93.725 48.142,93.647 48.417 C 93.114 50.297,92.688 51.811,92.591 52.167 C 92.529 52.396,92.412 52.808,92.331 53.083 C 92.251 53.358,92.106 53.865,92.009 54.208 C 91.913 54.552,91.763 55.077,91.676 55.375 C 91.590 55.673,91.445 56.179,91.356 56.500 C 91.224 56.972,90.374 59.908,89.498 62.917 C 89.418 63.192,89.269 63.717,89.167 64.083 C 89.065 64.450,88.917 64.975,88.838 65.250 C 87.505 69.918,87.333 69.500,90.584 69.500 C 93.464 69.500,93.363 69.547,93.824 68.000 C 93.947 67.587,94.142 66.950,94.256 66.583 C 94.370 66.217,94.626 65.317,94.824 64.583 C 95.023 63.850,95.250 63.063,95.329 62.833 C 95.408 62.604,95.518 62.210,95.573 61.958 L 95.673 61.500 101.717 61.500 L 107.761 61.500 107.978 62.292 C 108.098 62.727,108.255 63.271,108.329 63.500 C 108.402 63.729,108.554 64.254,108.666 64.667 C 108.779 65.079,108.927 65.567,108.996 65.750 C 109.250 66.431,109.500 67.280,109.500 67.464 C 109.500 67.569,109.656 68.071,109.847 68.581 L 110.194 69.508 112.805 69.462 L 115.417 69.417 115.470 68.770 C 115.499 68.415,115.451 67.927,115.364 67.687 C 115.277 67.447,115.121 66.950,115.018 66.583 C 114.916 66.217,114.525 64.867,114.150 63.583 C 113.775 62.300,113.404 61.025,113.327 60.750 C 113.079 59.873,112.838 59.016,112.682 58.458 C 112.187 56.690,111.796 55.305,111.566 54.500 C 111.422 53.996,111.240 53.358,111.162 53.083 C 111.083 52.808,110.944 52.321,110.852 52.000 C 110.760 51.679,110.610 51.154,110.519 50.833 C 110.427 50.512,110.278 49.987,110.188 49.667 C 110.098 49.346,109.751 48.146,109.417 47.000 C 109.083 45.854,108.740 44.673,108.655 44.375 C 108.570 44.077,108.425 43.571,108.333 43.250 C 108.242 42.929,108.092 42.404,108.000 42.083 C 107.908 41.762,107.763 41.256,107.678 40.958 C 107.592 40.660,107.471 40.229,107.409 40.000 C 107.346 39.771,107.114 38.946,106.893 38.167 C 106.671 37.387,106.408 36.450,106.309 36.083 C 105.680 33.766,105.831 33.840,101.750 33.842 C 99.388 33.843,98.340 33.903,98.152 34.047 M280.693 34.100 C 280.302 34.374,280.079 34.810,279.804 35.833 C 279.628 36.489,279.646 36.428,278.579 40.083 C 278.152 41.550,277.729 43.012,277.641 43.333 C 277.450 44.029,277.203 44.897,277.000 45.583 C 276.919 45.858,276.779 46.346,276.689 46.667 C 276.599 46.987,276.176 48.450,275.749 49.917 C 275.322 51.383,274.935 52.771,274.890 53.000 C 274.845 53.229,274.747 53.567,274.673 53.750 C 274.599 53.933,274.444 54.421,274.330 54.833 C 274.215 55.246,274.058 55.808,273.980 56.083 C 273.630 57.319,272.978 59.643,272.811 60.250 C 272.710 60.617,272.570 61.104,272.500 61.333 C 272.430 61.563,272.280 62.087,272.167 62.500 C 272.054 62.913,271.897 63.438,271.819 63.667 C 271.289 65.215,270.490 68.462,270.533 68.895 L 270.583 69.417 273.061 69.463 C 275.895 69.516,275.863 69.529,276.254 68.198 C 276.408 67.677,276.592 67.100,276.664 66.917 C 276.736 66.733,276.878 66.283,276.980 65.917 C 277.146 65.314,277.296 64.803,278.028 62.333 L 278.250 61.583 284.265 61.540 L 290.279 61.496 290.483 62.206 C 290.862 63.523,291.367 65.247,291.498 65.667 C 291.570 65.896,291.719 66.421,291.830 66.833 C 291.941 67.246,292.100 67.714,292.183 67.873 C 292.266 68.032,292.333 68.296,292.333 68.461 C 292.333 69.390,292.661 69.500,295.426 69.500 C 297.759 69.500,298.002 69.473,298.018 69.208 C 298.060 68.558,297.941 67.981,297.305 65.750 C 296.939 64.467,296.571 63.173,296.487 62.875 C 296.402 62.577,296.263 62.090,296.176 61.792 C 296.007 61.208,295.757 60.325,295.516 59.458 C 294.995 57.582,293.969 54.017,293.848 53.667 C 293.770 53.438,293.611 52.913,293.497 52.500 C 293.382 52.087,293.222 51.525,293.141 51.250 C 293.015 50.823,292.753 49.890,291.818 46.542 C 291.735 46.244,291.592 45.737,291.500 45.417 C 291.408 45.096,291.258 44.571,291.167 44.250 C 290.975 43.579,290.929 43.417,290.009 40.167 C 289.633 38.837,289.261 37.563,289.182 37.333 C 289.103 37.104,288.946 36.579,288.833 36.167 C 288.174 33.757,288.338 33.842,284.329 33.837 C 281.610 33.834,281.011 33.877,280.693 34.100 M303.998 34.169 C 303.543 34.623,303.546 69.048,304.000 69.339 C 304.614 69.734,308.890 69.450,309.118 69.000 C 309.542 68.162,309.417 34.818,308.988 34.272 C 308.511 33.666,304.582 33.585,303.998 34.169 M105.285 34.295 C 105.610 34.550,105.818 35.092,106.256 36.833 C 106.314 37.063,106.423 37.400,106.499 37.583 C 106.575 37.767,106.951 39.042,107.334 40.417 C 107.718 41.792,108.099 43.160,108.182 43.458 C 108.448 44.412,108.681 45.235,108.843 45.792 C 109.057 46.531,109.303 47.393,109.485 48.042 C 109.568 48.340,109.911 49.521,110.247 50.667 C 110.582 51.813,110.927 52.994,111.012 53.292 C 111.097 53.590,111.242 54.096,111.333 54.417 C 111.425 54.737,111.568 55.244,111.652 55.542 C 112.147 57.310,112.537 58.695,112.767 59.500 C 112.911 60.004,113.097 60.660,113.181 60.958 C 113.265 61.256,113.404 61.744,113.491 62.042 C 113.577 62.340,113.727 62.865,113.824 63.208 C 114.079 64.114,114.246 64.700,114.829 66.733 C 115.593 69.397,115.708 69.242,112.917 69.292 C 110.046 69.343,110.353 69.596,109.428 66.417 C 109.001 64.950,108.587 63.563,108.507 63.333 C 108.428 63.104,108.264 62.560,108.145 62.125 L 107.927 61.333 101.740 61.333 L 95.553 61.333 95.349 62.042 C 94.973 63.353,94.466 65.080,94.335 65.500 C 94.264 65.729,94.111 66.254,93.995 66.667 C 93.592 68.105,93.311 68.910,93.135 69.121 C 92.888 69.419,88.448 69.422,88.201 69.124 C 88.002 68.884,88.050 68.686,89.587 63.417 C 90.015 61.950,90.437 60.487,90.525 60.167 C 90.613 59.846,90.756 59.340,90.843 59.042 C 90.929 58.744,91.079 58.219,91.176 57.875 C 91.273 57.531,91.427 56.987,91.519 56.667 C 91.824 55.600,91.964 55.102,92.666 52.583 C 93.049 51.208,93.421 49.933,93.492 49.750 C 93.619 49.419,93.785 48.865,94.139 47.583 C 94.377 46.721,95.125 44.061,95.311 43.417 C 95.390 43.142,95.549 42.579,95.663 42.167 C 95.778 41.754,95.930 41.229,96.000 41.000 C 96.070 40.771,96.211 40.283,96.312 39.917 C 96.413 39.550,96.634 38.800,96.804 38.250 C 96.974 37.700,97.253 36.701,97.425 36.029 C 97.946 33.995,97.936 33.999,101.731 34.004 C 104.492 34.007,104.966 34.046,105.285 34.295 M287.778 34.295 C 288.100 34.552,288.351 35.177,288.849 36.958 C 288.932 37.256,289.071 37.744,289.157 38.042 C 289.424 38.961,289.641 39.725,289.808 40.333 C 290.224 41.854,291.358 45.796,291.485 46.167 C 291.564 46.396,291.722 46.921,291.837 47.333 C 291.951 47.746,292.109 48.308,292.188 48.583 C 292.348 49.144,293.400 52.888,293.686 53.917 C 293.788 54.283,293.930 54.771,294.000 55.000 C 294.070 55.229,294.220 55.754,294.333 56.167 C 294.446 56.579,294.603 57.104,294.682 57.333 C 294.761 57.563,295.133 58.837,295.509 60.167 C 296.429 63.417,296.475 63.579,296.667 64.250 C 296.758 64.571,296.913 65.115,297.009 65.458 C 297.106 65.802,297.262 66.346,297.355 66.667 C 298.147 69.392,298.191 69.333,295.359 69.333 C 292.541 69.333,292.827 69.661,291.493 64.917 C 291.415 64.642,291.277 64.154,291.185 63.833 C 291.094 63.512,290.945 62.987,290.854 62.667 C 290.763 62.346,290.638 61.915,290.575 61.708 L 290.461 61.333 284.250 61.333 L 278.039 61.333 277.948 61.708 C 277.898 61.915,277.781 62.346,277.688 62.667 C 277.527 63.222,277.354 63.832,277.015 65.042 C 275.714 69.678,276.024 69.333,273.158 69.333 C 271.267 69.333,270.805 69.287,270.730 69.091 C 270.612 68.784,270.890 67.606,271.833 64.417 C 271.915 64.142,272.053 63.654,272.141 63.333 C 272.229 63.012,272.652 61.550,273.079 60.083 C 273.869 57.376,274.047 56.761,274.318 55.792 C 274.813 54.023,275.204 52.638,275.434 51.833 C 275.578 51.329,275.768 50.654,275.857 50.333 C 275.946 50.012,276.090 49.506,276.176 49.208 C 276.263 48.910,276.404 48.423,276.491 48.125 C 276.577 47.827,276.721 47.321,276.811 47.000 C 277.511 44.491,278.366 41.511,278.485 41.167 C 278.564 40.938,278.720 40.412,278.833 40.000 C 278.946 39.587,279.096 39.063,279.167 38.833 C 279.237 38.604,279.377 38.117,279.478 37.750 C 280.320 34.693,280.402 34.491,280.917 34.199 C 281.511 33.862,287.337 33.944,287.778 34.295 M308.738 34.262 C 309.059 34.583,309.146 68.416,308.827 69.011 C 308.636 69.369,304.695 69.504,304.167 69.170 C 303.806 68.942,303.785 34.709,304.145 34.276 C 304.474 33.879,308.344 33.868,308.738 34.262 M206.218 35.042 C 206.144 35.156,206.046 36.563,206.000 38.167 L 205.917 41.083 204.132 41.167 C 201.837 41.274,201.846 41.264,201.839 43.771 C 201.832 46.093,201.796 46.056,204.150 46.167 L 205.917 46.250 206.005 54.833 C 206.074 61.476,206.144 63.530,206.317 63.917 C 207.203 65.908,207.594 66.541,208.422 67.324 C 209.364 68.214,211.268 69.238,211.786 69.133 C 211.960 69.098,211.706 68.948,211.177 68.772 C 209.520 68.224,207.988 66.928,207.211 65.417 C 206.357 63.754,206.337 63.514,206.335 54.708 C 206.333 44.925,206.572 45.833,203.995 45.833 C 202.005 45.833,202.083 45.922,202.083 43.667 C 202.083 41.415,202.010 41.500,203.963 41.500 C 206.344 41.500,206.232 41.662,206.333 38.055 L 206.417 35.083 208.728 35.037 C 211.676 34.978,211.488 34.754,211.495 38.315 C 211.501 41.756,211.204 41.488,215.024 41.495 C 218.447 41.501,218.167 41.312,218.167 43.608 C 218.167 45.961,218.349 45.833,214.983 45.833 C 211.036 45.833,211.500 44.735,211.500 54.075 C 211.500 64.600,211.606 64.833,216.404 64.833 C 218.750 64.833,218.667 64.746,218.667 67.197 L 218.667 69.160 218.238 69.268 C 218.003 69.327,216.528 69.342,214.962 69.301 C 213.396 69.261,212.257 69.283,212.432 69.352 C 212.607 69.420,214.042 69.482,215.621 69.488 L 218.492 69.500 218.761 69.089 C 219.101 68.571,219.053 65.318,218.700 64.966 C 218.556 64.822,217.753 64.719,216.277 64.656 C 213.651 64.543,212.926 64.250,212.192 63.002 L 211.750 62.250 211.702 54.208 L 211.655 46.167 214.619 46.161 C 218.388 46.155,218.500 46.083,218.500 43.669 C 218.500 41.228,218.411 41.167,214.833 41.167 C 211.324 41.167,211.668 41.489,211.661 38.191 C 211.657 36.148,211.598 35.340,211.435 35.125 C 211.153 34.753,206.453 34.678,206.218 35.042 M101.431 39.542 C 101.086 40.773,100.919 41.382,100.418 43.250 C 100.098 44.442,99.770 45.642,99.690 45.917 C 99.515 46.521,99.201 47.677,98.967 48.583 C 98.872 48.950,98.737 49.438,98.667 49.667 C 98.493 50.231,98.273 51.030,97.588 53.583 C 97.268 54.775,96.929 55.980,96.836 56.262 C 96.743 56.543,96.667 56.825,96.667 56.887 C 96.667 57.079,106.634 57.021,106.753 56.828 C 106.811 56.734,106.703 56.153,106.511 55.537 C 106.173 54.447,105.988 53.789,105.634 52.417 C 105.539 52.050,105.404 51.563,105.333 51.333 C 105.263 51.104,105.112 50.579,104.999 50.167 C 104.885 49.754,104.698 49.079,104.583 48.667 C 104.468 48.254,104.281 47.579,104.168 47.167 C 104.054 46.754,103.906 46.229,103.837 46.000 C 103.670 45.439,103.418 44.559,103.193 43.750 C 103.090 43.383,102.860 42.558,102.682 41.917 C 102.503 41.275,102.273 40.431,102.172 40.042 C 101.994 39.360,101.564 39.069,101.431 39.542 M283.775 40.199 C 283.526 41.065,283.138 42.497,282.475 45.000 C 282.293 45.688,282.078 46.475,281.998 46.750 C 281.830 47.324,281.690 47.831,281.119 49.917 C 280.893 50.742,280.542 52.017,280.339 52.750 C 279.943 54.180,279.828 54.598,279.456 55.956 C 279.144 57.094,278.703 57.000,284.361 57.000 C 289.856 57.000,289.608 57.053,289.184 55.966 C 289.102 55.756,288.943 55.246,288.831 54.833 C 288.720 54.421,288.570 53.896,288.500 53.667 C 288.325 53.099,288.123 52.370,287.250 49.167 C 286.377 45.963,286.175 45.235,286.000 44.667 C 285.833 44.122,285.603 43.300,285.020 41.167 C 284.451 39.080,284.161 38.855,283.775 40.199 M102.044 40.290 C 102.090 40.543,102.361 41.575,102.646 42.583 C 103.482 45.536,103.804 46.663,104.004 47.333 C 104.188 47.953,104.434 48.846,105.079 51.250 C 105.399 52.442,105.727 53.642,105.808 53.917 C 105.889 54.192,106.048 54.754,106.161 55.167 C 106.275 55.579,106.430 56.078,106.506 56.275 C 106.582 56.472,106.599 56.678,106.544 56.733 C 106.391 56.887,97.198 56.852,97.102 56.698 C 97.056 56.623,97.209 55.854,97.442 54.989 C 97.675 54.124,97.929 53.154,98.005 52.833 C 98.082 52.512,98.220 51.987,98.313 51.667 C 98.470 51.121,98.614 50.613,98.986 49.292 C 99.149 48.711,99.480 47.503,100.024 45.500 C 100.210 44.813,100.427 44.025,100.506 43.750 C 100.584 43.475,100.727 42.969,100.824 42.625 C 100.921 42.281,101.070 41.756,101.155 41.458 C 101.241 41.160,101.360 40.729,101.420 40.500 C 101.624 39.723,101.664 39.645,101.813 39.737 C 101.895 39.788,101.999 40.036,102.044 40.290 M284.551 40.125 C 284.599 40.377,284.714 40.846,284.805 41.167 C 284.896 41.487,285.155 42.425,285.381 43.250 C 285.894 45.122,286.485 47.259,286.672 47.917 C 286.750 48.192,286.898 48.717,287.000 49.083 C 287.102 49.450,287.250 49.975,287.328 50.250 C 287.487 50.806,288.112 53.087,288.631 55.000 C 288.817 55.688,289.023 56.382,289.087 56.544 C 289.198 56.822,288.934 56.836,284.394 56.794 L 279.583 56.750 279.638 56.333 C 279.698 55.881,280.583 52.524,281.000 51.167 C 281.129 50.746,281.384 49.807,281.700 48.583 C 281.794 48.217,281.930 47.729,282.000 47.500 C 282.185 46.898,282.441 45.966,282.917 44.167 C 283.315 42.660,283.500 41.986,283.879 40.667 C 283.972 40.346,284.072 39.990,284.102 39.875 C 284.198 39.507,284.459 39.652,284.551 40.125 M126.750 41.347 C 125.323 41.577,124.832 41.700,124.738 41.853 C 124.688 41.934,124.535 42.000,124.398 42.000 C 124.102 42.000,122.361 43.167,121.992 43.613 C 119.989 46.033,119.917 46.421,119.917 54.750 C 119.917 63.265,120.218 64.571,122.618 66.458 C 124.413 67.869,125.311 68.083,129.417 68.083 L 132.917 68.083 133.891 67.590 C 134.436 67.314,135.188 66.737,135.599 66.281 L 136.333 65.464 136.333 68.067 C 136.333 71.406,136.128 71.975,134.620 72.816 C 134.016 73.152,133.770 73.167,128.603 73.167 C 123.052 73.167,122.317 73.242,121.996 73.840 C 121.695 74.403,121.794 77.414,122.127 77.825 L 122.420 78.188 129.085 78.129 C 136.220 78.066,135.989 78.092,137.957 77.128 C 139.654 76.296,141.691 73.703,141.658 72.417 C 141.653 72.233,141.492 72.496,141.300 73.000 C 140.541 74.994,138.976 76.609,137.125 77.308 C 136.919 77.386,136.487 77.548,136.167 77.667 C 135.739 77.826,133.877 77.904,129.204 77.959 C 121.390 78.050,122.000 78.235,122.000 75.772 C 122.000 73.308,121.496 73.500,127.952 73.500 C 134.747 73.500,135.289 73.358,136.231 71.333 C 136.774 70.168,136.868 65.167,136.348 65.167 C 136.156 65.167,136.000 65.265,136.000 65.386 C 136.000 65.823,134.446 67.163,133.512 67.532 C 132.261 68.026,126.606 68.084,125.287 67.616 C 122.534 66.640,120.957 64.899,120.350 62.167 C 120.090 60.996,120.170 47.730,120.443 46.813 C 121.192 44.290,123.151 42.420,125.756 41.742 C 127.102 41.391,141.363 41.384,141.653 41.734 C 141.798 41.908,141.835 45.753,141.798 56.978 C 141.772 65.233,141.801 71.860,141.863 71.702 C 141.926 71.545,141.982 64.727,141.988 56.551 L 142.000 41.686 141.630 41.426 C 141.219 41.139,128.469 41.071,126.750 41.347 M154.917 41.326 C 151.520 41.863,149.195 43.997,148.405 47.304 C 148.070 48.706,148.069 62.118,148.404 63.367 C 149.289 66.667,151.007 68.457,154.050 69.249 C 155.427 69.607,169.356 69.624,169.652 69.268 C 169.780 69.114,169.828 68.375,169.797 67.064 C 169.735 64.451,170.387 64.672,162.733 64.669 C 155.386 64.666,154.975 64.584,154.143 62.954 C 153.773 62.228,153.507 59.324,153.730 58.436 L 153.840 58.000 161.658 58.000 L 169.476 58.000 169.821 57.561 C 170.216 57.059,170.347 49.940,169.995 48.133 C 169.290 44.519,167.786 42.758,164.333 41.506 C 163.650 41.258,156.241 41.116,154.917 41.326 M176.333 41.500 C 175.906 41.927,175.808 68.650,176.232 69.208 C 176.611 69.708,181.049 69.641,181.407 69.130 C 181.635 68.805,181.667 67.559,181.667 58.953 L 181.667 49.146 182.093 48.244 C 182.898 46.543,183.824 46.173,187.278 46.169 C 190.629 46.166,191.337 46.445,192.161 48.098 C 192.401 48.579,192.488 48.658,192.493 48.400 C 192.543 45.786,184.920 44.786,182.603 47.103 C 181.390 48.316,181.427 47.961,181.367 58.995 C 181.331 65.679,181.256 68.976,181.137 69.120 C 180.923 69.377,176.896 69.421,176.500 69.170 C 176.236 69.004,176.010 44.416,176.253 42.375 L 176.357 41.500 178.744 41.500 C 181.479 41.500,181.333 41.410,181.333 43.097 C 181.333 44.373,181.567 44.486,182.229 43.530 C 182.826 42.670,183.356 42.301,184.883 41.687 C 185.869 41.291,191.642 41.446,193.001 41.906 C 195.492 42.749,196.782 44.142,197.640 46.917 C 198.043 48.220,198.141 68.668,197.746 69.063 C 197.404 69.405,193.365 69.465,193.033 69.133 C 192.883 68.983,192.828 66.557,192.814 59.342 C 192.803 54.066,192.737 49.525,192.667 49.250 C 192.597 48.975,192.531 53.252,192.520 58.755 C 192.502 67.561,192.531 68.804,192.759 69.130 C 193.117 69.641,197.555 69.708,197.935 69.208 C 198.289 68.742,198.265 48.779,197.909 47.241 C 196.902 42.902,194.393 41.261,188.750 41.254 C 184.499 41.249,182.618 41.944,181.803 43.822 C 181.741 43.966,181.685 43.611,181.678 43.034 C 181.659 41.340,181.389 41.167,178.758 41.167 C 176.889 41.167,176.631 41.202,176.333 41.500 M224.667 41.500 C 224.239 41.927,224.142 68.650,224.565 69.208 C 224.758 69.462,225.097 69.500,227.200 69.500 L 229.613 69.500 229.807 69.075 C 229.948 68.765,230.000 65.081,230.000 55.318 L 230.000 41.985 229.591 41.576 C 229.016 41.001,225.224 40.943,224.667 41.500 M243.583 41.271 C 242.664 41.384,241.319 41.722,241.232 41.862 C 241.185 41.938,241.035 42.000,240.898 42.000 C 239.213 42.000,236.462 45.928,236.520 48.250 C 236.535 48.836,236.562 48.786,236.745 47.833 C 237.343 44.722,239.170 42.607,241.980 41.777 C 242.921 41.498,253.688 41.432,253.860 41.704 C 254.133 42.135,254.026 45.621,253.736 45.732 C 253.591 45.788,251.735 45.839,249.611 45.846 C 241.751 45.870,241.779 45.840,241.693 54.384 C 241.588 64.855,241.572 64.833,249.000 64.833 C 251.684 64.833,253.479 64.900,253.678 65.006 C 254.102 65.233,254.172 68.817,253.758 69.160 C 253.413 69.446,242.829 69.317,242.000 69.017 C 238.913 67.899,237.375 66.060,236.688 62.667 L 236.536 61.917 236.518 62.527 C 236.455 64.685,238.425 67.634,240.618 68.665 C 242.255 69.435,242.870 69.500,248.482 69.500 C 254.849 69.500,254.333 69.708,254.333 67.143 C 254.333 64.511,254.646 64.667,249.369 64.666 C 241.849 64.664,241.833 64.645,241.833 55.290 C 241.833 50.985,241.940 49.250,242.276 48.107 C 242.421 47.615,243.508 46.500,243.843 46.500 C 244.010 46.500,244.193 46.425,244.250 46.333 C 244.315 46.229,246.050 46.167,248.904 46.167 C 254.642 46.167,254.336 46.306,254.328 43.696 C 254.320 41.040,254.786 41.254,248.951 41.230 C 246.274 41.219,243.858 41.237,243.583 41.271 M164.514 41.847 C 168.817 43.243,169.981 45.693,169.994 53.386 C 170.000 56.567,169.929 57.239,169.547 57.667 C 169.506 57.712,165.897 57.788,161.528 57.833 L 153.583 57.917 153.583 60.180 C 153.583 62.405,153.592 62.458,154.083 63.251 C 155.055 64.819,155.077 64.823,162.417 64.831 C 170.198 64.840,169.567 64.645,169.631 67.064 C 169.663 68.289,169.614 68.946,169.478 69.110 C 169.199 69.446,154.746 69.363,153.833 69.020 C 150.861 67.903,149.460 66.433,148.653 63.583 C 148.313 62.383,148.309 48.511,148.648 47.167 C 149.312 44.536,150.909 42.793,153.471 41.905 C 155.102 41.340,162.826 41.299,164.514 41.847 M229.566 41.764 C 229.698 42.108,229.698 68.725,229.566 69.070 C 229.449 69.374,225.296 69.462,224.833 69.170 C 224.573 69.005,224.342 43.911,224.586 42.208 L 224.687 41.500 227.076 41.500 C 229.100 41.500,229.480 41.540,229.566 41.764 M128.417 45.983 C 126.993 46.159,126.024 46.949,125.544 48.326 C 125.258 49.148,125.248 60.139,125.533 60.988 C 126.194 62.953,127.206 63.422,130.739 63.399 C 136.383 63.363,136.667 62.853,136.667 52.751 L 136.667 46.352 136.296 46.093 C 135.909 45.821,130.352 45.744,128.417 45.983 M156.551 45.974 C 155.287 46.145,154.346 46.861,153.880 48.007 C 153.446 49.074,153.310 53.577,153.700 53.967 C 154.090 54.357,164.448 54.241,164.661 53.844 C 165.159 52.914,164.720 48.415,164.021 47.284 C 163.283 46.090,159.983 45.511,156.551 45.974 M136.333 53.113 C 136.333 60.473,136.309 60.731,135.527 61.811 C 134.759 62.870,133.716 63.167,130.759 63.167 C 125.686 63.167,125.500 62.866,125.500 54.667 C 125.500 46.103,125.425 46.198,132.208 46.178 L 136.333 46.167 136.333 53.113 M162.833 46.558 C 164.188 47.248,164.411 47.899,164.414 51.167 L 164.417 53.917 159.167 53.917 L 153.917 53.917 153.871 51.254 C 153.840 49.492,153.891 48.420,154.022 48.087 C 154.282 47.424,155.156 46.500,155.523 46.500 C 155.683 46.500,155.860 46.425,155.917 46.333 C 156.154 45.949,162.011 46.139,162.833 46.558 M236.409 55.417 C 236.409 58.808,236.431 60.172,236.458 58.447 C 236.485 56.723,236.485 53.948,236.458 52.281 C 236.431 50.614,236.409 52.025,236.409 55.417 " stroke="none" fill="#848484" fill-rule="evenodd"></path></g></svg>