<svg id="svg" version="1.1" xmlns="http://www.w3.org/2000/svg" xmlns:xlink="http://www.w3.org/1999/xlink" width="400" height="116.4179104477612" viewBox="0, 0, 400,116.4179104477612"><g id="svgg"><path id="path0" d="M398.293 56.994 C 398.252 111.454,398.237 114.001,397.952 114.286 C 397.667 114.571,389.447 114.585,198.827 114.625 L 0.000 114.667 0.000 115.500 L 0.000 116.333 200.000 116.333 L 400.000 116.333 400.000 58.167 L 400.000 0.000 399.168 -0.000 L 398.335 -0.000 398.293 56.994 M10.043 6.017 C 8.835 6.372,8.917 4.948,8.917 25.576 L 8.917 44.083 9.299 44.619 C 9.735 45.230,10.484 45.498,11.762 45.499 C 12.910 45.500,14.075 45.922,14.447 46.470 C 14.802 46.993,14.919 75.392,14.570 76.417 C 14.335 77.106,13.497 77.499,12.250 77.503 C 10.504 77.509,9.637 77.823,9.250 78.590 C 8.894 79.294,8.631 101.666,8.959 103.249 C 9.242 104.609,9.051 104.577,17.313 104.630 L 24.603 104.677 25.176 104.290 C 26.346 103.503,26.245 107.906,26.293 55.553 C 26.340 2.940,26.426 7.122,25.280 6.267 C 24.757 5.878,11.272 5.656,10.043 6.017 M31.488 6.163 C 30.769 6.543,30.583 6.763,30.426 7.417 C 30.212 8.308,30.323 68.496,30.540 69.250 C 30.678 69.729,30.742 74.587,30.767 86.500 C 30.804 104.307,30.776 103.767,31.704 104.333 C 32.249 104.665,32.636 104.665,200.881 104.666 L 369.512 104.667 370.464 103.703 C 370.988 103.173,372.017 102.038,372.750 101.179 C 373.922 99.808,374.552 99.000,377.034 95.682 C 377.336 95.278,378.183 94.275,378.917 93.452 C 380.480 91.697,381.698 90.182,382.294 89.250 C 382.859 88.367,383.664 87.389,385.096 85.851 C 386.435 84.411,387.675 82.827,388.056 82.068 C 388.669 80.847,388.679 80.177,388.631 43.417 C 388.578 3.592,388.673 6.711,387.500 6.125 C 386.551 5.651,32.385 5.688,31.488 6.163 M383.476 10.154 C 383.822 10.331,384.213 10.605,384.344 10.763 C 384.550 11.011,384.583 15.793,384.583 45.151 L 384.583 79.250 384.015 80.250 C 383.703 80.800,383.212 81.550,382.925 81.917 C 382.637 82.283,382.056 83.071,381.633 83.667 C 381.210 84.262,380.250 85.425,379.498 86.250 C 378.081 87.805,377.222 88.869,376.083 90.483 C 375.193 91.743,374.250 92.913,372.945 94.374 C 371.808 95.648,371.194 96.432,370.028 98.103 C 369.636 98.664,368.964 99.376,368.533 99.686 L 367.750 100.250 202.208 100.292 L 36.666 100.334 35.925 99.986 C 35.517 99.795,35.086 99.520,34.967 99.377 C 34.726 99.086,34.562 75.387,34.513 33.527 C 34.483 8.630,34.390 10.530,35.667 10.069 C 36.797 9.661,382.676 9.746,383.476 10.154 M65.767 40.419 C 64.756 40.770,64.622 40.994,64.535 42.481 C 64.434 44.228,64.541 44.573,65.362 45.168 C 67.522 46.733,69.371 44.459,68.497 41.311 C 68.251 40.425,66.964 40.005,65.767 40.419 M129.396 40.286 C 129.109 40.322,128.696 40.541,128.479 40.772 L 128.083 41.193 128.083 54.500 L 128.083 67.806 128.495 68.245 L 128.907 68.683 134.495 68.633 C 140.675 68.578,140.395 68.623,142.083 67.405 C 143.032 66.720,143.127 66.579,143.857 64.750 L 144.390 63.417 144.462 59.167 C 144.576 52.400,144.034 50.433,141.648 48.958 C 139.522 47.643,135.845 47.320,134.320 48.314 C 133.686 48.728,133.479 48.780,132.833 48.689 L 132.083 48.583 132.070 45.167 C 132.056 41.402,131.979 41.019,131.129 40.501 C 130.593 40.174,130.438 40.154,129.396 40.286 M216.283 40.365 C 215.165 40.668,215.091 40.936,215.026 44.909 C 214.955 49.246,214.767 49.627,213.232 48.542 C 212.592 48.089,212.550 48.083,210.000 48.083 L 207.417 48.083 206.091 48.750 C 203.283 50.162,202.912 51.248,202.931 58.000 C 202.951 65.040,203.208 66.100,205.250 67.540 C 205.617 67.799,206.101 68.139,206.326 68.297 C 206.677 68.543,207.173 68.583,209.838 68.583 L 212.941 68.583 213.569 68.105 L 214.196 67.627 215.056 68.046 C 216.795 68.893,218.391 68.934,219.042 68.149 C 219.344 67.784,219.482 42.400,219.188 41.348 C 218.948 40.491,217.558 40.020,216.283 40.365 M119.547 40.629 C 118.663 41.317,118.642 43.990,119.513 45.046 C 121.123 47.000,123.412 44.824,122.805 41.918 C 122.488 40.403,120.730 39.707,119.547 40.629 M43.099 43.391 L 42.487 43.968 42.535 55.776 C 42.587 68.457,42.559 68.078,43.465 68.517 C 44.099 68.825,55.170 68.693,55.833 68.370 C 59.378 66.642,59.704 65.508,59.635 55.141 L 59.583 47.250 58.883 46.000 C 57.258 43.101,56.761 42.935,49.481 42.868 L 43.711 42.814 43.099 43.391 M238.333 42.948 C 235.131 43.483,233.500 45.852,233.500 49.968 C 233.500 53.590,235.031 56.090,237.659 56.759 C 238.259 56.912,239.313 57.214,240.000 57.431 C 240.688 57.648,241.947 57.937,242.798 58.072 C 245.676 58.531,246.568 59.458,246.462 61.876 C 246.347 64.483,245.327 65.209,241.898 65.127 C 239.512 65.070,239.810 65.173,238.134 63.825 C 237.928 63.659,237.769 63.243,237.689 62.659 C 237.529 61.487,237.125 60.884,236.358 60.671 C 233.629 59.913,232.673 62.754,234.506 66.178 C 234.861 66.841,236.984 68.306,237.877 68.504 C 239.206 68.799,246.443 68.664,247.021 68.333 C 248.014 67.767,249.333 66.828,249.333 66.687 C 249.333 66.605,249.591 66.163,249.906 65.705 C 250.815 64.384,251.140 60.116,250.454 58.525 C 249.799 57.008,248.543 55.612,247.412 55.142 C 247.048 54.992,246.285 54.670,245.717 54.429 C 245.053 54.146,243.885 53.873,242.450 53.666 C 239.732 53.272,239.807 53.299,238.625 52.278 L 237.667 51.450 237.667 49.914 L 237.667 48.378 238.363 47.522 C 239.225 46.463,239.635 46.335,242.182 46.334 C 245.037 46.333,246.333 47.228,246.333 49.200 C 246.333 50.420,247.698 51.107,249.277 50.682 C 252.206 49.893,249.879 43.929,246.315 43.089 C 245.308 42.852,239.522 42.750,238.333 42.948 M171.500 43.472 C 170.599 43.816,170.357 44.348,170.343 46.013 C 170.332 47.321,170.042 47.690,168.716 48.084 C 166.856 48.637,166.870 51.140,168.736 51.663 C 169.205 51.794,169.671 52.071,169.921 52.369 L 170.333 52.859 170.333 58.106 C 170.333 63.666,170.416 64.449,171.112 65.475 C 171.325 65.789,171.500 66.141,171.500 66.256 C 171.500 66.454,171.967 66.889,173.181 67.821 C 174.365 68.731,178.383 69.042,179.246 68.292 C 180.547 67.160,179.632 65.167,177.811 65.167 C 176.837 65.167,175.180 64.278,174.865 63.587 C 174.752 63.338,174.675 61.270,174.655 57.957 C 174.617 51.505,174.472 51.924,176.794 51.785 C 178.889 51.660,179.562 51.019,179.264 49.432 C 179.038 48.229,178.665 48.000,176.934 48.000 C 174.923 48.000,174.746 47.838,174.621 45.891 C 174.502 44.039,174.293 43.657,173.250 43.388 C 172.250 43.130,172.414 43.122,171.500 43.472 M293.920 43.472 C 292.948 43.798,292.702 44.326,292.679 46.133 C 292.664 47.377,292.333 47.797,291.107 48.125 C 289.170 48.643,289.251 51.002,291.229 51.661 C 292.705 52.152,292.667 51.991,292.667 57.738 C 292.667 63.067,292.787 64.324,293.394 65.315 C 293.596 65.646,293.848 66.116,293.953 66.359 C 294.129 66.764,295.366 67.731,296.468 68.325 C 297.408 68.831,301.004 68.782,301.632 68.254 C 302.949 67.145,301.989 65.167,300.133 65.167 C 299.516 65.167,299.143 65.041,298.454 64.600 C 296.993 63.666,297.090 64.107,297.031 58.093 C 296.969 51.691,296.929 51.840,298.720 51.824 C 301.274 51.800,302.180 50.963,301.586 49.176 C 301.230 48.104,301.019 48.000,299.190 48.000 C 297.284 48.000,297.005 47.749,296.991 46.019 C 296.970 43.638,295.951 42.793,293.920 43.472 M92.714 43.708 C 92.294 44.165,92.100 44.971,92.139 46.092 C 92.177 47.160,91.982 47.410,90.750 47.878 C 88.485 48.739,88.532 51.043,90.833 51.927 C 92.162 52.437,92.074 51.996,92.167 58.631 L 92.250 64.583 92.750 65.583 C 93.816 67.715,95.723 68.667,98.932 68.667 C 101.127 68.667,101.500 68.418,101.500 66.953 C 101.500 65.881,101.116 65.420,100.083 65.252 C 96.330 64.639,96.169 64.315,96.168 57.371 L 96.167 52.659 96.934 52.173 C 97.591 51.756,97.813 51.700,98.487 51.780 C 99.412 51.889,100.072 51.608,100.730 50.827 C 101.860 49.484,100.482 47.767,98.417 47.943 C 96.896 48.072,96.274 47.538,96.150 45.995 C 95.965 43.685,95.686 43.333,94.035 43.333 C 93.235 43.333,92.996 43.401,92.714 43.708 M53.839 46.708 C 54.325 46.954,54.712 47.314,54.959 47.750 L 55.337 48.417 55.293 55.917 C 55.252 63.111,55.236 63.434,54.918 63.853 C 53.643 65.531,47.429 65.809,46.819 64.216 C 46.570 63.565,46.609 47.187,46.861 46.883 C 47.417 46.213,52.600 46.083,53.839 46.708 M65.667 48.129 C 64.477 48.716,64.501 48.506,64.500 58.633 L 64.500 67.682 64.895 68.077 C 65.661 68.842,67.572 68.939,68.333 68.251 C 68.772 67.853,68.863 49.959,68.431 48.925 C 68.040 47.989,66.721 47.609,65.667 48.129 M80.417 47.994 L 76.750 48.084 75.733 48.615 C 71.554 50.799,71.890 56.322,76.326 58.351 C 76.917 58.622,77.523 58.953,77.671 59.087 C 77.819 59.221,78.372 59.479,78.900 59.661 C 80.667 60.269,82.243 61.416,82.579 62.340 C 82.694 62.657,82.837 63.029,82.896 63.167 C 82.965 63.327,82.735 63.725,82.258 64.271 L 81.511 65.124 77.649 65.197 L 73.787 65.271 73.393 65.728 C 72.836 66.376,72.832 67.784,73.386 68.304 C 73.831 68.722,81.736 68.863,83.501 68.484 C 88.108 67.496,88.349 60.122,83.841 58.057 C 83.341 57.828,82.720 57.490,82.462 57.307 C 82.205 57.123,81.560 56.803,81.031 56.595 C 80.501 56.388,79.742 55.982,79.342 55.692 C 78.943 55.403,78.528 55.167,78.421 55.167 C 78.007 55.167,77.520 54.401,77.412 53.583 C 77.206 52.011,78.047 51.667,82.051 51.686 C 85.431 51.703,86.714 50.881,85.892 49.226 C 85.240 47.915,85.083 47.879,80.417 47.994 M106.281 48.106 C 105.196 48.682,105.167 48.947,105.168 58.055 C 105.170 67.644,105.186 67.872,105.889 68.373 C 106.631 68.901,108.243 68.829,108.833 68.241 L 109.250 67.826 109.305 61.048 C 109.377 52.162,109.559 51.745,113.333 51.810 C 115.668 51.850,116.619 49.459,114.754 48.237 C 114.144 47.838,112.673 48.004,111.191 48.640 C 109.673 49.292,109.641 49.292,108.875 48.608 C 108.117 47.931,107.013 47.717,106.281 48.106 M149.616 48.109 C 149.365 48.240,149.001 48.691,148.792 49.130 L 148.417 49.917 148.505 56.917 C 148.613 65.378,148.650 65.583,150.381 67.193 C 151.760 68.476,152.408 68.667,155.383 68.667 C 157.366 68.667,157.833 68.616,158.406 68.341 C 159.760 67.691,160.373 67.655,160.973 68.191 C 162.259 69.340,164.493 68.671,164.506 67.133 C 164.631 52.503,164.495 48.771,163.817 48.229 C 163.433 47.922,161.886 47.848,161.500 48.119 C 160.545 48.788,160.500 49.129,160.498 55.785 C 160.497 60.769,160.449 62.072,160.245 62.745 C 159.343 65.720,154.527 66.104,152.750 63.342 C 152.649 63.186,152.550 60.314,152.500 56.076 C 152.402 47.800,152.477 48.148,150.740 47.951 C 150.337 47.905,149.883 47.969,149.616 48.109 M255.050 48.102 C 254.127 48.436,253.911 49.396,254.477 50.640 C 254.672 51.067,255.014 52.204,255.237 53.167 C 255.461 54.129,255.795 55.256,255.980 55.671 C 256.165 56.086,256.471 57.123,256.661 57.975 C 256.851 58.828,257.184 59.951,257.400 60.471 C 257.617 60.991,257.961 62.154,258.164 63.056 C 258.607 65.019,259.335 66.701,259.922 67.115 C 260.833 67.758,260.968 67.939,261.072 68.651 C 261.237 69.786,259.671 71.249,258.122 71.408 C 255.533 71.672,255.321 71.804,255.204 73.222 C 255.048 75.101,257.454 75.748,260.750 74.714 C 262.922 74.032,265.019 71.107,265.751 67.740 C 265.909 67.012,266.216 65.963,266.434 65.408 C 266.652 64.853,267.015 63.561,267.242 62.537 C 267.468 61.513,267.771 60.448,267.914 60.171 C 268.058 59.894,268.403 58.710,268.682 57.542 C 268.961 56.373,269.330 55.097,269.503 54.707 C 269.675 54.317,269.972 53.276,270.163 52.395 C 270.354 51.514,270.583 50.657,270.672 50.491 C 271.117 49.658,270.733 48.414,269.928 48.077 C 267.937 47.246,266.570 48.884,265.655 53.198 C 265.455 54.143,265.107 55.404,264.881 56.000 C 264.655 56.596,264.296 57.946,264.082 59.000 C 263.549 61.623,263.010 62.500,261.931 62.500 C 261.805 62.500,261.526 61.400,261.244 59.787 C 261.103 58.982,260.775 57.745,260.514 57.037 C 260.254 56.329,259.917 55.154,259.767 54.426 C 259.456 52.916,258.265 49.273,257.896 48.701 C 257.445 48.002,256.106 47.720,255.050 48.102 M326.750 48.088 C 326.383 48.220,326.073 48.329,326.060 48.331 C 325.475 48.393,325.149 67.289,325.719 68.069 C 326.056 68.529,327.389 68.807,328.348 68.618 C 329.771 68.336,329.709 68.649,329.682 61.882 C 329.658 55.628,329.801 53.519,330.294 52.854 C 331.050 51.837,334.235 51.449,335.568 52.211 C 336.974 53.015,336.906 52.616,337.000 60.665 L 337.083 67.807 337.468 68.217 C 337.936 68.714,339.309 68.910,340.083 68.591 C 341.108 68.169,341.075 68.395,341.174 61.100 C 341.297 51.964,341.405 51.720,345.225 51.893 C 348.123 52.025,348.063 51.845,348.167 60.612 L 348.250 67.640 348.654 68.070 C 349.431 68.897,351.313 68.981,352.027 68.221 L 352.417 67.807 352.417 60.612 C 352.417 51.923,352.414 51.901,351.323 50.451 C 349.184 47.611,344.704 47.087,341.531 49.305 C 340.657 49.916,339.773 49.908,338.878 49.279 C 336.731 47.774,333.327 47.477,331.570 48.641 C 330.659 49.245,330.316 49.238,329.333 48.602 C 328.183 47.856,327.675 47.755,326.750 48.088 M119.545 48.375 C 118.838 49.140,118.806 49.630,118.863 58.973 L 118.917 67.862 119.384 68.265 C 120.046 68.833,121.775 68.849,122.406 68.292 L 122.831 67.917 122.844 58.750 C 122.861 47.732,122.909 48.000,120.920 48.000 C 120.067 48.000,119.832 48.064,119.545 48.375 M187.833 48.164 C 185.658 48.689,183.860 50.400,183.473 52.312 C 183.166 53.834,183.166 63.182,183.473 64.542 C 183.841 66.167,185.809 68.131,187.452 68.512 C 189.018 68.876,197.949 68.696,198.403 68.292 C 199.095 67.677,199.073 66.279,198.362 65.643 L 197.828 65.167 193.956 65.163 C 191.826 65.161,189.783 65.089,189.417 65.004 C 188.072 64.693,186.749 62.372,187.394 61.455 C 188.332 60.121,188.157 60.156,193.343 60.249 L 197.876 60.329 198.543 59.663 L 199.209 58.997 199.127 56.124 C 198.993 51.370,198.399 50.060,195.767 48.702 L 194.583 48.092 191.500 48.058 C 189.804 48.039,188.154 48.087,187.833 48.164 M277.417 48.162 C 276.478 48.402,274.836 49.340,274.558 49.796 C 274.405 50.046,274.090 50.538,273.857 50.889 C 272.401 53.092,273.748 56.765,276.520 58.150 C 277.062 58.421,277.764 58.803,278.080 58.998 C 278.397 59.194,279.109 59.531,279.663 59.749 C 281.830 60.598,283.207 61.738,283.417 62.858 C 283.755 64.664,282.689 65.157,278.292 65.226 C 273.765 65.297,273.170 65.551,273.455 67.289 C 273.674 68.626,274.012 68.712,278.889 68.683 C 284.177 68.651,284.308 68.631,285.559 67.684 C 287.783 66.000,288.414 63.300,287.174 60.782 C 286.367 59.143,285.673 58.618,281.750 56.678 C 279.008 55.322,278.114 54.652,277.865 53.770 C 277.403 52.134,278.098 51.825,282.556 51.683 L 285.696 51.583 286.097 51.117 C 286.854 50.236,286.704 48.662,285.820 48.211 C 285.366 47.979,278.293 47.938,277.417 48.162 M310.083 48.155 C 307.831 48.775,306.223 50.269,305.728 52.200 C 305.330 53.756,305.271 62.563,305.648 64.250 C 306.088 66.216,307.584 67.877,309.405 68.421 C 310.382 68.713,319.969 68.784,320.493 68.504 C 321.211 68.119,321.370 66.507,320.765 65.750 L 320.366 65.250 315.851 65.167 L 311.336 65.083 310.399 64.146 C 309.498 63.244,309.460 63.172,309.439 62.289 C 309.392 60.336,309.944 60.148,315.432 60.244 C 321.571 60.351,321.424 60.459,321.288 55.927 C 321.148 51.244,320.653 50.124,318.126 48.768 L 316.917 48.119 313.750 48.068 C 312.008 48.040,310.358 48.079,310.083 48.155 M359.637 48.407 C 357.209 49.416,356.512 50.360,356.375 52.826 C 356.228 55.461,357.395 57.438,359.615 58.313 C 360.073 58.493,360.725 58.829,361.064 59.059 C 361.403 59.290,362.071 59.607,362.549 59.766 C 363.297 60.013,364.246 60.552,365.378 61.370 C 365.540 61.487,365.820 61.991,366.000 62.489 L 366.327 63.395 365.658 64.281 C 365.036 65.105,364.940 65.167,364.286 65.167 C 363.900 65.167,362.170 65.188,360.442 65.212 L 357.301 65.256 356.801 65.815 C 356.210 66.477,356.249 67.615,356.885 68.301 L 357.242 68.685 362.079 68.634 C 367.470 68.578,367.177 68.635,368.971 67.284 C 370.082 66.448,370.411 65.541,370.404 63.333 C 370.396 60.625,369.372 58.941,367.169 58.010 C 366.666 57.797,366.028 57.458,365.752 57.256 C 365.476 57.054,364.910 56.763,364.494 56.611 C 363.740 56.334,362.304 55.496,361.482 54.854 C 360.685 54.230,360.511 53.079,361.122 52.468 C 361.783 51.807,362.489 51.683,365.651 51.674 L 368.218 51.667 368.859 50.993 C 369.707 50.102,369.575 49.019,368.521 48.217 C 367.958 47.789,360.754 47.943,359.637 48.407 M138.782 52.126 C 140.079 52.801,140.075 52.783,140.134 57.946 C 140.196 63.345,140.168 63.501,138.962 64.417 L 138.083 65.083 135.782 65.138 C 132.042 65.226,132.082 65.292,132.145 59.000 C 132.207 52.882,132.311 52.518,134.181 51.836 C 135.478 51.364,137.570 51.496,138.782 52.126 M193.904 52.325 C 194.907 53.014,195.536 55.333,194.994 56.344 C 194.144 57.932,188.191 57.770,187.316 56.135 C 186.971 55.489,187.537 52.986,188.156 52.427 C 189.033 51.633,192.801 51.566,193.904 52.325 M213.748 52.254 C 214.889 52.821,214.917 52.965,214.917 58.424 C 214.917 63.975,214.963 63.779,213.430 64.645 C 211.603 65.676,208.675 65.241,207.597 63.780 C 206.797 62.695,207.046 53.313,207.896 52.523 C 208.714 51.762,212.414 51.592,213.748 52.254 M315.517 52.002 C 317.233 52.478,317.970 55.596,316.637 56.737 L 315.940 57.333 313.451 57.333 C 309.792 57.333,309.090 56.840,309.471 54.540 C 309.868 52.142,312.319 51.113,315.517 52.002 " stroke="none" fill="#dddddd" fill-rule="evenodd"></path><path id="path1" d="M0.000 57.334 L 0.000 114.667 198.827 114.625 C 389.447 114.585,397.667 114.571,397.952 114.286 C 398.237 114.001,398.252 111.454,398.293 56.994 L 398.335 0.000 199.168 0.000 L 0.000 0.000 0.000 57.334 M25.280 6.267 C 26.426 7.122,26.340 2.940,26.293 55.553 C 26.245 107.906,26.346 103.503,25.176 104.290 L 24.603 104.677 17.313 104.630 C 9.051 104.577,9.242 104.609,8.959 103.249 C 8.631 101.666,8.894 79.294,9.250 78.590 C 9.637 77.823,10.504 77.509,12.250 77.503 C 13.497 77.499,14.335 77.106,14.570 76.417 C 14.919 75.392,14.802 46.993,14.447 46.470 C 14.075 45.922,12.910 45.500,11.762 45.499 C 10.484 45.498,9.735 45.230,9.299 44.619 L 8.917 44.083 8.917 25.576 C 8.917 4.948,8.835 6.372,10.043 6.017 C 11.272 5.656,24.757 5.878,25.280 6.267 M387.500 6.125 C 388.673 6.711,388.578 3.592,388.631 43.417 C 388.679 80.177,388.669 80.847,388.056 82.068 C 387.675 82.827,386.435 84.411,385.096 85.851 C 383.664 87.389,382.859 88.367,382.294 89.250 C 381.698 90.182,380.480 91.697,378.917 93.452 C 378.183 94.275,377.336 95.278,377.034 95.682 C 374.552 99.000,373.922 99.808,372.750 101.179 C 372.017 102.038,370.988 103.173,370.464 103.703 L 369.512 104.667 200.881 104.666 C 32.636 104.665,32.249 104.665,31.704 104.333 C 30.776 103.767,30.804 104.307,30.767 86.500 C 30.742 74.587,30.678 69.729,30.540 69.250 C 30.323 68.496,30.212 8.308,30.426 7.417 C 30.583 6.763,30.769 6.543,31.488 6.163 C 32.385 5.688,386.551 5.651,387.500 6.125 M35.667 10.069 C 34.390 10.530,34.483 8.630,34.513 33.527 C 34.562 75.387,34.726 99.086,34.967 99.377 C 35.086 99.520,35.517 99.795,35.925 99.986 L 36.666 100.334 202.208 100.292 L 367.750 100.250 368.533 99.686 C 368.964 99.376,369.636 98.664,370.028 98.103 C 371.194 96.432,371.808 95.648,372.945 94.374 C 374.250 92.913,375.193 91.743,376.083 90.483 C 377.222 88.869,378.081 87.805,379.498 86.250 C 380.250 85.425,381.210 84.262,381.633 83.667 C 382.056 83.071,382.637 82.283,382.925 81.917 C 383.212 81.550,383.703 80.800,384.015 80.250 L 384.583 79.250 384.583 45.151 C 384.583 15.793,384.550 11.011,384.344 10.763 C 384.213 10.605,383.822 10.331,383.476 10.154 C 382.676 9.746,36.797 9.661,35.667 10.069 M67.872 40.533 C 68.699 40.845,69.012 43.681,68.341 44.781 C 67.544 46.089,64.936 45.715,64.566 44.241 C 64.379 43.496,64.587 41.175,64.865 40.897 C 65.500 40.262,66.752 40.111,67.872 40.533 M131.129 40.501 C 131.979 41.019,132.056 41.402,132.070 45.167 L 132.083 48.583 132.833 48.689 C 133.479 48.780,133.686 48.728,134.320 48.314 C 135.845 47.320,139.522 47.643,141.648 48.958 C 144.034 50.433,144.576 52.400,144.462 59.167 L 144.390 63.417 143.857 64.750 C 143.127 66.579,143.032 66.720,142.083 67.405 C 140.395 68.623,140.675 68.578,134.495 68.633 L 128.907 68.683 128.495 68.245 L 128.083 67.806 128.083 54.500 L 128.083 41.193 128.479 40.772 C 128.835 40.394,129.194 40.277,130.250 40.194 C 130.433 40.180,130.829 40.318,131.129 40.501 M218.663 40.653 C 219.304 41.110,219.299 40.999,219.317 54.773 C 219.336 69.543,219.452 68.373,217.941 68.649 C 217.022 68.817,216.351 68.677,215.056 68.046 L 214.196 67.627 213.569 68.105 L 212.941 68.583 209.838 68.583 C 207.173 68.583,206.677 68.543,206.326 68.297 C 206.101 68.139,205.617 67.799,205.250 67.540 C 203.208 66.100,202.951 65.040,202.931 58.000 C 202.912 51.248,203.283 50.162,206.091 48.750 L 207.417 48.083 210.000 48.083 C 212.550 48.083,212.592 48.089,213.232 48.542 C 214.767 49.627,214.955 49.246,215.026 44.909 C 215.074 41.954,215.128 41.334,215.367 40.969 C 215.884 40.180,217.749 40.001,218.663 40.653 M122.286 40.708 C 123.780 42.336,122.764 45.667,120.773 45.667 C 118.987 45.667,118.045 41.798,119.547 40.629 C 120.133 40.173,121.840 40.222,122.286 40.708 M55.936 43.183 C 57.046 43.608,58.114 44.628,58.883 46.000 L 59.583 47.250 59.635 55.141 C 59.704 65.508,59.378 66.642,55.833 68.370 C 55.170 68.693,44.099 68.825,43.465 68.517 C 42.559 68.078,42.587 68.457,42.535 55.776 L 42.487 43.968 43.099 43.391 L 43.711 42.814 49.481 42.868 C 54.231 42.912,55.371 42.967,55.936 43.183 M246.315 43.089 C 249.879 43.929,252.206 49.893,249.277 50.682 C 247.698 51.107,246.333 50.420,246.333 49.200 C 246.333 47.228,245.037 46.333,242.182 46.334 C 239.635 46.335,239.225 46.463,238.363 47.522 L 237.667 48.378 237.667 49.914 L 237.667 51.450 238.625 52.278 C 239.807 53.299,239.732 53.272,242.450 53.666 C 243.885 53.873,245.053 54.146,245.717 54.429 C 246.285 54.670,247.048 54.992,247.412 55.142 C 248.543 55.612,249.799 57.008,250.454 58.525 C 251.140 60.116,250.815 64.384,249.906 65.705 C 249.591 66.163,249.333 66.605,249.333 66.687 C 249.333 66.828,248.014 67.767,247.021 68.333 C 246.443 68.664,239.206 68.799,237.877 68.504 C 236.984 68.306,234.861 66.841,234.506 66.178 C 233.528 64.350,233.259 61.954,233.958 61.302 C 235.576 59.793,237.388 60.452,237.689 62.659 C 237.769 63.243,237.928 63.659,238.134 63.825 C 239.810 65.173,239.512 65.070,241.898 65.127 C 245.327 65.209,246.347 64.483,246.462 61.876 C 246.568 59.458,245.676 58.531,242.798 58.072 C 241.947 57.937,240.688 57.648,240.000 57.431 C 239.313 57.214,238.259 56.912,237.659 56.759 C 235.031 56.090,233.500 53.590,233.500 49.968 C 233.500 45.852,235.131 43.483,238.333 42.948 C 239.522 42.750,245.308 42.852,246.315 43.089 M173.250 43.388 C 174.293 43.657,174.502 44.039,174.621 45.891 C 174.746 47.838,174.923 48.000,176.934 48.000 C 178.665 48.000,179.038 48.229,179.264 49.432 C 179.562 51.019,178.889 51.660,176.794 51.785 C 174.472 51.924,174.617 51.505,174.655 57.957 C 174.675 61.270,174.752 63.338,174.865 63.587 C 175.180 64.278,176.837 65.167,177.811 65.167 C 179.632 65.167,180.547 67.160,179.246 68.292 C 178.383 69.042,174.365 68.731,173.181 67.821 C 171.967 66.889,171.500 66.454,171.500 66.256 C 171.500 66.141,171.325 65.789,171.112 65.475 C 170.416 64.449,170.333 63.666,170.333 58.106 L 170.333 52.859 169.921 52.369 C 169.671 52.071,169.205 51.794,168.736 51.663 C 166.870 51.140,166.856 48.637,168.716 48.084 C 170.042 47.690,170.332 47.321,170.343 46.013 C 170.357 44.348,170.599 43.816,171.500 43.472 C 172.414 43.122,172.250 43.130,173.250 43.388 M296.167 43.564 C 296.705 43.809,296.979 44.625,296.991 46.019 C 297.005 47.749,297.284 48.000,299.190 48.000 C 301.019 48.000,301.230 48.104,301.586 49.176 C 302.180 50.963,301.274 51.800,298.720 51.824 C 296.929 51.840,296.969 51.691,297.031 58.093 C 297.090 64.107,296.993 63.666,298.454 64.600 C 299.143 65.041,299.516 65.167,300.133 65.167 C 301.989 65.167,302.949 67.145,301.632 68.254 C 301.004 68.782,297.408 68.831,296.468 68.325 C 295.366 67.731,294.129 66.764,293.953 66.359 C 293.848 66.116,293.596 65.646,293.394 65.315 C 292.787 64.324,292.667 63.067,292.667 57.738 C 292.667 51.991,292.705 52.152,291.229 51.661 C 289.251 51.002,289.170 48.643,291.107 48.125 C 292.333 47.797,292.664 47.377,292.679 46.133 C 292.710 43.603,294.062 42.607,296.167 43.564 M95.407 43.592 C 95.880 43.902,96.018 44.349,96.150 45.995 C 96.274 47.538,96.896 48.072,98.417 47.943 C 100.482 47.767,101.860 49.484,100.730 50.827 C 100.072 51.608,99.412 51.889,98.487 51.780 C 97.813 51.700,97.591 51.756,96.934 52.173 L 96.167 52.659 96.168 57.371 C 96.169 64.315,96.330 64.639,100.083 65.252 C 101.116 65.420,101.500 65.881,101.500 66.953 C 101.500 68.418,101.127 68.667,98.932 68.667 C 95.723 68.667,93.816 67.715,92.750 65.583 L 92.250 64.583 92.167 58.631 C 92.074 51.996,92.162 52.437,90.833 51.927 C 88.532 51.043,88.485 48.739,90.750 47.878 C 91.982 47.410,92.177 47.160,92.139 46.092 C 92.056 43.709,93.684 42.463,95.407 43.592 M47.563 46.514 C 46.656 46.777,46.681 46.522,46.660 55.426 C 46.639 64.519,46.640 64.533,47.577 64.925 C 48.688 65.389,52.733 65.260,53.749 64.728 C 55.343 63.893,55.244 64.461,55.293 55.917 L 55.337 48.417 54.959 47.750 C 54.291 46.569,53.548 46.331,50.590 46.348 C 49.211 46.357,47.849 46.431,47.563 46.514 M67.889 48.199 C 68.641 48.595,68.667 48.944,68.667 58.719 C 68.667 69.217,68.780 68.434,67.219 68.671 C 66.263 68.817,65.419 68.601,64.895 68.077 L 64.500 67.682 64.500 58.633 C 64.501 48.506,64.477 48.716,65.667 48.129 C 66.267 47.833,67.251 47.864,67.889 48.199 M85.167 48.316 C 86.356 49.140,86.348 50.488,85.150 51.281 C 84.546 51.681,84.416 51.698,82.051 51.686 C 78.047 51.667,77.206 52.011,77.412 53.583 C 77.520 54.401,78.007 55.167,78.421 55.167 C 78.528 55.167,78.943 55.403,79.342 55.692 C 79.742 55.982,80.501 56.388,81.031 56.595 C 81.560 56.803,82.205 57.123,82.462 57.307 C 82.720 57.490,83.341 57.828,83.841 58.057 C 88.349 60.122,88.108 67.496,83.501 68.484 C 81.736 68.863,73.831 68.722,73.386 68.304 C 72.832 67.784,72.836 66.376,73.393 65.728 L 73.787 65.271 77.649 65.197 L 81.511 65.124 82.258 64.271 C 82.735 63.725,82.965 63.327,82.896 63.167 C 82.837 63.029,82.694 62.657,82.579 62.340 C 82.243 61.416,80.667 60.269,78.900 59.661 C 78.372 59.479,77.819 59.221,77.671 59.087 C 77.523 58.953,76.917 58.622,76.326 58.351 C 71.890 56.322,71.554 50.799,75.733 48.615 L 76.750 48.084 80.417 47.994 C 84.460 47.895,84.569 47.902,85.167 48.316 M108.875 48.608 C 109.641 49.292,109.673 49.292,111.191 48.640 C 112.673 48.004,114.144 47.838,114.754 48.237 C 116.619 49.459,115.668 51.850,113.333 51.810 C 109.559 51.745,109.377 52.162,109.305 61.048 L 109.250 67.826 108.833 68.241 C 107.683 69.387,105.463 68.694,105.275 67.131 C 104.982 64.689,105.158 49.881,105.489 49.108 C 106.087 47.714,107.621 47.488,108.875 48.608 M151.615 48.088 C 152.371 48.319,152.412 48.695,152.500 56.076 C 152.550 60.314,152.649 63.186,152.750 63.342 C 154.527 66.104,159.343 65.720,160.245 62.745 C 160.449 62.072,160.497 60.769,160.498 55.785 C 160.500 49.129,160.545 48.788,161.500 48.119 C 161.886 47.848,163.433 47.922,163.817 48.229 C 164.495 48.771,164.631 52.503,164.506 67.133 C 164.493 68.671,162.259 69.340,160.973 68.191 C 160.373 67.655,159.760 67.691,158.406 68.341 C 157.833 68.616,157.366 68.667,155.383 68.667 C 152.408 68.667,151.760 68.476,150.381 67.193 C 148.650 65.583,148.613 65.378,148.505 56.917 L 148.417 49.917 148.792 49.130 C 149.327 48.008,150.245 47.670,151.615 48.088 M257.259 48.170 C 257.957 48.435,259.140 51.387,259.767 54.426 C 259.917 55.154,260.254 56.329,260.514 57.037 C 260.775 57.745,261.103 58.982,261.244 59.787 C 261.526 61.400,261.805 62.500,261.931 62.500 C 263.010 62.500,263.549 61.623,264.082 59.000 C 264.296 57.946,264.655 56.596,264.881 56.000 C 265.107 55.404,265.455 54.143,265.655 53.198 C 266.570 48.884,267.937 47.246,269.928 48.077 C 270.733 48.414,271.117 49.658,270.672 50.491 C 270.583 50.657,270.354 51.514,270.163 52.395 C 269.972 53.276,269.675 54.317,269.503 54.707 C 269.330 55.097,268.961 56.373,268.682 57.542 C 268.403 58.710,268.058 59.894,267.914 60.171 C 267.771 60.448,267.468 61.513,267.242 62.537 C 267.015 63.561,266.652 64.853,266.434 65.408 C 266.216 65.963,265.909 67.012,265.751 67.740 C 265.019 71.107,262.922 74.032,260.750 74.714 C 257.454 75.748,255.048 75.101,255.204 73.222 C 255.321 71.804,255.533 71.672,258.122 71.408 C 259.671 71.249,261.237 69.786,261.072 68.651 C 260.968 67.939,260.833 67.758,259.922 67.115 C 259.335 66.701,258.607 65.019,258.164 63.056 C 257.961 62.154,257.617 60.991,257.400 60.471 C 257.184 59.951,256.851 58.828,256.661 57.975 C 256.471 57.123,256.165 56.086,255.980 55.671 C 255.795 55.256,255.461 54.129,255.237 53.167 C 255.014 52.204,254.672 51.067,254.477 50.640 C 253.548 48.599,254.999 47.311,257.259 48.170 M328.183 48.028 C 328.495 48.136,329.012 48.394,329.333 48.602 C 330.316 49.238,330.659 49.245,331.570 48.641 C 333.327 47.477,336.731 47.774,338.878 49.279 C 339.773 49.908,340.657 49.916,341.531 49.305 C 344.704 47.087,349.184 47.611,351.323 50.451 C 352.414 51.901,352.417 51.923,352.417 60.612 L 352.417 67.807 352.027 68.221 C 351.313 68.981,349.431 68.897,348.654 68.070 L 348.250 67.640 348.167 60.612 C 348.063 51.845,348.123 52.025,345.225 51.893 C 341.405 51.720,341.297 51.964,341.174 61.100 C 341.075 68.395,341.108 68.169,340.083 68.591 C 339.309 68.910,337.936 68.714,337.468 68.217 L 337.083 67.807 337.000 60.665 C 336.906 52.616,336.974 53.015,335.568 52.211 C 334.235 51.449,331.050 51.837,330.294 52.854 C 329.801 53.519,329.658 55.628,329.682 61.882 C 329.709 68.649,329.771 68.336,328.348 68.618 C 327.389 68.807,326.056 68.529,325.719 68.069 C 325.149 67.289,325.475 48.393,326.060 48.331 C 326.073 48.329,326.383 48.220,326.750 48.088 C 327.575 47.791,327.503 47.794,328.183 48.028 M122.213 48.292 C 122.834 48.979,122.859 49.379,122.844 58.750 L 122.831 67.917 122.406 68.292 C 121.775 68.849,120.046 68.833,119.384 68.265 L 118.917 67.862 118.863 58.973 C 118.806 49.630,118.838 49.140,119.545 48.375 C 120.001 47.881,121.790 47.825,122.213 48.292 M195.767 48.702 C 198.399 50.060,198.993 51.370,199.127 56.124 L 199.209 58.997 198.543 59.663 L 197.876 60.329 193.343 60.249 C 188.157 60.156,188.332 60.121,187.394 61.455 C 186.749 62.372,188.072 64.693,189.417 65.004 C 189.783 65.089,191.826 65.161,193.956 65.163 L 197.828 65.167 198.362 65.643 C 199.073 66.279,199.095 67.677,198.403 68.292 C 197.949 68.696,189.018 68.876,187.452 68.512 C 185.809 68.131,183.841 66.167,183.473 64.542 C 183.166 63.182,183.166 53.834,183.473 52.312 C 184.100 49.211,186.385 48.000,191.500 48.058 L 194.583 48.092 195.767 48.702 M285.820 48.211 C 286.704 48.662,286.854 50.236,286.097 51.117 L 285.696 51.583 282.556 51.683 C 278.098 51.825,277.403 52.134,277.865 53.770 C 278.114 54.652,279.008 55.322,281.750 56.678 C 285.673 58.618,286.367 59.143,287.174 60.782 C 288.414 63.300,287.783 66.000,285.559 67.684 C 284.308 68.631,284.177 68.651,278.889 68.683 C 274.012 68.712,273.674 68.626,273.455 67.289 C 273.170 65.551,273.765 65.297,278.292 65.226 C 282.074 65.166,282.732 65.001,283.261 63.978 C 284.002 62.546,282.602 60.900,279.663 59.749 C 279.109 59.531,278.397 59.194,278.080 58.998 C 277.764 58.803,277.062 58.421,276.520 58.150 C 273.748 56.765,272.401 53.092,273.857 50.889 C 274.090 50.538,274.405 50.046,274.558 49.796 C 274.836 49.340,276.478 48.402,277.417 48.162 C 278.293 47.938,285.366 47.979,285.820 48.211 M318.126 48.768 C 320.653 50.124,321.148 51.244,321.288 55.927 C 321.424 60.459,321.571 60.351,315.432 60.244 C 309.944 60.148,309.392 60.336,309.439 62.289 C 309.460 63.172,309.498 63.244,310.399 64.146 L 311.336 65.083 315.851 65.167 L 320.366 65.250 320.765 65.750 C 321.370 66.507,321.211 68.119,320.493 68.504 C 319.969 68.784,310.382 68.713,309.405 68.421 C 307.584 67.877,306.088 66.216,305.648 64.250 C 305.271 62.563,305.330 53.756,305.728 52.200 C 306.223 50.269,307.831 48.775,310.083 48.155 C 310.358 48.079,312.008 48.040,313.750 48.068 L 316.917 48.119 318.126 48.768 M368.521 48.217 C 369.575 49.019,369.707 50.102,368.859 50.993 L 368.218 51.667 365.651 51.674 C 362.489 51.683,361.783 51.807,361.122 52.468 C 360.511 53.079,360.685 54.230,361.482 54.854 C 362.304 55.496,363.740 56.334,364.494 56.611 C 364.910 56.763,365.476 57.054,365.752 57.256 C 366.028 57.458,366.666 57.797,367.169 58.010 C 369.372 58.941,370.396 60.625,370.404 63.333 C 370.411 65.541,370.082 66.448,368.971 67.284 C 367.177 68.635,367.470 68.578,362.079 68.634 L 357.242 68.685 356.885 68.301 C 356.249 67.615,356.210 66.477,356.801 65.815 L 357.301 65.256 360.442 65.212 C 362.170 65.188,363.900 65.167,364.286 65.167 C 364.940 65.167,365.036 65.105,365.658 64.281 L 366.327 63.395 366.000 62.489 C 365.820 61.991,365.540 61.487,365.378 61.370 C 364.246 60.552,363.297 60.013,362.549 59.766 C 362.071 59.607,361.403 59.290,361.064 59.059 C 360.725 58.829,360.073 58.493,359.615 58.313 C 357.395 57.438,356.228 55.461,356.375 52.826 C 356.512 50.360,357.209 49.416,359.637 48.407 C 360.754 47.943,367.958 47.789,368.521 48.217 M134.181 51.836 C 132.311 52.518,132.207 52.882,132.145 59.000 C 132.082 65.292,132.042 65.226,135.782 65.138 L 138.083 65.083 138.962 64.417 C 139.615 63.920,139.884 63.587,140.013 63.113 C 140.272 62.160,140.146 53.540,139.865 52.997 C 139.248 51.802,136.060 51.152,134.181 51.836 M188.940 52.005 C 187.783 52.352,186.728 55.035,187.316 56.135 C 188.191 57.770,194.144 57.932,194.994 56.344 C 195.536 55.333,194.907 53.014,193.904 52.325 C 193.151 51.806,190.230 51.618,188.940 52.005 M208.833 52.022 C 207.302 52.474,207.117 53.265,207.193 59.035 C 207.258 63.919,207.242 63.861,208.764 64.704 C 210.523 65.680,213.691 65.135,214.635 63.694 C 215.036 63.083,215.061 53.870,214.665 53.084 C 214.144 52.051,210.798 51.442,208.833 52.022 M310.832 52.208 C 309.989 52.782,309.672 53.325,309.471 54.540 C 309.090 56.840,309.792 57.333,313.451 57.333 L 315.940 57.333 316.637 56.737 C 317.970 55.596,317.233 52.478,315.517 52.002 C 314.299 51.663,311.448 51.789,310.832 52.208 " stroke="none" fill="#0c0c0c" fill-rule="evenodd"></path></g></svg>