<?xml version="1.0" encoding="UTF-8"?>
<svg version="1.1" xmlns="http://www.w3.org/2000/svg" width="680" height="178">
<path d="M0 0 C224.4 0 448.8 0 680 0 C680 58.74 680 117.48 680 178 C455.6 178 231.2 178 0 178 C0 119.26 0 60.52 0 0 Z " fill="#0C0C0C" transform="translate(0,0)"/>
<path d="M0 0 C224.4 0 448.8 0 680 0 C680 58.74 680 117.48 680 178 C455.6 178 231.2 178 0 178 C0 119.26 0 60.52 0 0 Z M52 11 C51.90321761 13.03761187 51.87813035 15.07863712 51.87974548 17.11854553 C51.87889106 17.76460123 51.87803663 18.41065693 51.87715632 19.07629007 C51.87549976 21.25669817 51.88102571 23.43703055 51.88647461 25.61743164 C51.88675647 27.17420958 51.88659877 28.73098764 51.8860321 30.2877655 C51.88574408 34.52725204 51.89164154 38.76671054 51.89860606 43.00619054 C51.90483885 47.4318142 51.90544334 51.85743843 51.90663147 56.2830658 C51.90974501 64.66953978 51.9179587 73.0560008 51.92798096 81.44246906 C51.9391414 90.98765349 51.94465237 100.53283852 51.94967639 110.07802784 C51.96014129 129.71869248 51.97774117 149.35934542 52 169 C108.14992045 169.1540351 164.29986164 169.29732457 220.44993591 169.38108826 C221.69610404 169.38295203 221.69610404 169.38295203 222.96744728 169.38485345 C241.02165629 169.41178839 259.07586755 169.4367202 277.13008216 169.45958797 C285.98361322 169.47081419 294.83714366 169.48248314 303.69067383 169.49438477 C304.5717157 169.4955616 305.45275758 169.49673843 306.36049769 169.49795092 C334.92772246 169.53631651 363.49478722 169.6039282 392.06191501 169.68667499 C421.4135641 169.77153996 450.7651246 169.82696236 480.1168943 169.84523491 C484.26075485 169.84782838 488.40461509 169.85075911 492.54847527 169.85389519 C493.36406209 169.85450199 494.17964891 169.8551088 495.01995049 169.855734 C508.15909824 169.86637763 521.29797243 169.90814178 534.43700854 169.96148831 C547.63995117 170.01443217 560.84262207 170.03472237 574.04566718 170.0215124 C581.89415224 170.01465678 589.74164428 170.03300556 597.58995038 170.08717789 C603.44473972 170.12483604 609.29883899 170.1156885 615.15370571 170.08809005 C617.52665451 170.08427354 619.89968597 170.09581106 622.27247102 170.12394864 C625.49144921 170.15991242 628.70551874 170.14071704 631.92441654 170.10743046 C633.31667861 170.14289514 633.31667861 170.14289514 634.73706719 170.17907628 C638.7368877 170.08516579 641.06579242 169.87336564 644.05540054 167.0784611 C645.85186509 164.78845653 647.43159937 162.45014475 649 160 C650.13194314 158.51017693 651.2760722 157.02945382 652.4375 155.5625 C653.01242187 154.82128906 653.58734375 154.08007812 654.1796875 153.31640625 C656.71321404 150.09241218 659.30800617 146.91879164 661.91015625 143.75 C662.59980469 142.8425 663.28945313 141.935 664 141 C664.49257105 140.40240655 664.9851421 139.8048131 665.49263954 139.18911076 C670.33782674 132.80263223 670.83552216 127.73603505 670.68115234 119.87084961 C670.68246658 118.09860519 670.68246658 118.09860519 670.68380737 116.29055786 C670.67964883 112.41046546 670.63307321 108.53213175 670.5859375 104.65234375 C670.57139079 101.95236683 670.5659067 99.25239161 670.56021118 96.55238342 C670.54162535 90.18813427 670.49247498 83.82450977 670.43211424 77.46053463 C670.36485232 70.21025017 670.33201098 62.95993454 670.30194163 55.70941532 C670.23936893 40.80592993 670.13395792 25.90302769 670 11 C667.68774409 9.84387205 666.38229132 9.87487817 663.80935568 9.87465084 C662.92356574 9.87214732 662.0377758 9.8696438 661.12514374 9.86706442 C660.14401117 9.86940558 659.16287859 9.87174675 658.15201473 9.87415886 C656.59147787 9.8719787 656.59147787 9.8719787 654.99941501 9.86975449 C651.47240966 9.86607109 647.94544689 9.86959169 644.41844177 9.87301636 C641.8806759 9.87186546 639.3429102 9.87027816 636.80514485 9.86828911 C631.26648183 9.86497039 625.72783212 9.86479346 620.18916893 9.86733627 C611.9532551 9.87110719 603.71734954 9.86919106 595.48143577 9.86612797 C580.77533688 9.8608524 566.06924232 9.8613225 551.36314301 9.86420688 C538.49451149 9.8667186 525.62588155 9.86738093 512.75724983 9.86618423 C511.90492917 9.86610785 511.0526085 9.86603146 510.17445994 9.86595276 C506.71496121 9.86564145 503.25546249 9.86532305 499.79596377 9.864993 C467.31863231 9.86193143 434.84130361 9.86471159 402.36397258 9.8700899 C373.48328818 9.87483621 344.60260819 9.87441081 315.72192383 9.86962891 C283.30395361 9.86427931 250.88598585 9.86214809 218.46801525 9.86524117 C215.0149883 9.86556191 211.56196135 9.86587475 208.1089344 9.86618423 C207.25865728 9.86626331 206.40838016 9.86634239 205.53233706 9.86642386 C192.66825474 9.86756338 179.80417417 9.86622728 166.94009209 9.86370468 C152.3200773 9.86085211 137.70006754 9.86154593 123.08005338 9.86698543 C114.88852852 9.86993225 106.69701452 9.87009827 98.50548993 9.86633925 C92.40599536 9.86384791 86.30651507 9.86652943 80.20702136 9.87131383 C77.7265954 9.87243923 75.246168 9.87184415 72.76574295 9.86943804 C69.41785522 9.86643732 66.07002856 9.86947513 62.72214413 9.87415886 C61.24693352 9.87064711 61.24693352 9.87064711 59.74192068 9.86706442 C58.41699105 9.87081969 58.41699105 9.87081969 57.06529516 9.87465084 C55.91506334 9.87475247 55.91506334 9.87475247 54.74159452 9.87485617 C52.97068197 9.81111496 52.97068197 9.81111496 52 11 Z " fill="#3A3A3A" transform="translate(0,0)"/>
<path d="M0 0 C207.57 0 415.14 0 629 0 C629 43.89 629 87.78 629 133 C628.01 133.33 627.02 133.66 626 134 C625.67 134.99 625.34 135.98 625 137 C624.01 137 623.02 137 622 137 C621.79913557 133.28400809 621.8480563 132.22791555 624 129 C624 88.08 624 47.16 624 5 C418.74 5.33 213.48 5.66 2 6 C2.58334388 59.66763704 3.22224389 113.33482832 4 167 C200.02 167 396.04 167 598 167 C597.67 168.65 597.34 170.3 597 172 C399.66 172 202.32 172 -1 172 C-1 3 -1 3 0 0 Z " fill="#D1D1D1" transform="translate(47,3)"/>
<path d="M0 0 C0.90739829 -0.00301597 1.81479658 -0.00603194 2.74969178 -0.0091393 C3.76015355 -0.00736983 4.77061531 -0.00560036 5.81169713 -0.00377727 C6.87900435 -0.0058299 7.94631157 -0.00788253 9.04596144 -0.00999737 C12.6706796 -0.01571245 16.2953603 -0.01420461 19.92008221 -0.0127914 C22.52568147 -0.01537245 25.13128033 -0.01838487 27.73687863 -0.0217948 C34.17791327 -0.02939535 40.61893963 -0.0315689 47.05997828 -0.03212385 C54.77007741 -0.03303547 62.48016882 -0.03969694 70.19026464 -0.04647068 C88.82796041 -0.06255355 107.46565538 -0.06843639 126.10335684 -0.07321942 C134.91441642 -0.07555292 143.72547534 -0.07915528 152.5365344 -0.0829148 C182.678105 -0.09575186 212.81967524 -0.10647129 242.96124852 -0.1099174 C244.85442074 -0.11013904 246.74759297 -0.11036082 248.6407652 -0.11058275 C250.53859616 -0.1108034 252.43642712 -0.11102388 254.33425808 -0.1112442 C258.14184765 -0.11168676 261.94943722 -0.11213388 265.75702679 -0.11258388 C266.70109221 -0.11269327 267.64515763 -0.11280266 268.61783109 -0.11291536 C299.24333317 -0.11654766 329.8688116 -0.1324734 360.49430462 -0.15577424 C392.84834712 -0.18034536 425.20237609 -0.19408896 457.55642819 -0.19528532 C461.10499529 -0.19545678 464.65356239 -0.19567222 468.20212948 -0.19591975 C469.07593182 -0.19597552 469.94973415 -0.19603129 470.85001535 -0.19608875 C484.93914013 -0.19724153 499.02824073 -0.2082827 513.11735733 -0.22280681 C527.26663622 -0.23714122 541.41588397 -0.24042614 555.56516813 -0.23236683 C563.98070166 -0.22789618 572.39613498 -0.23182816 580.81165544 -0.24760534 C587.0815032 -0.25844332 593.35124639 -0.2537596 599.62109198 -0.24283347 C602.1682063 -0.24085885 604.71533047 -0.24403506 607.26243089 -0.25267783 C610.70524038 -0.26362703 614.14752876 -0.25638555 617.59032261 -0.2442863 C618.59610204 -0.25188149 619.60188147 -0.25947669 620.63813907 -0.26730204 C621.55054439 -0.26030393 622.46294972 -0.25330583 623.40300369 -0.24609566 C624.19095005 -0.24633986 624.9788964 -0.24658406 625.79071992 -0.24683566 C628.3643265 0.22650324 629.25165371 1.07232693 630.82685101 3.1276505 C631.20996106 5.54432034 631.20996106 5.54432034 631.22126019 8.46599889 C631.23260998 9.57356542 631.24395977 10.68113194 631.2556535 11.8222611 C631.2527229 13.03791753 631.24979229 14.25357396 631.24677289 15.50606847 C631.25524243 16.7859464 631.26371197 18.06582433 631.27243817 19.38448644 C631.29468109 22.89698706 631.29758343 26.40925329 631.29569066 29.92181468 C631.29557106 32.85420249 631.30413089 35.78654044 631.31246817 38.71891439 C631.33171295 45.63790834 631.33458249 52.55678164 631.32782757 59.47579503 C631.3211885 66.61221721 631.34404273 73.74812229 631.3811413 80.88443959 C631.41183902 87.01194636 631.42319821 93.13928682 631.41930449 99.26686895 C631.41723669 102.92634902 631.42271986 106.58542694 631.44719708 110.24483418 C631.47359937 114.32705191 631.45973603 118.40817862 631.44208539 122.49044347 C631.46198025 124.30785542 631.46198025 124.30785542 631.48227704 126.16198277 C631.39951624 134.3814015 631.39951624 134.3814015 628.43097699 138.24975133 C627.57161541 138.86945806 626.71225384 139.48916478 625.82685101 140.1276505 C624.30305848 141.92019411 622.80289507 143.73308877 621.32685101 145.5651505 C618.92634384 148.53891312 616.52369453 151.49540144 614.01435101 154.3776505 C611.69144448 157.12930699 611.69144448 157.12930699 609.95185101 160.6276505 C608.06463204 164.11707985 605.62712344 166.26196112 602.51044476 168.67061925 C600.69989579 170.04298903 600.69989579 170.04298903 599.83212686 172.18777841 C596.48663005 175.42415903 592.53078737 174.67036987 588.05884373 174.62263513 C587.03928084 174.6275501 586.01971794 174.63246507 584.9692592 174.63752899 C581.51877816 174.64921093 578.06902066 174.63212487 574.61856854 174.61539769 C572.13355997 174.61785581 569.64855262 174.62206775 567.16354966 174.62789243 C561.74318323 174.6365366 556.32304423 174.63266294 550.90269482 174.61793065 C542.84278768 174.5960846 534.78299756 174.5970665 526.72306862 174.60276492 C513.16610958 174.61167877 499.60922424 174.60179354 486.05228055 174.58113599 C472.62404495 174.5607066 459.19584121 174.54808554 445.76758969 174.54609799 C444.93336027 174.54596816 444.09913085 174.54583833 443.23962176 174.54570456 C439.85352467 174.54520464 436.46742759 174.54476467 433.08133048 174.54440247 C402.20530407 174.54109746 371.32932212 174.51873115 340.45331585 174.48433995 C311.28209019 174.45186288 282.11088696 174.43060712 252.93964398 174.42281651 C252.04089996 174.42257347 251.14215594 174.42233043 250.21617726 174.42208003 C245.68959801 174.420858 241.16301876 174.41965471 236.63643951 174.41845823 C235.74326755 174.41822196 234.85009559 174.41798569 233.92985781 174.41774226 C232.12887991 174.4172681 230.32790201 174.41679794 228.52692411 174.4163318 C199.87767364 174.40886533 171.22842732 174.39308662 142.57918169 174.37513262 C134.18304261 174.36988213 125.78690358 174.36493843 117.39076388 174.3607707 C99.72970203 174.35190008 82.06865052 174.34028227 64.40759848 174.31920467 C57.10029154 174.31054776 49.79299156 174.30338925 42.48567975 174.30068898 C35.80817668 174.29821372 29.13069893 174.29078392 22.45320369 174.27969851 C20.02597163 174.2764748 17.59873664 174.27496149 15.17150246 174.2752488 C11.89536759 174.27537273 8.61930071 174.26945152 5.34317601 174.26187158 C4.38084461 174.2633552 3.41851321 174.26483882 2.42702025 174.26636741 C-4.05898503 174.24181445 -4.05898503 174.24181445 -5.17314899 173.1276505 C-5.272363 170.91503241 -5.29947312 168.6991812 -5.30013263 166.48433995 C-5.30169262 165.78182009 -5.30325261 165.07930022 -5.30485988 164.35549188 C-5.30887219 161.98395096 -5.30567935 159.61247323 -5.30254352 157.24093175 C-5.30389746 155.54784665 -5.30567735 153.85476184 -5.30785358 152.1616776 C-5.3124288 147.55023919 -5.31063799 142.93882305 -5.30747449 138.32738423 C-5.30495135 133.51251467 -5.3072883 128.69764708 -5.30886066 123.88277745 C-5.31068249 115.79545299 -5.3082757 107.70813764 -5.30352008 99.62081456 C-5.29807744 90.2567124 -5.29984009 80.892632 -5.30534649 71.52853036 C-5.30987724 63.50393065 -5.31052835 55.47933752 -5.30790782 47.45473695 C-5.30634484 42.65532567 -5.30615186 37.85592465 -5.30944431 33.05651402 C-5.31232248 28.54550329 -5.31034834 24.03452075 -5.30455005 19.52351308 C-5.30322216 17.86299872 -5.30361706 16.20248202 -5.30581272 14.54196858 C-5.30852309 12.28493348 -5.30514451 10.02799021 -5.30013263 7.77096105 C-5.29975561 6.50479451 -5.29937858 5.23862798 -5.29899013 3.93409276 C-5.10365452 -0.42217826 -3.9518827 0.00258458 0 0 Z M-1.17314899 1.1276505 C-19.30384733 55.51974551 -2.17314899 115.79334818 -2.17314899 173.1276505 C195.16685101 173.1276505 392.50685101 173.1276505 595.82685101 173.1276505 C596.15685101 171.4776505 596.48685101 169.8276505 596.82685101 168.1276505 C400.80685101 168.1276505 204.78685101 168.1276505 2.82685101 168.1276505 C2.16685101 114.9976505 1.50685101 61.8676505 0.82685101 7.1276505 C206.08685101 6.7976505 411.34685101 6.4676505 622.82685101 6.1276505 C622.82685101 130.1276505 622.82685101 130.1276505 620.82685101 133.1276505 C620.65971532 135.75296574 620.65971532 135.75296574 620.82685101 138.1276505 C622.80685101 137.6326505 622.80685101 137.6326505 624.82685101 137.1276505 C624.82685101 136.4676505 624.82685101 135.8076505 624.82685101 135.1276505 C625.81685101 134.7976505 626.80685101 134.4676505 627.82685101 134.1276505 C627.82685101 90.2376505 627.82685101 46.3476505 627.82685101 1.1276505 C420.25685101 1.1276505 212.68685101 1.1276505 -1.17314899 1.1276505 Z M3.82685101 9.1276505 C3.73006862 11.16526237 3.70498136 13.20628762 3.70659649 15.24619603 C3.70574207 15.89225173 3.70488764 16.53830743 3.70400733 17.20394057 C3.70235077 19.38434867 3.70787672 21.56468105 3.71332562 23.74508214 C3.71360748 25.30186008 3.71344978 26.85863814 3.71288311 28.415416 C3.71259509 32.65490254 3.71849255 36.89436104 3.72545707 41.13384104 C3.73168986 45.55946469 3.73229435 49.98508893 3.73348248 54.4107163 C3.73659602 62.79719028 3.74480971 71.1836513 3.75483197 79.57011956 C3.76599241 89.11530399 3.77150338 98.66048902 3.7765274 108.20567834 C3.78699231 127.84634298 3.80459218 147.48699592 3.82685101 167.1276505 C59.97677146 167.2816856 116.12671265 167.42497507 172.27678692 167.50873876 C173.52295505 167.51060253 173.52295505 167.51060253 174.79429829 167.51250395 C192.8485073 167.53943889 210.90271856 167.5643707 228.95693317 167.58723846 C237.81046423 167.59846469 246.66399467 167.61013364 255.51752484 167.62203526 C256.39856671 167.6232121 257.27960859 167.62438893 258.1873487 167.62560142 C286.75457347 167.66396701 315.32163823 167.7315787 343.88876603 167.81432549 C373.24041511 167.89919046 402.59197561 167.95461286 431.94374531 167.97288541 C436.08760586 167.97547888 440.2314661 167.97840961 444.37532628 167.98154569 C445.1909131 167.98215249 446.00649992 167.9827593 446.8468015 167.9833845 C459.98594925 167.99402813 473.12482344 168.03579228 486.26385955 168.0891388 C499.46680218 168.14208267 512.66947308 168.16237287 525.87251819 168.1491629 C533.72100325 168.14230728 541.5684953 168.16065606 549.41680139 168.21482839 C555.27159073 168.25248654 561.12569001 168.243339 566.98055672 168.21574055 C569.35350552 168.21192404 571.72653698 168.22346156 574.09932203 168.25159914 C577.31830022 168.28756292 580.53236975 168.26836754 583.75126755 168.23508096 C585.14352962 168.27054564 585.14352962 168.27054564 586.5639182 168.30672678 C590.56373871 168.21281629 592.89264343 168.00101614 595.88225155 165.2061116 C597.6787161 162.91610703 599.25845038 160.57779524 600.82685101 158.1276505 C601.95879415 156.63782743 603.10292321 155.15710432 604.26435101 153.6901505 C604.83927289 152.94893956 605.41419476 152.20772862 606.00653851 151.44405675 C608.54006505 148.22006267 611.13485718 145.04644214 613.73700726 141.8776505 C614.4266557 140.9701505 615.11630414 140.0626505 615.82685101 139.1276505 C616.31942206 138.53005705 616.81199311 137.9324636 617.31949055 137.31676126 C622.16467775 130.93028272 622.66237317 125.86368555 622.50800335 117.99850011 C622.50931759 116.22625569 622.50931759 116.22625569 622.51065838 114.41820836 C622.50649984 110.53811595 622.45992422 106.65978225 622.41278851 102.77999425 C622.3982418 100.08001733 622.39275771 97.38004211 622.38706219 94.68003392 C622.36847636 88.31578477 622.31932599 81.95216027 622.25896525 75.58818513 C622.19170333 68.33790067 622.15886199 61.08758504 622.12879264 53.83706582 C622.06621994 38.93358043 621.96080893 24.03067819 621.82685101 9.1276505 C619.5145951 7.97152255 618.20914233 8.00252867 615.63620669 8.00230134 C614.75041675 7.99979782 613.86462681 7.9972943 612.95199475 7.99471492 C611.97086218 7.99705608 610.9897296 7.99939725 609.97886574 8.00180936 C608.41832888 7.9996292 608.41832888 7.9996292 606.82626602 7.99740499 C603.29926067 7.99372159 599.7722979 7.99724219 596.24529278 8.00066686 C593.70752691 7.99951596 591.16976121 7.99792866 588.63199586 7.99593961 C583.09333284 7.99262089 577.55468313 7.99244396 572.01601994 7.99498677 C563.78010611 7.99875769 555.54420055 7.99684156 547.30828679 7.99377847 C532.60218789 7.9885029 517.89609333 7.988973 503.18999402 7.99185738 C490.3213625 7.9943691 477.45273256 7.99503143 464.58410084 7.99383473 C463.73178018 7.99375835 462.87945951 7.99368196 462.00131095 7.99360326 C458.54181222 7.99329195 455.0823135 7.99297355 451.62281478 7.9926435 C419.14548332 7.98958193 386.66815462 7.99236209 354.19082359 7.9977404 C325.31013919 8.00248671 296.4294592 8.00206131 267.54877484 7.99727941 C235.13080462 7.99192981 202.71283686 7.98979859 170.29486626 7.99289167 C166.84183931 7.99321241 163.38881236 7.99352525 159.93578541 7.99383473 C159.08550829 7.99391381 158.23523117 7.99399289 157.35918807 7.99407436 C144.49510575 7.99521388 131.63102518 7.99387778 118.7669431 7.99135518 C104.14692831 7.98850261 89.52691855 7.98919643 74.90690439 7.99463592 C66.71537953 7.99758275 58.52386554 7.99774877 50.33234094 7.99398975 C44.23284637 7.99149841 38.13336608 7.99417993 32.03387237 7.99896432 C29.55344641 8.00008972 27.07301901 7.99949465 24.59259396 7.99708854 C21.24470623 7.99408782 17.89687957 7.99712562 14.54899514 8.00180936 C13.07378453 7.99829761 13.07378453 7.99829761 11.56877169 7.99471492 C10.24384206 7.99847019 10.24384206 7.99847019 8.89214617 8.00230134 C7.74191435 8.00240297 7.74191435 8.00240297 6.56844553 8.00250667 C4.79753298 7.93876546 4.79753298 7.93876546 3.82685101 9.1276505 Z " fill="#949494" transform="translate(48.17314898967743,1.872349500656128)"/>
<path d="M0 0 C9.24 0 18.48 0 28 0 C28 56.43 28 112.86 28 171 C19.42 171 10.84 171 2 171 C1 170 1 170 0.88647461 166.03100586 C0.8866338 164.25894393 0.89233215 162.4868774 0.90234375 160.71484375 C0.9037587 159.78402481 0.90517365 158.85320587 0.90663147 157.8941803 C0.91224828 154.90858809 0.9248036 151.92306971 0.9375 148.9375 C0.94251284 146.91862087 0.94707612 144.89974057 0.95117188 142.88085938 C0.96222317 137.92054428 0.97949905 132.96028468 1 128 C5.455 127.01 5.455 127.01 10 126 C10 107.19 10 88.38 10 69 C6.04 68.505 6.04 68.505 2 68 C0 66 0 66 -0.24050903 63.25387573 C-0.23606781 62.08583405 -0.23162659 60.91779236 -0.22705078 59.71435547 C-0.22734283 59.07032776 -0.22763489 58.42630005 -0.22793579 57.76275635 C-0.22654074 55.63076373 -0.21097174 53.49911918 -0.1953125 51.3671875 C-0.19158298 49.89031159 -0.18873572 48.41343322 -0.18673706 46.93655396 C-0.17909574 43.04682602 -0.15944308 39.15724712 -0.1373291 35.26757812 C-0.11688135 31.29949968 -0.10773764 27.33139718 -0.09765625 23.36328125 C-0.07619754 15.57544498 -0.04101147 7.78776235 0 0 Z " fill="#FDFDFD" transform="translate(7,3)"/>
<path d="M0 0 C0.88328642 -0.00250352 1.76657284 -0.00500704 2.67662552 -0.00758642 C4.15183613 -0.00407467 4.15183613 -0.00407467 5.65684897 -0.00049198 C6.69575343 -0.00194542 7.7346579 -0.00339886 8.80504432 -0.00489634 C12.33313691 -0.00858473 15.86118706 -0.00505687 19.38927943 -0.00163448 C21.92546955 -0.00278518 24.4616595 -0.00437236 26.99784911 -0.00636172 C32.53619451 -0.00968225 38.0745266 -0.00985606 43.61287218 -0.00731456 C51.84838324 -0.00354556 60.08388603 -0.00545878 68.31939703 -0.00852287 C83.02485556 -0.0138001 97.73030976 -0.01332764 112.43576871 -0.01044396 C125.30505935 -0.0079326 138.1743484 -0.00726973 151.04363924 -0.0084666 C152.32200566 -0.00858118 152.32200566 -0.00858118 153.62619767 -0.00869807 C157.08537647 -0.00900939 160.54455527 -0.00932779 164.00373407 -0.00965784 C196.4827645 -0.01271986 228.96179216 -0.00993864 261.44082216 -0.00456094 C290.32135289 0.00018457 319.20187922 -0.00023926 348.08240992 -0.00502193 C380.49891755 -0.01037217 412.91542274 -0.01250231 445.33193076 -0.00940967 C448.78527206 -0.00908893 452.23861337 -0.00877609 455.69195467 -0.0084666 C456.54231087 -0.00838752 457.39266707 -0.00830845 458.26879164 -0.00822697 C471.13196757 -0.00708764 483.99514174 -0.00842324 496.85831743 -0.01094615 C511.4794258 -0.01379949 526.10052915 -0.01310329 540.72163688 -0.00766541 C548.91294636 -0.00471972 557.10424496 -0.00455094 565.29555416 -0.00831159 C571.39670692 -0.01080462 577.49784541 -0.00811895 583.5989973 -0.00333701 C586.078798 -0.0022124 588.55860014 -0.00280495 591.03839993 -0.0052128 C594.38786119 -0.00821762 597.73726159 -0.00517137 601.08671957 -0.00049198 C602.06785214 -0.00283314 603.04898472 -0.00517431 604.05984858 -0.00758642 C604.94563852 -0.0050829 605.83142846 -0.00257938 606.74406052 0 C607.51094949 0.00006776 608.27783846 0.00013552 609.06796649 0.00020533 C610.93470484 0.12534916 610.93470484 0.12534916 612.93470484 1.12534916 C613.02820254 16.79812099 613.09871055 32.47081735 613.14195353 48.14379895 C613.16256692 55.42127258 613.19066385 62.69857279 613.23646265 69.9759351 C613.27636821 76.31990147 613.30214656 82.66374222 613.31105882 89.00783062 C613.31626738 92.36613268 613.32848309 95.72407542 613.35762507 99.08226216 C613.38662903 102.83398385 613.39066191 106.58495931 613.3888064 110.33677495 C613.40318751 111.44664265 613.41756861 112.55651036 613.4323855 113.70001042 C613.39935867 119.86468661 613.00528139 123.40768025 608.93470484 128.12534916 C608.41907984 128.83820073 607.90345484 129.55105229 607.37220484 130.28550541 C606.66064234 131.22716557 606.66064234 131.22716557 605.93470484 132.18784916 C605.22314234 133.13337651 605.22314234 133.13337651 604.49720484 134.09800541 C600.53751241 139.23570634 596.38896564 144.21707613 592.25111109 149.21128666 C590.02094803 151.84612477 590.02094803 151.84612477 588.96031122 153.91089428 C587.33387419 156.74896943 586.09409871 158.75978088 582.88614937 159.77127885 C580.26977361 160.01948359 577.73309604 160.03845473 575.10521704 159.98668396 C574.10330734 159.99476087 573.10139765 160.00283778 572.06912705 160.01115945 C568.69019397 160.0297835 565.31356601 159.99821252 561.93475062 159.96713078 C559.49679755 159.97018158 557.0588467 159.97630746 554.62090814 159.98525494 C549.30939757 159.99767133 543.99858536 159.98825835 538.68718439 159.95978749 C530.78945588 159.91757055 522.89207385 159.91543407 514.99425308 159.92158141 C501.7095506 159.93078291 488.42509167 159.90737326 475.14046007 159.86545956 C461.984606 159.82405843 448.82885334 159.79710163 435.67293459 159.78948987 C434.85533369 159.78900869 434.03773279 159.78852751 433.1953561 159.78803175 C429.04327449 159.78566346 424.89119278 159.78355376 420.73911098 159.78154362 C391.320109 159.76683573 361.90123957 159.71966033 332.48231226 159.65342534 C303.89996267 159.58914806 275.31764933 159.53955607 246.73524195 159.50987065 C245.85440659 159.50894997 244.97357124 159.50802928 244.0660439 159.5070807 C235.22043631 159.49785116 226.37482844 159.48892045 217.52922033 159.48020868 C199.50925396 159.46245458 181.48928996 159.44270581 163.46932703 159.42175114 C162.22649901 159.4203096 162.22649901 159.4203096 160.95856335 159.41883893 C105.61722159 159.35442036 50.27595505 159.24335688 -5.06529516 159.12534916 C-5.08862237 138.54198079 -5.10627346 117.95861458 -5.11710733 97.37523568 C-5.12227067 87.81870978 -5.12931408 78.26219207 -5.14073461 68.70567143 C-5.1506803 60.37932909 -5.15714831 52.05299269 -5.15938365 43.72664458 C-5.16069096 39.31510059 -5.16377804 34.90357359 -5.17102522 30.49203503 C-5.17778362 26.3446453 -5.17991249 22.19727963 -5.17840284 18.04988492 C-5.17867925 16.52321186 -5.18068544 14.99653805 -5.18450063 13.46986973 C-5.1894351 11.39451457 -5.18829439 9.31925175 -5.18554968 7.2438947 C-5.18647147 6.07967016 -5.18739326 4.91544562 -5.18834299 3.71594155 C-4.99191808 -0.41949802 -3.73505238 0.00033004 0 0 Z M-4.06529516 2.12534916 C-4.06529516 31.49534916 -4.06529516 60.86534916 -4.06529516 91.12534916 C-3.40529516 91.12534916 -2.74529516 91.12534916 -2.06529516 91.12534916 C-2.06529516 112.57534916 -2.06529516 134.02534916 -2.06529516 156.12534916 C53.75977826 156.20985451 109.58485062 156.29051369 165.40997034 156.33706486 C166.23566237 156.33775515 167.0613544 156.33844543 167.9120674 156.33915664 C185.8548172 156.35411975 203.7975677 156.36797086 221.74031924 156.38067581 C230.53891993 156.38691272 239.33752044 156.39339545 248.13612086 156.40000737 C249.44949917 156.40098806 249.44949917 156.40098806 250.78941037 156.40198856 C279.19052792 156.42331083 307.59159587 156.46087892 335.99268334 156.50683527 C365.16855715 156.55395978 394.34440348 156.58476743 423.5203147 156.59492411 C427.6373489 156.59636498 431.75438302 156.59799316 435.87141711 156.59973538 C436.68174102 156.60007249 437.49206493 156.60040961 438.32694411 156.60075694 C451.39240657 156.60667492 464.4577843 156.62989042 477.52321215 156.65950933 C490.64539174 156.68889012 503.767487 156.70020303 516.88969836 156.69285605 C524.69431916 156.68904134 532.49863225 156.69929627 540.30319771 156.72933688 C546.11828805 156.75019873 551.93316308 156.74520798 557.74827733 156.72984364 C560.11036923 156.72771714 562.47248645 156.73417937 564.83452789 156.74976508 C568.02813645 156.76962468 571.220201 156.7591455 574.41378218 156.74058831 C575.81218026 156.76029091 575.81218026 156.76029091 577.23882881 156.78039154 C579.58040539 156.74931762 581.66232601 156.68970132 583.93470484 156.12534916 C586.05728453 153.68019206 586.93470484 152.36378148 586.93470484 149.12534916 C587.92470484 148.79534916 588.91470484 148.46534916 589.93470484 148.12534916 C589.93470484 147.46534916 589.93470484 146.80534916 589.93470484 146.12534916 C590.55345484 146.08409916 591.17220484 146.04284916 591.80970484 146.00034916 C592.51095484 145.71159916 593.21220484 145.42284916 593.93470484 145.12534916 C595.09306157 142.15031794 595.09306157 142.15031794 595.93470484 139.12534916 C596.59470484 138.79534916 597.25470484 138.46534916 597.93470484 138.12534916 C597.93470484 137.13534916 597.93470484 136.14534916 597.93470484 135.12534916 C598.59470484 135.12534916 599.25470484 135.12534916 599.93470484 135.12534916 C599.93470484 134.46534916 599.93470484 133.80534916 599.93470484 133.12534916 C600.92470484 133.12534916 601.91470484 133.12534916 602.93470484 133.12534916 C602.93470484 132.13534916 602.93470484 131.14534916 602.93470484 130.12534916 C603.92470484 130.12534916 604.91470484 130.12534916 605.93470484 130.12534916 C634.82606769 98.68474842 610.93470484 44.82455551 610.93470484 2.12534916 C407.98470484 2.12534916 205.03470484 2.12534916 -4.06529516 2.12534916 Z " fill="#414141" transform="translate(57.06529515981674,9.874650835990906)"/>
<path d="M0 0 C295.515 0.495 295.515 0.495 597 1 C596.67 2.32 596.34 3.64 596 5 C399.65 5 203.3 5 1 5 C0.67 3.35 0.34 1.7 0 0 Z " fill="#E4E4E4" transform="translate(48,169)"/>
<path d="M0 0 C0.90739829 -0.00301597 1.81479658 -0.00603194 2.74969178 -0.0091393 C3.76015355 -0.00736983 4.77061531 -0.00560036 5.81169713 -0.00377727 C6.87900435 -0.0058299 7.94631157 -0.00788253 9.04596144 -0.00999737 C12.6706796 -0.01571245 16.2953603 -0.01420461 19.92008221 -0.0127914 C22.52568147 -0.01537245 25.13128033 -0.01838487 27.73687863 -0.0217948 C34.17791327 -0.02939535 40.61893963 -0.0315689 47.05997828 -0.03212385 C54.77007741 -0.03303547 62.48016882 -0.03969694 70.19026464 -0.04647068 C88.82796041 -0.06255355 107.46565538 -0.06843639 126.10335684 -0.07321942 C134.91441642 -0.07555292 143.72547534 -0.07915528 152.5365344 -0.0829148 C182.678105 -0.09575186 212.81967524 -0.10647129 242.96124852 -0.1099174 C244.85442074 -0.11013904 246.74759297 -0.11036082 248.6407652 -0.11058275 C250.53859616 -0.1108034 252.43642712 -0.11102388 254.33425808 -0.1112442 C258.14184765 -0.11168676 261.94943722 -0.11213388 265.75702679 -0.11258388 C266.70109221 -0.11269327 267.64515763 -0.11280266 268.61783109 -0.11291536 C299.24333317 -0.11654766 329.8688116 -0.1324734 360.49430462 -0.15577424 C392.84834712 -0.18034536 425.20237609 -0.19408896 457.55642819 -0.19528532 C461.10499529 -0.19545678 464.65356239 -0.19567222 468.20212948 -0.19591975 C469.07593182 -0.19597552 469.94973415 -0.19603129 470.85001535 -0.19608875 C484.93914013 -0.19724153 499.02824073 -0.2082827 513.11735733 -0.22280681 C527.26663622 -0.23714122 541.41588397 -0.24042614 555.56516813 -0.23236683 C563.98070166 -0.22789618 572.39613498 -0.23182816 580.81165544 -0.24760534 C587.0815032 -0.25844332 593.35124639 -0.2537596 599.62109198 -0.24283347 C602.1682063 -0.24085885 604.71533047 -0.24403506 607.26243089 -0.25267783 C610.70524038 -0.26362703 614.14752876 -0.25638555 617.59032261 -0.2442863 C618.59610204 -0.25188149 619.60188147 -0.25947669 620.63813907 -0.26730204 C621.55054439 -0.26030393 622.46294972 -0.25330583 623.40300369 -0.24609566 C624.19095005 -0.24633986 624.9788964 -0.24658406 625.79071992 -0.24683566 C628.3643265 0.22650324 629.25165371 1.07232693 630.82685101 3.1276505 C631.20996106 5.54432034 631.20996106 5.54432034 631.22126019 8.46599889 C631.23260998 9.57356542 631.24395977 10.68113194 631.2556535 11.8222611 C631.2527229 13.03791753 631.24979229 14.25357396 631.24677289 15.50606847 C631.25524243 16.7859464 631.26371197 18.06582433 631.27243817 19.38448644 C631.29468109 22.89698706 631.29758343 26.40925329 631.29569066 29.92181468 C631.29557106 32.85420249 631.30413089 35.78654044 631.31246817 38.71891439 C631.33171295 45.63790834 631.33458249 52.55678164 631.32782757 59.47579503 C631.3211885 66.61221721 631.34404273 73.74812229 631.3811413 80.88443959 C631.41183902 87.01194636 631.42319821 93.13928682 631.41930449 99.26686895 C631.41723669 102.92634902 631.42271986 106.58542694 631.44719708 110.24483418 C631.47359937 114.32705191 631.45973603 118.40817862 631.44208539 122.49044347 C631.46198025 124.30785542 631.46198025 124.30785542 631.48227704 126.16198277 C631.39951624 134.3814015 631.39951624 134.3814015 628.43097699 138.24975133 C627.57161541 138.86945806 626.71225384 139.48916478 625.82685101 140.1276505 C624.30305848 141.92019411 622.80289507 143.73308877 621.32685101 145.5651505 C618.92634384 148.53891312 616.52369453 151.49540144 614.01435101 154.3776505 C611.69144448 157.12930699 611.69144448 157.12930699 609.95185101 160.6276505 C608.06463204 164.11707985 605.62712344 166.26196112 602.51044476 168.67061925 C600.69989579 170.04298903 600.69989579 170.04298903 599.83212686 172.18777841 C596.48663005 175.42415903 592.53078737 174.67036987 588.05884373 174.62263513 C587.03928084 174.6275501 586.01971794 174.63246507 584.9692592 174.63752899 C581.51877816 174.64921093 578.06902066 174.63212487 574.61856854 174.61539769 C572.13355997 174.61785581 569.64855262 174.62206775 567.16354966 174.62789243 C561.74318323 174.6365366 556.32304423 174.63266294 550.90269482 174.61793065 C542.84278768 174.5960846 534.78299756 174.5970665 526.72306862 174.60276492 C513.16610958 174.61167877 499.60922424 174.60179354 486.05228055 174.58113599 C472.62404495 174.5607066 459.19584121 174.54808554 445.76758969 174.54609799 C444.93336027 174.54596816 444.09913085 174.54583833 443.23962176 174.54570456 C439.85352467 174.54520464 436.46742759 174.54476467 433.08133048 174.54440247 C402.20530407 174.54109746 371.32932212 174.51873115 340.45331585 174.48433995 C311.28209019 174.45186288 282.11088696 174.43060712 252.93964398 174.42281651 C252.04089996 174.42257347 251.14215594 174.42233043 250.21617726 174.42208003 C245.68959801 174.420858 241.16301876 174.41965471 236.63643951 174.41845823 C235.74326755 174.41822196 234.85009559 174.41798569 233.92985781 174.41774226 C232.12887991 174.4172681 230.32790201 174.41679794 228.52692411 174.4163318 C199.87767364 174.40886533 171.22842732 174.39308662 142.57918169 174.37513262 C134.18304261 174.36988213 125.78690358 174.36493843 117.39076388 174.3607707 C99.72970203 174.35190008 82.06865052 174.34028227 64.40759848 174.31920467 C57.10029154 174.31054776 49.79299156 174.30338925 42.48567975 174.30068898 C35.80817668 174.29821372 29.13069893 174.29078392 22.45320369 174.27969851 C20.02597163 174.2764748 17.59873664 174.27496149 15.17150246 174.2752488 C11.89536759 174.27537273 8.61930071 174.26945152 5.34317601 174.26187158 C4.38084461 174.2633552 3.41851321 174.26483882 2.42702025 174.26636741 C-4.05898503 174.24181445 -4.05898503 174.24181445 -5.17314899 173.1276505 C-5.272363 170.91503241 -5.29947312 168.6991812 -5.30013263 166.48433995 C-5.30169262 165.78182009 -5.30325261 165.07930022 -5.30485988 164.35549188 C-5.30887219 161.98395096 -5.30567935 159.61247323 -5.30254352 157.24093175 C-5.30389746 155.54784665 -5.30567735 153.85476184 -5.30785358 152.1616776 C-5.3124288 147.55023919 -5.31063799 142.93882305 -5.30747449 138.32738423 C-5.30495135 133.51251467 -5.3072883 128.69764708 -5.30886066 123.88277745 C-5.31068249 115.79545299 -5.3082757 107.70813764 -5.30352008 99.62081456 C-5.29807744 90.2567124 -5.29984009 80.892632 -5.30534649 71.52853036 C-5.30987724 63.50393065 -5.31052835 55.47933752 -5.30790782 47.45473695 C-5.30634484 42.65532567 -5.30615186 37.85592465 -5.30944431 33.05651402 C-5.31232248 28.54550329 -5.31034834 24.03452075 -5.30455005 19.52351308 C-5.30322216 17.86299872 -5.30361706 16.20248202 -5.30581272 14.54196858 C-5.30852309 12.28493348 -5.30514451 10.02799021 -5.30013263 7.77096105 C-5.29975561 6.50479451 -5.29937858 5.23862798 -5.29899013 3.93409276 C-5.10365452 -0.42217826 -3.9518827 0.00258458 0 0 Z M-1.17314899 1.1276505 C-2.32622788 4.58688716 -2.29610966 7.25370306 -2.29340351 10.9043076 C-2.29425793 11.59699123 -2.29511236 12.28967485 -2.29599267 13.00334889 C-2.2976427 15.32955823 -2.29213389 17.65569582 -2.28667438 19.98189855 C-2.28639238 21.64734449 -2.28655049 23.31279056 -2.28711689 24.97823644 C-2.28740436 29.50478478 -2.2815157 34.03130673 -2.27454293 38.55784893 C-2.26830108 43.28642177 -2.26770493 48.01499519 -2.26651752 52.74357152 C-2.26340667 61.70017559 -2.25519657 70.65676748 -2.24516803 79.61336619 C-2.23399928 89.80912887 -2.22849452 100.00489212 -2.2234726 110.20065939 C-2.21301377 131.1763299 -2.19541906 152.15198943 -2.17314899 173.1276505 C54.76773602 173.21321617 111.70862734 173.29282264 168.64955914 173.3393662 C169.49189191 173.34005648 170.33422467 173.34074677 171.20208267 173.34145797 C189.50689498 173.35642144 207.81170798 173.37027251 226.116522 173.38297715 C235.09280044 173.389214 244.0690787 173.39569674 253.04535687 173.4023087 C253.938619 173.4029625 254.83188114 173.40361629 255.75221182 173.4042899 C284.72137102 173.42560828 313.69048156 173.46317348 342.65961125 173.5091366 C372.42155895 173.55627202 402.1834797 173.58707131 431.94546409 173.59722545 C436.14618437 173.59866629 440.34690455 173.60029447 444.54762471 173.60203671 C445.37441158 173.60237383 446.20119845 173.60271094 447.05303947 173.60305828 C460.37845948 173.60897391 473.70379632 173.6321831 487.02918237 173.66181067 C500.41576518 173.69120701 513.8022653 173.70250044 527.18887927 173.69515739 C535.14860223 173.69134564 543.10802324 173.70157143 551.06769184 173.73163821 C557.0017943 173.7525283 562.93568616 173.74749373 568.86981211 173.73214497 C571.27769956 173.73002147 573.685612 173.73645821 576.09344979 173.75206641 C579.35361809 173.77198015 582.61228165 173.76141257 585.87242424 173.74288964 C587.2918195 173.76259224 587.2918195 173.76259224 588.73988941 173.78269288 C593.30306408 173.72365006 595.18743535 173.64125937 598.85183471 170.69784063 C599.50359009 169.84967789 600.15534547 169.00151514 600.82685101 168.1276505 C601.33989789 167.55401769 601.85294476 166.98038487 602.38153851 166.38936925 C602.81724164 165.86987706 603.25294476 165.35038487 603.70185101 164.8151505 C605.32629618 162.88428545 606.96149724 160.97951094 608.65888226 159.1120255 C611.36843348 156.12296268 613.60299773 153.58431119 615.38935101 149.9401505 C616.90837116 146.96815455 618.63232792 145.49404271 621.21165383 143.43500352 C625.13760894 140.25730527 628.34773224 137.54045419 629.37070286 132.38885617 C629.57257319 128.99440662 629.58026103 125.64761591 629.52387249 122.24752355 C629.52635495 120.96224263 629.5288374 119.67696172 629.53139508 118.3527329 C629.53736437 114.84437664 629.50631553 111.33723297 629.4681462 107.82911587 C629.43424679 104.15457076 629.43376189 100.4800164 629.42940533 96.8053391 C629.41746682 90.64099745 629.38370676 84.4771049 629.33441937 78.31295323 C629.2649048 69.61325664 629.23565058 60.91376014 629.21401882 52.21383154 C629.19573496 45.45981449 629.1663036 38.70583876 629.13544476 31.95186925 C629.13227332 31.22675641 629.12910189 30.50164357 629.12583435 29.75455761 C629.10416473 24.95655224 629.07236448 20.15871843 629.03559124 15.3608048 C629.02976025 14.14469518 629.02392926 12.92858556 629.01792157 11.67562413 C629.00787594 10.57232259 628.99783032 9.46902104 628.98748028 8.33228612 C628.9771736 6.88856901 628.9771736 6.88856901 628.96665871 5.41568589 C628.97497952 3.09738262 628.97497952 3.09738262 627.82685101 1.1276505 C420.25685101 1.1276505 212.68685101 1.1276505 -1.17314899 1.1276505 Z " fill="#6E6E6E" transform="translate(48.17314898967743,1.872349500656128)"/>
<path d="M0 0 C4.62 0 9.24 0 14 0 C16.71033685 6.04940388 18.90103133 12.23615203 21.0625 18.5 C21.41376953 19.50675781 21.76503906 20.51351562 22.12695312 21.55078125 C23.90064702 26.66733491 25.5831287 31.77299294 27 37 C29.64072331 34.35927669 30.12485533 31.93795811 31.25 28.375 C33.31962041 21.93152913 35.60075049 15.59622484 38.03222656 9.28076172 C39.21452917 6.18961502 40.19508419 3.21966323 41 0 C45.95 0 50.9 0 56 0 C56.02255449 8.0665259 56.04091709 16.13302746 56.05181217 24.19957638 C56.05704014 27.94483037 56.06413622 31.69006176 56.07543945 35.43530273 C56.08627141 39.04681687 56.09227749 42.65830921 56.09487724 46.26983833 C56.09673094 47.65060329 56.10035049 49.031367 56.10573006 50.41212273 C56.11294447 52.33975952 56.11340809 54.26741807 56.11352539 56.19506836 C56.115746 57.29427109 56.11796661 58.39347382 56.12025452 59.52598572 C56 62 56 62 55 63 C52.03 63 49.06 63 46 63 C45.67 47.49 45.34 31.98 45 16 C43.02 21.61 41.04 27.22 39 33 C37.88647543 36.02667894 36.77053577 39.04842638 35.625 42.0625 C35.36589844 42.74892578 35.10679687 43.43535156 34.83984375 44.14257812 C34.22818789 45.76233346 33.6143751 47.38127411 33 49 C29.7 49 26.4 49 23 49 C19.36104465 41.30220984 16.58591385 33.36957398 13.82788086 25.32592773 C12.59693731 21.8675971 11.28892785 18.43714094 10 15 C9.67 30.84 9.34 46.68 9 63 C6.03 63 3.06 63 0 63 C0 42.21 0 21.42 0 0 Z " fill="#F6F6F6" transform="translate(266,61)"/>
<path d="M0 0 C4.62 0 9.24 0 14 0 C16.74544885 5.9484725 18.58310147 12.0183815 20.375 18.3125 C20.83181152 19.89840942 20.83181152 19.89840942 21.29785156 21.51635742 C23.74408806 30.03381338 26.13927355 38.56527301 28.47998047 47.11230469 C28.97024793 48.8919986 29.47111342 50.66876321 29.97265625 52.4453125 C30.24980469 53.43273437 30.52695313 54.42015625 30.8125 55.4375 C31.04582031 56.26121094 31.27914062 57.08492187 31.51953125 57.93359375 C32 60 32 60 32 63 C28.7 63 25.4 63 22 63 C19.76262953 57.59302137 19 55.1035192 19 49 C11.41 49 3.82 49 -4 49 C-4.66 52.3 -5.32 55.6 -6 59 C-6.66 60.32 -7.32 61.64 -8 63 C-10.97 63 -13.94 63 -17 63 C-16.40419537 58.33974596 -15.5469975 53.90669969 -14.3125 49.375 C-14.14024902 48.74166748 -13.96799805 48.10833496 -13.79052734 47.45581055 C-9.4400165 31.56525678 -4.77587185 15.7671514 0 0 Z " fill="#F3F3F3" transform="translate(113,61)"/>
<path d="M0 0 C208.89 0 417.78 0 633 0 C633 58.74 633 117.48 633 178 C622.11 178 611.22 178 600 178 C601.485 176.02 601.485 176.02 603 174 C603.28875 173.030625 603.5775 172.06125 603.875 171.0625 C605.23745737 167.35358826 607.15766155 165.706989 610 163 C611.3440093 161.00715862 612.67541292 159.00580329 614 157 C624.33777372 143.51101894 624.33777372 143.51101894 629 139 C629.66 139 630.32 139 631 139 C631.04670564 121.59766203 631.08198179 104.1953436 631.10362434 86.79295731 C631.11394012 78.71286169 631.12800622 70.63280501 631.15087891 62.55273438 C631.17080355 55.51074598 631.18371424 48.46878577 631.18817699 41.42676997 C631.19078594 37.69753578 631.19692437 33.96838225 631.21146011 30.23917389 C631.22754938 26.07770702 631.22798028 21.91638068 631.22705078 17.75488281 C631.23424133 16.51626495 631.24143188 15.27764709 631.24884033 14.00149536 C631.24471634 12.30200241 631.24471634 12.30200241 631.24050903 10.56817627 C631.24235262 9.58370136 631.24419621 8.59922646 631.24609566 7.58491898 C631.12289793 4.64507848 631.12289793 4.64507848 629 1 C421.43 1 213.86 1 0 1 C0 0.67 0 0.34 0 0 Z " fill="#2A2A2A" transform="translate(47,0)"/>
<path d="M0 0 C207.57 0 415.14 0 629 0 C629 0.99 629 1.98 629 3 C421.43 2.67 213.86 2.34 0 2 C0 1.34 0 0.68 0 0 Z " fill="#BDBDBD" transform="translate(47,3)"/>
<path d="M0 0 C0.33 0 0.66 0 1 0 C1.33 21.45 1.66 42.9 2 65 C293.06 65.495 293.06 65.495 590 66 C590 66.66 590 67.32 590 68 C395.3 68 200.6 68 0 68 C0 45.56 0 23.12 0 0 Z " fill="#686868" transform="translate(52,101)"/>
<path d="M0 0 C2.31 0 4.62 0 7 0 C6.67 0.99 6.34 1.98 6 3 C5.34 3 4.68 3 4 3 C4.10748778 11.81436554 4.22011843 20.6286459 4.33933926 29.4428606 C4.39453443 33.53552883 4.447949 37.62820424 4.49731445 41.72094727 C4.54500823 45.66969218 4.59735288 49.61835041 4.65294075 53.56699181 C4.67334158 55.07446831 4.69205841 56.58196856 4.70907402 58.08948708 C4.73316838 60.19882423 4.76321591 62.307998 4.79467773 64.41723633 C4.81022202 65.61858719 4.8257663 66.81993805 4.84178162 68.05769348 C4.87300307 71.06039428 4.87300307 71.06039428 6 74 C8.64 74.33 11.28 74.66 14 75 C14 91.83 14 108.66 14 126 C10.535 126.495 10.535 126.495 7 127 C4.83177267 128.7608204 4.83177267 128.7608204 4.75276184 130.92196655 C4.75418686 131.70488068 4.75561188 132.4877948 4.75708008 133.29443359 C4.75400345 134.1823056 4.75092682 135.07017761 4.74775696 135.98495483 C4.75494247 136.94640411 4.76212799 137.90785339 4.76953125 138.8984375 C4.76998947 139.88494293 4.77044769 140.87144836 4.7709198 141.8878479 C4.77394473 143.97765299 4.78183818 146.06745578 4.79418945 148.15722656 C4.81238562 151.35489913 4.81469956 154.55228119 4.81445312 157.75 C4.81937066 159.77864834 4.8252 161.80729471 4.83203125 163.8359375 C4.83314407 164.79333832 4.8342569 165.75073914 4.83540344 166.7371521 C4.84497322 168.0784166 4.84497322 168.0784166 4.85473633 169.44677734 C4.85854813 170.23128265 4.86235992 171.01578796 4.86628723 171.82406616 C4.99985693 173.99767171 5.40202606 175.91050179 6 178 C4.02 178 2.04 178 0 178 C0 119.26 0 60.52 0 0 Z " fill="#0C0C0C" transform="translate(0,0)"/>
<path d="M0 0 C0.99 0.66 1.98 1.32 3 2 C3.38311005 4.29362202 3.38311005 4.29362202 3.39440918 7.21809387 C3.40575897 8.32428574 3.41710876 9.4304776 3.42880249 10.57019043 C3.42587189 11.78944214 3.42294128 13.00869385 3.41992188 14.26489258 C3.42839142 15.54462448 3.43686096 16.82435638 3.44558716 18.14286804 C3.46785844 21.6595598 3.47073092 25.17601764 3.46883965 28.69277024 C3.46872015 31.62759323 3.47727593 34.56236627 3.48561716 37.4971754 C3.50487301 44.42238566 3.50772784 51.34747538 3.50097656 58.27270508 C3.49434019 65.4164908 3.51717828 72.55975961 3.55429029 79.70344049 C3.58498916 85.83517333 3.59634697 91.96673996 3.59245348 98.09854811 C3.59038539 101.76139639 3.59587289 105.42384289 3.62034607 109.08661842 C3.64675013 113.17373441 3.63288411 117.25976075 3.61523438 121.34692383 C3.63512924 123.16669235 3.63512924 123.16669235 3.65542603 125.02322388 C3.57266318 133.25351661 3.57266318 133.25351661 0.60412598 137.12309265 C-0.2552356 137.74247208 -1.11459717 138.3618515 -2 139 C-3.52379253 140.79254361 -5.02395594 142.60543827 -6.5 144.4375 C-8.90050717 147.41126262 -11.30315648 150.36775095 -13.8125 153.25 C-16.13540653 156.00165649 -16.13540653 156.00165649 -17.875 159.5 C-19.76221897 162.98942935 -22.19972757 165.13431062 -25.31640625 167.54296875 C-27.12677525 168.91565603 -27.12677525 168.91565603 -27.99747783 171.0603025 C-31.33297999 174.29116071 -35.2625421 173.54137779 -39.72394848 173.49219131 C-41.24614453 173.49911438 -41.24614453 173.49911438 -42.79909202 173.50617731 C-46.23335891 173.51684856 -49.66689051 173.49875145 -53.10112 173.48101807 C-55.57446637 173.48276075 -58.04781204 173.48626009 -60.52115375 173.49137473 C-65.91601838 173.49847773 -71.31065872 173.49307277 -76.7054882 173.4768219 C-84.72740926 173.45272438 -92.74921878 173.45147469 -100.77116943 173.45498985 C-114.26399594 173.46025106 -127.75674422 173.44685866 -141.24954796 173.42292023 C-154.61358718 173.39927089 -167.97759383 173.38386025 -181.34165382 173.37950897 C-182.58697708 173.37909653 -182.58697708 173.37909653 -183.85745838 173.37867576 C-188.07351837 173.37732248 -192.2895784 173.37611692 -196.50563846 173.37496826 C-226.386024 173.36656143 -256.26636697 173.33959755 -286.14672852 173.30175781 C-315.17927829 173.2650341 -344.21181642 173.23669279 -373.24438477 173.21972656 C-374.13892968 173.21920046 -375.03347459 173.21867435 -375.95512693 173.21813231 C-384.93832453 173.21285833 -393.92152223 173.20775506 -402.90472001 173.20277687 C-421.20534558 173.19263138 -439.50597039 173.18134637 -457.80659485 173.16937256 C-458.64807084 173.1688234 -459.48954684 173.16827424 -460.35652211 173.16770844 C-516.5710326 173.13089136 -572.78551892 173.06742583 -629 173 C-629 172.67 -629 172.34 -629 172 C-627.73866472 171.99978263 -626.47732943 171.99956526 -625.17777187 171.99934131 C-569.60627461 171.98943684 -514.03478174 171.97336541 -458.46330261 171.92570496 C-457.20191807 171.92462578 -457.20191807 171.92462578 -455.91505101 171.9235248 C-437.64087002 171.90785319 -419.3666902 171.89107103 -401.09251129 171.87314438 C-392.13125446 171.8643603 -383.16999741 171.85582171 -374.20874023 171.84741211 C-372.8710893 171.84615054 -372.8710893 171.84615054 -371.50641511 171.84486348 C-342.58578055 171.81770284 -313.66516742 171.80676186 -284.7445211 171.80420476 C-255.03236193 171.8014922 -225.32025698 171.78247081 -195.60812302 171.74283885 C-191.41443031 171.73725266 -187.22073739 171.73185351 -183.0270443 171.72656822 C-182.20164057 171.72552219 -181.37623685 171.72447615 -180.5258209 171.72339842 C-167.22273981 171.7070209 -153.91971282 171.70790804 -140.61662598 171.71520283 C-127.25241678 171.72216445 -113.88832041 171.71105337 -100.52414153 171.6813371 C-92.57777618 171.66422127 -84.63168882 171.66111965 -76.68532109 171.67782579 C-70.76110752 171.68875782 -64.83714753 171.67380843 -58.9129711 171.64856227 C-56.50913598 171.64241583 -54.1052616 171.64481498 -51.70144639 171.65637074 C-48.44668638 171.67079973 -45.19347948 171.65479982 -41.93880939 171.63085651 C-40.99415023 171.64238724 -40.04949107 171.65391796 -39.07620588 171.6657981 C-34.57209408 171.59997635 -32.64450155 171.51318342 -29.02140254 168.62829608 C-28.3543397 167.76095837 -27.68727686 166.89362067 -27 166 C-25.87078125 164.67162109 -25.87078125 164.67162109 -24.71875 163.31640625 C-23.62046875 161.95322266 -23.62046875 161.95322266 -22.5 160.5625 C-20.05244161 157.53257746 -17.60161569 154.51601143 -15.0625 151.5625 C-12.98801208 149.19113251 -12.98801208 149.19113251 -12 146.875 C-10.57228078 144.19802647 -8.36927174 142.88464798 -6 141 C-2.59619643 138.19214235 -0.32073048 135.64170822 0.54270554 131.22207832 C0.73866302 127.76910775 0.74190754 124.36265201 0.68115234 120.90454102 C0.68246658 118.94254005 0.68246658 118.94254005 0.68380737 116.94090271 C0.6855225 113.37068235 0.65035395 109.80168192 0.60836363 106.23174405 C0.57074723 102.49488663 0.56732274 98.75799838 0.56021118 95.02098083 C0.54159411 87.95191838 0.49240045 80.8834155 0.43211424 73.81459898 C0.36495063 65.76388311 0.33203549 57.71313992 0.30194163 49.66221344 C0.2392979 33.10781521 0.133825 16.55397912 0 0 Z " fill="#888888" transform="translate(676,3)"/>
<path d="M0 0 C3.3 0 6.6 0 10 0 C10 17.82 10 35.64 10 54 C18.25 54 26.5 54 35 54 C36 55 36 55 36.125 58.5 C36 62 36 62 35 63 C32.40665852 63.0885067 29.83937421 63.1153317 27.24609375 63.09765625 C26.55906372 63.09664917 25.87203369 63.09564209 25.16418457 63.09460449 C22.58860616 63.08935776 20.01305147 63.07539659 17.4375 63.0625 C11.683125 63.041875 5.92875 63.02125 0 63 C0 42.21 0 21.42 0 0 Z " fill="#F1F1F1" transform="translate(336,61)"/>
<path d="M0 0 C0.33 0 0.66 0 1 0 C1 14.19 1 28.38 1 43 C-9.89 43 -20.78 43 -32 43 C-31.01 41.68 -30.02 40.36 -29 39 C-28.71125 38.030625 -28.4225 37.06125 -28.125 36.0625 C-26.76254263 32.35358826 -24.84233845 30.706989 -22 28 C-20.6559907 26.00715862 -19.32458708 24.00580329 -18 22 C-7.66222628 8.51101894 -7.66222628 8.51101894 -3 4 C-2.34 4 -1.68 4 -1 4 C-0.67 2.68 -0.34 1.36 0 0 Z " fill="#0D0D0D" transform="translate(679,135)"/>
<path d="M0 0 C0.66 0 1.32 0 2 0 C2 21.45 2 42.9 2 65 C195.38 65 388.76 65 588 65 C588.66 63.35 589.32 61.7 590 60 C592 57.1875 592 57.1875 594 55 C594.66 55 595.32 55 596 55 C594.73520428 59.53218467 593.48826962 62.78194616 590 66 C586.77893116 66.75279544 583.60695891 66.66335422 580.31197071 66.61803246 C579.31320283 66.62410127 578.31443495 66.63017009 577.28540137 66.63642281 C573.91152789 66.65075175 570.53881756 66.62917867 567.16499329 66.60800171 C564.73274287 66.61089604 562.30049423 66.61598357 559.86825246 66.62308562 C554.56620781 66.6334994 549.26451577 66.62829145 543.96251869 66.60948563 C536.07862975 66.58159932 528.19492569 66.58228704 520.31099945 66.58886189 C507.04969979 66.5990878 493.78851924 66.58586469 480.52724648 66.55921555 C467.39289877 66.53286872 454.25860216 66.51639944 441.12422752 66.51332474 C440.30808935 66.51312616 439.49195118 66.51292759 438.65108155 66.512723 C434.50644173 66.5117592 430.3618019 66.5109616 426.21716204 66.51022096 C396.84648286 66.50460423 367.47587084 66.47503803 338.10522461 66.43212891 C309.57136925 66.39046817 281.0375458 66.36212903 252.50366211 66.35009766 C251.62447235 66.34972309 250.74528258 66.34934852 249.8394507 66.3489626 C242.76697034 66.34595463 235.69448997 66.34299342 228.62200955 66.34011877 C198.13853147 66.32769612 167.65506066 66.30469653 137.17159084 66.27942905 C131.41636179 66.27468572 125.66113253 66.27030772 119.9059031 66.26605177 C102.6310739 66.25311386 85.35625679 66.2369329 68.08144156 66.21106736 C60.9341244 66.20042037 53.7868139 66.19123631 46.63949013 66.18649673 C40.10821072 66.18215254 33.57695295 66.17283156 27.045684 66.15983529 C24.67164488 66.15591221 22.29760226 66.15369606 19.92355994 66.15327708 C16.71918054 66.15244203 13.51487255 66.1455596 10.31050587 66.13701439 C9.36931681 66.13821217 8.42812774 66.13940994 7.4584178 66.14064401 C1.11416851 66.11416851 1.11416851 66.11416851 0 65 C-0.09409479 62.97505769 -0.11743122 60.9468013 -0.11352539 58.91967773 C-0.11344986 57.61840439 -0.11337433 56.31713104 -0.11329651 54.97642517 C-0.10818909 53.54548098 -0.10297308 52.11453718 -0.09765625 50.68359375 C-0.09579203 49.2277074 -0.09436815 47.77182043 -0.09336853 46.31593323 C-0.08954365 42.47720621 -0.07971364 38.63851681 -0.06866455 34.79980469 C-0.05844978 30.88542184 -0.05387077 26.97103294 -0.04882812 23.05664062 C-0.03809134 15.37107657 -0.02101529 7.68554355 0 0 Z " fill="#2F2F2F" transform="translate(53,101)"/>
<path d="M0 0 C0.33 0 0.66 0 1 0 C1.01030746 0.82463242 1.02061493 1.64926483 1.03123474 2.49888611 C1.1290388 10.25405684 1.23152834 18.00914453 1.33933926 25.76418209 C1.39460473 29.75153216 1.44803037 33.73888952 1.49731445 37.72631836 C1.54490476 41.57131601 1.59724536 45.41622182 1.65294075 49.26111031 C1.67338857 50.73116342 1.69209756 52.20124174 1.70907402 53.67133904 C1.73306464 55.72361276 1.7631259 57.77571147 1.79467773 59.82788086 C1.81022202 60.99814316 1.8257663 62.16840546 1.84178162 63.37413025 C1.70415326 65.9252526 1.70415326 65.9252526 3 67 C4.32781878 67.20604085 5.66295895 67.3662959 7 67.5 C10.88888889 67.88888889 10.88888889 67.88888889 12 69 C12.09881245 70.70789281 12.12798966 72.41986693 12.12939453 74.13061523 C12.13254669 75.22522568 12.13569885 76.31983612 12.13894653 77.44761658 C12.1369223 78.63923904 12.13489807 79.83086151 12.1328125 81.05859375 C12.13376923 82.27321793 12.13472595 83.4878421 12.13571167 84.73927307 C12.13639377 87.31421968 12.13453741 89.889168 12.13037109 92.46411133 C12.12502789 96.41686858 12.13031274 100.36951196 12.13671875 104.32226562 C12.13605788 106.81770859 12.13477654 109.31315147 12.1328125 111.80859375 C12.13483673 112.99819199 12.13686096 114.18779022 12.13894653 115.41343689 C12.13579437 116.51119949 12.13264221 117.6089621 12.12939453 118.73999023 C12.12859894 119.7096019 12.12780334 120.67921356 12.12698364 121.6782074 C12 124 12 124 11 126 C6.545 126.99 6.545 126.99 2 128 C2.33 141.86 2.66 155.72 3 170 C11.58 170.33 20.16 170.66 29 171 C29 114.57 29 58.14 29 0 C29.66 0 30.32 0 31 0 C31 56.76 31 113.52 31 172 C28.19397735 173.40301133 25.84981633 173.1297542 22.71484375 173.1328125 C21.46251953 173.13410156 20.21019531 173.13539063 18.91992188 173.13671875 C17.60572266 173.13285156 16.29152344 173.12898437 14.9375 173.125 C12.96040039 173.13080078 12.96040039 173.13080078 10.94335938 173.13671875 C9.69232422 173.13542969 8.44128906 173.13414062 7.15234375 173.1328125 C5.99726318 173.13168457 4.84218262 173.13055664 3.65209961 173.12939453 C1 173 1 173 0 172 C-0.10828502 170.63490751 -0.14899634 169.26434632 -0.16113281 167.89501953 C-0.17074036 167.02386505 -0.1803479 166.15271057 -0.19024658 165.25515747 C-0.19449646 164.30728363 -0.19874634 163.35940979 -0.203125 162.3828125 C-0.21167511 160.93066849 -0.21167511 160.93066849 -0.22039795 159.44918823 C-0.22986383 157.39631244 -0.2363882 155.34342135 -0.24023438 153.29052734 C-0.24993756 150.14523865 -0.28094511 147.00060382 -0.3125 143.85546875 C-0.31902991 141.86458723 -0.32428043 139.87370102 -0.328125 137.8828125 C-0.3404718 136.93898712 -0.3528186 135.99516174 -0.36553955 135.0227356 C-0.3610379 133.70654739 -0.3610379 133.70654739 -0.35644531 132.36376953 C-0.36009094 131.5917923 -0.36373657 130.81981506 -0.36749268 130.02444458 C-0 128 -0 128 1.08477783 126.2272644 C3 125 3 125 10 125 C10 107.18 10 89.36 10 71 C6.04 70.505 6.04 70.505 2 70 C0 68 0 68 -0.24050903 65.177948 C-0.23606781 63.97437653 -0.23162659 62.77080505 -0.22705078 61.53076172 C-0.22734283 60.86722687 -0.22763489 60.20369202 -0.22793579 59.52005005 C-0.22654056 57.32313028 -0.21097067 55.12654814 -0.1953125 52.9296875 C-0.19158305 51.40797104 -0.18873576 49.88625219 -0.18673706 48.36453247 C-0.17909523 44.35643908 -0.15944213 40.3484903 -0.1373291 36.3404541 C-0.11688244 32.25172888 -0.10773788 28.16298034 -0.09765625 24.07421875 C-0.07619667 16.04941276 -0.04205421 8.02472436 0 0 Z " fill="#9B9B9B" transform="translate(6,3)"/>
<path d="M0 0 C9.24 0 18.48 0 28 0 C28 56.43 28 112.86 28 171 C19.42 171 10.84 171 2 171 C1 170 1 170 0.88647461 166.03100586 C0.8866338 164.25894393 0.89233215 162.4868774 0.90234375 160.71484375 C0.9037587 159.78402481 0.90517365 158.85320587 0.90663147 157.8941803 C0.91224828 154.90858809 0.9248036 151.92306971 0.9375 148.9375 C0.94251284 146.91862087 0.94707612 144.89974057 0.95117188 142.88085938 C0.96222317 137.92054428 0.97949905 132.96028468 1 128 C5.455 127.01 5.455 127.01 10 126 C10 107.19 10 88.38 10 69 C6.04 68.505 6.04 68.505 2 68 C0 66 0 66 -0.24050903 63.25387573 C-0.23606781 62.08583405 -0.23162659 60.91779236 -0.22705078 59.71435547 C-0.22734283 59.07032776 -0.22763489 58.42630005 -0.22793579 57.76275635 C-0.22654074 55.63076373 -0.21097174 53.49911918 -0.1953125 51.3671875 C-0.19158298 49.89031159 -0.18873572 48.41343322 -0.18673706 46.93655396 C-0.17909574 43.04682602 -0.15944308 39.15724712 -0.1373291 35.26757812 C-0.11688135 31.29949968 -0.10773764 27.33139718 -0.09765625 23.36328125 C-0.07619754 15.57544498 -0.04101147 7.78776235 0 0 Z M3 3 C2.9059933 4.96369153 2.88256619 6.93079199 2.88647461 8.89672852 C2.88655014 10.15796036 2.88662567 11.4191922 2.88670349 12.71864319 C2.8918109 14.10539794 2.89702691 15.49215229 2.90234375 16.87890625 C2.90420799 18.28995209 2.90563186 19.70099857 2.90663147 21.11204529 C2.91045621 24.83240535 2.9202861 28.5527266 2.93133545 32.27307129 C2.94155052 36.06680781 2.94612929 39.86055058 2.95117188 43.65429688 C2.96190842 51.10288231 2.9789843 58.55143572 3 66 C4.11375 66.103125 5.2275 66.20625 6.375 66.3125 C7.57125 66.539375 8.7675 66.76625 10 67 C12.26080828 70.39121242 12.25246265 71.56573096 12.25878906 75.54125977 C12.26509338 76.67576065 12.27139771 77.81026154 12.27789307 78.97914124 C12.2738446 80.20418869 12.26979614 81.42923615 12.265625 82.69140625 C12.26753845 83.94759262 12.2694519 85.20377899 12.27142334 86.49803162 C12.27278533 89.15532169 12.27008981 91.81224472 12.26074219 94.46948242 C12.24933608 97.87827773 12.25591677 101.28675851 12.26788712 104.69554234 C12.27684251 107.94417503 12.27057717 111.19276946 12.265625 114.44140625 C12.26967346 115.66847794 12.27372192 116.89554962 12.27789307 118.1598053 C12.27158875 119.29115402 12.26528442 120.42250275 12.25878906 121.58813477 C12.25640228 123.08679832 12.25640228 123.08679832 12.25396729 124.61573792 C12 127 12 127 10 129 C6.535 129.495 6.535 129.495 3 130 C3 143.2 3 156.4 3 170 C6.774375 170.020625 10.54875 170.04125 14.4375 170.0625 C15.62915771 170.071604 16.82081543 170.08070801 18.04858398 170.09008789 C18.98001221 170.09258545 19.91144043 170.09508301 20.87109375 170.09765625 C21.82943115 170.10289307 22.78776855 170.10812988 23.77514648 170.11352539 C25.97285339 170.2505313 25.97285339 170.2505313 27 169 C27.09911609 166.86336974 27.12632367 164.72340053 27.12698364 162.58447266 C27.12932363 161.56744483 27.12932363 161.56744483 27.13171089 160.52987099 C27.13572291 158.24124652 27.13253048 155.95268754 27.12939453 153.6640625 C27.13074848 152.03008993 27.13252838 150.39611767 27.13470459 148.762146 C27.13927965 144.31185921 27.13748907 139.8615955 27.1343255 135.41130829 C27.13180228 130.76460201 27.13413934 126.11789776 27.13571167 121.47119141 C27.13753348 113.66633752 27.13512677 105.86149308 27.13037109 98.05664062 C27.12492845 89.01972763 27.1266911 79.9828372 27.1321975 70.94592476 C27.13672832 63.20157744 27.13737933 55.45723693 27.13475883 47.71288872 C27.13319588 43.08115138 27.13300277 38.44942466 27.13629532 33.81768799 C27.13917358 29.46426583 27.13719918 25.1108729 27.13140106 20.75745392 C27.13007322 19.15499164 27.13046798 17.55252693 27.13266373 15.95006561 C27.1353743 13.77185243 27.13199528 11.59373438 27.12698364 9.41552734 C27.12660662 8.19360687 27.12622959 6.9716864 27.12584114 5.71273804 C27.3091208 3.08459398 27.3091208 3.08459398 26 2 C24.37742456 1.9008343 22.75060169 1.86920223 21.125 1.8671875 C20.14015625 1.86589844 19.1553125 1.86460938 18.140625 1.86328125 C16.58601563 1.86908203 16.58601563 1.86908203 15 1.875 C13.96359375 1.87113281 12.9271875 1.86726562 11.859375 1.86328125 C10.87453125 1.86457031 9.8896875 1.86585937 8.875 1.8671875 C7.96492187 1.86831543 7.05484375 1.86944336 6.1171875 1.87060547 C4.0147152 1.76439991 4.0147152 1.76439991 3 3 Z " fill="#DADADA" transform="translate(7,3)"/>
<path d="M0 0 C3.3 0 6.6 0 10 0 C10.02312737 8.06652174 10.04091709 16.13302972 10.05181217 24.19957638 C10.05704014 27.94483037 10.06413622 31.69006176 10.07543945 35.43530273 C10.08627141 39.04681687 10.09227749 42.65830921 10.09487724 46.26983833 C10.09673094 47.65060329 10.10035049 49.031367 10.10573006 50.41212273 C10.11294447 52.33975952 10.11340809 54.26741807 10.11352539 56.19506836 C10.115746 57.29427109 10.11796661 58.39347382 10.12025452 59.52598572 C10 62 10 62 9 63 C6.03 63 3.06 63 0 63 C0 42.21 0 21.42 0 0 Z " fill="#F3F3F3" transform="translate(155,61)"/>
<path d="M0 0 C2.97 0 5.94 0 9 0 C8.32063922 5.54358396 6.56098394 10.52294085 4.6875 15.75 C4.20893555 17.10158203 4.20893555 17.10158203 3.72070312 18.48046875 C1.91743024 23.54138533 0.00164858 28.53585832 -2.02148438 33.51293945 C-2.96908725 35.92143008 -3.82756405 38.34127467 -4.65625 40.79296875 C-5.11064453 42.11844727 -5.11064453 42.11844727 -5.57421875 43.47070312 C-6.17691896 45.23938666 -6.77359388 47.01013861 -7.36328125 48.78320312 C-9.11100474 53.91065674 -11.1536151 58.38710868 -14 63 C-16.64 63 -19.28 63 -22 63 C-20.5213482 54.8674151 -17.7389031 47.26589732 -14.91796875 39.52587891 C-13.92559484 36.79526709 -12.94665421 34.06004416 -11.96875 31.32421875 C-11.27123532 29.38266804 -10.57332324 27.44126004 -9.875 25.5 C-9.38845947 24.13935425 -9.38845947 24.13935425 -8.89208984 22.7512207 C-7.06973647 17.71917696 -5.09848268 12.80992894 -2.86083984 7.94750977 C-1.71574839 5.35692708 -0.83237698 2.70522518 0 0 Z " fill="#F3F3F3" transform="translate(222,61)"/>
<path d="M0 0 C0.66 0 1.32 0 2 0 C2.33 22.44 2.66 44.88 3 68 C5.97 68.99 8.94 69.98 12 71 C12 88.82 12 106.64 12 125 C7.545 125.495 7.545 125.495 3 126 C3 141.18 3 156.36 3 172 C12.9 172 22.8 172 33 172 C33 172.66 33 173.32 33 174 C30.12981559 175.43509221 27.66456277 175.11158506 24.4609375 175.09765625 C23.15898437 175.09443359 21.85703125 175.09121094 20.515625 175.08789062 C19.13541601 175.07953466 17.75520768 175.07106971 16.375 175.0625 C14.98698074 175.05748501 13.59895978 175.0529221 12.2109375 175.04882812 C8.80724868 175.03700976 5.40364561 175.02053434 2 175 C0.2973189 172.02644751 -0.25452032 169.87836116 -0.2746582 166.46264648 C-0.28895622 165.12622353 -0.28895622 165.12622353 -0.30354309 163.76280212 C-0.30263168 162.80853836 -0.30172028 161.8542746 -0.30078125 160.87109375 C-0.30506638 159.88504654 -0.3093515 158.89899933 -0.31376648 157.8830719 C-0.31950385 155.80104337 -0.32001441 153.7189948 -0.31567383 151.63696289 C-0.31250821 148.44578088 -0.33600024 145.25552092 -0.36132812 142.06445312 C-0.36360055 140.04166784 -0.36430488 138.01888005 -0.36328125 135.99609375 C-0.372491 135.03980576 -0.38170074 134.08351776 -0.39118958 133.09825134 C-0.38496078 132.21045486 -0.37873199 131.32265839 -0.37231445 130.40795898 C-0.37294388 129.62726547 -0.3735733 128.84657196 -0.3742218 128.04222107 C-0 126 -0 126 1.08576965 124.22450256 C3 123 3 123 10 123 C10 106.17 10 89.34 10 72 C7.36 72 4.72 72 2 72 C-0.23373547 68.41653594 -0.24250167 65.47545161 -0.22705078 61.30371094 C-0.22734283 60.63988403 -0.22763489 59.97605713 -0.22793579 59.29211426 C-0.22654658 57.10606649 -0.21100503 54.92036296 -0.1953125 52.734375 C-0.19158091 51.21551703 -0.18873463 49.69665665 -0.18673706 48.17779541 C-0.1791121 44.18617063 -0.15947344 40.19469211 -0.1373291 36.203125 C-0.11684614 32.12762429 -0.10773011 28.05209988 -0.09765625 23.9765625 C-0.07622641 15.98430799 -0.04210426 7.99217221 0 0 Z " fill="#3A3A3A" transform="translate(4,3)"/>
<path d="M0 0 C4.07507572 -0.04946866 8.15003497 -0.08575189 12.2253418 -0.10986328 C13.61144048 -0.1199157 14.99751799 -0.1335597 16.38354492 -0.15087891 C18.3766975 -0.17515952 20.37000533 -0.18542031 22.36328125 -0.1953125 C24.16212769 -0.21102295 24.16212769 -0.21102295 25.99731445 -0.22705078 C29 0 29 0 32 2 C32.36914349 4.94790077 32.36914349 4.94790077 32.36076355 8.80825806 C32.36332682 9.51642146 32.3658901 10.22458487 32.36853105 10.95420778 C32.37349216 13.33900324 32.35693843 15.72317255 32.34057617 18.10791016 C32.3397304 19.81261683 32.34020407 21.5173246 32.34190369 23.22203064 C32.34276701 27.86028905 32.32508685 32.49831633 32.30418181 37.13652086 C32.28547106 41.97986725 32.28366901 46.82321851 32.28010559 51.66659546 C32.27076862 60.84285728 32.24613254 70.01901231 32.21605712 79.19522703 C32.18256445 89.64004151 32.16604004 100.084861 32.15097082 110.52971578 C32.11958438 132.0198702 32.06679185 153.50992838 32 175 C31.34 175 30.68 175 30 175 C30 118.24 30 61.48 30 3 C19.77 3 9.54 3 -1 3 C-0.67 2.01 -0.34 1.02 0 0 Z " fill="#4E4E4E" transform="translate(7,0)"/>
<path d="M0 0 C0.33 0 0.66 0 1 0 C1.23411553 17.02043876 1.41019155 34.04037162 1.51812172 51.06205463 C1.56957915 58.96647943 1.63966756 66.86990102 1.75439453 74.77368164 C1.85440152 81.66668706 1.9186597 88.55896569 1.94088495 95.45267648 C1.95386811 99.0997361 1.98413728 102.74471756 2.05730057 106.39110756 C2.13852958 110.47299997 2.13987878 114.55133423 2.13525391 118.6340332 C2.17120667 119.82878265 2.20715942 121.0235321 2.24420166 122.25448608 C2.13938842 130.83822943 -0.76040969 135.10851098 -6.65709877 140.96599102 C-9 143 -9 143 -11 144 C-11.37125 144.825 -11.7425 145.65 -12.125 146.5 C-14.23562853 150.43983992 -16.78696236 153.27289169 -19.80078125 156.54296875 C-22.83209514 159.92964092 -25.57745266 163.51869801 -28.3359375 167.12890625 C-29.15964844 168.05509766 -29.15964844 168.05509766 -30 169 C-30.66 169 -31.32 169 -32 169 C-31.505 167.02 -31.505 167.02 -31 165 C-31.99 165 -32.98 165 -34 165 C-33.13655897 160.56132673 -30.62387423 157.92224816 -27.6875 154.625 C-24.11711934 150.57699226 -20.94836786 146.54138579 -18 142 C-16.79256742 140.57014562 -15.58463564 139.14063736 -14.36328125 137.72265625 C-12.12155561 134.8899886 -10.24595006 131.81806262 -8.33203125 128.7578125 C-7.89246094 128.17773438 -7.45289063 127.59765625 -7 127 C-6.34 127 -5.68 127 -5 127 C-5.66 129.64 -6.32 132.28 -7 135 C-3.94441923 133.98147308 -2.89546852 133.50978767 -1 131 C-0.54064427 128.51210775 -0.54064427 128.51210775 -0.60127258 125.66596985 C-0.58873444 124.55959167 -0.57619629 123.4532135 -0.5632782 122.31330872 C-0.56471329 121.0991478 -0.56614838 119.88498688 -0.56762695 118.6340332 C-0.5574353 117.35587738 -0.54724365 116.07772156 -0.53674316 114.76083374 C-0.50912523 111.25490236 -0.49988224 107.74913317 -0.49388909 104.24310708 C-0.4845178 100.57950151 -0.45831549 96.91601769 -0.43388367 93.25248718 C-0.39018055 86.31462319 -0.36165708 79.37678278 -0.33856028 72.43882293 C-0.31152897 64.54040571 -0.26761625 56.64211074 -0.22227156 48.74378073 C-0.12937073 32.49591574 -0.05771499 16.24802887 0 0 Z " fill="#BFBFBF" transform="translate(676,5)"/>
<path d="M0 0 C1.65 0 3.3 0 5 0 C4.67 0.99 4.34 1.98 4 3 C3.34 3 2.68 3 2 3 C2.14321934 16.91669439 2.28921487 30.83335866 2.4375 44.75 C2.44852123 45.78449783 2.45954247 46.81899567 2.47089767 47.88484192 C2.78011892 76.84075193 3.12470059 105.79573216 3.5625 134.75 C3.5736018 135.4843779 3.5847036 136.2187558 3.59614182 136.97538757 C3.72756322 145.65030866 3.86193083 154.32518197 4 163 C3.01 163 2.02 163 1 163 C1.495 165.475 1.495 165.475 2 168 C1.34 168 0.68 168 0 168 C0 112.56 0 57.12 0 0 Z " fill="#DFDFDF" transform="translate(47,6)"/>
<path d="M0 0 C3.64581687 -0.02887512 7.29160463 -0.04675585 10.9375 -0.0625 C12.49887695 -0.07506836 12.49887695 -0.07506836 14.09179688 -0.08789062 C15.08115234 -0.09111328 16.07050781 -0.09433594 17.08984375 -0.09765625 C18.46450806 -0.10551147 18.46450806 -0.10551147 19.86694336 -0.11352539 C22 0 22 0 23 1 C23.09911609 3.13663026 23.12632367 5.27659947 23.12698364 7.41552734 C23.12854363 8.09354589 23.13010362 8.77156445 23.13171089 9.47012901 C23.13572291 11.75875348 23.13253048 14.04731246 23.12939453 16.3359375 C23.13074848 17.96991007 23.13252838 19.60388233 23.13470459 21.237854 C23.13927965 25.68814079 23.13748907 30.1384045 23.1343255 34.58869171 C23.13180228 39.23539799 23.13413934 43.88210224 23.13571167 48.52880859 C23.13753348 56.33366248 23.13512677 64.13850692 23.13037109 71.94335938 C23.12492845 80.98027237 23.1266911 90.0171628 23.1321975 99.05407524 C23.13672832 106.79842256 23.13737933 114.54276307 23.13475883 122.28711128 C23.13319588 126.91884862 23.13300277 131.55057534 23.13629532 136.18231201 C23.13917358 140.53573417 23.13719918 144.8891271 23.13140106 149.24254608 C23.13007322 150.84500836 23.13046798 152.44747307 23.13266373 154.04993439 C23.1353743 156.22814757 23.13199528 158.40626562 23.12698364 160.58447266 C23.12660662 161.80639313 23.12622959 163.0283136 23.12584114 164.28726196 C23 167 23 167 22 168 C20.29227642 168.08713831 18.58101351 168.10700007 16.87109375 168.09765625 C15.31938477 168.09282227 15.31938477 168.09282227 13.73632812 168.08789062 C12.64771484 168.07951172 11.55910156 168.07113281 10.4375 168.0625 C8.7987793 168.05573242 8.7987793 168.05573242 7.12695312 168.04882812 C4.41791505 168.03699826 1.70898401 168.02051543 -1 168 C-1 167.67 -1 167.34 -1 167 C6.26 167 13.52 167 21 167 C21 112.55 21 58.1 21 2 C14.07 1.67 7.14 1.34 0 1 C0 0.67 0 0.34 0 0 Z " fill="#EEEEEE" transform="translate(11,5)"/>
<path d="M0 0 C0.99 0.66 1.98 1.32 3 2 C3.38311005 4.29362202 3.38311005 4.29362202 3.39440918 7.21809387 C3.40575897 8.32428574 3.41710876 9.4304776 3.42880249 10.57019043 C3.42440659 12.39906799 3.42440659 12.39906799 3.41992188 14.26489258 C3.42839142 15.54462448 3.43686096 16.82435638 3.44558716 18.14286804 C3.46785844 21.6595598 3.47073092 25.17601764 3.46883965 28.69277024 C3.46872015 31.62759323 3.47727593 34.56236627 3.48561716 37.4971754 C3.50487301 44.42238566 3.50772784 51.34747538 3.50097656 58.27270508 C3.49434019 65.4164908 3.51717828 72.55975961 3.55429029 79.70344049 C3.58498916 85.83517333 3.59634697 91.96673996 3.59245348 98.09854811 C3.59038539 101.76139639 3.59587289 105.42384289 3.62034607 109.08661842 C3.64675013 113.17373441 3.63288411 117.25976075 3.61523438 121.34692383 C3.62849762 122.56010284 3.64176086 123.77328186 3.65542603 125.02322388 C3.57266318 133.25351661 3.57266318 133.25351661 0.60412598 137.12309265 C-0.68491638 138.05216179 -0.68491638 138.05216179 -2 139 C-3.52379253 140.79254361 -5.02395594 142.60543827 -6.5 144.4375 C-8.90050717 147.41126262 -11.30315648 150.36775095 -13.8125 153.25 C-16.13540653 156.00165649 -16.13540653 156.00165649 -17.875 159.5 C-19.78305014 163.02794578 -22.28054734 165.16577277 -25.390625 167.64453125 C-27.26044779 169.21935772 -28.56343963 171.03418055 -30 173 C-30.66 173 -31.32 173 -32 173 C-32 171 -32 171 -29.78125 168.71484375 C-28.40453125 167.37099609 -28.40453125 167.37099609 -27 166 C-25.47620747 164.20745639 -23.97604406 162.39456173 -22.5 160.5625 C-20.05244161 157.53257746 -17.60161569 154.51601143 -15.0625 151.5625 C-12.98801208 149.19113251 -12.98801208 149.19113251 -12 146.875 C-10.57228078 144.19802647 -8.36927174 142.88464798 -6 141 C-2.59619643 138.19214235 -0.32073048 135.64170822 0.54270554 131.22207832 C0.73866302 127.76910775 0.74190754 124.36265201 0.68115234 120.90454102 C0.6820285 119.59654037 0.68290466 118.28853973 0.68380737 116.94090271 C0.6855225 113.37068235 0.65035395 109.80168192 0.60836363 106.23174405 C0.57074723 102.49488663 0.56732274 98.75799838 0.56021118 95.02098083 C0.54159411 87.95191838 0.49240045 80.8834155 0.43211424 73.81459898 C0.36495063 65.76388311 0.33203549 57.71313992 0.30194163 49.66221344 C0.2392979 33.10781521 0.133825 16.55397912 0 0 Z " fill="#6C6C6C" transform="translate(676,3)"/>
<path d="M0 0 C0.66 0 1.32 0 2 0 C2.0934977 15.67277182 2.16400571 31.34546819 2.20724869 47.01844978 C2.22786208 54.29592342 2.25595901 61.57322363 2.30175781 68.85058594 C2.34166337 75.19455231 2.36744172 81.53839306 2.37635398 87.88248146 C2.38156254 91.24078352 2.39377825 94.59872625 2.42292023 97.95691299 C2.45192419 101.70863469 2.45595707 105.45961015 2.45410156 109.21142578 C2.47567322 110.87622734 2.47567322 110.87622734 2.49768066 112.57466125 C2.46465383 118.73933744 2.07057655 122.28233109 -2 127 C-2.515625 127.71285156 -3.03125 128.42570313 -3.5625 129.16015625 C-4.2740625 130.10181641 -4.2740625 130.10181641 -5 131.0625 C-5.474375 131.69285156 -5.94875 132.32320312 -6.4375 132.97265625 C-8.26185347 135.33975488 -10.12792681 137.67046532 -12 140 C-12.70640625 140.88300781 -13.4128125 141.76601562 -14.140625 142.67578125 C-16.09375 145.1171875 -18.046875 147.55859375 -20 150 C-20 147 -20 147 -18.625 145.1875 C-16.69671113 142.59172653 -15.91096615 140.08327005 -15 137 C-14.34 137 -13.68 137 -13 137 C-13 136.01 -13 135.02 -13 134 C-12.34 134 -11.68 134 -11 134 C-11 133.34 -11 132.68 -11 132 C-10.01 132 -9.02 132 -8 132 C-8 131.01 -8 130.02 -8 129 C-7.01 129 -6.02 129 -5 129 C-4.71125 128.4225 -4.4225 127.845 -4.125 127.25 C-3.43642085 125.87284169 -2.71701992 124.50992605 -1.94709206 123.17654037 C-0.82772577 120.60409147 -0.73896289 118.72670419 -0.7215271 115.925354 C-0.71036362 114.90174271 -0.69920013 113.87813141 -0.68769836 112.82350159 C-0.68553818 111.70644333 -0.68337799 110.58938507 -0.68115234 109.43847656 C-0.67110672 108.25771042 -0.6610611 107.07694427 -0.65071106 105.86039734 C-0.62512585 102.62725794 -0.60826654 99.39421419 -0.59528303 96.16100407 C-0.57964542 92.78036065 -0.55285722 89.39980604 -0.5272522 86.01922607 C-0.48047553 79.61972741 -0.44372608 73.22021202 -0.41057932 66.82062984 C-0.37235005 59.53404286 -0.32294201 52.2475451 -0.27259517 44.96103334 C-0.16929188 29.97408818 -0.0800263 14.98708889 0 0 Z " fill="#3A3A3A" transform="translate(668,11)"/>
<path d="M0 0 C0.99 0 1.98 0 3 0 C2.67 56.1 2.34 112.2 2 170 C1.67 170 1.34 170 1 170 C0.03416427 130.41614737 -0.08950366 90.84411195 -0.0625 51.25 C-0.06164398 49.98600121 -0.06078796 48.72200241 -0.05990601 47.41970062 C-0.04841525 31.61311992 -0.02819631 15.80655939 0 0 Z " fill="#949494" transform="translate(44,4)"/>
<path d="M0 0 C2.72755904 5.05725574 4.03759016 10.56786796 5.625 16.0625 C6.11226562 17.71475586 6.11226562 17.71475586 6.609375 19.40039062 C6.91617188 20.45548828 7.22296875 21.51058594 7.5390625 22.59765625 C7.81959473 23.56195557 8.10012695 24.52625488 8.38916016 25.51977539 C9 28 9 28 9 31 C3.39 31 -2.22 31 -8 31 C-6.43329757 20.34642345 -3.20297685 10.25223774 0 0 Z " fill="#0C0C0C" transform="translate(120,71)"/>
<path d="M0 0 C0.66 0.33 1.32 0.66 2 1 C1.67 1.33 1.34 1.66 1 2 C0.8990789 5.09361616 0.86386754 8.16493307 0.87060547 11.2590332 C0.86887864 12.23674809 0.86715181 13.21446297 0.86537266 14.22180557 C0.86099444 17.49814744 0.8639812 20.77443864 0.8671875 24.05078125 C0.86613133 26.35481279 0.8647471 28.65884421 0.86305237 30.96287537 C0.86024326 37.13791361 0.86463647 43.31292614 0.87122726 49.48796082 C0.87498177 53.29401684 0.87705836 57.10007045 0.87869263 60.90612793 C0.89358082 90.18923323 0.94473554 119.47050688 1.4375 148.75 C1.4570575 149.98166901 1.47661499 151.21333801 1.49676514 152.48233032 C1.55233801 155.83734956 1.61566844 159.19208562 1.68359375 162.546875 C1.70031631 163.49976913 1.71703888 164.45266327 1.73426819 165.43443298 C1.70358163 169.85664761 1.70358163 169.85664761 3 174 C1.68 173.67 0.36 173.34 -1 173 C-1.02332665 150.59125806 -1.04097802 128.18251812 -1.05181217 105.77376652 C-1.05697563 95.36976275 -1.06401926 84.96576651 -1.07543945 74.56176758 C-1.08538478 65.49709726 -1.09185307 56.4324324 -1.09408849 47.36775678 C-1.09539586 42.56497392 -1.09848333 37.76220666 -1.10573006 32.95942879 C-1.11248789 28.444332 -1.11461745 23.92925732 -1.11310768 19.41415596 C-1.11338412 17.7520282 -1.11539064 16.08989974 -1.11920547 14.42777634 C-1.12413904 12.16850308 -1.12299955 9.90931466 -1.12025452 7.65003967 C-1.12117631 6.38257432 -1.1220981 5.11510897 -1.12304783 3.80923557 C-1 1 -1 1 0 0 Z " fill="#555555" transform="translate(44,2)"/>
<path d="M0 0 C9.24 0 18.48 0 28 0 C28 0.33 28 0.66 28 1 C15.625 1.495 15.625 1.495 3 2 C3 22.79 3 43.58 3 65 C5.31 65.33 7.62 65.66 10 66 C12 68 12 68 12.24050903 70.44241333 C12.23606781 71.46833588 12.23162659 72.49425842 12.22705078 73.55126953 C12.22682419 75.29284836 12.22682419 75.29284836 12.22659302 77.0696106 C12.21627045 78.32796722 12.20594788 79.58632385 12.1953125 80.8828125 C12.1924826 82.16735321 12.18965271 83.45189392 12.18673706 84.77536011 C12.17909809 88.19162767 12.15944752 91.60772537 12.1373291 95.02392578 C12.11687624 98.50941673 12.10773655 101.9949351 12.09765625 105.48046875 C12.07620175 112.32038231 12.04206271 119.160183 12 126 C11.34 126 10.68 126 10 126 C10 107.19 10 88.38 10 69 C6.04 68.505 6.04 68.505 2 68 C0 66 0 66 -0.24050903 63.25387573 C-0.23606781 62.08583405 -0.23162659 60.91779236 -0.22705078 59.71435547 C-0.22734283 59.07032776 -0.22763489 58.42630005 -0.22793579 57.76275635 C-0.22654074 55.63076373 -0.21097174 53.49911918 -0.1953125 51.3671875 C-0.19158298 49.89031159 -0.18873572 48.41343322 -0.18673706 46.93655396 C-0.17909574 43.04682602 -0.15944308 39.15724712 -0.1373291 35.26757812 C-0.11688135 31.29949968 -0.10773764 27.33139718 -0.09765625 23.36328125 C-0.07619754 15.57544498 -0.04101147 7.78776235 0 0 Z " fill="#CFCFCF" transform="translate(7,3)"/>
<path d="M0 0 C0.33 0 0.66 0 1 0 C1.23411553 17.02043876 1.41019155 34.04037162 1.51812172 51.06205463 C1.56957915 58.96647943 1.63966756 66.86990102 1.75439453 74.77368164 C1.85440152 81.66668706 1.9186597 88.55896569 1.94088495 95.45267648 C1.95386811 99.0997361 1.98413728 102.74471756 2.05730057 106.39110756 C2.13852958 110.47299997 2.13987878 114.55133423 2.13525391 118.6340332 C2.18918304 120.42615738 2.18918304 120.42615738 2.24420166 122.25448608 C2.13535166 131.16882304 -0.72579353 135.05417504 -6.85241127 141.06364727 C-7.56111555 141.70264367 -8.26981983 142.34164007 -9 143 C-9 140.37886292 -8.68707555 138.49064888 -8 136 C-8.66 136 -9.32 136 -10 136 C-10 136.66 -10 137.32 -10 138 C-11.6796875 139.69140625 -11.6796875 139.69140625 -13.875 141.5625 C-14.59429688 142.18253906 -15.31359375 142.80257812 -16.0546875 143.44140625 C-18 145 -18 145 -20 146 C-18.63980176 142.78498599 -16.70696575 140.41712812 -14.43359375 137.79296875 C-12.1553657 134.94363175 -10.26476471 131.84814622 -8.33203125 128.7578125 C-7.89246094 128.17773438 -7.45289063 127.59765625 -7 127 C-6.34 127 -5.68 127 -5 127 C-5.66 129.64 -6.32 132.28 -7 135 C-3.94441923 133.98147308 -2.89546852 133.50978767 -1 131 C-0.54064427 128.51210775 -0.54064427 128.51210775 -0.60127258 125.66596985 C-0.58873444 124.55959167 -0.57619629 123.4532135 -0.5632782 122.31330872 C-0.56471329 121.0991478 -0.56614838 119.88498688 -0.56762695 118.6340332 C-0.5574353 117.35587738 -0.54724365 116.07772156 -0.53674316 114.76083374 C-0.50912523 111.25490236 -0.49988224 107.74913317 -0.49388909 104.24310708 C-0.4845178 100.57950151 -0.45831549 96.91601769 -0.43388367 93.25248718 C-0.39018055 86.31462319 -0.36165708 79.37678278 -0.33856028 72.43882293 C-0.31152897 64.54040571 -0.26761625 56.64211074 -0.22227156 48.74378073 C-0.12937073 32.49591574 -0.05771499 16.24802887 0 0 Z " fill="#A4A4A4" transform="translate(676,5)"/>
<path d="M0 0 C0.33 0 0.66 0 1 0 C1.01030746 0.82463242 1.02061493 1.64926483 1.03123474 2.49888611 C1.1290388 10.25405684 1.23152834 18.00914453 1.33933926 25.76418209 C1.39460473 29.75153216 1.44803037 33.73888952 1.49731445 37.72631836 C1.54490476 41.57131601 1.59724536 45.41622182 1.65294075 49.26111031 C1.67338857 50.73116342 1.69209756 52.20124174 1.70907402 53.67133904 C1.73306464 55.72361276 1.7631259 57.77571147 1.79467773 59.82788086 C1.81022202 60.99814316 1.8257663 62.16840546 1.84178162 63.37413025 C1.70415326 65.9252526 1.70415326 65.9252526 3 67 C4.32781878 67.20604085 5.66295895 67.3662959 7 67.5 C10.88888889 67.88888889 10.88888889 67.88888889 12 69 C12.0935919 70.71865409 12.11744611 72.44115744 12.11352539 74.16235352 C12.11344986 75.26341934 12.11337433 76.36448517 12.11329651 77.49891663 C12.10813522 78.6968132 12.10297394 79.89470978 12.09765625 81.12890625 C12.0962413 82.34827377 12.09482635 83.5676413 12.09336853 84.82395935 C12.08774967 88.7368307 12.07519396 92.64964581 12.0625 96.5625 C12.05748743 99.20768147 12.0529241 101.85286383 12.04882812 104.49804688 C12.03777411 110.99871726 12.02101764 117.49935461 12 124 C11.34 124 10.68 124 10 124 C10 106.51 10 89.02 10 71 C6.04 70.505 6.04 70.505 2 70 C0 68 0 68 -0.24050903 65.177948 C-0.23606781 63.97437653 -0.23162659 62.77080505 -0.22705078 61.53076172 C-0.22734283 60.86722687 -0.22763489 60.20369202 -0.22793579 59.52005005 C-0.22654056 57.32313028 -0.21097067 55.12654814 -0.1953125 52.9296875 C-0.19158305 51.40797104 -0.18873576 49.88625219 -0.18673706 48.36453247 C-0.17909523 44.35643908 -0.15944213 40.3484903 -0.1373291 36.3404541 C-0.11688244 32.25172888 -0.10773788 28.16298034 -0.09765625 24.07421875 C-0.07619667 16.04941276 -0.04205421 8.02472436 0 0 Z " fill="#7F7F7F" transform="translate(6,3)"/>
<path d="M0 0 C0.33 0 0.66 0 1 0 C1.06949629 7.3800015 1.12280914 14.7599325 1.15543652 22.14019489 C1.17109574 25.56713223 1.19233804 28.99384577 1.22631836 32.4206543 C1.26513514 36.35983608 1.27970716 40.29892709 1.29296875 44.23828125 C1.30845261 45.46960281 1.32393646 46.70092438 1.33988953 47.96955872 C1.34022942 49.68099312 1.34022942 49.68099312 1.34057617 51.42700195 C1.34723801 52.432939 1.35389984 53.43887604 1.36076355 54.47529602 C1 57 1 57 -0.08378601 58.84831238 C-2 60 -2 60 -9 60 C-9 73.2 -9 86.4 -9 100 C-1.74 100 5.52 100 13 100 C13 100.33 13 100.66 13 101 C9.18751574 101.02887236 5.3750593 101.04675492 1.5625 101.0625 C0.47388672 101.07087891 -0.61472656 101.07925781 -1.73632812 101.08789062 C-2.77080078 101.09111328 -3.80527344 101.09433594 -4.87109375 101.09765625 C-5.82943115 101.10289307 -6.78776855 101.10812988 -7.77514648 101.11352539 C-10 101 -10 101 -11 100 C-11.08874135 96.89748799 -11.11518455 93.8173188 -11.09765625 90.71484375 C-11.0962413 89.78402481 -11.09482635 88.85320587 -11.09336853 87.8941803 C-11.08775172 84.90858809 -11.0751964 81.92306971 -11.0625 78.9375 C-11.05748716 76.91862087 -11.05292388 74.89974057 -11.04882812 72.88085938 C-11.03777683 67.92054428 -11.02050095 62.96028468 -11 58 C-6.9402698 56.48940272 -4.45389333 56 0 56 C0 37.52 0 19.04 0 0 Z " fill="#E0E0E0" transform="translate(19,73)"/>
<path d="M0 0 C0.33 0.66 0.66 1.32 1 2 C-1.97 2.66 -4.94 3.32 -8 4 C-7.67 17.86 -7.34 31.72 -7 46 C5.87 46.495 5.87 46.495 19 47 C19 47.66 19 48.32 19 49 C15.03069011 49.02465881 11.06140966 49.04284023 7.09204102 49.05493164 C5.74079614 49.05997057 4.38955674 49.06680177 3.03833008 49.07543945 C1.09979566 49.08752419 -0.838778 49.09269828 -2.77734375 49.09765625 C-4.52905884 49.10551147 -4.52905884 49.10551147 -6.31616211 49.11352539 C-9 49 -9 49 -10 48 C-10.10828502 46.63490751 -10.14899634 45.26434632 -10.16113281 43.89501953 C-10.17074036 43.02386505 -10.1803479 42.15271057 -10.19024658 41.25515747 C-10.19449646 40.30728363 -10.19874634 39.35940979 -10.203125 38.3828125 C-10.21167511 36.93066849 -10.21167511 36.93066849 -10.22039795 35.44918823 C-10.22986383 33.39631244 -10.2363882 31.34342135 -10.24023438 29.29052734 C-10.24993756 26.14523865 -10.28094511 23.00060382 -10.3125 19.85546875 C-10.31902991 17.86458723 -10.32428043 15.87370102 -10.328125 13.8828125 C-10.3466452 12.46707443 -10.3466452 12.46707443 -10.36553955 11.0227356 C-10.3610379 9.70654739 -10.3610379 9.70654739 -10.35644531 8.36376953 C-10.36009094 7.5917923 -10.36373657 6.81981506 -10.36749268 6.02444458 C-9.89526435 3.42303197 -9.10553072 2.56570024 -7 1 C-3.3125 0.3125 -3.3125 0.3125 0 0 Z " fill="#9C9C9C" transform="translate(16,127)"/>
<path d="M0 0 C1.65 0 3.3 0 5 0 C4.67 0.99 4.34 1.98 4 3 C3.34 3 2.68 3 2 3 C1.67 36 1.34 69 1 103 C0.67 103 0.34 103 0 103 C0 69.01 0 35.02 0 0 Z " fill="#EBEBEB" transform="translate(47,6)"/>
<path d="M0 0 C9.24 0 18.48 0 28 0 C28 0.33 28 0.66 28 1 C27.2479126 1.02505615 26.4958252 1.0501123 25.72094727 1.07592773 C22.33460804 1.19150514 18.94857387 1.31440345 15.5625 1.4375 C13.78649414 1.49647461 13.78649414 1.49647461 11.97460938 1.55664062 C10.84990234 1.59853516 9.72519531 1.64042969 8.56640625 1.68359375 C7.52427979 1.72025146 6.48215332 1.75690918 5.40844727 1.79467773 C3.0500174 1.73515341 3.0500174 1.73515341 2 3 C1.87636703 4.96287766 1.8220456 6.93015158 1.79467773 8.89672852 C1.77473251 10.15796036 1.75478729 11.4191922 1.73423767 12.71864319 C1.71725205 14.10539627 1.70037329 15.49215066 1.68359375 16.87890625 C1.66303074 18.2899589 1.64203445 19.70100529 1.62062073 21.11204529 C1.56533245 24.8323359 1.51595314 28.55268273 1.46777344 32.27307129 C1.41760758 36.06686425 1.36189592 39.86057523 1.30664062 43.65429688 C1.19897649 51.10279523 1.09755003 58.55136159 1 66 C0.67 66 0.34 66 0 66 C0 44.22 0 22.44 0 0 Z " fill="#B5B5B5" transform="translate(7,3)"/>
<path d="M0 0 C0 4.0143368 -1.3944849 4.81730508 -4.125 7.6875 C-9.37720582 13.35889596 -13.84408165 19.17978289 -18 25.6875 C-20.58656457 29.63863013 -23.28904362 32.11370059 -27 35 C-28.00573778 36.32901064 -29.00795408 37.66073801 -30 39 C-30.66 39 -31.32 39 -32 39 C-32 37 -32 37 -29.78125 34.71484375 C-28.8634375 33.81894531 -27.945625 32.92304688 -27 32 C-25.47620747 30.20745639 -23.97604406 28.39456173 -22.5 26.5625 C-20.05244161 23.53257746 -17.60161569 20.51601143 -15.0625 17.5625 C-12.98801208 15.19113251 -12.98801208 15.19113251 -12 12.875 C-10.57228078 10.19802647 -8.36927174 8.88464798 -6 7 C-3.91860662 4.73250556 -1.94772308 2.3827815 0 0 Z " fill="#676767" transform="translate(676,137)"/>
<path d="M0 0 C0.66 0 1.32 0 2 0 C2.67184618 2.10251861 3.33730968 4.20707763 4 6.3125 C4.37125 7.48425781 4.7425 8.65601562 5.125 9.86328125 C6 13 6 13 6 16 C0.39 16 -5.22 16 -11 16 C-11 15.01 -11 14.02 -11 13 C-10.34 13 -9.68 13 -9 13 C-8.67 12.34 -8.34 11.68 -8 11 C-8 11.66 -8 12.32 -8 13 C-4.37 13 -0.74 13 3 13 C2.2575 10.89625 2.2575 10.89625 1.5 8.75 C0.34407525 5.47487986 0 3.58063513 0 0 Z " fill="#2F2F2F" transform="translate(123,86)"/>
<path d="M0 0 C0.66 0 1.32 0 2 0 C0.68462703 3.69867251 -0.91479265 6.44891315 -3.375 9.5 C-3.96023438 10.2321875 -4.54546875 10.964375 -5.1484375 11.71875 C-5.75945313 12.4715625 -6.37046875 13.224375 -7 14 C-8.33398136 15.66614804 -9.66728946 17.33283529 -11 19 C-13.66666667 22.33333333 -16.33333333 25.66666667 -19 29 C-19 26 -19 26 -17.625 24.1875 C-15.69671113 21.59172653 -14.91096615 19.08327005 -14 16 C-13.34 16 -12.68 16 -12 16 C-12 15.01 -12 14.02 -12 13 C-11.34 13 -10.68 13 -10 13 C-10 12.34 -10 11.68 -10 11 C-9.01 11 -8.02 11 -7 11 C-7 10.01 -7 9.02 -7 8 C-6.01 8 -5.02 8 -4 8 C-3.566875 7.13375 -3.566875 7.13375 -3.125 6.25 C-2.08333333 4.16666667 -1.04166667 2.08333333 0 0 Z " fill="#3E3E3E" transform="translate(667,132)"/>
<path d="M0 0 C0.66 0 1.32 0 2 0 C1.43697042 3.94120709 0.3208055 6.7508723 -2 10 C-2.66 10 -3.32 10 -4 10 C-4.2475 10.639375 -4.495 11.27875 -4.75 11.9375 C-6 14 -6 14 -8.125 14.75 C-9.053125 14.87375 -9.053125 14.87375 -10 15 C-10.35142196 11.76351714 -10.30933949 10.41221285 -8.3203125 7.76171875 C-7.23363281 6.73498047 -7.23363281 6.73498047 -6.125 5.6875 C-5.40570312 4.99011719 -4.68640625 4.29273438 -3.9453125 3.57421875 C-2 2 -2 2 0 2 C0 1.34 0 0.68 0 0 Z " fill="#D0D0D0" transform="translate(666,141)"/>
<path d="M0 0 C0.66 0.33 1.32 0.66 2 1 C1.34 1.66 0.68 2.32 0 3 C-0.29827534 4.99118014 -0.29827534 4.99118014 -0.24291992 7.29443359 C-0.24599655 8.1823056 -0.24907318 9.07017761 -0.25224304 9.98495483 C-0.24505753 10.94640411 -0.23787201 11.90785339 -0.23046875 12.8984375 C-0.23001053 13.88494293 -0.22955231 14.87144836 -0.2290802 15.8878479 C-0.22605527 17.97765299 -0.21816182 20.06745578 -0.20581055 22.15722656 C-0.18761438 25.35489913 -0.18530044 28.55228119 -0.18554688 31.75 C-0.18062934 33.77864834 -0.1748 35.80729471 -0.16796875 37.8359375 C-0.16685593 38.79333832 -0.1657431 39.75073914 -0.16459656 40.7371521 C-0.15821671 41.63132843 -0.15183685 42.52550476 -0.14526367 43.44677734 C-0.14145187 44.23128265 -0.13764008 45.01578796 -0.13371277 45.82406616 C-0.00014307 47.99767171 0.40202606 49.91050179 1 52 C0.01 52 -0.98 52 -2 52 C-2.05058526 44.91588378 -2.08568494 37.83181388 -2.10986328 30.74755859 C-2.11993954 28.33608256 -2.13360081 25.92461878 -2.15087891 23.51318359 C-2.1750559 20.05302915 -2.18646669 16.5930358 -2.1953125 13.1328125 C-2.20563507 12.04944611 -2.21595764 10.96607971 -2.22659302 9.84988403 C-2.22674408 8.8489975 -2.22689514 7.84811096 -2.22705078 6.81689453 C-2.231492 5.93309113 -2.23593323 5.04928772 -2.24050903 4.13870239 C-2 2 -2 2 0 0 Z " fill="#191919" transform="translate(5,126)"/>
<path d="M0 0 C0.33 0 0.66 0 1 0 C1 16.17 1 32.34 1 49 C0.67 49 0.34 49 0 49 C-0.02505615 47.77893555 -0.0501123 46.55787109 -0.07592773 45.29980469 C-0.17013579 40.76730955 -0.27032384 36.23496286 -0.37231445 31.70263672 C-0.4156126 29.74140904 -0.45729131 27.7801449 -0.49731445 25.81884766 C-0.55514099 22.99891172 -0.61879984 20.17915839 -0.68359375 17.359375 C-0.70030624 16.48319519 -0.71701874 15.60701538 -0.73423767 14.70428467 C-0.75418289 13.88373596 -0.77412811 13.06318726 -0.79467773 12.21777344 C-0.81022202 11.49829529 -0.8257663 10.77881714 -0.84178162 10.03753662 C-0.93983927 7.96358147 -0.93983927 7.96358147 -1.57142639 5.87701416 C-2.15161367 3.33598105 -1.31784111 2.17056183 0 0 Z " fill="#040404" transform="translate(311,75)"/>
<path d="M0 0 C0.33 0 0.66 0 1 0 C1 14.19 1 28.38 1 43 C0.67 43 0.34 43 0 43 C0 30.46 0 17.92 0 5 C-0.99 4.67 -1.98 4.34 -3 4 C-2.67 3.34 -2.34 2.68 -2 2 C-1.34 2 -0.68 2 0 2 C0 1.34 0 0.68 0 0 Z " fill="#191919" transform="translate(310,81)"/>
<path d="M0 0 C0.66 0 1.32 0 2 0 C1.26951699 4.68803656 -0.36636885 8.90885555 -2.0625 13.3125 C-2.34416016 14.05306641 -2.62582031 14.79363281 -2.91601562 15.55664062 C-3.60718575 17.37242655 -4.30311689 19.18639899 -5 21 C-5.66 20.01 -6.32 19.02 -7 18 C-6.58447266 16.00708008 -6.58447266 16.00708008 -5.6640625 13.76953125 C-5.34179688 12.96708984 -5.01953125 12.16464844 -4.6875 11.33789062 C-4.336875 10.50451172 -3.98625 9.67113281 -3.625 8.8125 C-3.28210938 7.96751953 -2.93921875 7.12253906 -2.5859375 6.25195312 C-1.73605309 4.16265395 -0.87377064 2.07939697 0 0 Z " fill="#151515" transform="translate(217,101)"/>
<path d="M0 0 C0.33 0.99 0.66 1.98 1 3 C-0.328125 4.8671875 -0.328125 4.8671875 -2.25 6.875 C-4.42628777 9.21504804 -6.08622166 11.15008956 -7.6875 13.9375 C-9 16 -9 16 -11.08203125 16.62890625 C-11.71496094 16.75136719 -12.34789062 16.87382812 -13 17 C-8.74093983 11.27445024 -4.39719064 5.62007798 0 0 Z " fill="#9D9D9D" transform="translate(655,151)"/>
<path d="M0 0 C0.66 0 1.32 0 2 0 C0.66871335 3.74217391 -0.97931791 6.57380269 -3.4375 9.6875 C-4.03433594 10.45449219 -4.63117187 11.22148437 -5.24609375 12.01171875 C-7 14 -7 14 -10 16 C-9.690625 15.4225 -9.38125 14.845 -9.0625 14.25 C-8.07416636 12.15705816 -7.4831387 10.25464725 -7 8 C-6.01 8 -5.02 8 -4 8 C-3.71125 7.4225 -3.4225 6.845 -3.125 6.25 C-1.5625 3.125 -1.5625 3.125 0 0 Z " fill="#494949" transform="translate(667,132)"/>
<path d="M0 0 C9.24 0 18.48 0 28 0 C28 0.33 28 0.66 28 1 C27.25838623 1.02505615 26.51677246 1.0501123 25.75268555 1.07592773 C22.39744672 1.19186132 19.04249056 1.31459985 15.6875 1.4375 C13.93663086 1.49647461 13.93663086 1.49647461 12.15039062 1.55664062 C11.03212891 1.59853516 9.91386719 1.64042969 8.76171875 1.68359375 C7.2142395 1.73858032 7.2142395 1.73858032 5.63549805 1.79467773 C2.89251742 1.90161242 2.89251742 1.90161242 0 3 C0 2.01 0 1.02 0 0 Z " fill="#A5A5A5" transform="translate(7,3)"/>
<path d="M0 0 C0.66 0 1.32 0 2 0 C2.37254569 3.35291118 2.31050198 4.6038423 0.1875 7.3125 C-2 9 -2 9 -5 9 C-3.50079488 5.88626628 -1.91847864 2.87771795 0 0 Z " fill="#DFDFDF" transform="translate(650,160)"/>
<path d="M0 0 C0.66 0 1.32 0 2 0 C1.125 4.75 1.125 4.75 0 7 C-0.99 7 -1.98 7 -3 7 C-3 7.66 -3 8.32 -3 9 C-3.66 9 -4.32 9 -5 9 C-4.75 6.625 -4.75 6.625 -4 4 C-1.9375 2.6875 -1.9375 2.6875 0 2 C0 1.34 0 0.68 0 0 Z " fill="#DDDDDD" transform="translate(666,141)"/>
<path d="M0 0 C0.33 0.99 0.66 1.98 1 3 C1.66 3 2.32 3 3 3 C2.64950425 6.24208567 2.43778819 7.61527704 -0.0625 9.8125 C-0.701875 10.204375 -1.34125 10.59625 -2 11 C-1.34 8.69 -0.68 6.38 0 4 C-0.66 4 -1.32 4 -2 4 C-2 4.66 -2 5.32 -2 6 C-2.66 5.67 -3.32 5.34 -4 5 C-2.68 3.35 -1.36 1.7 0 0 Z " fill="#B9B9B9" transform="translate(668,137)"/>
<path d="M0 0 C6.93 0.33 13.86 0.66 21 1 C20.67 1.66 20.34 2.32 20 3 C14.06 2.67 8.12 2.34 2 2 C2 2.99 2 3.98 2 5 C1.01 5 0.02 5 -1 5 C-0.67 3.35 -0.34 1.7 0 0 Z " fill="#1E1E1E" transform="translate(109,110)"/>
<path d="M0 0 C0 3.54404336 -0.60989485 4.10267905 -2.875 6.6875 C-3.40867187 7.31011719 -3.94234375 7.93273437 -4.4921875 8.57421875 C-6 10 -6 10 -8 10 C-7.67 8.68 -7.34 7.36 -7 6 C-7.99 6 -8.98 6 -10 6 C-10 5.34 -10 4.68 -10 4 C-9.01 3.67 -8.02 3.34 -7 3 C-7 3.66 -7 4.32 -7 5 C-4.37098712 3.47793991 -2.15634036 2.15634036 0 0 Z " fill="#B9B9B9" transform="translate(652,164)"/>
<path d="M0 0 C1.50560497 2.85410334 2.63216796 5.68124642 3.625 8.75 C3.88539063 9.54921875 4.14578125 10.3484375 4.4140625 11.171875 C4.60742188 11.77515625 4.80078125 12.3784375 5 13 C4.34 13.66 3.68 14.32 3 15 C0.74315457 9.63999211 -0.36263859 5.8022175 0 0 Z " fill="#262626" transform="translate(280,86)"/>
<path d="M0 0 C1 3 1 3 -0.25 5.6875 C-0.8275 6.450625 -1.405 7.21375 -2 8 C-2.99 8 -3.98 8 -5 8 C-5 6.68 -5 5.36 -5 4 C-4.01 4 -3.02 4 -2 4 C-2 3.01 -2 2.02 -2 1 C-1.34 0.67 -0.68 0.34 0 0 Z " fill="#E4E4E4" transform="translate(674,132)"/>
<path d="M0 0 C0.33 0.66 0.66 1.32 1 2 C0.00390625 3.9453125 0.00390625 3.9453125 -1.4375 6.125 C-1.91058594 6.84945312 -2.38367188 7.57390625 -2.87109375 8.3203125 C-3.24363281 8.87460938 -3.61617187 9.42890625 -4 10 C-4.99 9.67 -5.98 9.34 -7 9 C-4.69 6.03 -2.38 3.06 0 0 Z " fill="#282828" transform="translate(669,147)"/>
<path d="M0 0 C2 4 2 4 1.125 7.75 C0.75375 8.8225 0.3825 9.895 0 11 C-0.99 11 -1.98 11 -3 11 C-2.01 7.37 -1.02 3.74 0 0 Z " fill="#1F1F1F" transform="translate(120,71)"/>
<path d="M0 0 C0.33 0 0.66 0 1 0 C1.40652968 5.42039575 0.03993514 9.07015675 -2 14 C-2.33 14 -2.66 14 -3 14 C-2.88512252 12.41590006 -2.75765492 10.83271037 -2.625 9.25 C-2.55539063 8.36828125 -2.48578125 7.4865625 -2.4140625 6.578125 C-2.00149945 4.00933618 -1.28839043 2.24158985 0 0 Z " fill="#1F1F1F" transform="translate(220,61)"/>
<path d="M0 0 C0.75 1.75 0.75 1.75 1 4 C-0.75 6.25 -0.75 6.25 -3 8 C-3.99 8 -4.98 8 -6 8 C-6 6 -6 6 -3.5625 3.4375 C-2.716875 2.633125 -1.87125 1.82875 -1 1 C-0.67 0.67 -0.34 0.34 0 0 Z " fill="#292929" transform="translate(650,170)"/>
<path d="M0 0 C4.455 0.99 4.455 0.99 9 2 C9 2.66 9 3.32 9 4 C6.36 4 3.72 4 1 4 C0.67 2.68 0.34 1.36 0 0 Z " fill="#2F2F2F" transform="translate(5,71)"/>
<path d="M0 0 C1.39195915 4.17587745 -0.17676781 6.13474776 -2 10 C-2.66 10 -3.32 10 -4 10 C-3.34 7.36 -2.68 4.72 -2 2 C-1.34 2 -0.68 2 0 2 C0 1.34 0 0.68 0 0 Z " fill="#1C1C1C" transform="translate(118,83)"/>
<path d="M0 0 C0.33 0.66 0.66 1.32 1 2 C-2.3 2.66 -5.6 3.32 -9 4 C-9 3.34 -9 2.68 -9 2 C-6.03 1.34 -3.06 0.68 0 0 Z " fill="#919191" transform="translate(16,127)"/>
<path d="M0 0 C2 3 2 3 1.7578125 5.04296875 C1.171875 7.02864583 0.5859375 9.01432292 0 11 C-0.66 10.67 -1.32 10.34 -2 10 C-1.34 6.7 -0.68 3.4 0 0 Z " fill="#1C1C1C" transform="translate(104,84)"/>
<path d="M0 0 C0 3 0 3 -2.5 5.6875 C-3.325 6.450625 -4.15 7.21375 -5 8 C-4.64950425 4.75791433 -4.43778819 3.38472296 -1.9375 1.1875 C-1.298125 0.795625 -0.65875 0.40375 0 0 Z " fill="#494949" transform="translate(658,160)"/>
<path d="M0 0 C-0.33 1.65 -0.66 3.3 -1 5 C-1.99 5 -2.98 5 -4 5 C-4 3.68 -4 2.36 -4 1 C-2 0 -2 0 0 0 Z " fill="#DEDEDE" transform="translate(660,151)"/>
</svg>
