<?xml version="1.0" standalone="no"?>
<!DOCTYPE svg PUBLIC "-//W3C//DTD SVG 20010904//EN"
 "http://www.w3.org/TR/2001/REC-SVG-20010904/DTD/svg10.dtd">
<svg version="1.0" xmlns="http://www.w3.org/2000/svg"
 width="1024.000000pt" height="1024.000000pt" viewBox="0 0 1024.000000 1024.000000"
 preserveAspectRatio="xMidYMid meet">

<g transform="translate(0.000000,1024.000000) scale(0.100000,-0.100000)"
fill="#000000" stroke="none">
<path d="M2940 5035 l0 -1995 135 0 135 0 0 795 0 796 21 -11 c24 -14 133 -18
172 -7 l27 7 0 -789 0 -789 123 -4 c67 -3 124 -3 127 -1 2 2 4 236 2 520 l-2
515 117 -110 c65 -61 299 -293 520 -516 l402 -406 533 2 533 3 -990 993 c-544
546 -992 997 -994 1003 -2 6 61 72 140 147 79 75 245 237 369 361 124 125 328
327 454 451 126 124 240 241 255 260 77 103 502 550 675 710 l60 55 -523 3
-523 2 -112 -107 c-62 -60 -289 -280 -506 -490 -216 -211 -395 -381 -397 -379
-3 3 -8 336 -12 854 l-1 122 -95 0 -95 0 0 -285 0 -285 -30 0 -30 0 0 -505 0
-505 -27 7 c-37 10 -120 10 -160 0 l-33 -9 -2 509 -3 508 -32 3 -33 3 0 280 0
279 -100 0 -100 0 0 -1995z m485 196 c78 -35 135 -123 135 -206 0 -40 -30
-103 -66 -139 -65 -65 -153 -82 -234 -45 -55 25 -86 53 -110 99 -43 87 -32
164 34 237 65 70 159 92 241 54z"/>
<path d="M3230 6935 l0 -95 90 0 90 0 0 95 0 95 -90 0 -90 0 0 -95z"/>
<path d="M6950 6189 l0 -840 316 -312 c174 -172 322 -316 330 -320 12 -7 14
165 14 1153 l0 1160 -330 0 -330 0 0 -841z m424 671 c73 -65 83 -149 24 -216
-54 -62 -146 -69 -208 -17 -62 52 -75 114 -40 184 28 54 72 79 137 79 44 0 58
-5 87 -30z"/>
<path d="M5703 6708 l-123 -123 0 -1543 c0 -1319 2 -1547 14 -1570 17 -32 223
-238 231 -231 3 3 4 812 3 1798 l-3 1791 -122 -122z"/>
<path d="M3234 6747 c-3 -8 -4 -52 -2 -98 l3 -84 88 -3 87 -3 0 101 0 100 -85
0 c-62 0 -87 -4 -91 -13z"/>
<path d="M5257 6282 l-117 -117 0 -1125 1 -1125 90 -98 c73 -77 97 -97 118
-97 l28 0 7 92 c9 129 8 2588 -2 2588 -4 0 -60 -53 -125 -118z"/>
<path d="M6030 5870 l0 -225 787 -781 788 -781 3 236 2 236 -207 205 c-212
210 -431 421 -608 589 -55 52 -231 223 -390 380 -160 157 -309 304 -333 326
l-42 39 0 -224z"/>
<path d="M6030 4982 l0 -379 518 -509 c581 -572 666 -654 675 -654 4 0 7 168
7 373 l0 373 -576 569 c-316 312 -586 577 -600 587 l-24 19 0 -379z"/>
<path d="M7330 3709 l0 -394 133 -133 c73 -72 136 -132 140 -132 4 0 7 177 7
393 l0 392 -97 95 c-54 53 -117 113 -140 135 l-43 39 0 -395z"/>
</g>
</svg>
